<?xml version="1.0" encoding="utf-8"?>
<svg xmlns="http://www.w3.org/2000/svg" xmlns:xlink="http://www.w3.org/1999/xlink" width="600" height="400" viewBox="0 0 2400 1600">
<defs>
  <clipPath id="clip290">
    <rect x="0" y="0" width="2400" height="1600"/>
  </clipPath>
</defs>
<path clip-path="url(#clip290)" d="
M0 1600 L2400 1600 L2400 0 L0 0  Z
  " fill="#ffffff" fill-rule="evenodd" fill-opacity="1"/>
<defs>
  <clipPath id="clip291">
    <rect x="480" y="0" width="1681" height="1600"/>
  </clipPath>
</defs>
<path clip-path="url(#clip290)" d="
M219.712 1354.96 L2337.01 1354.96 L2337.01 139.22 L219.712 139.22  Z
  " fill="#ffffff" fill-rule="evenodd" fill-opacity="1"/>
<defs>
  <clipPath id="clip292">
    <rect x="219" y="139" width="2118" height="1217"/>
  </clipPath>
</defs>
<polyline clip-path="url(#clip292)" style="stroke:#000000; stroke-linecap:butt; stroke-linejoin:round; stroke-width:2; stroke-opacity:0.1; fill:none" points="
  382.589,1354.96 382.589,139.22 
  "/>
<polyline clip-path="url(#clip292)" style="stroke:#000000; stroke-linecap:butt; stroke-linejoin:round; stroke-width:2; stroke-opacity:0.1; fill:none" points="
  502.025,1354.96 502.025,139.22 
  "/>
<polyline clip-path="url(#clip292)" style="stroke:#000000; stroke-linecap:butt; stroke-linejoin:round; stroke-width:2; stroke-opacity:0.1; fill:none" points="
  621.461,1354.96 621.461,139.22 
  "/>
<polyline clip-path="url(#clip292)" style="stroke:#000000; stroke-linecap:butt; stroke-linejoin:round; stroke-width:2; stroke-opacity:0.1; fill:none" points="
  740.897,1354.96 740.897,139.22 
  "/>
<polyline clip-path="url(#clip292)" style="stroke:#000000; stroke-linecap:butt; stroke-linejoin:round; stroke-width:2; stroke-opacity:0.1; fill:none" points="
  860.333,1354.96 860.333,139.22 
  "/>
<polyline clip-path="url(#clip292)" style="stroke:#000000; stroke-linecap:butt; stroke-linejoin:round; stroke-width:2; stroke-opacity:0.1; fill:none" points="
  979.769,1354.96 979.769,139.22 
  "/>
<polyline clip-path="url(#clip292)" style="stroke:#000000; stroke-linecap:butt; stroke-linejoin:round; stroke-width:2; stroke-opacity:0.1; fill:none" points="
  1099.21,1354.96 1099.21,139.22 
  "/>
<polyline clip-path="url(#clip292)" style="stroke:#000000; stroke-linecap:butt; stroke-linejoin:round; stroke-width:2; stroke-opacity:0.1; fill:none" points="
  1218.64,1354.96 1218.64,139.22 
  "/>
<polyline clip-path="url(#clip292)" style="stroke:#000000; stroke-linecap:butt; stroke-linejoin:round; stroke-width:2; stroke-opacity:0.1; fill:none" points="
  1338.08,1354.96 1338.08,139.22 
  "/>
<polyline clip-path="url(#clip292)" style="stroke:#000000; stroke-linecap:butt; stroke-linejoin:round; stroke-width:2; stroke-opacity:0.1; fill:none" points="
  1457.51,1354.96 1457.51,139.22 
  "/>
<polyline clip-path="url(#clip292)" style="stroke:#000000; stroke-linecap:butt; stroke-linejoin:round; stroke-width:2; stroke-opacity:0.1; fill:none" points="
  1576.95,1354.96 1576.95,139.22 
  "/>
<polyline clip-path="url(#clip292)" style="stroke:#000000; stroke-linecap:butt; stroke-linejoin:round; stroke-width:2; stroke-opacity:0.1; fill:none" points="
  1696.39,1354.96 1696.39,139.22 
  "/>
<polyline clip-path="url(#clip292)" style="stroke:#000000; stroke-linecap:butt; stroke-linejoin:round; stroke-width:2; stroke-opacity:0.1; fill:none" points="
  1815.82,1354.96 1815.82,139.22 
  "/>
<polyline clip-path="url(#clip292)" style="stroke:#000000; stroke-linecap:butt; stroke-linejoin:round; stroke-width:2; stroke-opacity:0.1; fill:none" points="
  1935.26,1354.96 1935.26,139.22 
  "/>
<polyline clip-path="url(#clip292)" style="stroke:#000000; stroke-linecap:butt; stroke-linejoin:round; stroke-width:2; stroke-opacity:0.1; fill:none" points="
  2054.69,1354.96 2054.69,139.22 
  "/>
<polyline clip-path="url(#clip292)" style="stroke:#000000; stroke-linecap:butt; stroke-linejoin:round; stroke-width:2; stroke-opacity:0.1; fill:none" points="
  2174.13,1354.96 2174.13,139.22 
  "/>
<polyline clip-path="url(#clip290)" style="stroke:#000000; stroke-linecap:butt; stroke-linejoin:round; stroke-width:4; stroke-opacity:1; fill:none" points="
  219.712,1354.96 2337.01,1354.96 
  "/>
<polyline clip-path="url(#clip290)" style="stroke:#000000; stroke-linecap:butt; stroke-linejoin:round; stroke-width:4; stroke-opacity:1; fill:none" points="
  382.589,1354.96 382.589,1336.06 
  "/>
<polyline clip-path="url(#clip290)" style="stroke:#000000; stroke-linecap:butt; stroke-linejoin:round; stroke-width:4; stroke-opacity:1; fill:none" points="
  502.025,1354.96 502.025,1336.06 
  "/>
<polyline clip-path="url(#clip290)" style="stroke:#000000; stroke-linecap:butt; stroke-linejoin:round; stroke-width:4; stroke-opacity:1; fill:none" points="
  621.461,1354.96 621.461,1336.06 
  "/>
<polyline clip-path="url(#clip290)" style="stroke:#000000; stroke-linecap:butt; stroke-linejoin:round; stroke-width:4; stroke-opacity:1; fill:none" points="
  740.897,1354.96 740.897,1336.06 
  "/>
<polyline clip-path="url(#clip290)" style="stroke:#000000; stroke-linecap:butt; stroke-linejoin:round; stroke-width:4; stroke-opacity:1; fill:none" points="
  860.333,1354.96 860.333,1336.06 
  "/>
<polyline clip-path="url(#clip290)" style="stroke:#000000; stroke-linecap:butt; stroke-linejoin:round; stroke-width:4; stroke-opacity:1; fill:none" points="
  979.769,1354.96 979.769,1336.06 
  "/>
<polyline clip-path="url(#clip290)" style="stroke:#000000; stroke-linecap:butt; stroke-linejoin:round; stroke-width:4; stroke-opacity:1; fill:none" points="
  1099.21,1354.96 1099.21,1336.06 
  "/>
<polyline clip-path="url(#clip290)" style="stroke:#000000; stroke-linecap:butt; stroke-linejoin:round; stroke-width:4; stroke-opacity:1; fill:none" points="
  1218.64,1354.96 1218.64,1336.06 
  "/>
<polyline clip-path="url(#clip290)" style="stroke:#000000; stroke-linecap:butt; stroke-linejoin:round; stroke-width:4; stroke-opacity:1; fill:none" points="
  1338.08,1354.96 1338.08,1336.06 
  "/>
<polyline clip-path="url(#clip290)" style="stroke:#000000; stroke-linecap:butt; stroke-linejoin:round; stroke-width:4; stroke-opacity:1; fill:none" points="
  1457.51,1354.96 1457.51,1336.06 
  "/>
<polyline clip-path="url(#clip290)" style="stroke:#000000; stroke-linecap:butt; stroke-linejoin:round; stroke-width:4; stroke-opacity:1; fill:none" points="
  1576.95,1354.96 1576.95,1336.06 
  "/>
<polyline clip-path="url(#clip290)" style="stroke:#000000; stroke-linecap:butt; stroke-linejoin:round; stroke-width:4; stroke-opacity:1; fill:none" points="
  1696.39,1354.96 1696.39,1336.06 
  "/>
<polyline clip-path="url(#clip290)" style="stroke:#000000; stroke-linecap:butt; stroke-linejoin:round; stroke-width:4; stroke-opacity:1; fill:none" points="
  1815.82,1354.96 1815.82,1336.06 
  "/>
<polyline clip-path="url(#clip290)" style="stroke:#000000; stroke-linecap:butt; stroke-linejoin:round; stroke-width:4; stroke-opacity:1; fill:none" points="
  1935.26,1354.96 1935.26,1336.06 
  "/>
<polyline clip-path="url(#clip290)" style="stroke:#000000; stroke-linecap:butt; stroke-linejoin:round; stroke-width:4; stroke-opacity:1; fill:none" points="
  2054.69,1354.96 2054.69,1336.06 
  "/>
<polyline clip-path="url(#clip290)" style="stroke:#000000; stroke-linecap:butt; stroke-linejoin:round; stroke-width:4; stroke-opacity:1; fill:none" points="
  2174.13,1354.96 2174.13,1336.06 
  "/>
<path clip-path="url(#clip290)" d="M330.334 1424.66 Q327.78 1427.22 329.008 1431.03 Q330.236 1434.81 335.277 1439.85 Q340.302 1444.88 344.099 1446.12 Q347.897 1447.33 350.45 1444.78 Q353.02 1442.21 351.792 1438.43 Q350.565 1434.61 345.54 1429.59 Q340.498 1424.55 336.701 1423.34 Q332.904 1422.09 330.334 1424.66 M327.715 1422.04 Q331.823 1417.93 337.241 1419.03 Q342.659 1420.1 348.846 1426.28 Q355.017 1432.45 356.097 1437.89 Q357.177 1443.29 353.069 1447.4 Q348.961 1451.51 343.543 1450.44 Q338.125 1449.35 331.954 1443.17 Q325.767 1436.99 324.687 1431.59 Q323.606 1426.15 327.715 1422.04 Z" fill="#000000" fill-rule="evenodd" fill-opacity="1" /><path clip-path="url(#clip290)" d="M354.379 1424.09 L363.201 1415.27 L365.885 1417.95 L357.063 1426.77 L354.379 1424.09 Z" fill="#000000" fill-rule="evenodd" fill-opacity="1" /><path clip-path="url(#clip290)" d="M366.475 1389.93 L371.172 1411.32 L379.52 1402.97 L366.475 1389.93 M362.726 1387.92 L366.884 1383.76 L382.81 1399.68 L386.296 1396.2 L389.046 1398.95 L385.56 1402.43 L391.321 1408.2 L388.031 1411.49 L382.27 1405.72 L371.238 1416.76 L368.046 1413.56 L362.726 1387.92 Z" fill="#000000" fill-rule="evenodd" fill-opacity="1" /><path clip-path="url(#clip290)" d="M441.029 1429.05 L454.009 1416.07 L456.792 1418.85 L446.84 1428.8 L452.831 1434.79 Q453.305 1433.83 453.911 1432.99 Q454.5 1432.14 455.22 1431.42 Q459.312 1427.33 463.945 1427.18 Q468.577 1427.04 472.407 1430.87 Q476.352 1434.81 476.09 1439.46 Q475.812 1444.09 471.343 1448.56 Q469.804 1450.1 467.938 1451.44 Q466.089 1452.77 463.863 1453.94 L460.54 1450.62 Q462.815 1449.95 464.779 1448.77 Q466.744 1447.59 468.495 1445.84 Q471.327 1443.01 471.49 1439.87 Q471.654 1436.73 469.101 1434.17 Q466.547 1431.62 463.405 1431.78 Q460.262 1431.95 457.43 1434.78 Q456.104 1436.1 455.073 1437.72 Q454.058 1439.33 453.305 1441.32 L441.029 1429.05 Z" fill="#000000" fill-rule="evenodd" fill-opacity="1" /><path clip-path="url(#clip290)" d="M474.289 1423.61 L483.112 1414.79 L485.796 1417.48 L476.974 1426.3 L474.289 1423.61 Z" fill="#000000" fill-rule="evenodd" fill-opacity="1" /><path clip-path="url(#clip290)" d="M498.449 1419.49 L495.437 1416.48 Q497.27 1415.82 498.858 1414.86 Q500.446 1413.89 501.673 1412.66 Q504.947 1409.39 504.472 1405.48 Q503.997 1401.53 499.758 1396.8 Q500.216 1399.16 499.513 1401.37 Q498.809 1403.58 497.041 1405.35 Q493.375 1409.01 489.021 1408.95 Q484.667 1408.85 480.82 1405 Q477.056 1401.24 477.006 1396.74 Q476.957 1392.24 480.657 1388.54 Q484.896 1384.3 490.379 1385.33 Q495.863 1386.33 502.05 1392.52 Q507.828 1398.29 508.531 1404.5 Q509.235 1410.67 504.603 1415.3 Q503.359 1416.54 501.837 1417.57 Q500.315 1418.61 498.449 1419.49 M494.668 1402.55 Q496.894 1400.32 496.665 1397.51 Q496.452 1394.68 493.8 1392.02 Q491.165 1389.39 488.333 1389.18 Q485.501 1388.93 483.275 1391.16 Q481.049 1393.38 481.279 1396.23 Q481.508 1399.05 484.143 1401.68 Q486.795 1404.33 489.61 1404.56 Q492.442 1404.77 494.668 1402.55 Z" fill="#000000" fill-rule="evenodd" fill-opacity="1" /><path clip-path="url(#clip290)" d="M539.531 1493.29 L544.932 1487.89 L526.289 1469.25 L521.591 1476.3 L518.579 1473.29 L523.244 1466.27 L526.551 1462.96 L548.206 1484.62 L553.607 1479.22 L556.39 1482 L542.313 1496.08 L539.531 1493.29 Z" fill="#000000" fill-rule="evenodd" fill-opacity="1" /><path clip-path="url(#clip290)" d="M547.878 1445.99 Q545.325 1448.54 546.552 1452.36 Q547.78 1456.14 552.821 1461.18 Q557.846 1466.2 561.644 1467.45 Q565.441 1468.66 567.995 1466.11 Q570.565 1463.54 569.337 1459.76 Q568.109 1455.94 563.084 1450.92 Q558.043 1445.88 554.245 1444.66 Q550.448 1443.42 547.878 1445.99 M545.259 1443.37 Q549.368 1439.26 554.786 1440.36 Q560.203 1441.42 566.391 1447.61 Q572.561 1453.78 573.642 1459.22 Q574.722 1464.62 570.614 1468.73 Q566.505 1472.83 561.087 1471.77 Q555.67 1470.67 549.499 1464.5 Q543.312 1458.32 542.231 1452.91 Q541.151 1447.48 545.259 1443.37 Z" fill="#000000" fill-rule="evenodd" fill-opacity="1" /><path clip-path="url(#clip290)" d="M571.923 1445.42 L580.745 1436.59 L583.43 1439.28 L574.607 1448.1 L571.923 1445.42 Z" fill="#000000" fill-rule="evenodd" fill-opacity="1" /><path clip-path="url(#clip290)" d="M594.282 1438.54 L599.683 1433.14 L581.04 1414.5 L576.342 1421.55 L573.331 1418.54 L577.996 1411.52 L581.302 1408.21 L602.957 1429.87 L608.359 1424.47 L611.141 1427.25 L597.065 1441.32 L594.282 1438.54 Z" fill="#000000" fill-rule="evenodd" fill-opacity="1" /><path clip-path="url(#clip290)" d="M605.347 1389.93 L610.044 1411.32 L618.392 1402.97 L605.347 1389.93 M601.598 1387.92 L605.756 1383.76 L621.682 1399.68 L625.169 1396.2 L627.918 1398.95 L624.432 1402.43 L630.194 1408.2 L626.904 1411.49 L621.142 1405.72 L610.11 1416.76 L606.918 1413.56 L601.598 1387.92 Z" fill="#000000" fill-rule="evenodd" fill-opacity="1" /><path clip-path="url(#clip290)" d="M659.441 1492.82 L664.843 1487.42 L646.2 1468.77 L641.502 1475.83 L638.49 1472.82 L643.155 1465.8 L646.461 1462.49 L668.116 1484.14 L673.518 1478.74 L676.3 1481.53 L662.224 1495.6 L659.441 1492.82 Z" fill="#000000" fill-rule="evenodd" fill-opacity="1" /><path clip-path="url(#clip290)" d="M658.574 1450.38 L671.554 1437.4 L674.336 1440.18 L664.384 1450.13 L670.375 1456.12 Q670.85 1455.16 671.456 1454.32 Q672.045 1453.47 672.765 1452.75 Q676.857 1448.66 681.489 1448.51 Q686.121 1448.36 689.952 1452.19 Q693.896 1456.14 693.634 1460.79 Q693.356 1465.42 688.888 1469.89 Q687.349 1471.43 685.483 1472.77 Q683.633 1474.09 681.407 1475.27 L678.085 1471.95 Q680.36 1471.28 682.324 1470.1 Q684.288 1468.92 686.04 1467.17 Q688.871 1464.34 689.035 1461.2 Q689.199 1458.05 686.645 1455.5 Q684.092 1452.95 680.949 1453.11 Q677.806 1453.27 674.975 1456.11 Q673.649 1457.43 672.618 1459.05 Q671.603 1460.66 670.85 1462.65 L658.574 1450.38 Z" fill="#000000" fill-rule="evenodd" fill-opacity="1" /><path clip-path="url(#clip290)" d="M691.834 1444.94 L700.656 1436.12 L703.341 1438.8 L694.518 1447.63 L691.834 1444.94 Z" fill="#000000" fill-rule="evenodd" fill-opacity="1" /><path clip-path="url(#clip290)" d="M714.193 1438.07 L719.594 1432.67 L700.951 1414.02 L696.253 1421.08 L693.242 1418.07 L697.906 1411.04 L701.213 1407.74 L722.868 1429.39 L728.269 1423.99 L731.052 1426.77 L716.975 1440.85 L714.193 1438.07 Z" fill="#000000" fill-rule="evenodd" fill-opacity="1" /><path clip-path="url(#clip290)" d="M737.321 1419.49 L734.309 1416.48 Q736.142 1415.82 737.73 1414.86 Q739.318 1413.89 740.545 1412.66 Q743.819 1409.39 743.344 1405.48 Q742.87 1401.53 738.63 1396.8 Q739.089 1399.16 738.385 1401.37 Q737.681 1403.58 735.913 1405.35 Q732.247 1409.01 727.893 1408.95 Q723.539 1408.85 719.692 1405 Q715.928 1401.24 715.879 1396.74 Q715.83 1392.24 719.529 1388.54 Q723.768 1384.3 729.251 1385.33 Q734.735 1386.33 740.922 1392.52 Q746.7 1398.29 747.404 1404.5 Q748.107 1410.67 743.475 1415.3 Q742.231 1416.54 740.709 1417.57 Q739.187 1418.61 737.321 1419.49 M733.54 1402.55 Q735.766 1400.32 735.537 1397.51 Q735.324 1394.68 732.672 1392.02 Q730.037 1389.39 727.205 1389.18 Q724.374 1388.93 722.148 1391.16 Q719.922 1393.38 720.151 1396.23 Q720.38 1399.05 723.015 1401.68 Q725.667 1404.33 728.482 1404.56 Q731.314 1404.77 733.54 1402.55 Z" fill="#000000" fill-rule="evenodd" fill-opacity="1" /><path clip-path="url(#clip290)" d="M780.678 1491.02 L792.217 1479.48 L795 1482.26 L779.483 1497.78 L776.7 1495 Q776.635 1491.17 776.602 1484.65 Q776.57 1478.1 776.455 1476.32 Q776.259 1472.95 775.653 1471.1 Q775.047 1469.22 773.852 1468.02 Q771.905 1466.07 769.302 1466.22 Q766.716 1466.35 764.523 1468.55 Q762.968 1470.1 761.773 1472.38 Q760.594 1474.63 759.727 1477.69 L756.388 1474.36 Q757.582 1471.56 758.908 1469.41 Q760.234 1467.27 761.675 1465.83 Q765.472 1462.03 769.629 1461.67 Q773.787 1461.31 776.962 1464.49 Q778.468 1465.99 779.254 1467.92 Q780.04 1469.82 780.383 1473.14 Q780.449 1474.03 780.531 1478.5 Q780.596 1482.95 780.678 1491.02 Z" fill="#000000" fill-rule="evenodd" fill-opacity="1" /><path clip-path="url(#clip290)" d="M786.75 1445.99 Q784.197 1448.54 785.425 1452.36 Q786.652 1456.14 791.694 1461.18 Q796.719 1466.2 800.516 1467.45 Q804.313 1468.66 806.867 1466.11 Q809.437 1463.54 808.209 1459.76 Q806.981 1455.94 801.956 1450.92 Q796.915 1445.88 793.118 1444.66 Q789.32 1443.42 786.75 1445.99 M784.132 1443.37 Q788.24 1439.26 793.658 1440.36 Q799.076 1441.42 805.263 1447.61 Q811.434 1453.78 812.514 1459.22 Q813.594 1464.62 809.486 1468.73 Q805.377 1472.83 799.96 1471.77 Q794.542 1470.67 788.371 1464.5 Q782.184 1458.32 781.103 1452.91 Q780.023 1447.48 784.132 1443.37 Z" fill="#000000" fill-rule="evenodd" fill-opacity="1" /><path clip-path="url(#clip290)" d="M810.795 1445.42 L819.618 1436.59 L822.302 1439.28 L813.48 1448.1 L810.795 1445.42 Z" fill="#000000" fill-rule="evenodd" fill-opacity="1" /><path clip-path="url(#clip290)" d="M835.429 1436.27 L846.969 1424.73 L849.751 1427.51 L834.234 1443.03 L831.452 1440.24 Q831.386 1436.41 831.354 1429.9 Q831.321 1423.35 831.206 1421.57 Q831.01 1418.2 830.404 1416.35 Q829.799 1414.46 828.604 1413.27 Q826.656 1411.32 824.053 1411.47 Q821.467 1411.6 819.274 1413.79 Q817.719 1415.35 816.524 1417.62 Q815.346 1419.88 814.478 1422.94 L811.139 1419.6 Q812.334 1416.81 813.66 1414.66 Q814.986 1412.52 816.426 1411.08 Q820.223 1407.28 824.381 1406.92 Q828.538 1406.56 831.714 1409.73 Q833.22 1411.24 834.005 1413.17 Q834.791 1415.07 835.135 1418.39 Q835.2 1419.28 835.282 1423.75 Q835.347 1428.2 835.429 1436.27 Z" fill="#000000" fill-rule="evenodd" fill-opacity="1" /><path clip-path="url(#clip290)" d="M844.219 1389.93 L848.917 1411.32 L857.264 1402.97 L844.219 1389.93 M840.471 1387.92 L844.628 1383.76 L860.554 1399.68 L864.041 1396.2 L866.791 1398.95 L863.304 1402.43 L869.066 1408.2 L865.776 1411.49 L860.014 1405.72 L848.982 1416.76 L845.79 1413.56 L840.471 1387.92 Z" fill="#000000" fill-rule="evenodd" fill-opacity="1" /><path clip-path="url(#clip290)" d="M900.589 1490.54 L912.128 1479 L914.911 1481.79 L899.394 1497.3 L896.611 1494.52 Q896.546 1490.69 896.513 1484.18 Q896.48 1477.63 896.366 1475.85 Q896.169 1472.47 895.564 1470.62 Q894.958 1468.74 893.763 1467.55 Q891.815 1465.6 889.213 1465.75 Q886.627 1465.88 884.433 1468.07 Q882.878 1469.63 881.684 1471.9 Q880.505 1474.16 879.637 1477.22 L876.298 1473.88 Q877.493 1471.08 878.819 1468.94 Q880.145 1466.79 881.585 1465.35 Q885.383 1461.56 889.54 1461.2 Q893.698 1460.84 896.873 1464.01 Q898.379 1465.52 899.165 1467.45 Q899.95 1469.35 900.294 1472.67 Q900.36 1473.55 900.441 1478.02 Q900.507 1482.47 900.589 1490.54 Z" fill="#000000" fill-rule="evenodd" fill-opacity="1" /><path clip-path="url(#clip290)" d="M897.446 1450.38 L910.426 1437.4 L913.209 1440.18 L903.257 1450.13 L909.247 1456.12 Q909.722 1455.16 910.328 1454.32 Q910.917 1453.47 911.637 1452.75 Q915.729 1448.66 920.361 1448.51 Q924.994 1448.36 928.824 1452.19 Q932.768 1456.14 932.507 1460.79 Q932.228 1465.42 927.76 1469.89 Q926.221 1471.43 924.355 1472.77 Q922.506 1474.09 920.28 1475.27 L916.957 1471.95 Q919.232 1471.28 921.196 1470.1 Q923.16 1468.92 924.912 1467.17 Q927.743 1464.34 927.907 1461.2 Q928.071 1458.05 925.517 1455.5 Q922.964 1452.95 919.821 1453.11 Q916.679 1453.27 913.847 1456.11 Q912.521 1457.43 911.49 1459.05 Q910.475 1460.66 909.722 1462.65 L897.446 1450.38 Z" fill="#000000" fill-rule="evenodd" fill-opacity="1" /><path clip-path="url(#clip290)" d="M930.706 1444.94 L939.528 1436.12 L942.213 1438.8 L933.39 1447.63 L930.706 1444.94 Z" fill="#000000" fill-rule="evenodd" fill-opacity="1" /><path clip-path="url(#clip290)" d="M955.34 1435.79 L966.88 1424.25 L969.662 1427.04 L954.145 1442.55 L951.363 1439.77 Q951.297 1435.94 951.264 1429.43 Q951.232 1422.88 951.117 1421.09 Q950.921 1417.72 950.315 1415.87 Q949.709 1413.99 948.515 1412.8 Q946.567 1410.85 943.964 1410.99 Q941.378 1411.13 939.185 1413.32 Q937.63 1414.87 936.435 1417.15 Q935.256 1419.41 934.389 1422.47 L931.05 1419.13 Q932.245 1416.33 933.57 1414.19 Q934.896 1412.04 936.337 1410.6 Q940.134 1406.8 944.292 1406.44 Q948.449 1406.08 951.625 1409.26 Q953.13 1410.77 953.916 1412.7 Q954.702 1414.6 955.045 1417.92 Q955.111 1418.8 955.193 1423.27 Q955.258 1427.72 955.34 1435.79 Z" fill="#000000" fill-rule="evenodd" fill-opacity="1" /><path clip-path="url(#clip290)" d="M976.193 1419.49 L973.181 1416.48 Q975.015 1415.82 976.602 1414.86 Q978.19 1413.89 979.418 1412.66 Q982.691 1409.39 982.217 1405.48 Q981.742 1401.53 977.503 1396.8 Q977.961 1399.16 977.257 1401.37 Q976.553 1403.58 974.785 1405.35 Q971.119 1409.01 966.765 1408.95 Q962.411 1408.85 958.565 1405 Q954.8 1401.24 954.751 1396.74 Q954.702 1392.24 958.401 1388.54 Q962.64 1384.3 968.124 1385.33 Q973.607 1386.33 979.794 1392.52 Q985.572 1398.29 986.276 1404.5 Q986.98 1410.67 982.347 1415.3 Q981.103 1416.54 979.581 1417.57 Q978.059 1418.61 976.193 1419.49 M972.412 1402.55 Q974.638 1400.32 974.409 1397.51 Q974.196 1394.68 971.545 1392.02 Q968.909 1389.39 966.078 1389.18 Q963.246 1388.93 961.02 1391.16 Q958.794 1393.38 959.023 1396.23 Q959.252 1399.05 961.887 1401.68 Q964.539 1404.33 967.354 1404.56 Q970.186 1404.77 972.412 1402.55 Z" fill="#000000" fill-rule="evenodd" fill-opacity="1" /><path clip-path="url(#clip290)" d="M1016.33 1473.46 Q1019.21 1471.59 1022.14 1471.87 Q1025.08 1472.13 1027.44 1474.49 Q1031.06 1478.1 1030.55 1482.57 Q1030.04 1487.04 1025.46 1491.62 Q1023.92 1493.16 1021.97 1494.49 Q1020.06 1495.81 1017.72 1496.94 L1014.53 1493.75 Q1016.7 1493.18 1018.75 1491.95 Q1020.79 1490.72 1022.58 1488.94 Q1025.69 1485.83 1026.08 1482.98 Q1026.49 1480.12 1024.15 1477.78 Q1021.99 1475.62 1019.26 1475.93 Q1016.52 1476.21 1013.82 1478.91 L1010.97 1481.75 L1008.26 1479.04 L1011.24 1476.06 Q1013.67 1473.62 1014 1471.36 Q1014.31 1469.09 1012.48 1467.25 Q1010.6 1465.37 1008.26 1465.71 Q1005.92 1466.02 1003.43 1468.51 Q1002.07 1469.87 1000.81 1471.72 Q999.548 1473.57 998.304 1476.06 L995.358 1473.11 Q996.717 1470.71 998.092 1468.81 Q999.483 1466.89 1000.94 1465.44 Q1004.7 1461.67 1008.62 1461.2 Q1012.51 1460.7 1015.43 1463.62 Q1017.45 1465.65 1017.7 1468.22 Q1017.93 1470.77 1016.33 1473.46 Z" fill="#000000" fill-rule="evenodd" fill-opacity="1" /><path clip-path="url(#clip290)" d="M1025.62 1445.99 Q1023.07 1448.54 1024.3 1452.36 Q1025.52 1456.14 1030.57 1461.18 Q1035.59 1466.2 1039.39 1467.45 Q1043.19 1468.66 1045.74 1466.11 Q1048.31 1463.54 1047.08 1459.76 Q1045.85 1455.94 1040.83 1450.92 Q1035.79 1445.88 1031.99 1444.66 Q1028.19 1443.42 1025.62 1445.99 M1023 1443.37 Q1027.11 1439.26 1032.53 1440.36 Q1037.95 1441.42 1044.14 1447.61 Q1050.31 1453.78 1051.39 1459.22 Q1052.47 1464.62 1048.36 1468.73 Q1044.25 1472.83 1038.83 1471.77 Q1033.41 1470.67 1027.24 1464.5 Q1021.06 1458.32 1019.98 1452.91 Q1018.9 1447.48 1023 1443.37 Z" fill="#000000" fill-rule="evenodd" fill-opacity="1" /><path clip-path="url(#clip290)" d="M1049.67 1445.42 L1058.49 1436.59 L1061.17 1439.28 L1052.35 1448.1 L1049.67 1445.42 Z" fill="#000000" fill-rule="evenodd" fill-opacity="1" /><path clip-path="url(#clip290)" d="M1071.08 1418.7 Q1073.96 1416.84 1076.89 1417.12 Q1079.83 1417.38 1082.19 1419.74 Q1085.81 1423.35 1085.3 1427.82 Q1084.79 1432.29 1080.21 1436.87 Q1078.67 1438.41 1076.72 1439.74 Q1074.81 1441.06 1072.47 1442.19 L1069.28 1439 Q1071.45 1438.43 1073.5 1437.2 Q1075.55 1435.97 1077.33 1434.19 Q1080.44 1431.08 1080.83 1428.23 Q1081.24 1425.37 1078.9 1423.03 Q1076.74 1420.86 1074.01 1421.18 Q1071.27 1421.45 1068.57 1424.15 L1065.72 1427 L1063.01 1424.29 L1065.99 1421.31 Q1068.43 1418.87 1068.75 1416.61 Q1069.06 1414.33 1067.23 1412.5 Q1065.35 1410.62 1063.01 1410.96 Q1060.67 1411.27 1058.18 1413.76 Q1056.82 1415.12 1055.56 1416.97 Q1054.3 1418.82 1053.06 1421.31 L1050.11 1418.36 Q1051.47 1415.95 1052.84 1414.06 Q1054.23 1412.14 1055.69 1410.68 Q1059.46 1406.92 1063.37 1406.44 Q1067.26 1405.95 1070.18 1408.87 Q1072.21 1410.9 1072.45 1413.47 Q1072.68 1416.02 1071.08 1418.7 Z" fill="#000000" fill-rule="evenodd" fill-opacity="1" /><path clip-path="url(#clip290)" d="M1083.09 1389.93 L1087.79 1411.32 L1096.14 1402.97 L1083.09 1389.93 M1079.34 1387.92 L1083.5 1383.76 L1099.43 1399.68 L1102.91 1396.2 L1105.66 1398.95 L1102.18 1402.43 L1107.94 1408.2 L1104.65 1411.49 L1098.89 1405.72 L1087.85 1416.76 L1084.66 1413.56 L1079.34 1387.92 Z" fill="#000000" fill-rule="evenodd" fill-opacity="1" /><path clip-path="url(#clip290)" d="M1136.24 1472.98 Q1139.12 1471.11 1142.05 1471.39 Q1144.99 1471.66 1147.35 1474.01 Q1150.97 1477.63 1150.46 1482.1 Q1149.95 1486.57 1145.37 1491.15 Q1143.83 1492.69 1141.88 1494.01 Q1139.97 1495.34 1137.63 1496.47 L1134.44 1493.28 Q1136.61 1492.7 1138.66 1491.48 Q1140.7 1490.25 1142.49 1488.47 Q1145.6 1485.36 1145.99 1482.51 Q1146.4 1479.64 1144.06 1477.3 Q1141.9 1475.14 1139.17 1475.45 Q1136.43 1475.73 1133.73 1478.43 L1130.88 1481.28 L1128.17 1478.56 L1131.15 1475.58 Q1133.58 1473.14 1133.91 1470.89 Q1134.22 1468.61 1132.39 1466.78 Q1130.51 1464.9 1128.17 1465.24 Q1125.83 1465.55 1123.34 1468.04 Q1121.98 1469.4 1120.72 1471.25 Q1119.46 1473.1 1118.22 1475.58 L1115.27 1472.64 Q1116.63 1470.23 1118 1468.33 Q1119.39 1466.42 1120.85 1464.96 Q1124.61 1461.2 1128.53 1460.72 Q1132.42 1460.23 1135.34 1463.14 Q1137.37 1465.17 1137.61 1467.74 Q1137.84 1470.3 1136.24 1472.98 Z" fill="#000000" fill-rule="evenodd" fill-opacity="1" /><path clip-path="url(#clip290)" d="M1136.32 1450.38 L1149.3 1437.4 L1152.08 1440.18 L1142.13 1450.13 L1148.12 1456.12 Q1148.59 1455.16 1149.2 1454.32 Q1149.79 1453.47 1150.51 1452.75 Q1154.6 1448.66 1159.23 1448.51 Q1163.87 1448.36 1167.7 1452.19 Q1171.64 1456.14 1171.38 1460.79 Q1171.1 1465.42 1166.63 1469.89 Q1165.09 1471.43 1163.23 1472.77 Q1161.38 1474.09 1159.15 1475.27 L1155.83 1471.95 Q1158.1 1471.28 1160.07 1470.1 Q1162.03 1468.92 1163.78 1467.17 Q1166.62 1464.34 1166.78 1461.2 Q1166.94 1458.05 1164.39 1455.5 Q1161.84 1452.95 1158.69 1453.11 Q1155.55 1453.27 1152.72 1456.11 Q1151.39 1457.43 1150.36 1459.05 Q1149.35 1460.66 1148.59 1462.65 L1136.32 1450.38 Z" fill="#000000" fill-rule="evenodd" fill-opacity="1" /><path clip-path="url(#clip290)" d="M1169.58 1444.94 L1178.4 1436.12 L1181.09 1438.8 L1172.26 1447.63 L1169.58 1444.94 Z" fill="#000000" fill-rule="evenodd" fill-opacity="1" /><path clip-path="url(#clip290)" d="M1190.99 1418.23 Q1193.87 1416.36 1196.8 1416.64 Q1199.74 1416.9 1202.1 1419.26 Q1205.72 1422.88 1205.21 1427.35 Q1204.7 1431.82 1200.12 1436.4 Q1198.58 1437.94 1196.63 1439.26 Q1194.72 1440.59 1192.38 1441.72 L1189.19 1438.53 Q1191.36 1437.95 1193.41 1436.73 Q1195.46 1435.5 1197.24 1433.71 Q1200.35 1430.6 1200.74 1427.76 Q1201.15 1424.89 1198.81 1422.55 Q1196.65 1420.39 1193.92 1420.7 Q1191.18 1420.98 1188.48 1423.68 L1185.64 1426.53 L1182.92 1423.81 L1185.9 1420.83 Q1188.34 1418.39 1188.66 1416.13 Q1188.97 1413.86 1187.14 1412.03 Q1185.26 1410.14 1182.92 1410.49 Q1180.58 1410.8 1178.09 1413.29 Q1176.73 1414.64 1175.47 1416.49 Q1174.21 1418.34 1172.97 1420.83 L1170.02 1417.89 Q1171.38 1415.48 1172.75 1413.58 Q1174.14 1411.67 1175.6 1410.21 Q1179.37 1406.44 1183.28 1405.97 Q1187.17 1405.48 1190.09 1408.39 Q1192.12 1410.42 1192.36 1412.99 Q1192.59 1415.55 1190.99 1418.23 Z" fill="#000000" fill-rule="evenodd" fill-opacity="1" /><path clip-path="url(#clip290)" d="M1215.07 1419.49 L1212.05 1416.48 Q1213.89 1415.82 1215.47 1414.86 Q1217.06 1413.89 1218.29 1412.66 Q1221.56 1409.39 1221.09 1405.48 Q1220.61 1401.53 1216.37 1396.8 Q1216.83 1399.16 1216.13 1401.37 Q1215.43 1403.58 1213.66 1405.35 Q1209.99 1409.01 1205.64 1408.95 Q1201.28 1408.85 1197.44 1405 Q1193.67 1401.24 1193.62 1396.74 Q1193.57 1392.24 1197.27 1388.54 Q1201.51 1384.3 1207 1385.33 Q1212.48 1386.33 1218.67 1392.52 Q1224.44 1398.29 1225.15 1404.5 Q1225.85 1410.67 1221.22 1415.3 Q1219.98 1416.54 1218.45 1417.57 Q1216.93 1418.61 1215.07 1419.49 M1211.28 1402.55 Q1213.51 1400.32 1213.28 1397.51 Q1213.07 1394.68 1210.42 1392.02 Q1207.78 1389.39 1204.95 1389.18 Q1202.12 1388.93 1199.89 1391.16 Q1197.67 1393.38 1197.9 1396.23 Q1198.12 1399.05 1200.76 1401.68 Q1203.41 1404.33 1206.23 1404.56 Q1209.06 1404.77 1211.28 1402.55 Z" fill="#000000" fill-rule="evenodd" fill-opacity="1" /><path clip-path="url(#clip290)" d="M1245.88 1466.01 L1250.58 1487.4 L1258.93 1479.05 L1245.88 1466.01 M1242.14 1463.99 L1246.29 1459.84 L1262.22 1475.76 L1265.71 1472.28 L1268.46 1475.03 L1264.97 1478.51 L1270.73 1484.27 L1267.44 1487.56 L1261.68 1481.8 L1250.65 1492.84 L1247.46 1489.64 L1242.14 1463.99 Z" fill="#000000" fill-rule="evenodd" fill-opacity="1" /><path clip-path="url(#clip290)" d="M1264.49 1445.99 Q1261.94 1448.54 1263.17 1452.36 Q1264.4 1456.14 1269.44 1461.18 Q1274.46 1466.2 1278.26 1467.45 Q1282.06 1468.66 1284.61 1466.11 Q1287.18 1463.54 1285.95 1459.76 Q1284.73 1455.94 1279.7 1450.92 Q1274.66 1445.88 1270.86 1444.66 Q1267.06 1443.42 1264.49 1445.99 M1261.88 1443.37 Q1265.98 1439.26 1271.4 1440.36 Q1276.82 1441.42 1283.01 1447.61 Q1289.18 1453.78 1290.26 1459.22 Q1291.34 1464.62 1287.23 1468.73 Q1283.12 1472.83 1277.7 1471.77 Q1272.29 1470.67 1266.12 1464.5 Q1259.93 1458.32 1258.85 1452.91 Q1257.77 1447.48 1261.88 1443.37 Z" fill="#000000" fill-rule="evenodd" fill-opacity="1" /><path clip-path="url(#clip290)" d="M1288.54 1445.42 L1297.36 1436.59 L1300.05 1439.28 L1291.22 1448.1 L1288.54 1445.42 Z" fill="#000000" fill-rule="evenodd" fill-opacity="1" /><path clip-path="url(#clip290)" d="M1300.64 1411.26 L1305.33 1432.65 L1313.68 1424.3 L1300.64 1411.26 M1296.89 1409.24 L1301.04 1405.09 L1316.97 1421.01 L1320.46 1417.53 L1323.21 1420.28 L1319.72 1423.76 L1325.48 1429.52 L1322.19 1432.81 L1316.43 1427.05 L1305.4 1438.08 L1302.21 1434.89 L1296.89 1409.24 Z" fill="#000000" fill-rule="evenodd" fill-opacity="1" /><path clip-path="url(#clip290)" d="M1321.96 1389.93 L1326.66 1411.32 L1335.01 1402.97 L1321.96 1389.93 M1318.22 1387.92 L1322.37 1383.76 L1338.3 1399.68 L1341.79 1396.2 L1344.54 1398.95 L1341.05 1402.43 L1346.81 1408.2 L1343.52 1411.49 L1337.76 1405.72 L1326.73 1416.76 L1323.53 1413.56 L1318.22 1387.92 Z" fill="#000000" fill-rule="evenodd" fill-opacity="1" /><path clip-path="url(#clip290)" d="M1365.8 1465.53 L1370.49 1486.93 L1378.84 1478.58 L1365.8 1465.53 M1362.05 1463.52 L1366.2 1459.36 L1382.13 1475.29 L1385.62 1471.8 L1388.37 1474.55 L1384.88 1478.04 L1390.64 1483.8 L1387.35 1487.09 L1381.59 1481.33 L1370.56 1492.36 L1367.37 1489.17 L1362.05 1463.52 Z" fill="#000000" fill-rule="evenodd" fill-opacity="1" /><path clip-path="url(#clip290)" d="M1375.19 1450.38 L1388.17 1437.4 L1390.95 1440.18 L1381 1450.13 L1386.99 1456.12 Q1387.47 1455.16 1388.07 1454.32 Q1388.66 1453.47 1389.38 1452.75 Q1393.47 1448.66 1398.11 1448.51 Q1402.74 1448.36 1406.57 1452.19 Q1410.51 1456.14 1410.25 1460.79 Q1409.97 1465.42 1405.5 1469.89 Q1403.97 1471.43 1402.1 1472.77 Q1400.25 1474.09 1398.02 1475.27 L1394.7 1471.95 Q1396.98 1471.28 1398.94 1470.1 Q1400.9 1468.92 1402.66 1467.17 Q1405.49 1464.34 1405.65 1461.2 Q1405.82 1458.05 1403.26 1455.5 Q1400.71 1452.95 1397.57 1453.11 Q1394.42 1453.27 1391.59 1456.11 Q1390.27 1457.43 1389.23 1459.05 Q1388.22 1460.66 1387.47 1462.65 L1375.19 1450.38 Z" fill="#000000" fill-rule="evenodd" fill-opacity="1" /><path clip-path="url(#clip290)" d="M1408.45 1444.94 L1417.27 1436.12 L1419.96 1438.8 L1411.13 1447.63 L1408.45 1444.94 Z" fill="#000000" fill-rule="evenodd" fill-opacity="1" /><path clip-path="url(#clip290)" d="M1420.55 1410.78 L1425.24 1432.18 L1433.59 1423.83 L1420.55 1410.78 M1416.8 1408.77 L1420.96 1404.61 L1436.88 1420.54 L1440.37 1417.05 L1443.12 1419.8 L1439.63 1423.29 L1445.39 1429.05 L1442.1 1432.34 L1436.34 1426.58 L1425.31 1437.61 L1422.12 1434.42 L1416.8 1408.77 Z" fill="#000000" fill-rule="evenodd" fill-opacity="1" /><path clip-path="url(#clip290)" d="M1453.94 1419.49 L1450.93 1416.48 Q1452.76 1415.82 1454.35 1414.86 Q1455.93 1413.89 1457.16 1412.66 Q1460.44 1409.39 1459.96 1405.48 Q1459.49 1401.53 1455.25 1396.8 Q1455.71 1399.16 1455 1401.37 Q1454.3 1403.58 1452.53 1405.35 Q1448.86 1409.01 1444.51 1408.95 Q1440.16 1408.85 1436.31 1405 Q1432.54 1401.24 1432.5 1396.74 Q1432.45 1392.24 1436.15 1388.54 Q1440.38 1384.3 1445.87 1385.33 Q1451.35 1386.33 1457.54 1392.52 Q1463.32 1398.29 1464.02 1404.5 Q1464.72 1410.67 1460.09 1415.3 Q1458.85 1416.54 1457.33 1417.57 Q1455.8 1418.61 1453.94 1419.49 M1450.16 1402.55 Q1452.38 1400.32 1452.15 1397.51 Q1451.94 1394.68 1449.29 1392.02 Q1446.65 1389.39 1443.82 1389.18 Q1440.99 1388.93 1438.76 1391.16 Q1436.54 1393.38 1436.77 1396.23 Q1437 1399.05 1439.63 1401.68 Q1442.28 1404.33 1445.1 1404.56 Q1447.93 1404.77 1450.16 1402.55 Z" fill="#000000" fill-rule="evenodd" fill-opacity="1" /><path clip-path="url(#clip290)" d="M1472.82 1472.18 L1485.8 1459.2 L1488.59 1461.98 L1478.63 1471.93 L1484.63 1477.92 Q1485.1 1476.96 1485.71 1476.12 Q1486.3 1475.27 1487.02 1474.55 Q1491.11 1470.46 1495.74 1470.31 Q1500.37 1470.17 1504.2 1474 Q1508.15 1477.94 1507.88 1482.59 Q1507.61 1487.22 1503.14 1491.69 Q1501.6 1493.23 1499.73 1494.57 Q1497.88 1495.9 1495.66 1497.07 L1492.33 1493.75 Q1494.61 1493.08 1496.57 1491.9 Q1498.54 1490.72 1500.29 1488.97 Q1503.12 1486.14 1503.29 1483 Q1503.45 1479.86 1500.9 1477.3 Q1498.34 1474.75 1495.2 1474.91 Q1492.06 1475.08 1489.23 1477.91 Q1487.9 1479.23 1486.87 1480.85 Q1485.85 1482.46 1485.1 1484.46 L1472.82 1472.18 Z" fill="#000000" fill-rule="evenodd" fill-opacity="1" /><path clip-path="url(#clip290)" d="M1503.37 1445.99 Q1500.81 1448.54 1502.04 1452.36 Q1503.27 1456.14 1508.31 1461.18 Q1513.34 1466.2 1517.13 1467.45 Q1520.93 1468.66 1523.48 1466.11 Q1526.05 1463.54 1524.83 1459.76 Q1523.6 1455.94 1518.57 1450.92 Q1513.53 1445.88 1509.73 1444.66 Q1505.94 1443.42 1503.37 1445.99 M1500.75 1443.37 Q1504.86 1439.26 1510.27 1440.36 Q1515.69 1441.42 1521.88 1447.61 Q1528.05 1453.78 1529.13 1459.22 Q1530.21 1464.62 1526.1 1468.73 Q1521.99 1472.83 1516.58 1471.77 Q1511.16 1470.67 1504.99 1464.5 Q1498.8 1458.32 1497.72 1452.91 Q1496.64 1447.48 1500.75 1443.37 Z" fill="#000000" fill-rule="evenodd" fill-opacity="1" /><path clip-path="url(#clip290)" d="M1527.41 1445.42 L1536.23 1436.59 L1538.92 1439.28 L1530.1 1448.1 L1527.41 1445.42 Z" fill="#000000" fill-rule="evenodd" fill-opacity="1" /><path clip-path="url(#clip290)" d="M1527.58 1417.43 L1540.56 1404.45 L1543.34 1407.23 L1533.39 1417.18 L1539.38 1423.17 Q1539.85 1422.21 1540.46 1421.37 Q1541.05 1420.52 1541.77 1419.8 Q1545.86 1415.71 1550.49 1415.56 Q1555.12 1415.41 1558.95 1419.24 Q1562.9 1423.19 1562.64 1427.84 Q1562.36 1432.47 1557.89 1436.94 Q1556.35 1438.48 1554.48 1439.82 Q1552.64 1441.14 1550.41 1442.32 L1547.09 1439 Q1549.36 1438.33 1551.33 1437.15 Q1553.29 1435.97 1555.04 1434.22 Q1557.87 1431.39 1558.04 1428.25 Q1558.2 1425.1 1555.65 1422.55 Q1553.09 1420 1549.95 1420.16 Q1546.81 1420.32 1543.98 1423.16 Q1542.65 1424.48 1541.62 1426.1 Q1540.6 1427.71 1539.85 1429.7 L1527.58 1417.43 Z" fill="#000000" fill-rule="evenodd" fill-opacity="1" /><path clip-path="url(#clip290)" d="M1560.84 1389.93 L1565.53 1411.32 L1573.88 1402.97 L1560.84 1389.93 M1557.09 1387.92 L1561.24 1383.76 L1577.17 1399.68 L1580.66 1396.2 L1583.41 1398.95 L1579.92 1402.43 L1585.68 1408.2 L1582.39 1411.49 L1576.63 1405.72 L1565.6 1416.76 L1562.41 1413.56 L1557.09 1387.92 Z" fill="#000000" fill-rule="evenodd" fill-opacity="1" /><path clip-path="url(#clip290)" d="M1592.73 1471.7 L1605.71 1458.72 L1608.5 1461.51 L1598.55 1471.46 L1604.54 1477.45 Q1605.01 1476.48 1605.62 1475.65 Q1606.21 1474.8 1606.93 1474.08 Q1611.02 1469.99 1615.65 1469.84 Q1620.28 1469.69 1624.11 1473.52 Q1628.06 1477.47 1627.8 1482.11 Q1627.52 1486.75 1623.05 1491.22 Q1621.51 1492.75 1619.64 1494.1 Q1617.79 1495.42 1615.57 1496.6 L1612.25 1493.28 Q1614.52 1492.61 1616.49 1491.43 Q1618.45 1490.25 1620.2 1488.5 Q1623.03 1485.67 1623.2 1482.52 Q1623.36 1479.38 1620.81 1476.83 Q1618.25 1474.27 1615.11 1474.44 Q1611.97 1474.6 1609.14 1477.43 Q1607.81 1478.76 1606.78 1480.38 Q1605.76 1481.98 1605.01 1483.98 L1592.73 1471.7 Z" fill="#000000" fill-rule="evenodd" fill-opacity="1" /><path clip-path="url(#clip290)" d="M1614.06 1450.38 L1627.04 1437.4 L1629.83 1440.18 L1619.87 1450.13 L1625.86 1456.12 Q1626.34 1455.16 1626.94 1454.32 Q1627.53 1453.47 1628.25 1452.75 Q1632.35 1448.66 1636.98 1448.51 Q1641.61 1448.36 1645.44 1452.19 Q1649.39 1456.14 1649.12 1460.79 Q1648.84 1465.42 1644.38 1469.89 Q1642.84 1471.43 1640.97 1472.77 Q1639.12 1474.09 1636.9 1475.27 L1633.57 1471.95 Q1635.85 1471.28 1637.81 1470.1 Q1639.78 1468.92 1641.53 1467.17 Q1644.36 1464.34 1644.52 1461.2 Q1644.69 1458.05 1642.13 1455.5 Q1639.58 1452.95 1636.44 1453.11 Q1633.3 1453.27 1630.46 1456.11 Q1629.14 1457.43 1628.11 1459.05 Q1627.09 1460.66 1626.34 1462.65 L1614.06 1450.38 Z" fill="#000000" fill-rule="evenodd" fill-opacity="1" /><path clip-path="url(#clip290)" d="M1647.32 1444.94 L1656.15 1436.12 L1658.83 1438.8 L1650.01 1447.63 L1647.32 1444.94 Z" fill="#000000" fill-rule="evenodd" fill-opacity="1" /><path clip-path="url(#clip290)" d="M1647.49 1416.95 L1660.47 1403.97 L1663.25 1406.76 L1653.3 1416.71 L1659.29 1422.7 Q1659.76 1421.73 1660.37 1420.9 Q1660.96 1420.05 1661.68 1419.33 Q1665.77 1415.23 1670.4 1415.09 Q1675.03 1414.94 1678.86 1418.77 Q1682.81 1422.71 1682.55 1427.36 Q1682.27 1432 1677.8 1436.46 Q1676.26 1438 1674.4 1439.34 Q1672.55 1440.67 1670.32 1441.85 L1667 1438.53 Q1669.27 1437.85 1671.24 1436.68 Q1673.2 1435.5 1674.95 1433.75 Q1677.78 1430.91 1677.95 1427.77 Q1678.11 1424.63 1675.56 1422.08 Q1673 1419.52 1669.86 1419.69 Q1666.72 1419.85 1663.89 1422.68 Q1662.56 1424.01 1661.53 1425.63 Q1660.52 1427.23 1659.76 1429.23 L1647.49 1416.95 Z" fill="#000000" fill-rule="evenodd" fill-opacity="1" /><path clip-path="url(#clip290)" d="M1692.81 1419.49 L1689.8 1416.48 Q1691.63 1415.82 1693.22 1414.86 Q1694.81 1413.89 1696.03 1412.66 Q1699.31 1409.39 1698.83 1405.48 Q1698.36 1401.53 1694.12 1396.8 Q1694.58 1399.16 1693.87 1401.37 Q1693.17 1403.58 1691.4 1405.35 Q1687.74 1409.01 1683.38 1408.95 Q1679.03 1408.85 1675.18 1405 Q1671.42 1401.24 1671.37 1396.74 Q1671.32 1392.24 1675.02 1388.54 Q1679.26 1384.3 1684.74 1385.33 Q1690.22 1386.33 1696.41 1392.52 Q1702.19 1398.29 1702.89 1404.5 Q1703.6 1410.67 1698.96 1415.3 Q1697.72 1416.54 1696.2 1417.57 Q1694.68 1418.61 1692.81 1419.49 M1689.03 1402.55 Q1691.25 1400.32 1691.03 1397.51 Q1690.81 1394.68 1688.16 1392.02 Q1685.53 1389.39 1682.69 1389.18 Q1679.86 1388.93 1677.64 1391.16 Q1675.41 1393.38 1675.64 1396.23 Q1675.87 1399.05 1678.5 1401.68 Q1681.16 1404.33 1683.97 1404.56 Q1686.8 1404.77 1689.03 1402.55 Z" fill="#000000" fill-rule="evenodd" fill-opacity="1" /><path clip-path="url(#clip290)" d="M1730.05 1475.63 Q1727.82 1477.86 1728.03 1480.69 Q1728.26 1483.51 1730.91 1486.16 Q1733.55 1488.79 1736.38 1489.04 Q1739.21 1489.25 1741.44 1487.02 Q1743.66 1484.8 1743.43 1481.98 Q1743.2 1479.14 1740.57 1476.5 Q1737.92 1473.85 1735.09 1473.64 Q1732.27 1473.41 1730.05 1475.63 M1726.25 1458.71 L1729.26 1461.72 Q1727.43 1462.37 1725.84 1463.34 Q1724.27 1464.29 1723.02 1465.53 Q1719.75 1468.81 1720.22 1472.75 Q1720.72 1476.68 1724.94 1481.39 Q1724.48 1479 1725.18 1476.79 Q1725.87 1474.57 1727.62 1472.82 Q1731.31 1469.13 1735.68 1469.25 Q1740.05 1469.33 1743.89 1473.18 Q1747.66 1476.94 1747.71 1481.44 Q1747.76 1485.94 1744.06 1489.64 Q1739.82 1493.88 1734.33 1492.88 Q1728.83 1491.87 1722.66 1485.7 Q1716.87 1479.9 1716.18 1473.72 Q1715.48 1467.51 1720.11 1462.88 Q1721.35 1461.64 1722.86 1460.62 Q1724.38 1459.59 1726.25 1458.71 Z" fill="#000000" fill-rule="evenodd" fill-opacity="1" /><path clip-path="url(#clip290)" d="M1742.24 1445.99 Q1739.69 1448.54 1740.91 1452.36 Q1742.14 1456.14 1747.18 1461.18 Q1752.21 1466.2 1756 1467.45 Q1759.8 1468.66 1762.36 1466.11 Q1764.93 1463.54 1763.7 1459.76 Q1762.47 1455.94 1757.45 1450.92 Q1752.4 1445.88 1748.61 1444.66 Q1744.81 1443.42 1742.24 1445.99 M1739.62 1443.37 Q1743.73 1439.26 1749.15 1440.36 Q1754.56 1441.42 1760.75 1447.61 Q1766.92 1453.78 1768 1459.22 Q1769.08 1464.62 1764.97 1468.73 Q1760.87 1472.83 1755.45 1471.77 Q1750.03 1470.67 1743.86 1464.5 Q1737.67 1458.32 1736.59 1452.91 Q1735.51 1447.48 1739.62 1443.37 Z" fill="#000000" fill-rule="evenodd" fill-opacity="1" /><path clip-path="url(#clip290)" d="M1766.28 1445.42 L1775.11 1436.59 L1777.79 1439.28 L1768.97 1448.1 L1766.28 1445.42 Z" fill="#000000" fill-rule="evenodd" fill-opacity="1" /><path clip-path="url(#clip290)" d="M1784.8 1420.88 Q1782.57 1423.11 1782.78 1425.94 Q1783.01 1428.75 1785.66 1431.41 Q1788.3 1434.04 1791.13 1434.29 Q1793.96 1434.5 1796.19 1432.27 Q1798.41 1430.05 1798.19 1427.23 Q1797.96 1424.38 1795.32 1421.75 Q1792.67 1419.1 1789.84 1418.88 Q1787.02 1418.66 1784.8 1420.88 M1781 1403.96 L1784.01 1406.97 Q1782.18 1407.62 1780.59 1408.59 Q1779.02 1409.54 1777.77 1410.78 Q1774.5 1414.06 1774.98 1418 Q1775.47 1421.93 1779.69 1426.64 Q1779.23 1424.25 1779.94 1422.04 Q1780.62 1419.82 1782.37 1418.07 Q1786.06 1414.38 1790.43 1414.5 Q1794.8 1414.58 1798.64 1418.43 Q1802.41 1422.19 1802.46 1426.69 Q1802.51 1431.19 1798.81 1434.89 Q1794.57 1439.13 1789.08 1438.13 Q1783.59 1437.12 1777.41 1430.95 Q1771.62 1425.15 1770.93 1418.97 Q1770.23 1412.76 1774.86 1408.13 Q1776.1 1406.89 1777.61 1405.87 Q1779.13 1404.84 1781 1403.96 Z" fill="#000000" fill-rule="evenodd" fill-opacity="1" /><path clip-path="url(#clip290)" d="M1799.71 1389.93 L1804.41 1411.32 L1812.75 1402.97 L1799.71 1389.93 M1795.96 1387.92 L1800.12 1383.76 L1816.04 1399.68 L1819.53 1396.2 L1822.28 1398.95 L1818.79 1402.43 L1824.55 1408.2 L1821.26 1411.49 L1815.5 1405.72 L1804.47 1416.76 L1801.28 1413.56 L1795.96 1387.92 Z" fill="#000000" fill-rule="evenodd" fill-opacity="1" /><path clip-path="url(#clip290)" d="M1849.96 1475.16 Q1847.73 1477.38 1847.94 1480.22 Q1848.17 1483.03 1850.82 1485.68 Q1853.46 1488.32 1856.29 1488.56 Q1859.12 1488.78 1861.35 1486.55 Q1863.57 1484.32 1863.34 1481.51 Q1863.12 1478.66 1860.48 1476.03 Q1857.83 1473.37 1855 1473.16 Q1852.18 1472.93 1849.96 1475.16 M1846.16 1458.23 L1849.17 1461.25 Q1847.34 1461.9 1845.75 1462.87 Q1844.18 1463.81 1842.93 1465.06 Q1839.66 1468.33 1840.13 1472.28 Q1840.63 1476.21 1844.85 1480.92 Q1844.39 1478.53 1845.09 1476.32 Q1845.78 1474.09 1847.53 1472.34 Q1851.22 1468.66 1855.59 1468.77 Q1859.96 1468.86 1863.8 1472.7 Q1867.57 1476.47 1867.62 1480.97 Q1867.67 1485.47 1863.97 1489.17 Q1859.73 1493.41 1854.24 1492.41 Q1848.74 1491.4 1842.57 1485.22 Q1836.78 1479.43 1836.09 1473.24 Q1835.39 1467.04 1840.02 1462.41 Q1841.26 1461.16 1842.77 1460.15 Q1844.29 1459.12 1846.16 1458.23 Z" fill="#000000" fill-rule="evenodd" fill-opacity="1" /><path clip-path="url(#clip290)" d="M1852.93 1450.38 L1865.91 1437.4 L1868.7 1440.18 L1858.75 1450.13 L1864.74 1456.12 Q1865.21 1455.16 1865.82 1454.32 Q1866.41 1453.47 1867.13 1452.75 Q1871.22 1448.66 1875.85 1448.51 Q1880.48 1448.36 1884.31 1452.19 Q1888.26 1456.14 1888 1460.79 Q1887.72 1465.42 1883.25 1469.89 Q1881.71 1471.43 1879.84 1472.77 Q1877.99 1474.09 1875.77 1475.27 L1872.45 1471.95 Q1874.72 1471.28 1876.68 1470.1 Q1878.65 1468.92 1880.4 1467.17 Q1883.23 1464.34 1883.4 1461.2 Q1883.56 1458.05 1881.01 1455.5 Q1878.45 1452.95 1875.31 1453.11 Q1872.17 1453.27 1869.34 1456.11 Q1868.01 1457.43 1866.98 1459.05 Q1865.96 1460.66 1865.21 1462.65 L1852.93 1450.38 Z" fill="#000000" fill-rule="evenodd" fill-opacity="1" /><path clip-path="url(#clip290)" d="M1886.19 1444.94 L1895.02 1436.12 L1897.7 1438.8 L1888.88 1447.63 L1886.19 1444.94 Z" fill="#000000" fill-rule="evenodd" fill-opacity="1" /><path clip-path="url(#clip290)" d="M1904.71 1420.41 Q1902.48 1422.63 1902.69 1425.46 Q1902.92 1428.28 1905.57 1430.93 Q1908.21 1433.57 1911.04 1433.81 Q1913.87 1434.02 1916.1 1431.8 Q1918.33 1429.57 1918.1 1426.76 Q1917.87 1423.91 1915.23 1421.27 Q1912.58 1418.62 1909.75 1418.41 Q1906.93 1418.18 1904.71 1420.41 M1900.91 1403.48 L1903.92 1406.49 Q1902.09 1407.15 1900.5 1408.11 Q1898.93 1409.06 1897.69 1410.31 Q1894.41 1413.58 1894.89 1417.53 Q1895.38 1421.45 1899.6 1426.17 Q1899.14 1423.78 1899.85 1421.57 Q1900.53 1419.34 1902.28 1417.59 Q1905.97 1413.91 1910.34 1414.02 Q1914.71 1414.1 1918.55 1417.95 Q1922.32 1421.72 1922.37 1426.22 Q1922.42 1430.72 1918.72 1434.42 Q1914.48 1438.66 1909 1437.66 Q1903.5 1436.64 1897.33 1430.47 Q1891.53 1424.68 1890.84 1418.49 Q1890.14 1412.29 1894.77 1407.66 Q1896.02 1406.41 1897.52 1405.4 Q1899.04 1404.37 1900.91 1403.48 Z" fill="#000000" fill-rule="evenodd" fill-opacity="1" /><path clip-path="url(#clip290)" d="M1931.68 1419.49 L1928.67 1416.48 Q1930.5 1415.82 1932.09 1414.86 Q1933.68 1413.89 1934.91 1412.66 Q1938.18 1409.39 1937.71 1405.48 Q1937.23 1401.53 1932.99 1396.8 Q1933.45 1399.16 1932.75 1401.37 Q1932.04 1403.58 1930.27 1405.35 Q1926.61 1409.01 1922.25 1408.95 Q1917.9 1408.85 1914.05 1405 Q1910.29 1401.24 1910.24 1396.74 Q1910.19 1392.24 1913.89 1388.54 Q1918.13 1384.3 1923.61 1385.33 Q1929.1 1386.33 1935.28 1392.52 Q1941.06 1398.29 1941.76 1404.5 Q1942.47 1410.67 1937.84 1415.3 Q1936.59 1416.54 1935.07 1417.57 Q1933.55 1418.61 1931.68 1419.49 M1927.9 1402.55 Q1930.13 1400.32 1929.9 1397.51 Q1929.68 1394.68 1927.03 1392.02 Q1924.4 1389.39 1921.57 1389.18 Q1918.73 1388.93 1916.51 1391.16 Q1914.28 1393.38 1914.51 1396.23 Q1914.74 1399.05 1917.38 1401.68 Q1920.03 1404.33 1922.84 1404.56 Q1925.67 1404.77 1927.9 1402.55 Z" fill="#000000" fill-rule="evenodd" fill-opacity="1" /><path clip-path="url(#clip290)" d="M1949.7 1473.05 L1965.41 1457.33 L1966.82 1458.74 L1980.98 1490.64 L1977.53 1494.1 L1964.22 1464.09 L1952.48 1475.83 L1949.7 1473.05 Z" fill="#000000" fill-rule="evenodd" fill-opacity="1" /><path clip-path="url(#clip290)" d="M1981.11 1445.99 Q1978.56 1448.54 1979.79 1452.36 Q1981.01 1456.14 1986.05 1461.18 Q1991.08 1466.2 1994.88 1467.45 Q1998.67 1468.66 2001.23 1466.11 Q2003.8 1463.54 2002.57 1459.76 Q2001.34 1455.94 1996.32 1450.92 Q1991.28 1445.88 1987.48 1444.66 Q1983.68 1443.42 1981.11 1445.99 M1978.49 1443.37 Q1982.6 1439.26 1988.02 1440.36 Q1993.44 1441.42 1999.62 1447.61 Q2005.79 1453.78 2006.87 1459.22 Q2007.96 1464.62 2003.85 1468.73 Q1999.74 1472.83 1994.32 1471.77 Q1988.9 1470.67 1982.73 1464.5 Q1976.54 1458.32 1975.46 1452.91 Q1974.38 1447.48 1978.49 1443.37 Z" fill="#000000" fill-rule="evenodd" fill-opacity="1" /><path clip-path="url(#clip290)" d="M2005.16 1445.42 L2013.98 1436.59 L2016.66 1439.28 L2007.84 1448.1 L2005.16 1445.42 Z" fill="#000000" fill-rule="evenodd" fill-opacity="1" /><path clip-path="url(#clip290)" d="M2004.45 1418.3 L2020.17 1402.58 L2021.57 1403.99 L2035.73 1435.89 L2032.28 1439.34 L2018.97 1409.34 L2007.24 1421.08 L2004.45 1418.3 Z" fill="#000000" fill-rule="evenodd" fill-opacity="1" /><path clip-path="url(#clip290)" d="M2038.58 1389.93 L2043.28 1411.32 L2051.63 1402.97 L2038.58 1389.93 M2034.83 1387.92 L2038.99 1383.76 L2054.92 1399.68 L2058.4 1396.2 L2061.15 1398.95 L2057.67 1402.43 L2063.43 1408.2 L2060.14 1411.49 L2054.38 1405.72 L2043.34 1416.76 L2040.15 1413.56 L2034.83 1387.92 Z" fill="#000000" fill-rule="evenodd" fill-opacity="1" /><path clip-path="url(#clip290)" d="M2069.61 1472.57 L2085.33 1456.86 L2086.73 1458.27 L2100.89 1490.17 L2097.44 1493.62 L2084.13 1463.62 L2072.39 1475.35 L2069.61 1472.57 Z" fill="#000000" fill-rule="evenodd" fill-opacity="1" /><path clip-path="url(#clip290)" d="M2091.81 1450.38 L2104.79 1437.4 L2107.57 1440.18 L2097.62 1450.13 L2103.61 1456.12 Q2104.08 1455.16 2104.69 1454.32 Q2105.28 1453.47 2106 1452.75 Q2110.09 1448.66 2114.72 1448.51 Q2119.35 1448.36 2123.18 1452.19 Q2127.13 1456.14 2126.87 1460.79 Q2126.59 1465.42 2122.12 1469.89 Q2120.58 1471.43 2118.72 1472.77 Q2116.87 1474.09 2114.64 1475.27 L2111.32 1471.95 Q2113.59 1471.28 2115.56 1470.1 Q2117.52 1468.92 2119.27 1467.17 Q2122.1 1464.34 2122.27 1461.2 Q2122.43 1458.05 2119.88 1455.5 Q2117.32 1452.95 2114.18 1453.11 Q2111.04 1453.27 2108.21 1456.11 Q2106.88 1457.43 2105.85 1459.05 Q2104.84 1460.66 2104.08 1462.65 L2091.81 1450.38 Z" fill="#000000" fill-rule="evenodd" fill-opacity="1" /><path clip-path="url(#clip290)" d="M2125.07 1444.94 L2133.89 1436.12 L2136.57 1438.8 L2127.75 1447.63 L2125.07 1444.94 Z" fill="#000000" fill-rule="evenodd" fill-opacity="1" /><path clip-path="url(#clip290)" d="M2124.36 1417.82 L2140.08 1402.11 L2141.48 1403.51 L2155.64 1435.42 L2152.19 1438.87 L2138.88 1408.87 L2127.15 1420.6 L2124.36 1417.82 Z" fill="#000000" fill-rule="evenodd" fill-opacity="1" /><path clip-path="url(#clip290)" d="M2170.55 1419.49 L2167.54 1416.48 Q2169.38 1415.82 2170.96 1414.86 Q2172.55 1413.89 2173.78 1412.66 Q2177.05 1409.39 2176.58 1405.48 Q2176.1 1401.53 2171.86 1396.8 Q2172.32 1399.16 2171.62 1401.37 Q2170.91 1403.58 2169.15 1405.35 Q2165.48 1409.01 2161.13 1408.95 Q2156.77 1408.85 2152.93 1405 Q2149.16 1401.24 2149.11 1396.74 Q2149.06 1392.24 2152.76 1388.54 Q2157 1384.3 2162.48 1385.33 Q2167.97 1386.33 2174.16 1392.52 Q2179.93 1398.29 2180.64 1404.5 Q2181.34 1410.67 2176.71 1415.3 Q2175.46 1416.54 2173.94 1417.57 Q2172.42 1418.61 2170.55 1419.49 M2166.77 1402.55 Q2169 1400.32 2168.77 1397.51 Q2168.56 1394.68 2165.91 1392.02 Q2163.27 1389.39 2160.44 1389.18 Q2157.61 1388.93 2155.38 1391.16 Q2153.15 1393.38 2153.38 1396.23 Q2153.61 1399.05 2156.25 1401.68 Q2158.9 1404.33 2161.72 1404.56 Q2164.55 1404.77 2166.77 1402.55 Z" fill="#000000" fill-rule="evenodd" fill-opacity="1" /><path clip-path="url(#clip290)" d="M1151.75 1555.84 L1151.75 1573.25 L1162.06 1573.25 Q1167.25 1573.25 1169.73 1571.11 Q1172.24 1568.95 1172.24 1564.53 Q1172.24 1560.07 1169.73 1557.97 Q1167.25 1555.84 1162.06 1555.84 L1151.75 1555.84 M1151.75 1536.29 L1151.75 1550.62 L1161.26 1550.62 Q1165.97 1550.62 1168.26 1548.87 Q1170.59 1547.08 1170.59 1543.46 Q1170.59 1539.86 1168.26 1538.08 Q1165.97 1536.29 1161.26 1536.29 L1151.75 1536.29 M1145.32 1531.01 L1161.74 1531.01 Q1169.09 1531.01 1173.07 1534.07 Q1177.05 1537.12 1177.05 1542.76 Q1177.05 1547.12 1175.01 1549.69 Q1172.98 1552.27 1169.03 1552.91 Q1173.77 1553.93 1176.38 1557.17 Q1179.02 1560.39 1179.02 1565.23 Q1179.02 1571.59 1174.69 1575.06 Q1170.37 1578.53 1162.38 1578.53 L1145.32 1578.53 L1145.32 1531.01 Z" fill="#000000" fill-rule="evenodd" fill-opacity="1" /><path clip-path="url(#clip290)" d="M1203.59 1546.99 Q1198.88 1546.99 1196.15 1550.68 Q1193.41 1554.34 1193.41 1560.74 Q1193.41 1567.14 1196.11 1570.83 Q1198.85 1574.49 1203.59 1574.49 Q1208.27 1574.49 1211.01 1570.8 Q1213.75 1567.1 1213.75 1560.74 Q1213.75 1554.4 1211.01 1550.71 Q1208.27 1546.99 1203.59 1546.99 M1203.59 1542.02 Q1211.23 1542.02 1215.59 1546.99 Q1219.95 1551.95 1219.95 1560.74 Q1219.95 1569.49 1215.59 1574.49 Q1211.23 1579.45 1203.59 1579.45 Q1195.92 1579.45 1191.56 1574.49 Q1187.23 1569.49 1187.23 1560.74 Q1187.23 1551.95 1191.56 1546.99 Q1195.92 1542.02 1203.59 1542.02 Z" fill="#000000" fill-rule="evenodd" fill-opacity="1" /><path clip-path="url(#clip290)" d="M1245.99 1559.31 Q1249.94 1560.07 1252.13 1562.39 Q1254.33 1564.72 1254.33 1568.15 Q1254.33 1573.66 1250.22 1576.56 Q1246.12 1579.45 1238.54 1579.45 Q1236 1579.45 1233.29 1579.01 Q1230.62 1578.56 1227.75 1577.67 L1227.75 1572.23 Q1230.01 1573.41 1232.72 1574.01 Q1235.42 1574.58 1238.38 1574.58 Q1243.19 1574.58 1245.86 1572.8 Q1248.57 1571.02 1248.57 1568.15 Q1248.57 1565.35 1246.18 1563.67 Q1243.79 1561.95 1239.43 1561.95 L1234.72 1561.95 L1234.72 1557.11 L1239.66 1557.11 Q1243.35 1557.11 1245.48 1555.71 Q1247.65 1554.28 1247.65 1552.05 Q1247.65 1550.01 1245.42 1548.55 Q1243.22 1547.08 1239.43 1547.08 Q1237.17 1547.08 1234.6 1547.5 Q1232.05 1547.91 1228.96 1548.83 L1228.96 1543.52 Q1232.08 1542.76 1234.79 1542.37 Q1237.49 1541.99 1239.91 1541.99 Q1246.15 1541.99 1249.75 1544.51 Q1253.37 1546.99 1253.37 1551.48 Q1253.37 1554.44 1251.46 1556.51 Q1249.55 1558.54 1245.99 1559.31 Z" fill="#000000" fill-rule="evenodd" fill-opacity="1" /><path clip-path="url(#clip290)" d="M1269.99 1573.18 L1269.99 1592.09 L1264.1 1592.09 L1264.1 1542.88 L1269.99 1542.88 L1269.99 1548.29 Q1271.83 1545.11 1274.64 1543.58 Q1277.47 1542.02 1281.38 1542.02 Q1287.88 1542.02 1291.92 1547.18 Q1295.99 1552.34 1295.99 1560.74 Q1295.99 1569.14 1291.92 1574.3 Q1287.88 1579.45 1281.38 1579.45 Q1277.47 1579.45 1274.64 1577.93 Q1271.83 1576.37 1269.99 1573.18 M1289.91 1560.74 Q1289.91 1554.28 1287.24 1550.62 Q1284.6 1546.92 1279.95 1546.92 Q1275.3 1546.92 1272.63 1550.62 Q1269.99 1554.28 1269.99 1560.74 Q1269.99 1567.2 1272.63 1570.89 Q1275.3 1574.55 1279.95 1574.55 Q1284.6 1574.55 1287.24 1570.89 Q1289.91 1567.2 1289.91 1560.74 Z" fill="#000000" fill-rule="evenodd" fill-opacity="1" /><path clip-path="url(#clip290)" d="M1321.9 1560.61 Q1314.8 1560.61 1312.07 1562.23 Q1309.33 1563.86 1309.33 1567.77 Q1309.33 1570.89 1311.37 1572.74 Q1313.43 1574.55 1316.97 1574.55 Q1321.84 1574.55 1324.77 1571.11 Q1327.73 1567.65 1327.73 1561.92 L1327.73 1560.61 L1321.9 1560.61 M1333.58 1558.19 L1333.58 1578.53 L1327.73 1578.53 L1327.73 1573.12 Q1325.72 1576.37 1322.73 1577.93 Q1319.74 1579.45 1315.41 1579.45 Q1309.93 1579.45 1306.69 1576.4 Q1303.47 1573.31 1303.47 1568.15 Q1303.47 1562.14 1307.48 1559.08 Q1311.53 1556.03 1319.51 1556.03 L1327.73 1556.03 L1327.73 1555.45 Q1327.73 1551.41 1325.05 1549.22 Q1322.41 1546.99 1317.6 1546.99 Q1314.55 1546.99 1311.65 1547.72 Q1308.76 1548.45 1306.08 1549.92 L1306.08 1544.51 Q1309.3 1543.26 1312.32 1542.66 Q1315.34 1542.02 1318.21 1542.02 Q1325.94 1542.02 1329.76 1546.03 Q1333.58 1550.04 1333.58 1558.19 Z" fill="#000000" fill-rule="evenodd" fill-opacity="1" /><path clip-path="url(#clip290)" d="M1371.3 1544.25 L1371.3 1549.73 Q1368.82 1548.36 1366.3 1547.69 Q1363.82 1546.99 1361.27 1546.99 Q1355.58 1546.99 1352.42 1550.62 Q1349.27 1554.21 1349.27 1560.74 Q1349.27 1567.26 1352.42 1570.89 Q1355.58 1574.49 1361.27 1574.49 Q1363.82 1574.49 1366.3 1573.82 Q1368.82 1573.12 1371.3 1571.75 L1371.3 1577.16 Q1368.85 1578.31 1366.21 1578.88 Q1363.6 1579.45 1360.64 1579.45 Q1352.58 1579.45 1347.84 1574.39 Q1343.1 1569.33 1343.1 1560.74 Q1343.1 1552.02 1347.87 1547.02 Q1352.68 1542.02 1361.02 1542.02 Q1363.72 1542.02 1366.3 1542.6 Q1368.88 1543.14 1371.3 1544.25 Z" fill="#000000" fill-rule="evenodd" fill-opacity="1" /><path clip-path="url(#clip290)" d="M1377.25 1542.88 L1411.4 1542.88 L1411.4 1547.56 L1397.21 1547.56 L1397.21 1578.53 L1391.45 1578.53 L1391.45 1547.56 L1377.25 1547.56 L1377.25 1542.88 Z" fill="#000000" fill-rule="evenodd" fill-opacity="1" /><polyline clip-path="url(#clip292)" style="stroke:#000000; stroke-linecap:butt; stroke-linejoin:round; stroke-width:2; stroke-opacity:0.1; fill:none" points="
  219.712,1320.55 2337.01,1320.55 
  "/>
<polyline clip-path="url(#clip292)" style="stroke:#000000; stroke-linecap:butt; stroke-linejoin:round; stroke-width:2; stroke-opacity:0.1; fill:none" points="
  219.712,1076.14 2337.01,1076.14 
  "/>
<polyline clip-path="url(#clip292)" style="stroke:#000000; stroke-linecap:butt; stroke-linejoin:round; stroke-width:2; stroke-opacity:0.1; fill:none" points="
  219.712,831.73 2337.01,831.73 
  "/>
<polyline clip-path="url(#clip292)" style="stroke:#000000; stroke-linecap:butt; stroke-linejoin:round; stroke-width:2; stroke-opacity:0.1; fill:none" points="
  219.712,587.318 2337.01,587.318 
  "/>
<polyline clip-path="url(#clip292)" style="stroke:#000000; stroke-linecap:butt; stroke-linejoin:round; stroke-width:2; stroke-opacity:0.1; fill:none" points="
  219.712,342.906 2337.01,342.906 
  "/>
<polyline clip-path="url(#clip290)" style="stroke:#000000; stroke-linecap:butt; stroke-linejoin:round; stroke-width:4; stroke-opacity:1; fill:none" points="
  219.712,1354.96 219.712,139.22 
  "/>
<polyline clip-path="url(#clip290)" style="stroke:#000000; stroke-linecap:butt; stroke-linejoin:round; stroke-width:4; stroke-opacity:1; fill:none" points="
  219.712,1320.55 238.609,1320.55 
  "/>
<polyline clip-path="url(#clip290)" style="stroke:#000000; stroke-linecap:butt; stroke-linejoin:round; stroke-width:4; stroke-opacity:1; fill:none" points="
  219.712,1076.14 238.609,1076.14 
  "/>
<polyline clip-path="url(#clip290)" style="stroke:#000000; stroke-linecap:butt; stroke-linejoin:round; stroke-width:4; stroke-opacity:1; fill:none" points="
  219.712,831.73 238.609,831.73 
  "/>
<polyline clip-path="url(#clip290)" style="stroke:#000000; stroke-linecap:butt; stroke-linejoin:round; stroke-width:4; stroke-opacity:1; fill:none" points="
  219.712,587.318 238.609,587.318 
  "/>
<polyline clip-path="url(#clip290)" style="stroke:#000000; stroke-linecap:butt; stroke-linejoin:round; stroke-width:4; stroke-opacity:1; fill:none" points="
  219.712,342.906 238.609,342.906 
  "/>
<path clip-path="url(#clip290)" d="M171.767 1306.35 Q168.156 1306.35 166.327 1309.92 Q164.522 1313.46 164.522 1320.59 Q164.522 1327.7 166.327 1331.26 Q168.156 1334.8 171.767 1334.8 Q175.401 1334.8 177.207 1331.26 Q179.036 1327.7 179.036 1320.59 Q179.036 1313.46 177.207 1309.92 Q175.401 1306.35 171.767 1306.35 M171.767 1302.65 Q177.577 1302.65 180.633 1307.26 Q183.712 1311.84 183.712 1320.59 Q183.712 1329.32 180.633 1333.92 Q177.577 1338.51 171.767 1338.51 Q165.957 1338.51 162.878 1333.92 Q159.823 1329.32 159.823 1320.59 Q159.823 1311.84 162.878 1307.26 Q165.957 1302.65 171.767 1302.65 Z" fill="#000000" fill-rule="evenodd" fill-opacity="1" /><path clip-path="url(#clip290)" d="M162.809 1058.86 L181.165 1058.86 L181.165 1062.8 L167.091 1062.8 L167.091 1071.27 Q168.11 1070.92 169.128 1070.76 Q170.147 1070.58 171.165 1070.58 Q176.952 1070.58 180.332 1073.75 Q183.712 1076.92 183.712 1082.33 Q183.712 1087.91 180.239 1091.02 Q176.767 1094.09 170.448 1094.09 Q168.272 1094.09 166.003 1093.72 Q163.758 1093.35 161.351 1092.61 L161.351 1087.91 Q163.434 1089.05 165.656 1089.6 Q167.878 1090.16 170.355 1090.16 Q174.36 1090.16 176.698 1088.05 Q179.036 1085.95 179.036 1082.33 Q179.036 1078.72 176.698 1076.62 Q174.36 1074.51 170.355 1074.51 Q168.48 1074.51 166.605 1074.93 Q164.753 1075.34 162.809 1076.22 L162.809 1058.86 Z" fill="#000000" fill-rule="evenodd" fill-opacity="1" /><path clip-path="url(#clip290)" d="M132.416 845.075 L140.054 845.075 L140.054 818.71 L131.744 820.376 L131.744 816.117 L140.008 814.45 L144.684 814.45 L144.684 845.075 L152.323 845.075 L152.323 849.01 L132.416 849.01 L132.416 845.075 Z" fill="#000000" fill-rule="evenodd" fill-opacity="1" /><path clip-path="url(#clip290)" d="M171.767 817.529 Q168.156 817.529 166.327 821.094 Q164.522 824.635 164.522 831.765 Q164.522 838.871 166.327 842.436 Q168.156 845.978 171.767 845.978 Q175.401 845.978 177.207 842.436 Q179.036 838.871 179.036 831.765 Q179.036 824.635 177.207 821.094 Q175.401 817.529 171.767 817.529 M171.767 813.825 Q177.577 813.825 180.633 818.432 Q183.712 823.015 183.712 831.765 Q183.712 840.492 180.633 845.098 Q177.577 849.682 171.767 849.682 Q165.957 849.682 162.878 845.098 Q159.823 840.492 159.823 831.765 Q159.823 823.015 162.878 818.432 Q165.957 813.825 171.767 813.825 Z" fill="#000000" fill-rule="evenodd" fill-opacity="1" /><path clip-path="url(#clip290)" d="M133.411 600.663 L141.05 600.663 L141.05 574.297 L132.74 575.964 L132.74 571.705 L141.004 570.038 L145.679 570.038 L145.679 600.663 L153.318 600.663 L153.318 604.598 L133.411 604.598 L133.411 600.663 Z" fill="#000000" fill-rule="evenodd" fill-opacity="1" /><path clip-path="url(#clip290)" d="M162.809 570.038 L181.165 570.038 L181.165 573.973 L167.091 573.973 L167.091 582.445 Q168.11 582.098 169.128 581.936 Q170.147 581.751 171.165 581.751 Q176.952 581.751 180.332 584.922 Q183.712 588.094 183.712 593.51 Q183.712 599.089 180.239 602.191 Q176.767 605.269 170.448 605.269 Q168.272 605.269 166.003 604.899 Q163.758 604.529 161.351 603.788 L161.351 599.089 Q163.434 600.223 165.656 600.779 Q167.878 601.334 170.355 601.334 Q174.36 601.334 176.698 599.228 Q179.036 597.121 179.036 593.51 Q179.036 589.899 176.698 587.793 Q174.36 585.686 170.355 585.686 Q168.48 585.686 166.605 586.103 Q164.753 586.52 162.809 587.399 L162.809 570.038 Z" fill="#000000" fill-rule="evenodd" fill-opacity="1" /><path clip-path="url(#clip290)" d="M135.633 356.251 L151.953 356.251 L151.953 360.186 L130.008 360.186 L130.008 356.251 Q132.67 353.496 137.254 348.867 Q141.86 344.214 143.041 342.871 Q145.286 340.348 146.166 338.612 Q147.068 336.853 147.068 335.163 Q147.068 332.408 145.124 330.672 Q143.203 328.936 140.101 328.936 Q137.902 328.936 135.448 329.7 Q133.017 330.464 130.24 332.015 L130.24 327.293 Q133.064 326.158 135.517 325.58 Q137.971 325.001 140.008 325.001 Q145.378 325.001 148.573 327.686 Q151.767 330.371 151.767 334.862 Q151.767 336.992 150.957 338.913 Q150.17 340.811 148.064 343.404 Q147.485 344.075 144.383 347.292 Q141.281 350.487 135.633 356.251 Z" fill="#000000" fill-rule="evenodd" fill-opacity="1" /><path clip-path="url(#clip290)" d="M171.767 328.705 Q168.156 328.705 166.327 332.269 Q164.522 335.811 164.522 342.941 Q164.522 350.047 166.327 353.612 Q168.156 357.154 171.767 357.154 Q175.401 357.154 177.207 353.612 Q179.036 350.047 179.036 342.941 Q179.036 335.811 177.207 332.269 Q175.401 328.705 171.767 328.705 M171.767 325.001 Q177.577 325.001 180.633 329.607 Q183.712 334.191 183.712 342.941 Q183.712 351.667 180.633 356.274 Q177.577 360.857 171.767 360.857 Q165.957 360.857 162.878 356.274 Q159.823 351.667 159.823 342.941 Q159.823 334.191 162.878 329.607 Q165.957 325.001 171.767 325.001 Z" fill="#000000" fill-rule="evenodd" fill-opacity="1" /><path clip-path="url(#clip290)" d="M79.7522 1042.32 L60.2731 1042.32 L60.2731 1055.59 Q60.2731 1061.51 56.581 1065.04 Q52.8571 1068.58 45.2819 1068.58 L32.2322 1068.58 L32.2322 1062.18 L44.7726 1062.18 Q49.8334 1062.18 52.3478 1060.2 Q54.8623 1058.23 54.8623 1054.28 L54.8623 1042.32 L32.2322 1042.32 L32.2322 1035.86 L79.7522 1035.86 L79.7522 1042.32 Z" fill="#000000" fill-rule="evenodd" fill-opacity="1" /><path clip-path="url(#clip290)" d="M61.8327 1007.11 Q61.8327 1014.21 63.456 1016.95 Q65.0792 1019.69 68.9941 1019.69 Q72.1133 1019.69 73.9594 1017.65 Q75.7736 1015.58 75.7736 1012.05 Q75.7736 1007.18 72.3361 1004.25 Q68.8668 1001.29 63.1377 1001.29 L61.8327 1001.29 L61.8327 1007.11 M59.4138 995.433 L79.7522 995.433 L79.7522 1001.29 L74.3413 1001.29 Q77.5878 1003.3 79.1474 1006.29 Q80.6752 1009.28 80.6752 1013.61 Q80.6752 1019.08 77.6197 1022.33 Q74.5323 1025.54 69.3761 1025.54 Q63.3605 1025.54 60.305 1021.53 Q57.2494 1017.49 57.2494 1009.5 L57.2494 1001.29 L56.6765 1001.29 Q52.6343 1001.29 50.4381 1003.96 Q48.2101 1006.61 48.2101 1011.41 Q48.2101 1014.47 48.9422 1017.36 Q49.6742 1020.26 51.1383 1022.93 L45.7275 1022.93 Q44.4862 1019.72 43.8814 1016.69 Q43.2449 1013.67 43.2449 1010.81 Q43.2449 1003.07 47.2553 999.253 Q51.2657 995.433 59.4138 995.433 Z" fill="#000000" fill-rule="evenodd" fill-opacity="1" /><path clip-path="url(#clip290)" d="M45.4729 957.717 L50.9474 957.717 Q49.5787 960.199 48.9103 962.714 Q48.2101 965.196 48.2101 967.743 Q48.2101 973.44 51.8386 976.591 Q55.4352 979.742 61.96 979.742 Q68.4849 979.742 72.1133 976.591 Q75.71 973.44 75.71 967.743 Q75.71 965.196 75.0416 962.714 Q74.3413 960.199 72.9727 957.717 L78.3836 957.717 Q79.5294 960.167 80.1023 962.809 Q80.6752 965.419 80.6752 968.379 Q80.6752 976.432 75.6145 981.174 Q70.5537 985.917 61.96 985.917 Q53.239 985.917 48.2419 981.142 Q43.2449 976.336 43.2449 967.997 Q43.2449 965.292 43.8178 962.714 Q44.3589 960.136 45.4729 957.717 Z" fill="#000000" fill-rule="evenodd" fill-opacity="1" /><path clip-path="url(#clip290)" d="M44.1042 951.765 L44.1042 917.613 L48.783 917.613 L48.783 931.808 L79.7522 931.808 L79.7522 937.569 L48.783 937.569 L48.783 951.765 L44.1042 951.765 Z" fill="#000000" fill-rule="evenodd" fill-opacity="1" /><path clip-path="url(#clip290)" d="M48.2101 895.746 Q48.2101 900.457 51.9022 903.194 Q55.5625 905.932 61.96 905.932 Q68.3576 905.932 72.0497 903.226 Q75.71 900.489 75.71 895.746 Q75.71 891.068 72.0179 888.33 Q68.3257 885.593 61.96 885.593 Q55.6262 885.593 51.9341 888.33 Q48.2101 891.068 48.2101 895.746 M43.2449 895.746 Q43.2449 888.108 48.2101 883.747 Q53.1754 879.387 61.96 879.387 Q70.7129 879.387 75.71 883.747 Q80.6752 888.108 80.6752 895.746 Q80.6752 903.417 75.71 907.778 Q70.7129 912.106 61.96 912.106 Q53.1754 912.106 48.2101 907.778 Q43.2449 903.417 43.2449 895.746 Z" fill="#000000" fill-rule="evenodd" fill-opacity="1" /><path clip-path="url(#clip290)" d="M44.1042 873.912 L44.1042 839.76 L48.783 839.76 L48.783 853.956 L79.7522 853.956 L79.7522 859.717 L48.783 859.717 L48.783 873.912 L44.1042 873.912 Z" fill="#000000" fill-rule="evenodd" fill-opacity="1" /><path clip-path="url(#clip290)" d="M61.8327 815.507 Q61.8327 822.605 63.456 825.342 Q65.0792 828.079 68.9941 828.079 Q72.1133 828.079 73.9594 826.042 Q75.7736 823.973 75.7736 820.44 Q75.7736 815.57 72.3361 812.642 Q68.8668 809.682 63.1377 809.682 L61.8327 809.682 L61.8327 815.507 M59.4138 803.826 L79.7522 803.826 L79.7522 809.682 L74.3413 809.682 Q77.5878 811.687 79.1474 814.679 Q80.6752 817.671 80.6752 822 Q80.6752 827.474 77.6197 830.721 Q74.5323 833.935 69.3761 833.935 Q63.3605 833.935 60.305 829.925 Q57.2494 825.883 57.2494 817.894 L57.2494 809.682 L56.6765 809.682 Q52.6343 809.682 50.4381 812.356 Q48.2101 814.997 48.2101 819.804 Q48.2101 822.859 48.9422 825.756 Q49.6742 828.652 51.1383 831.326 L45.7275 831.326 Q44.4862 828.111 43.8814 825.087 Q43.2449 822.063 43.2449 819.199 Q43.2449 811.465 47.2553 807.645 Q51.2657 803.826 59.4138 803.826 Z" fill="#000000" fill-rule="evenodd" fill-opacity="1" /><path clip-path="url(#clip290)" d="M44.1042 771.265 L44.1042 765.44 L60.846 765.44 L44.1042 748.921 L44.1042 741.728 L57.886 755.351 L79.7522 739.978 L79.7522 746.534 L61.7691 759.17 L68.1348 765.44 L79.7522 765.44 L79.7522 771.265 L44.1042 771.265 Z" fill="#000000" fill-rule="evenodd" fill-opacity="1" /><path clip-path="url(#clip290)" d="M48.2101 717.857 Q48.2101 722.567 51.9022 725.305 Q55.5625 728.042 61.96 728.042 Q68.3576 728.042 72.0497 725.337 Q75.71 722.599 75.71 717.857 Q75.71 713.178 72.0179 710.441 Q68.3257 707.704 61.96 707.704 Q55.6262 707.704 51.9341 710.441 Q48.2101 713.178 48.2101 717.857 M43.2449 717.857 Q43.2449 710.218 48.2101 705.857 Q53.1754 701.497 61.96 701.497 Q70.7129 701.497 75.71 705.857 Q80.6752 710.218 80.6752 717.857 Q80.6752 725.527 75.71 729.888 Q70.7129 734.217 61.96 734.217 Q53.1754 734.217 48.2101 729.888 Q43.2449 725.527 43.2449 717.857 Z" fill="#000000" fill-rule="evenodd" fill-opacity="1" /><path clip-path="url(#clip290)" d="M44.1042 692.012 L44.1042 686.124 L58.6499 686.124 L58.6499 667.122 L44.1042 667.122 L44.1042 661.234 L79.7522 661.234 L79.7522 667.122 L63.3287 667.122 L63.3287 686.124 L79.7522 686.124 L79.7522 692.012 L44.1042 692.012 Z" fill="#000000" fill-rule="evenodd" fill-opacity="1" /><path clip-path="url(#clip290)" d="M44.1042 653.404 L44.1042 619.252 L48.783 619.252 L48.783 633.448 L79.7522 633.448 L79.7522 639.209 L48.783 639.209 L48.783 653.404 L44.1042 653.404 Z" fill="#000000" fill-rule="evenodd" fill-opacity="1" /><path clip-path="url(#clip290)" d="M61.8327 594.999 Q61.8327 602.096 63.456 604.834 Q65.0792 607.571 68.9941 607.571 Q72.1133 607.571 73.9594 605.534 Q75.7736 603.465 75.7736 599.932 Q75.7736 595.062 72.3361 592.134 Q68.8668 589.174 63.1377 589.174 L61.8327 589.174 L61.8327 594.999 M59.4138 583.318 L79.7522 583.318 L79.7522 589.174 L74.3413 589.174 Q77.5878 591.179 79.1474 594.171 Q80.6752 597.163 80.6752 601.492 Q80.6752 606.966 77.6197 610.213 Q74.5323 613.427 69.3761 613.427 Q63.3605 613.427 60.305 609.417 Q57.2494 605.375 57.2494 597.386 L57.2494 589.174 L56.6765 589.174 Q52.6343 589.174 50.4381 591.848 Q48.2101 594.489 48.2101 599.296 Q48.2101 602.351 48.9422 605.247 Q49.6742 608.144 51.1383 610.817 L45.7275 610.817 Q44.4862 607.603 43.8814 604.579 Q43.2449 601.555 43.2449 598.691 Q43.2449 590.956 47.2553 587.137 Q51.2657 583.318 59.4138 583.318 Z" fill="#000000" fill-rule="evenodd" fill-opacity="1" /><path clip-path="url(#clip290)" d="M44.1042 571.477 L44.1042 565.653 L60.846 565.653 L44.1042 549.134 L44.1042 541.941 L57.886 555.563 L79.7522 540.19 L79.7522 546.747 L61.7691 559.383 L68.1348 565.653 L79.7522 565.653 L79.7522 571.477 L44.1042 571.477 Z" fill="#000000" fill-rule="evenodd" fill-opacity="1" /><path clip-path="url(#clip290)" d="M44.1042 536.116 L44.1042 501.964 L48.783 501.964 L48.783 516.159 L79.7522 516.159 L79.7522 521.92 L48.783 521.92 L48.783 536.116 L44.1042 536.116 Z" fill="#000000" fill-rule="evenodd" fill-opacity="1" /><path clip-path="url(#clip290)" d="M48.2101 480.098 Q48.2101 484.808 51.9022 487.546 Q55.5625 490.283 61.96 490.283 Q68.3576 490.283 72.0497 487.577 Q75.71 484.84 75.71 480.098 Q75.71 475.419 72.0179 472.682 Q68.3257 469.944 61.96 469.944 Q55.6262 469.944 51.9341 472.682 Q48.2101 475.419 48.2101 480.098 M43.2449 480.098 Q43.2449 472.459 48.2101 468.098 Q53.1754 463.738 61.96 463.738 Q70.7129 463.738 75.71 468.098 Q80.6752 472.459 80.6752 480.098 Q80.6752 487.768 75.71 492.129 Q70.7129 496.458 61.96 496.458 Q53.1754 496.458 48.2101 492.129 Q43.2449 487.768 43.2449 480.098 Z" fill="#000000" fill-rule="evenodd" fill-opacity="1" /><path clip-path="url(#clip290)" d="M63.3287 448.396 L75.0734 448.396 L75.0734 440.057 Q75.0734 436.047 73.5775 433.946 Q72.0497 431.846 69.1851 431.846 Q66.3205 431.846 64.8246 433.946 Q63.3287 436.047 63.3287 440.057 L63.3287 448.396 M48.783 448.396 L58.6499 448.396 L58.6499 440.694 Q58.6499 437.384 57.3449 435.283 Q56.0081 433.182 53.6528 433.182 Q51.2975 433.182 50.0562 435.283 Q48.783 437.384 48.783 440.694 L48.783 448.396 M44.1042 454.253 L44.1042 440.312 Q44.1042 434.042 46.3959 430.668 Q48.6875 427.294 52.9207 427.294 Q56.1991 427.294 58.1406 429.013 Q60.0503 430.732 60.5278 434.105 Q61.2916 430.063 63.7106 427.835 Q66.1296 425.607 69.758 425.607 Q74.5323 425.607 77.1422 429.299 Q79.7522 432.96 79.7522 439.771 L79.7522 454.253 L44.1042 454.253 Z" fill="#000000" fill-rule="evenodd" fill-opacity="1" /><path clip-path="url(#clip290)" d="M1179.78 65.6895 L1203.72 65.6895 L1203.72 12.096 L1211.9 12.096 L1211.9 72.576 L1139.47 72.576 L1139.47 12.096 L1147.66 12.096 L1147.66 65.6895 L1171.6 65.6895 L1171.6 12.096 L1179.78 12.096 L1179.78 65.6895 Z" fill="#000000" fill-rule="evenodd" fill-opacity="1" /><path clip-path="url(#clip290)" d="M1227.58 27.2059 L1234.99 27.2059 L1234.99 48.5136 L1256.02 27.2059 L1265.17 27.2059 L1247.84 44.7463 L1267.4 72.576 L1259.06 72.576 L1242.98 49.6884 L1234.99 57.7902 L1234.99 72.576 L1227.58 72.576 L1227.58 27.2059 Z" fill="#000000" fill-rule="evenodd" fill-opacity="1" /><path clip-path="url(#clip290)" d="M1295.56 32.4315 Q1289.56 32.4315 1286.08 37.1306 Q1282.59 41.7891 1282.59 49.9314 Q1282.59 58.0738 1286.04 62.7728 Q1289.52 67.4314 1295.56 67.4314 Q1301.51 67.4314 1304.99 62.7323 Q1308.48 58.0333 1308.48 49.9314 Q1308.48 41.8701 1304.99 37.1711 Q1301.51 32.4315 1295.56 32.4315 M1295.56 26.1121 Q1305.28 26.1121 1310.83 32.4315 Q1316.38 38.7509 1316.38 49.9314 Q1316.38 61.0714 1310.83 67.4314 Q1305.28 73.7508 1295.56 73.7508 Q1285.79 73.7508 1280.24 67.4314 Q1274.73 61.0714 1274.73 49.9314 Q1274.73 38.7509 1280.24 32.4315 Q1285.79 26.1121 1295.56 26.1121 Z" fill="#000000" fill-rule="evenodd" fill-opacity="1" /><path clip-path="url(#clip290)" d="M1323.99 72.576 L1323.99 66.3781 Q1331.37 65.2439 1333.63 60.1397 Q1336.39 52.9696 1336.39 34.619 L1336.39 27.2059 L1367.05 27.2059 L1367.05 72.576 L1359.6 72.576 L1359.6 33.1607 L1343.84 33.1607 L1343.84 37.6572 Q1343.84 55.1571 1340.28 63.0159 Q1336.47 71.4012 1323.99 72.576 Z" fill="#000000" fill-rule="evenodd" fill-opacity="1" /><path clip-path="url(#clip290)" d="M1402.38 49.7694 Q1393.34 49.7694 1389.86 51.8354 Q1386.38 53.9013 1386.38 58.8839 Q1386.38 62.8538 1388.97 65.2034 Q1391.6 67.5124 1396.1 67.5124 Q1402.3 67.5124 1406.02 63.1374 Q1409.79 58.7219 1409.79 51.4303 L1409.79 49.7694 L1402.38 49.7694 M1417.24 46.6907 L1417.24 72.576 L1409.79 72.576 L1409.79 65.6895 Q1407.24 69.8214 1403.43 71.8063 Q1399.62 73.7508 1394.11 73.7508 Q1387.15 73.7508 1383.01 69.8619 Q1378.92 65.9325 1378.92 59.3701 Q1378.92 51.7138 1384.03 47.825 Q1389.17 43.9361 1399.34 43.9361 L1409.79 43.9361 L1409.79 43.2069 Q1409.79 38.0623 1406.39 35.2672 Q1403.03 32.4315 1396.91 32.4315 Q1393.02 32.4315 1389.33 33.3632 Q1385.65 34.295 1382.25 36.1584 L1382.25 29.2718 Q1386.34 27.692 1390.18 26.9223 Q1394.03 26.1121 1397.68 26.1121 Q1407.52 26.1121 1412.38 31.2163 Q1417.24 36.3204 1417.24 46.6907 Z" fill="#000000" fill-rule="evenodd" fill-opacity="1" /><path clip-path="url(#clip292)" d="
M334.815 1166.2 L334.815 1320.55 L382.589 1320.55 L382.589 1166.2 L334.815 1166.2 L334.815 1166.2  Z
  " fill="#4477aa" fill-rule="evenodd" fill-opacity="1"/>
<polyline clip-path="url(#clip292)" style="stroke:#000000; stroke-linecap:butt; stroke-linejoin:round; stroke-width:4; stroke-opacity:1; fill:none" points="
  334.815,1166.2 334.815,1320.55 382.589,1320.55 382.589,1166.2 334.815,1166.2 
  "/>
<path clip-path="url(#clip292)" d="
M454.251 1075.9 L454.251 1320.55 L502.025 1320.55 L502.025 1075.9 L454.251 1075.9 L454.251 1075.9  Z
  " fill="#4477aa" fill-rule="evenodd" fill-opacity="1"/>
<polyline clip-path="url(#clip292)" style="stroke:#000000; stroke-linecap:butt; stroke-linejoin:round; stroke-width:4; stroke-opacity:1; fill:none" points="
  454.251,1075.9 454.251,1320.55 502.025,1320.55 502.025,1075.9 454.251,1075.9 
  "/>
<path clip-path="url(#clip292)" d="
M573.687 1039.72 L573.687 1320.55 L621.461 1320.55 L621.461 1039.72 L573.687 1039.72 L573.687 1039.72  Z
  " fill="#4477aa" fill-rule="evenodd" fill-opacity="1"/>
<polyline clip-path="url(#clip292)" style="stroke:#000000; stroke-linecap:butt; stroke-linejoin:round; stroke-width:4; stroke-opacity:1; fill:none" points="
  573.687,1039.72 573.687,1320.55 621.461,1320.55 621.461,1039.72 573.687,1039.72 
  "/>
<path clip-path="url(#clip292)" d="
M693.123 943.746 L693.123 1320.55 L740.897 1320.55 L740.897 943.746 L693.123 943.746 L693.123 943.746  Z
  " fill="#4477aa" fill-rule="evenodd" fill-opacity="1"/>
<polyline clip-path="url(#clip292)" style="stroke:#000000; stroke-linecap:butt; stroke-linejoin:round; stroke-width:4; stroke-opacity:1; fill:none" points="
  693.123,943.746 693.123,1320.55 740.897,1320.55 740.897,943.746 693.123,943.746 
  "/>
<path clip-path="url(#clip292)" d="
M812.559 1285.45 L812.559 1320.55 L860.333 1320.55 L860.333 1285.45 L812.559 1285.45 L812.559 1285.45  Z
  " fill="#4477aa" fill-rule="evenodd" fill-opacity="1"/>
<polyline clip-path="url(#clip292)" style="stroke:#000000; stroke-linecap:butt; stroke-linejoin:round; stroke-width:4; stroke-opacity:1; fill:none" points="
  812.559,1285.45 812.559,1320.55 860.333,1320.55 860.333,1285.45 812.559,1285.45 
  "/>
<path clip-path="url(#clip292)" d="
M931.995 1283.6 L931.995 1320.55 L979.769 1320.55 L979.769 1283.6 L931.995 1283.6 L931.995 1283.6  Z
  " fill="#4477aa" fill-rule="evenodd" fill-opacity="1"/>
<polyline clip-path="url(#clip292)" style="stroke:#000000; stroke-linecap:butt; stroke-linejoin:round; stroke-width:4; stroke-opacity:1; fill:none" points="
  931.995,1283.6 931.995,1320.55 979.769,1320.55 979.769,1283.6 931.995,1283.6 
  "/>
<path clip-path="url(#clip292)" d="
M1051.43 1283.94 L1051.43 1320.55 L1099.21 1320.55 L1099.21 1283.94 L1051.43 1283.94 L1051.43 1283.94  Z
  " fill="#4477aa" fill-rule="evenodd" fill-opacity="1"/>
<polyline clip-path="url(#clip292)" style="stroke:#000000; stroke-linecap:butt; stroke-linejoin:round; stroke-width:4; stroke-opacity:1; fill:none" points="
  1051.43,1283.94 1051.43,1320.55 1099.21,1320.55 1099.21,1283.94 1051.43,1283.94 
  "/>
<path clip-path="url(#clip292)" d="
M1170.87 1283.3 L1170.87 1320.55 L1218.64 1320.55 L1218.64 1283.3 L1170.87 1283.3 L1170.87 1283.3  Z
  " fill="#4477aa" fill-rule="evenodd" fill-opacity="1"/>
<polyline clip-path="url(#clip292)" style="stroke:#000000; stroke-linecap:butt; stroke-linejoin:round; stroke-width:4; stroke-opacity:1; fill:none" points="
  1170.87,1283.3 1170.87,1320.55 1218.64,1320.55 1218.64,1283.3 1170.87,1283.3 
  "/>
<path clip-path="url(#clip292)" d="
M1290.3 1286.9 L1290.3 1320.55 L1338.08 1320.55 L1338.08 1286.9 L1290.3 1286.9 L1290.3 1286.9  Z
  " fill="#4477aa" fill-rule="evenodd" fill-opacity="1"/>
<polyline clip-path="url(#clip292)" style="stroke:#000000; stroke-linecap:butt; stroke-linejoin:round; stroke-width:4; stroke-opacity:1; fill:none" points="
  1290.3,1286.9 1290.3,1320.55 1338.08,1320.55 1338.08,1286.9 1290.3,1286.9 
  "/>
<path clip-path="url(#clip292)" d="
M1409.74 1289.3 L1409.74 1320.55 L1457.51 1320.55 L1457.51 1289.3 L1409.74 1289.3 L1409.74 1289.3  Z
  " fill="#4477aa" fill-rule="evenodd" fill-opacity="1"/>
<polyline clip-path="url(#clip292)" style="stroke:#000000; stroke-linecap:butt; stroke-linejoin:round; stroke-width:4; stroke-opacity:1; fill:none" points="
  1409.74,1289.3 1409.74,1320.55 1457.51,1320.55 1457.51,1289.3 1409.74,1289.3 
  "/>
<path clip-path="url(#clip292)" d="
M1529.18 1297.98 L1529.18 1320.55 L1576.95 1320.55 L1576.95 1297.98 L1529.18 1297.98 L1529.18 1297.98  Z
  " fill="#4477aa" fill-rule="evenodd" fill-opacity="1"/>
<polyline clip-path="url(#clip292)" style="stroke:#000000; stroke-linecap:butt; stroke-linejoin:round; stroke-width:4; stroke-opacity:1; fill:none" points="
  1529.18,1297.98 1529.18,1320.55 1576.95,1320.55 1576.95,1297.98 1529.18,1297.98 
  "/>
<path clip-path="url(#clip292)" d="
M1648.61 1308.17 L1648.61 1320.55 L1696.39 1320.55 L1696.39 1308.17 L1648.61 1308.17 L1648.61 1308.17  Z
  " fill="#4477aa" fill-rule="evenodd" fill-opacity="1"/>
<polyline clip-path="url(#clip292)" style="stroke:#000000; stroke-linecap:butt; stroke-linejoin:round; stroke-width:4; stroke-opacity:1; fill:none" points="
  1648.61,1308.17 1648.61,1320.55 1696.39,1320.55 1696.39,1308.17 1648.61,1308.17 
  "/>
<path clip-path="url(#clip292)" d="
M1768.05 1316.3 L1768.05 1320.55 L1815.82 1320.55 L1815.82 1316.3 L1768.05 1316.3 L1768.05 1316.3  Z
  " fill="#4477aa" fill-rule="evenodd" fill-opacity="1"/>
<polyline clip-path="url(#clip292)" style="stroke:#000000; stroke-linecap:butt; stroke-linejoin:round; stroke-width:4; stroke-opacity:1; fill:none" points="
  1768.05,1316.3 1768.05,1320.55 1815.82,1320.55 1815.82,1316.3 1768.05,1316.3 
  "/>
<path clip-path="url(#clip292)" d="
M1887.48 1318.21 L1887.48 1320.55 L1935.26 1320.55 L1935.26 1318.21 L1887.48 1318.21 L1887.48 1318.21  Z
  " fill="#4477aa" fill-rule="evenodd" fill-opacity="1"/>
<polyline clip-path="url(#clip292)" style="stroke:#000000; stroke-linecap:butt; stroke-linejoin:round; stroke-width:4; stroke-opacity:1; fill:none" points="
  1887.48,1318.21 1887.48,1320.55 1935.26,1320.55 1935.26,1318.21 1887.48,1318.21 
  "/>
<path clip-path="url(#clip292)" d="
M2006.92 1319.54 L2006.92 1320.55 L2054.69 1320.55 L2054.69 1319.54 L2006.92 1319.54 L2006.92 1319.54  Z
  " fill="#4477aa" fill-rule="evenodd" fill-opacity="1"/>
<polyline clip-path="url(#clip292)" style="stroke:#000000; stroke-linecap:butt; stroke-linejoin:round; stroke-width:4; stroke-opacity:1; fill:none" points="
  2006.92,1319.54 2006.92,1320.55 2054.69,1320.55 2054.69,1319.54 2006.92,1319.54 
  "/>
<path clip-path="url(#clip292)" d="
M2126.36 1319.4 L2126.36 1320.55 L2174.13 1320.55 L2174.13 1319.4 L2126.36 1319.4 L2126.36 1319.4  Z
  " fill="#4477aa" fill-rule="evenodd" fill-opacity="1"/>
<polyline clip-path="url(#clip292)" style="stroke:#000000; stroke-linecap:butt; stroke-linejoin:round; stroke-width:4; stroke-opacity:1; fill:none" points="
  2126.36,1319.4 2126.36,1320.55 2174.13,1320.55 2174.13,1319.4 2126.36,1319.4 
  "/>
<circle clip-path="url(#clip292)" style="fill:#000000; stroke:none; fill-opacity:0" cx="358.702" cy="1166.2" r="2"/>
<circle clip-path="url(#clip292)" style="fill:#000000; stroke:none; fill-opacity:0" cx="478.138" cy="1075.9" r="2"/>
<circle clip-path="url(#clip292)" style="fill:#000000; stroke:none; fill-opacity:0" cx="597.574" cy="1039.72" r="2"/>
<circle clip-path="url(#clip292)" style="fill:#000000; stroke:none; fill-opacity:0" cx="717.01" cy="943.746" r="2"/>
<circle clip-path="url(#clip292)" style="fill:#000000; stroke:none; fill-opacity:0" cx="836.446" cy="1285.45" r="2"/>
<circle clip-path="url(#clip292)" style="fill:#000000; stroke:none; fill-opacity:0" cx="955.882" cy="1283.6" r="2"/>
<circle clip-path="url(#clip292)" style="fill:#000000; stroke:none; fill-opacity:0" cx="1075.32" cy="1283.94" r="2"/>
<circle clip-path="url(#clip292)" style="fill:#000000; stroke:none; fill-opacity:0" cx="1194.75" cy="1283.3" r="2"/>
<circle clip-path="url(#clip292)" style="fill:#000000; stroke:none; fill-opacity:0" cx="1314.19" cy="1286.9" r="2"/>
<circle clip-path="url(#clip292)" style="fill:#000000; stroke:none; fill-opacity:0" cx="1433.63" cy="1289.3" r="2"/>
<circle clip-path="url(#clip292)" style="fill:#000000; stroke:none; fill-opacity:0" cx="1553.06" cy="1297.98" r="2"/>
<circle clip-path="url(#clip292)" style="fill:#000000; stroke:none; fill-opacity:0" cx="1672.5" cy="1308.17" r="2"/>
<circle clip-path="url(#clip292)" style="fill:#000000; stroke:none; fill-opacity:0" cx="1791.93" cy="1316.3" r="2"/>
<circle clip-path="url(#clip292)" style="fill:#000000; stroke:none; fill-opacity:0" cx="1911.37" cy="1318.21" r="2"/>
<circle clip-path="url(#clip292)" style="fill:#000000; stroke:none; fill-opacity:0" cx="2030.81" cy="1319.54" r="2"/>
<circle clip-path="url(#clip292)" style="fill:#000000; stroke:none; fill-opacity:0" cx="2150.24" cy="1319.4" r="2"/>
<path clip-path="url(#clip292)" d="
M382.589 1060.4 L382.589 1320.55 L430.363 1320.55 L430.363 1060.4 L382.589 1060.4 L382.589 1060.4  Z
  " fill="#ed6677" fill-rule="evenodd" fill-opacity="1"/>
<polyline clip-path="url(#clip292)" style="stroke:#000000; stroke-linecap:butt; stroke-linejoin:round; stroke-width:4; stroke-opacity:1; fill:none" points="
  382.589,1060.4 382.589,1320.55 430.363,1320.55 430.363,1060.4 382.589,1060.4 
  "/>
<path clip-path="url(#clip292)" d="
M502.025 304.744 L502.025 1320.55 L549.8 1320.55 L549.8 304.744 L502.025 304.744 L502.025 304.744  Z
  " fill="#ed6677" fill-rule="evenodd" fill-opacity="1"/>
<polyline clip-path="url(#clip292)" style="stroke:#000000; stroke-linecap:butt; stroke-linejoin:round; stroke-width:4; stroke-opacity:1; fill:none" points="
  502.025,304.744 502.025,1320.55 549.8,1320.55 549.8,304.744 502.025,304.744 
  "/>
<path clip-path="url(#clip292)" d="
M621.461 173.628 L621.461 1320.55 L669.236 1320.55 L669.236 173.628 L621.461 173.628 L621.461 173.628  Z
  " fill="#ed6677" fill-rule="evenodd" fill-opacity="1"/>
<polyline clip-path="url(#clip292)" style="stroke:#000000; stroke-linecap:butt; stroke-linejoin:round; stroke-width:4; stroke-opacity:1; fill:none" points="
  621.461,173.628 621.461,1320.55 669.236,1320.55 669.236,173.628 621.461,173.628 
  "/>
<path clip-path="url(#clip292)" d="
M740.897 687.637 L740.897 1320.55 L788.672 1320.55 L788.672 687.637 L740.897 687.637 L740.897 687.637  Z
  " fill="#ed6677" fill-rule="evenodd" fill-opacity="1"/>
<polyline clip-path="url(#clip292)" style="stroke:#000000; stroke-linecap:butt; stroke-linejoin:round; stroke-width:4; stroke-opacity:1; fill:none" points="
  740.897,687.637 740.897,1320.55 788.672,1320.55 788.672,687.637 740.897,687.637 
  "/>
<path clip-path="url(#clip292)" d="
M860.333 1236.61 L860.333 1320.55 L908.108 1320.55 L908.108 1236.61 L860.333 1236.61 L860.333 1236.61  Z
  " fill="#ed6677" fill-rule="evenodd" fill-opacity="1"/>
<polyline clip-path="url(#clip292)" style="stroke:#000000; stroke-linecap:butt; stroke-linejoin:round; stroke-width:4; stroke-opacity:1; fill:none" points="
  860.333,1236.61 860.333,1320.55 908.108,1320.55 908.108,1236.61 860.333,1236.61 
  "/>
<path clip-path="url(#clip292)" d="
M979.769 1308.33 L979.769 1320.55 L1027.54 1320.55 L1027.54 1308.33 L979.769 1308.33 L979.769 1308.33  Z
  " fill="#ed6677" fill-rule="evenodd" fill-opacity="1"/>
<polyline clip-path="url(#clip292)" style="stroke:#000000; stroke-linecap:butt; stroke-linejoin:round; stroke-width:4; stroke-opacity:1; fill:none" points="
  979.769,1308.33 979.769,1320.55 1027.54,1320.55 1027.54,1308.33 979.769,1308.33 
  "/>
<path clip-path="url(#clip292)" d="
M1099.21 1305.53 L1099.21 1320.55 L1146.98 1320.55 L1146.98 1305.53 L1099.21 1305.53 L1099.21 1305.53  Z
  " fill="#ed6677" fill-rule="evenodd" fill-opacity="1"/>
<polyline clip-path="url(#clip292)" style="stroke:#000000; stroke-linecap:butt; stroke-linejoin:round; stroke-width:4; stroke-opacity:1; fill:none" points="
  1099.21,1305.53 1099.21,1320.55 1146.98,1320.55 1146.98,1305.53 1099.21,1305.53 
  "/>
<path clip-path="url(#clip292)" d="
M1218.64 1305.42 L1218.64 1320.55 L1266.42 1320.55 L1266.42 1305.42 L1218.64 1305.42 L1218.64 1305.42  Z
  " fill="#ed6677" fill-rule="evenodd" fill-opacity="1"/>
<polyline clip-path="url(#clip292)" style="stroke:#000000; stroke-linecap:butt; stroke-linejoin:round; stroke-width:4; stroke-opacity:1; fill:none" points="
  1218.64,1305.42 1218.64,1320.55 1266.42,1320.55 1266.42,1305.42 1218.64,1305.42 
  "/>
<path clip-path="url(#clip292)" d="
M1338.08 1304.65 L1338.08 1320.55 L1385.85 1320.55 L1385.85 1304.65 L1338.08 1304.65 L1338.08 1304.65  Z
  " fill="#ed6677" fill-rule="evenodd" fill-opacity="1"/>
<polyline clip-path="url(#clip292)" style="stroke:#000000; stroke-linecap:butt; stroke-linejoin:round; stroke-width:4; stroke-opacity:1; fill:none" points="
  1338.08,1304.65 1338.08,1320.55 1385.85,1320.55 1385.85,1304.65 1338.08,1304.65 
  "/>
<path clip-path="url(#clip292)" d="
M1457.51 1304.67 L1457.51 1320.55 L1505.29 1320.55 L1505.29 1304.67 L1457.51 1304.67 L1457.51 1304.67  Z
  " fill="#ed6677" fill-rule="evenodd" fill-opacity="1"/>
<polyline clip-path="url(#clip292)" style="stroke:#000000; stroke-linecap:butt; stroke-linejoin:round; stroke-width:4; stroke-opacity:1; fill:none" points="
  1457.51,1304.67 1457.51,1320.55 1505.29,1320.55 1505.29,1304.67 1457.51,1304.67 
  "/>
<path clip-path="url(#clip292)" d="
M1576.95 1307.02 L1576.95 1320.55 L1624.72 1320.55 L1624.72 1307.02 L1576.95 1307.02 L1576.95 1307.02  Z
  " fill="#ed6677" fill-rule="evenodd" fill-opacity="1"/>
<polyline clip-path="url(#clip292)" style="stroke:#000000; stroke-linecap:butt; stroke-linejoin:round; stroke-width:4; stroke-opacity:1; fill:none" points="
  1576.95,1307.02 1576.95,1320.55 1624.72,1320.55 1624.72,1307.02 1576.95,1307.02 
  "/>
<path clip-path="url(#clip292)" d="
M1696.39 1307.23 L1696.39 1320.55 L1744.16 1320.55 L1744.16 1307.23 L1696.39 1307.23 L1696.39 1307.23  Z
  " fill="#ed6677" fill-rule="evenodd" fill-opacity="1"/>
<polyline clip-path="url(#clip292)" style="stroke:#000000; stroke-linecap:butt; stroke-linejoin:round; stroke-width:4; stroke-opacity:1; fill:none" points="
  1696.39,1307.23 1696.39,1320.55 1744.16,1320.55 1744.16,1307.23 1696.39,1307.23 
  "/>
<path clip-path="url(#clip292)" d="
M1815.82 1313.69 L1815.82 1320.55 L1863.6 1320.55 L1863.6 1313.69 L1815.82 1313.69 L1815.82 1313.69  Z
  " fill="#ed6677" fill-rule="evenodd" fill-opacity="1"/>
<polyline clip-path="url(#clip292)" style="stroke:#000000; stroke-linecap:butt; stroke-linejoin:round; stroke-width:4; stroke-opacity:1; fill:none" points="
  1815.82,1313.69 1815.82,1320.55 1863.6,1320.55 1863.6,1313.69 1815.82,1313.69 
  "/>
<path clip-path="url(#clip292)" d="
M1935.26 1315.77 L1935.26 1320.55 L1983.03 1320.55 L1983.03 1315.77 L1935.26 1315.77 L1935.26 1315.77  Z
  " fill="#ed6677" fill-rule="evenodd" fill-opacity="1"/>
<polyline clip-path="url(#clip292)" style="stroke:#000000; stroke-linecap:butt; stroke-linejoin:round; stroke-width:4; stroke-opacity:1; fill:none" points="
  1935.26,1315.77 1935.26,1320.55 1983.03,1320.55 1983.03,1315.77 1935.26,1315.77 
  "/>
<path clip-path="url(#clip292)" d="
M2054.69 1317.48 L2054.69 1320.55 L2102.47 1320.55 L2102.47 1317.48 L2054.69 1317.48 L2054.69 1317.48  Z
  " fill="#ed6677" fill-rule="evenodd" fill-opacity="1"/>
<polyline clip-path="url(#clip292)" style="stroke:#000000; stroke-linecap:butt; stroke-linejoin:round; stroke-width:4; stroke-opacity:1; fill:none" points="
  2054.69,1317.48 2054.69,1320.55 2102.47,1320.55 2102.47,1317.48 2054.69,1317.48 
  "/>
<path clip-path="url(#clip292)" d="
M2174.13 1319.08 L2174.13 1320.55 L2221.9 1320.55 L2221.9 1319.08 L2174.13 1319.08 L2174.13 1319.08  Z
  " fill="#ed6677" fill-rule="evenodd" fill-opacity="1"/>
<polyline clip-path="url(#clip292)" style="stroke:#000000; stroke-linecap:butt; stroke-linejoin:round; stroke-width:4; stroke-opacity:1; fill:none" points="
  2174.13,1319.08 2174.13,1320.55 2221.9,1320.55 2221.9,1319.08 2174.13,1319.08 
  "/>
<circle clip-path="url(#clip292)" style="fill:#000000; stroke:none; fill-opacity:0" cx="406.476" cy="1060.4" r="2"/>
<circle clip-path="url(#clip292)" style="fill:#000000; stroke:none; fill-opacity:0" cx="525.912" cy="304.744" r="2"/>
<circle clip-path="url(#clip292)" style="fill:#000000; stroke:none; fill-opacity:0" cx="645.348" cy="173.628" r="2"/>
<circle clip-path="url(#clip292)" style="fill:#000000; stroke:none; fill-opacity:0" cx="764.785" cy="687.637" r="2"/>
<circle clip-path="url(#clip292)" style="fill:#000000; stroke:none; fill-opacity:0" cx="884.221" cy="1236.61" r="2"/>
<circle clip-path="url(#clip292)" style="fill:#000000; stroke:none; fill-opacity:0" cx="1003.66" cy="1308.33" r="2"/>
<circle clip-path="url(#clip292)" style="fill:#000000; stroke:none; fill-opacity:0" cx="1123.09" cy="1305.53" r="2"/>
<circle clip-path="url(#clip292)" style="fill:#000000; stroke:none; fill-opacity:0" cx="1242.53" cy="1305.42" r="2"/>
<circle clip-path="url(#clip292)" style="fill:#000000; stroke:none; fill-opacity:0" cx="1361.97" cy="1304.65" r="2"/>
<circle clip-path="url(#clip292)" style="fill:#000000; stroke:none; fill-opacity:0" cx="1481.4" cy="1304.67" r="2"/>
<circle clip-path="url(#clip292)" style="fill:#000000; stroke:none; fill-opacity:0" cx="1600.84" cy="1307.02" r="2"/>
<circle clip-path="url(#clip292)" style="fill:#000000; stroke:none; fill-opacity:0" cx="1720.27" cy="1307.23" r="2"/>
<circle clip-path="url(#clip292)" style="fill:#000000; stroke:none; fill-opacity:0" cx="1839.71" cy="1313.69" r="2"/>
<circle clip-path="url(#clip292)" style="fill:#000000; stroke:none; fill-opacity:0" cx="1959.15" cy="1315.77" r="2"/>
<circle clip-path="url(#clip292)" style="fill:#000000; stroke:none; fill-opacity:0" cx="2078.58" cy="1317.48" r="2"/>
<circle clip-path="url(#clip292)" style="fill:#000000; stroke:none; fill-opacity:0" cx="2198.02" cy="1319.08" r="2"/>
<path clip-path="url(#clip290)" d="
M1845.76 335.265 L2266.43 335.265 L2266.43 179.745 L1845.76 179.745  Z
  " fill="#000000" fill-rule="evenodd" fill-opacity="0"/>
<polyline clip-path="url(#clip290)" style="stroke:#000000; stroke-linecap:butt; stroke-linejoin:round; stroke-width:4; stroke-opacity:0; fill:none" points="
  1845.76,335.265 2266.43,335.265 2266.43,179.745 1845.76,179.745 1845.76,335.265 
  "/>
<path clip-path="url(#clip290)" d="
M1869.29 252.321 L2010.44 252.321 L2010.44 210.849 L1869.29 210.849 L1869.29 252.321  Z
  " fill="#4477aa" fill-rule="evenodd" fill-opacity="1"/>
<polyline clip-path="url(#clip290)" style="stroke:#000000; stroke-linecap:butt; stroke-linejoin:round; stroke-width:4; stroke-opacity:1; fill:none" points="
  1869.29,252.321 2010.44,252.321 2010.44,210.849 1869.29,210.849 1869.29,252.321 
  "/>
<path clip-path="url(#clip290)" d="M2041.74 245.462 L2054.1 245.462 L2054.1 226.342 L2045.15 226.342 L2045.15 229.583 Q2045.15 239.12 2042.41 244.212 L2041.74 245.462 M2035.56 245.462 Q2037.67 244.536 2038.59 242.569 Q2040.86 237.684 2040.86 227.846 L2040.86 222.939 L2058.39 222.939 L2058.39 245.462 L2061.79 245.462 L2061.79 255.416 L2058.39 255.416 L2058.39 248.865 L2037.37 248.865 L2037.37 255.416 L2033.96 255.416 L2033.96 245.462 L2035.56 245.462 Z" fill="#000000" fill-rule="evenodd" fill-opacity="1" /><path clip-path="url(#clip290)" d="M2080.52 235.833 Q2075.35 235.833 2073.36 237.013 Q2071.37 238.194 2071.37 241.041 Q2071.37 243.309 2072.85 244.652 Q2074.36 245.971 2076.93 245.971 Q2080.47 245.971 2082.6 243.471 Q2084.75 240.948 2084.75 236.782 L2084.75 235.833 L2080.52 235.833 M2089.01 234.073 L2089.01 248.865 L2084.75 248.865 L2084.75 244.93 Q2083.29 247.291 2081.12 248.425 Q2078.94 249.536 2075.79 249.536 Q2071.81 249.536 2069.45 247.314 Q2067.11 245.069 2067.11 241.319 Q2067.11 236.944 2070.03 234.721 Q2072.97 232.499 2078.78 232.499 L2084.75 232.499 L2084.75 232.083 Q2084.75 229.143 2082.81 227.546 Q2080.89 225.925 2077.39 225.925 Q2075.17 225.925 2073.06 226.458 Q2070.96 226.99 2069.01 228.055 L2069.01 224.12 Q2071.35 223.217 2073.55 222.777 Q2075.75 222.314 2077.83 222.314 Q2083.46 222.314 2086.23 225.231 Q2089.01 228.147 2089.01 234.073 Z" fill="#000000" fill-rule="evenodd" fill-opacity="1" /><path clip-path="url(#clip290)" d="M2097.62 222.939 L2101.9 222.939 L2101.9 233.518 L2115.72 233.518 L2115.72 222.939 L2120.01 222.939 L2120.01 248.865 L2115.72 248.865 L2115.72 236.921 L2101.9 236.921 L2101.9 248.865 L2097.62 248.865 L2097.62 222.939 Z" fill="#000000" fill-rule="evenodd" fill-opacity="1" /><path clip-path="url(#clip290)" d="M2128.62 222.939 L2132.9 222.939 L2132.9 233.518 L2146.72 233.518 L2146.72 222.939 L2151 222.939 L2151 248.865 L2146.72 248.865 L2146.72 236.921 L2132.9 236.921 L2132.9 248.865 L2128.62 248.865 L2128.62 222.939 Z" fill="#000000" fill-rule="evenodd" fill-opacity="1" /><path clip-path="url(#clip290)" d="M2184.26 222.939 L2188.52 222.939 L2188.52 248.865 L2184.26 248.865 L2184.26 222.939 M2186.39 222.314 L2186.39 222.314 M2175.91 241.18 Q2175.91 239.096 2174.38 238.008 Q2172.88 236.921 2169.96 236.921 L2163.89 236.921 L2163.89 245.462 L2169.96 245.462 Q2172.88 245.462 2174.38 244.374 Q2175.91 243.263 2175.91 241.18 M2159.61 222.939 L2163.89 222.939 L2163.89 233.518 L2170.14 233.518 Q2175.1 233.518 2177.76 235.416 Q2180.45 237.291 2180.45 241.18 Q2180.45 245.069 2177.76 246.967 Q2175.1 248.865 2170.14 248.865 L2159.61 248.865 L2159.61 222.939 Z" fill="#000000" fill-rule="evenodd" fill-opacity="1" /><path clip-path="url(#clip290)" d="M2219.38 234.837 L2219.38 236.921 L2199.8 236.921 Q2200.07 241.319 2202.44 243.633 Q2204.82 245.925 2209.06 245.925 Q2211.51 245.925 2213.8 245.323 Q2216.12 244.721 2218.38 243.518 L2218.38 247.545 Q2216.09 248.518 2213.69 249.027 Q2211.28 249.536 2208.8 249.536 Q2202.6 249.536 2198.96 245.925 Q2195.35 242.314 2195.35 236.157 Q2195.35 229.791 2198.78 226.064 Q2202.23 222.314 2208.06 222.314 Q2213.29 222.314 2216.32 225.694 Q2219.38 229.05 2219.38 234.837 M2215.12 233.587 Q2215.07 230.092 2213.15 228.009 Q2211.26 225.925 2208.11 225.925 Q2204.54 225.925 2202.39 227.939 Q2200.26 229.953 2199.94 233.61 L2215.12 233.587 Z" fill="#000000" fill-rule="evenodd" fill-opacity="1" /><path clip-path="url(#clip290)" d="
M1869.29 304.161 L2010.44 304.161 L2010.44 262.689 L1869.29 262.689 L1869.29 304.161  Z
  " fill="#ed6677" fill-rule="evenodd" fill-opacity="1"/>
<polyline clip-path="url(#clip290)" style="stroke:#000000; stroke-linecap:butt; stroke-linejoin:round; stroke-width:4; stroke-opacity:1; fill:none" points="
  1869.29,304.161 2010.44,304.161 2010.44,262.689 1869.29,262.689 1869.29,304.161 
  "/>
<path clip-path="url(#clip290)" d="M2033.96 274.779 L2040.19 274.779 L2047.55 292.14 L2054.94 274.779 L2061.12 274.779 L2061.12 300.705 L2056.83 300.705 L2056.83 278.853 L2049.68 295.728 L2045.42 295.728 L2038.25 278.853 L2038.25 300.705 L2033.96 300.705 L2033.96 274.779 Z" fill="#000000" fill-rule="evenodd" fill-opacity="1" /><path clip-path="url(#clip290)" d="M2079.94 277.765 Q2076.51 277.765 2074.52 280.45 Q2072.53 283.112 2072.53 287.765 Q2072.53 292.418 2074.5 295.103 Q2076.49 297.765 2079.94 297.765 Q2083.34 297.765 2085.33 295.08 Q2087.32 292.395 2087.32 287.765 Q2087.32 283.159 2085.33 280.474 Q2083.34 277.765 2079.94 277.765 M2079.94 274.154 Q2085.49 274.154 2088.66 277.765 Q2091.83 281.376 2091.83 287.765 Q2091.83 294.131 2088.66 297.765 Q2085.49 301.376 2079.94 301.376 Q2074.36 301.376 2071.19 297.765 Q2068.04 294.131 2068.04 287.765 Q2068.04 281.376 2071.19 277.765 Q2074.36 274.154 2079.94 274.154 Z" fill="#000000" fill-rule="evenodd" fill-opacity="1" /><path clip-path="url(#clip290)" d="M2104.68 297.302 L2117.04 297.302 L2117.04 278.182 L2108.08 278.182 L2108.08 281.423 Q2108.08 290.96 2105.35 296.052 L2104.68 297.302 M2098.5 297.302 Q2100.61 296.376 2101.53 294.409 Q2103.8 289.524 2103.8 279.686 L2103.8 274.779 L2121.33 274.779 L2121.33 297.302 L2124.73 297.302 L2124.73 307.256 L2121.33 307.256 L2121.33 300.705 L2100.31 300.705 L2100.31 307.256 L2096.9 307.256 L2096.9 297.302 L2098.5 297.302 Z" fill="#000000" fill-rule="evenodd" fill-opacity="1" /><path clip-path="url(#clip290)" d="M2153.85 286.677 L2153.85 288.761 L2134.27 288.761 Q2134.54 293.159 2136.9 295.473 Q2139.29 297.765 2143.52 297.765 Q2145.98 297.765 2148.27 297.163 Q2150.58 296.561 2152.85 295.358 L2152.85 299.385 Q2150.56 300.358 2148.15 300.867 Q2145.75 301.376 2143.27 301.376 Q2137.07 301.376 2133.43 297.765 Q2129.82 294.154 2129.82 287.997 Q2129.82 281.631 2133.25 277.904 Q2136.7 274.154 2142.53 274.154 Q2147.76 274.154 2150.79 277.534 Q2153.85 280.89 2153.85 286.677 M2149.59 285.427 Q2149.54 281.932 2147.62 279.849 Q2145.72 277.765 2142.58 277.765 Q2139.01 277.765 2136.86 279.779 Q2134.73 281.793 2134.4 285.45 L2149.59 285.427 Z" fill="#000000" fill-rule="evenodd" fill-opacity="1" /><path clip-path="url(#clip290)" d="M2158.13 300.705 L2158.13 297.163 Q2162.34 296.515 2163.64 293.598 Q2165.21 289.501 2165.21 279.015 L2165.21 274.779 L2182.74 274.779 L2182.74 300.705 L2178.48 300.705 L2178.48 278.182 L2169.47 278.182 L2169.47 280.751 Q2169.47 290.751 2167.44 295.242 Q2165.26 300.034 2158.13 300.705 Z" fill="#000000" fill-rule="evenodd" fill-opacity="1" /><path clip-path="url(#clip290)" d="M2207.27 293.02 Q2207.27 290.936 2205.75 289.848 Q2204.24 288.761 2201.32 288.761 L2195.26 288.761 L2195.26 297.302 L2201.32 297.302 Q2204.24 297.302 2205.75 296.214 Q2207.27 295.103 2207.27 293.02 M2190.98 274.779 L2195.26 274.779 L2195.26 285.358 L2201.51 285.358 Q2206.46 285.358 2209.13 287.256 Q2211.81 289.131 2211.81 293.02 Q2211.81 296.909 2209.13 298.807 Q2206.46 300.705 2201.51 300.705 L2190.98 300.705 L2190.98 274.779 Z" fill="#000000" fill-rule="evenodd" fill-opacity="1" /></svg>
