<?xml version="1.0" encoding="utf-8"?>
<svg xmlns="http://www.w3.org/2000/svg" xmlns:xlink="http://www.w3.org/1999/xlink" width="600" height="400" viewBox="0 0 2400 1600">
<defs>
  <clipPath id="clip550">
    <rect x="0" y="0" width="2400" height="1600"/>
  </clipPath>
</defs>
<path clip-path="url(#clip550)" d="
M0 1600 L2400 1600 L2400 0 L0 0  Z
  " fill="#ffffff" fill-rule="evenodd" fill-opacity="1"/>
<defs>
  <clipPath id="clip551">
    <rect x="480" y="0" width="1681" height="1600"/>
  </clipPath>
</defs>
<path clip-path="url(#clip550)" d="
M191.193 1354.96 L2337.01 1354.96 L2337.01 139.22 L191.193 139.22  Z
  " fill="#ffffff" fill-rule="evenodd" fill-opacity="1"/>
<defs>
  <clipPath id="clip552">
    <rect x="191" y="139" width="2147" height="1217"/>
  </clipPath>
</defs>
<polyline clip-path="url(#clip552)" style="stroke:#000000; stroke-linecap:butt; stroke-linejoin:round; stroke-width:2; stroke-opacity:0.1; fill:none" points="
  356.264,1354.96 356.264,139.22 
  "/>
<polyline clip-path="url(#clip552)" style="stroke:#000000; stroke-linecap:butt; stroke-linejoin:round; stroke-width:2; stroke-opacity:0.1; fill:none" points="
  477.309,1354.96 477.309,139.22 
  "/>
<polyline clip-path="url(#clip552)" style="stroke:#000000; stroke-linecap:butt; stroke-linejoin:round; stroke-width:2; stroke-opacity:0.1; fill:none" points="
  598.354,1354.96 598.354,139.22 
  "/>
<polyline clip-path="url(#clip552)" style="stroke:#000000; stroke-linecap:butt; stroke-linejoin:round; stroke-width:2; stroke-opacity:0.1; fill:none" points="
  719.399,1354.96 719.399,139.22 
  "/>
<polyline clip-path="url(#clip552)" style="stroke:#000000; stroke-linecap:butt; stroke-linejoin:round; stroke-width:2; stroke-opacity:0.1; fill:none" points="
  840.444,1354.96 840.444,139.22 
  "/>
<polyline clip-path="url(#clip552)" style="stroke:#000000; stroke-linecap:butt; stroke-linejoin:round; stroke-width:2; stroke-opacity:0.1; fill:none" points="
  961.489,1354.96 961.489,139.22 
  "/>
<polyline clip-path="url(#clip552)" style="stroke:#000000; stroke-linecap:butt; stroke-linejoin:round; stroke-width:2; stroke-opacity:0.1; fill:none" points="
  1082.53,1354.96 1082.53,139.22 
  "/>
<polyline clip-path="url(#clip552)" style="stroke:#000000; stroke-linecap:butt; stroke-linejoin:round; stroke-width:2; stroke-opacity:0.1; fill:none" points="
  1203.58,1354.96 1203.58,139.22 
  "/>
<polyline clip-path="url(#clip552)" style="stroke:#000000; stroke-linecap:butt; stroke-linejoin:round; stroke-width:2; stroke-opacity:0.1; fill:none" points="
  1324.62,1354.96 1324.62,139.22 
  "/>
<polyline clip-path="url(#clip552)" style="stroke:#000000; stroke-linecap:butt; stroke-linejoin:round; stroke-width:2; stroke-opacity:0.1; fill:none" points="
  1445.67,1354.96 1445.67,139.22 
  "/>
<polyline clip-path="url(#clip552)" style="stroke:#000000; stroke-linecap:butt; stroke-linejoin:round; stroke-width:2; stroke-opacity:0.1; fill:none" points="
  1566.71,1354.96 1566.71,139.22 
  "/>
<polyline clip-path="url(#clip552)" style="stroke:#000000; stroke-linecap:butt; stroke-linejoin:round; stroke-width:2; stroke-opacity:0.1; fill:none" points="
  1687.76,1354.96 1687.76,139.22 
  "/>
<polyline clip-path="url(#clip552)" style="stroke:#000000; stroke-linecap:butt; stroke-linejoin:round; stroke-width:2; stroke-opacity:0.1; fill:none" points="
  1808.8,1354.96 1808.8,139.22 
  "/>
<polyline clip-path="url(#clip552)" style="stroke:#000000; stroke-linecap:butt; stroke-linejoin:round; stroke-width:2; stroke-opacity:0.1; fill:none" points="
  1929.85,1354.96 1929.85,139.22 
  "/>
<polyline clip-path="url(#clip552)" style="stroke:#000000; stroke-linecap:butt; stroke-linejoin:round; stroke-width:2; stroke-opacity:0.1; fill:none" points="
  2050.89,1354.96 2050.89,139.22 
  "/>
<polyline clip-path="url(#clip552)" style="stroke:#000000; stroke-linecap:butt; stroke-linejoin:round; stroke-width:2; stroke-opacity:0.1; fill:none" points="
  2171.94,1354.96 2171.94,139.22 
  "/>
<polyline clip-path="url(#clip550)" style="stroke:#000000; stroke-linecap:butt; stroke-linejoin:round; stroke-width:4; stroke-opacity:1; fill:none" points="
  191.193,1354.96 2337.01,1354.96 
  "/>
<polyline clip-path="url(#clip550)" style="stroke:#000000; stroke-linecap:butt; stroke-linejoin:round; stroke-width:4; stroke-opacity:1; fill:none" points="
  356.264,1354.96 356.264,1336.06 
  "/>
<polyline clip-path="url(#clip550)" style="stroke:#000000; stroke-linecap:butt; stroke-linejoin:round; stroke-width:4; stroke-opacity:1; fill:none" points="
  477.309,1354.96 477.309,1336.06 
  "/>
<polyline clip-path="url(#clip550)" style="stroke:#000000; stroke-linecap:butt; stroke-linejoin:round; stroke-width:4; stroke-opacity:1; fill:none" points="
  598.354,1354.96 598.354,1336.06 
  "/>
<polyline clip-path="url(#clip550)" style="stroke:#000000; stroke-linecap:butt; stroke-linejoin:round; stroke-width:4; stroke-opacity:1; fill:none" points="
  719.399,1354.96 719.399,1336.06 
  "/>
<polyline clip-path="url(#clip550)" style="stroke:#000000; stroke-linecap:butt; stroke-linejoin:round; stroke-width:4; stroke-opacity:1; fill:none" points="
  840.444,1354.96 840.444,1336.06 
  "/>
<polyline clip-path="url(#clip550)" style="stroke:#000000; stroke-linecap:butt; stroke-linejoin:round; stroke-width:4; stroke-opacity:1; fill:none" points="
  961.489,1354.96 961.489,1336.06 
  "/>
<polyline clip-path="url(#clip550)" style="stroke:#000000; stroke-linecap:butt; stroke-linejoin:round; stroke-width:4; stroke-opacity:1; fill:none" points="
  1082.53,1354.96 1082.53,1336.06 
  "/>
<polyline clip-path="url(#clip550)" style="stroke:#000000; stroke-linecap:butt; stroke-linejoin:round; stroke-width:4; stroke-opacity:1; fill:none" points="
  1203.58,1354.96 1203.58,1336.06 
  "/>
<polyline clip-path="url(#clip550)" style="stroke:#000000; stroke-linecap:butt; stroke-linejoin:round; stroke-width:4; stroke-opacity:1; fill:none" points="
  1324.62,1354.96 1324.62,1336.06 
  "/>
<polyline clip-path="url(#clip550)" style="stroke:#000000; stroke-linecap:butt; stroke-linejoin:round; stroke-width:4; stroke-opacity:1; fill:none" points="
  1445.67,1354.96 1445.67,1336.06 
  "/>
<polyline clip-path="url(#clip550)" style="stroke:#000000; stroke-linecap:butt; stroke-linejoin:round; stroke-width:4; stroke-opacity:1; fill:none" points="
  1566.71,1354.96 1566.71,1336.06 
  "/>
<polyline clip-path="url(#clip550)" style="stroke:#000000; stroke-linecap:butt; stroke-linejoin:round; stroke-width:4; stroke-opacity:1; fill:none" points="
  1687.76,1354.96 1687.76,1336.06 
  "/>
<polyline clip-path="url(#clip550)" style="stroke:#000000; stroke-linecap:butt; stroke-linejoin:round; stroke-width:4; stroke-opacity:1; fill:none" points="
  1808.8,1354.96 1808.8,1336.06 
  "/>
<polyline clip-path="url(#clip550)" style="stroke:#000000; stroke-linecap:butt; stroke-linejoin:round; stroke-width:4; stroke-opacity:1; fill:none" points="
  1929.85,1354.96 1929.85,1336.06 
  "/>
<polyline clip-path="url(#clip550)" style="stroke:#000000; stroke-linecap:butt; stroke-linejoin:round; stroke-width:4; stroke-opacity:1; fill:none" points="
  2050.89,1354.96 2050.89,1336.06 
  "/>
<polyline clip-path="url(#clip550)" style="stroke:#000000; stroke-linecap:butt; stroke-linejoin:round; stroke-width:4; stroke-opacity:1; fill:none" points="
  2171.94,1354.96 2171.94,1336.06 
  "/>
<path clip-path="url(#clip550)" d="M304.009 1424.66 Q301.456 1427.22 302.683 1431.03 Q303.911 1434.81 308.952 1439.85 Q313.977 1444.88 317.775 1446.12 Q321.572 1447.33 324.126 1444.78 Q326.695 1442.21 325.468 1438.43 Q324.24 1434.61 319.215 1429.59 Q314.174 1424.55 310.376 1423.34 Q306.579 1422.09 304.009 1424.66 M301.39 1422.04 Q305.499 1417.93 310.917 1419.03 Q316.334 1420.1 322.522 1426.28 Q328.692 1432.45 329.773 1437.89 Q330.853 1443.29 326.745 1447.4 Q322.636 1451.51 317.218 1450.44 Q311.8 1449.35 305.63 1443.17 Q299.443 1436.99 298.362 1431.59 Q297.282 1426.15 301.39 1422.04 Z" fill="#000000" fill-rule="evenodd" fill-opacity="1" /><path clip-path="url(#clip550)" d="M328.054 1424.09 L336.876 1415.27 L339.561 1417.95 L330.738 1426.77 L328.054 1424.09 Z" fill="#000000" fill-rule="evenodd" fill-opacity="1" /><path clip-path="url(#clip550)" d="M340.15 1389.93 L344.848 1411.32 L353.195 1402.97 L340.15 1389.93 M336.402 1387.92 L340.559 1383.76 L356.485 1399.68 L359.972 1396.2 L362.722 1398.95 L359.235 1402.43 L364.997 1408.2 L361.707 1411.49 L355.945 1405.72 L344.913 1416.76 L341.721 1413.56 L336.402 1387.92 Z" fill="#000000" fill-rule="evenodd" fill-opacity="1" /><path clip-path="url(#clip550)" d="M416.313 1429.05 L429.293 1416.07 L432.076 1418.85 L422.124 1428.8 L428.115 1434.79 Q428.59 1433.83 429.195 1432.99 Q429.784 1432.14 430.505 1431.42 Q434.597 1427.33 439.229 1427.18 Q443.861 1427.04 447.691 1430.87 Q451.636 1434.81 451.374 1439.46 Q451.096 1444.09 446.627 1448.56 Q445.089 1450.1 443.223 1451.44 Q441.373 1452.77 439.147 1453.94 L435.824 1450.62 Q438.099 1449.95 440.064 1448.77 Q442.028 1447.59 443.779 1445.84 Q446.611 1443.01 446.775 1439.87 Q446.938 1436.73 444.385 1434.17 Q441.831 1431.62 438.689 1431.78 Q435.546 1431.95 432.714 1434.78 Q431.389 1436.1 430.357 1437.72 Q429.342 1439.33 428.59 1441.32 L416.313 1429.05 Z" fill="#000000" fill-rule="evenodd" fill-opacity="1" /><path clip-path="url(#clip550)" d="M449.573 1423.61 L458.396 1414.79 L461.08 1417.48 L452.258 1426.3 L449.573 1423.61 Z" fill="#000000" fill-rule="evenodd" fill-opacity="1" /><path clip-path="url(#clip550)" d="M473.733 1419.49 L470.721 1416.48 Q472.554 1415.82 474.142 1414.86 Q475.73 1413.89 476.957 1412.66 Q480.231 1409.39 479.756 1405.48 Q479.282 1401.53 475.042 1396.8 Q475.501 1399.16 474.797 1401.37 Q474.093 1403.58 472.325 1405.35 Q468.659 1409.01 464.305 1408.95 Q459.951 1408.85 456.104 1405 Q452.34 1401.24 452.291 1396.74 Q452.241 1392.24 455.941 1388.54 Q460.18 1384.3 465.663 1385.33 Q471.147 1386.33 477.334 1392.52 Q483.112 1398.29 483.816 1404.5 Q484.519 1410.67 479.887 1415.3 Q478.643 1416.54 477.121 1417.57 Q475.599 1418.61 473.733 1419.49 M469.952 1402.55 Q472.178 1400.32 471.949 1397.51 Q471.736 1394.68 469.084 1392.02 Q466.449 1389.39 463.617 1389.18 Q460.786 1388.93 458.56 1391.16 Q456.334 1393.38 456.563 1396.23 Q456.792 1399.05 459.427 1401.68 Q462.079 1404.33 464.894 1404.56 Q467.726 1404.77 469.952 1402.55 Z" fill="#000000" fill-rule="evenodd" fill-opacity="1" /><path clip-path="url(#clip550)" d="M516.423 1493.29 L521.825 1487.89 L503.182 1469.25 L498.484 1476.3 L495.472 1473.29 L500.137 1466.27 L503.444 1462.96 L525.099 1484.62 L530.5 1479.22 L533.283 1482 L519.206 1496.08 L516.423 1493.29 Z" fill="#000000" fill-rule="evenodd" fill-opacity="1" /><path clip-path="url(#clip550)" d="M524.771 1445.99 Q522.218 1448.54 523.445 1452.36 Q524.673 1456.14 529.714 1461.18 Q534.739 1466.2 538.537 1467.45 Q542.334 1468.66 544.888 1466.11 Q547.457 1463.54 546.23 1459.76 Q545.002 1455.94 539.977 1450.92 Q534.936 1445.88 531.138 1444.66 Q527.341 1443.42 524.771 1445.99 M522.152 1443.37 Q526.261 1439.26 531.679 1440.36 Q537.096 1441.42 543.284 1447.61 Q549.454 1453.78 550.535 1459.22 Q551.615 1464.62 547.507 1468.73 Q543.398 1472.83 537.98 1471.77 Q532.562 1470.67 526.392 1464.5 Q520.204 1458.32 519.124 1452.91 Q518.044 1447.48 522.152 1443.37 Z" fill="#000000" fill-rule="evenodd" fill-opacity="1" /><path clip-path="url(#clip550)" d="M548.816 1445.42 L557.638 1436.59 L560.323 1439.28 L551.5 1448.1 L548.816 1445.42 Z" fill="#000000" fill-rule="evenodd" fill-opacity="1" /><path clip-path="url(#clip550)" d="M571.175 1438.54 L576.576 1433.14 L557.933 1414.5 L553.235 1421.55 L550.224 1418.54 L554.889 1411.52 L558.195 1408.21 L579.85 1429.87 L585.251 1424.47 L588.034 1427.25 L573.957 1441.32 L571.175 1438.54 Z" fill="#000000" fill-rule="evenodd" fill-opacity="1" /><path clip-path="url(#clip550)" d="M582.24 1389.93 L586.937 1411.32 L595.285 1402.97 L582.24 1389.93 M578.491 1387.92 L582.649 1383.76 L598.575 1399.68 L602.061 1396.2 L604.811 1398.95 L601.325 1402.43 L607.086 1408.2 L603.796 1411.49 L598.035 1405.72 L587.003 1416.76 L583.811 1413.56 L578.491 1387.92 Z" fill="#000000" fill-rule="evenodd" fill-opacity="1" /><path clip-path="url(#clip550)" d="M637.943 1492.82 L643.344 1487.42 L624.701 1468.77 L620.003 1475.83 L616.992 1472.82 L621.657 1465.8 L624.963 1462.49 L646.618 1484.14 L652.02 1478.74 L654.802 1481.53 L640.726 1495.6 L637.943 1492.82 Z" fill="#000000" fill-rule="evenodd" fill-opacity="1" /><path clip-path="url(#clip550)" d="M637.075 1450.38 L650.055 1437.4 L652.838 1440.18 L642.886 1450.13 L648.877 1456.12 Q649.352 1455.16 649.957 1454.32 Q650.546 1453.47 651.267 1452.75 Q655.359 1448.66 659.991 1448.51 Q664.623 1448.36 668.453 1452.19 Q672.398 1456.14 672.136 1460.79 Q671.858 1465.42 667.389 1469.89 Q665.851 1471.43 663.985 1472.77 Q662.135 1474.09 659.909 1475.27 L656.586 1471.95 Q658.861 1471.28 660.826 1470.1 Q662.79 1468.92 664.541 1467.17 Q667.373 1464.34 667.537 1461.2 Q667.7 1458.05 665.147 1455.5 Q662.593 1452.95 659.451 1453.11 Q656.308 1453.27 653.476 1456.11 Q652.15 1457.43 651.119 1459.05 Q650.104 1460.66 649.352 1462.65 L637.075 1450.38 Z" fill="#000000" fill-rule="evenodd" fill-opacity="1" /><path clip-path="url(#clip550)" d="M670.335 1444.94 L679.158 1436.12 L681.842 1438.8 L673.02 1447.63 L670.335 1444.94 Z" fill="#000000" fill-rule="evenodd" fill-opacity="1" /><path clip-path="url(#clip550)" d="M692.694 1438.07 L698.096 1432.67 L679.452 1414.02 L674.755 1421.08 L671.743 1418.07 L676.408 1411.04 L679.714 1407.74 L701.369 1429.39 L706.771 1423.99 L709.553 1426.77 L695.477 1440.85 L692.694 1438.07 Z" fill="#000000" fill-rule="evenodd" fill-opacity="1" /><path clip-path="url(#clip550)" d="M715.822 1419.49 L712.811 1416.48 Q714.644 1415.82 716.232 1414.86 Q717.819 1413.89 719.047 1412.66 Q722.321 1409.39 721.846 1405.48 Q721.371 1401.53 717.132 1396.8 Q717.59 1399.16 716.886 1401.37 Q716.183 1403.58 714.415 1405.35 Q710.748 1409.01 706.394 1408.95 Q702.041 1408.85 698.194 1405 Q694.429 1401.24 694.38 1396.74 Q694.331 1392.24 698.03 1388.54 Q702.27 1384.3 707.753 1385.33 Q713.236 1386.33 719.423 1392.52 Q725.201 1398.29 725.905 1404.5 Q726.609 1410.67 721.977 1415.3 Q720.733 1416.54 719.211 1417.57 Q717.688 1418.61 715.822 1419.49 M712.041 1402.55 Q714.267 1400.32 714.038 1397.51 Q713.826 1394.68 711.174 1392.02 Q708.539 1389.39 705.707 1389.18 Q702.875 1388.93 700.649 1391.16 Q698.423 1393.38 698.652 1396.23 Q698.881 1399.05 701.517 1401.68 Q704.168 1404.33 706.984 1404.56 Q709.815 1404.77 712.041 1402.55 Z" fill="#000000" fill-rule="evenodd" fill-opacity="1" /><path clip-path="url(#clip550)" d="M760.788 1491.02 L772.328 1479.48 L775.11 1482.26 L759.593 1497.78 L756.811 1495 Q756.745 1491.17 756.713 1484.65 Q756.68 1478.1 756.565 1476.32 Q756.369 1472.95 755.763 1471.1 Q755.158 1469.22 753.963 1468.02 Q752.015 1466.07 749.412 1466.22 Q746.826 1466.35 744.633 1468.55 Q743.078 1470.1 741.883 1472.38 Q740.705 1474.63 739.837 1477.69 L736.498 1474.36 Q737.693 1471.56 739.019 1469.41 Q740.344 1467.27 741.785 1465.83 Q745.582 1462.03 749.74 1461.67 Q753.897 1461.31 757.073 1464.49 Q758.579 1465.99 759.364 1467.92 Q760.15 1469.82 760.494 1473.14 Q760.559 1474.03 760.641 1478.5 Q760.706 1482.95 760.788 1491.02 Z" fill="#000000" fill-rule="evenodd" fill-opacity="1" /><path clip-path="url(#clip550)" d="M766.861 1445.99 Q764.307 1448.54 765.535 1452.36 Q766.763 1456.14 771.804 1461.18 Q776.829 1466.2 780.626 1467.45 Q784.424 1468.66 786.977 1466.11 Q789.547 1463.54 788.319 1459.76 Q787.092 1455.94 782.067 1450.92 Q777.025 1445.88 773.228 1444.66 Q769.431 1443.42 766.861 1445.99 M764.242 1443.37 Q768.35 1439.26 773.768 1440.36 Q779.186 1441.42 785.373 1447.61 Q791.544 1453.78 792.624 1459.22 Q793.705 1464.62 789.596 1468.73 Q785.488 1472.83 780.07 1471.77 Q774.652 1470.67 768.481 1464.5 Q762.294 1458.32 761.214 1452.91 Q760.134 1447.48 764.242 1443.37 Z" fill="#000000" fill-rule="evenodd" fill-opacity="1" /><path clip-path="url(#clip550)" d="M790.906 1445.42 L799.728 1436.59 L802.412 1439.28 L793.59 1448.1 L790.906 1445.42 Z" fill="#000000" fill-rule="evenodd" fill-opacity="1" /><path clip-path="url(#clip550)" d="M815.54 1436.27 L827.079 1424.73 L829.862 1427.51 L814.345 1443.03 L811.562 1440.24 Q811.497 1436.41 811.464 1429.9 Q811.431 1423.35 811.317 1421.57 Q811.12 1418.2 810.515 1416.35 Q809.909 1414.46 808.714 1413.27 Q806.766 1411.32 804.164 1411.47 Q801.578 1411.6 799.384 1413.79 Q797.829 1415.35 796.634 1417.62 Q795.456 1419.88 794.588 1422.94 L791.249 1419.6 Q792.444 1416.81 793.77 1414.66 Q795.096 1412.52 796.536 1411.08 Q800.334 1407.28 804.491 1406.92 Q808.649 1406.56 811.824 1409.73 Q813.33 1411.24 814.116 1413.17 Q814.901 1415.07 815.245 1418.39 Q815.31 1419.28 815.392 1423.75 Q815.458 1428.2 815.54 1436.27 Z" fill="#000000" fill-rule="evenodd" fill-opacity="1" /><path clip-path="url(#clip550)" d="M824.329 1389.93 L829.027 1411.32 L837.375 1402.97 L824.329 1389.93 M820.581 1387.92 L824.739 1383.76 L840.665 1399.68 L844.151 1396.2 L846.901 1398.95 L843.415 1402.43 L849.176 1408.2 L845.886 1411.49 L840.125 1405.72 L829.092 1416.76 L825.901 1413.56 L820.581 1387.92 Z" fill="#000000" fill-rule="evenodd" fill-opacity="1" /><path clip-path="url(#clip550)" d="M882.308 1490.54 L893.847 1479 L896.63 1481.79 L881.113 1497.3 L878.33 1494.52 Q878.265 1490.69 878.232 1484.18 Q878.199 1477.63 878.085 1475.85 Q877.888 1472.47 877.283 1470.62 Q876.677 1468.74 875.482 1467.55 Q873.534 1465.6 870.932 1465.75 Q868.346 1465.88 866.152 1468.07 Q864.597 1469.63 863.403 1471.9 Q862.224 1474.16 861.357 1477.22 L858.017 1473.88 Q859.212 1471.08 860.538 1468.94 Q861.864 1466.79 863.304 1465.35 Q867.102 1461.56 871.259 1461.2 Q875.417 1460.84 878.592 1464.01 Q880.098 1465.52 880.884 1467.45 Q881.669 1469.35 882.013 1472.67 Q882.079 1473.55 882.16 1478.02 Q882.226 1482.47 882.308 1490.54 Z" fill="#000000" fill-rule="evenodd" fill-opacity="1" /><path clip-path="url(#clip550)" d="M879.165 1450.38 L892.145 1437.4 L894.928 1440.18 L884.976 1450.13 L890.966 1456.12 Q891.441 1455.16 892.047 1454.32 Q892.636 1453.47 893.356 1452.75 Q897.448 1448.66 902.08 1448.51 Q906.713 1448.36 910.543 1452.19 Q914.487 1456.14 914.226 1460.79 Q913.947 1465.42 909.479 1469.89 Q907.94 1471.43 906.074 1472.77 Q904.225 1474.09 901.999 1475.27 L898.676 1471.95 Q900.951 1471.28 902.915 1470.1 Q904.879 1468.92 906.631 1467.17 Q909.462 1464.34 909.626 1461.2 Q909.79 1458.05 907.236 1455.5 Q904.683 1452.95 901.54 1453.11 Q898.398 1453.27 895.566 1456.11 Q894.24 1457.43 893.209 1459.05 Q892.194 1460.66 891.441 1462.65 L879.165 1450.38 Z" fill="#000000" fill-rule="evenodd" fill-opacity="1" /><path clip-path="url(#clip550)" d="M912.425 1444.94 L921.247 1436.12 L923.932 1438.8 L915.109 1447.63 L912.425 1444.94 Z" fill="#000000" fill-rule="evenodd" fill-opacity="1" /><path clip-path="url(#clip550)" d="M937.059 1435.79 L948.599 1424.25 L951.381 1427.04 L935.864 1442.55 L933.082 1439.77 Q933.016 1435.94 932.983 1429.43 Q932.951 1422.88 932.836 1421.09 Q932.64 1417.72 932.034 1415.87 Q931.428 1413.99 930.234 1412.8 Q928.286 1410.85 925.683 1410.99 Q923.097 1411.13 920.904 1413.32 Q919.349 1414.87 918.154 1417.15 Q916.975 1419.41 916.108 1422.47 L912.769 1419.13 Q913.964 1416.33 915.289 1414.19 Q916.615 1412.04 918.056 1410.6 Q921.853 1406.8 926.011 1406.44 Q930.168 1406.08 933.344 1409.26 Q934.849 1410.77 935.635 1412.7 Q936.421 1414.6 936.764 1417.92 Q936.83 1418.8 936.912 1423.27 Q936.977 1427.72 937.059 1435.79 Z" fill="#000000" fill-rule="evenodd" fill-opacity="1" /><path clip-path="url(#clip550)" d="M957.912 1419.49 L954.9 1416.48 Q956.734 1415.82 958.321 1414.86 Q959.909 1413.89 961.137 1412.66 Q964.41 1409.39 963.936 1405.48 Q963.461 1401.53 959.222 1396.8 Q959.68 1399.16 958.976 1401.37 Q958.272 1403.58 956.504 1405.35 Q952.838 1409.01 948.484 1408.95 Q944.13 1408.85 940.284 1405 Q936.519 1401.24 936.47 1396.74 Q936.421 1392.24 940.12 1388.54 Q944.359 1384.3 949.843 1385.33 Q955.326 1386.33 961.513 1392.52 Q967.291 1398.29 967.995 1404.5 Q968.699 1410.67 964.067 1415.3 Q962.823 1416.54 961.3 1417.57 Q959.778 1418.61 957.912 1419.49 M954.131 1402.55 Q956.357 1400.32 956.128 1397.51 Q955.915 1394.68 953.264 1392.02 Q950.628 1389.39 947.797 1389.18 Q944.965 1388.93 942.739 1391.16 Q940.513 1393.38 940.742 1396.23 Q940.971 1399.05 943.606 1401.68 Q946.258 1404.33 949.073 1404.56 Q951.905 1404.77 954.131 1402.55 Z" fill="#000000" fill-rule="evenodd" fill-opacity="1" /><path clip-path="url(#clip550)" d="M999.653 1473.46 Q1002.53 1471.59 1005.46 1471.87 Q1008.41 1472.13 1010.77 1474.49 Q1014.38 1478.1 1013.88 1482.57 Q1013.37 1487.04 1008.79 1491.62 Q1007.25 1493.16 1005.3 1494.49 Q1003.39 1495.81 1001.04 1496.94 L997.853 1493.75 Q1000.03 1493.18 1002.08 1491.95 Q1004.12 1490.72 1005.91 1488.94 Q1009.02 1485.83 1009.41 1482.98 Q1009.82 1480.12 1007.48 1477.78 Q1005.32 1475.62 1002.58 1475.93 Q999.85 1476.21 997.149 1478.91 L994.301 1481.75 L991.584 1479.04 L994.563 1476.06 Q997.002 1473.62 997.329 1471.36 Q997.64 1469.09 995.807 1467.25 Q993.924 1465.37 991.584 1465.71 Q989.243 1466.02 986.755 1468.51 Q985.397 1469.87 984.136 1471.72 Q982.876 1473.57 981.632 1476.06 L978.686 1473.11 Q980.044 1470.71 981.419 1468.81 Q982.811 1466.89 984.267 1465.44 Q988.032 1461.67 991.944 1461.2 Q995.84 1460.7 998.753 1463.62 Q1000.78 1465.65 1001.03 1468.22 Q1001.26 1470.77 999.653 1473.46 Z" fill="#000000" fill-rule="evenodd" fill-opacity="1" /><path clip-path="url(#clip550)" d="M1008.95 1445.99 Q1006.4 1448.54 1007.62 1452.36 Q1008.85 1456.14 1013.89 1461.18 Q1018.92 1466.2 1022.72 1467.45 Q1026.51 1468.66 1029.07 1466.11 Q1031.64 1463.54 1030.41 1459.76 Q1029.18 1455.94 1024.16 1450.92 Q1019.12 1445.88 1015.32 1444.66 Q1011.52 1443.42 1008.95 1445.99 M1006.33 1443.37 Q1010.44 1439.26 1015.86 1440.36 Q1021.28 1441.42 1027.46 1447.61 Q1033.63 1453.78 1034.71 1459.22 Q1035.79 1464.62 1031.69 1468.73 Q1027.58 1472.83 1022.16 1471.77 Q1016.74 1470.67 1010.57 1464.5 Q1004.38 1458.32 1003.3 1452.91 Q1002.22 1447.48 1006.33 1443.37 Z" fill="#000000" fill-rule="evenodd" fill-opacity="1" /><path clip-path="url(#clip550)" d="M1033 1445.42 L1041.82 1436.59 L1044.5 1439.28 L1035.68 1448.1 L1033 1445.42 Z" fill="#000000" fill-rule="evenodd" fill-opacity="1" /><path clip-path="url(#clip550)" d="M1054.4 1418.7 Q1057.29 1416.84 1060.22 1417.12 Q1063.16 1417.38 1065.52 1419.74 Q1069.14 1423.35 1068.63 1427.82 Q1068.12 1432.29 1063.54 1436.87 Q1062 1438.41 1060.05 1439.74 Q1058.14 1441.06 1055.8 1442.19 L1052.6 1439 Q1054.78 1438.43 1056.83 1437.2 Q1058.87 1435.97 1060.66 1434.19 Q1063.77 1431.08 1064.16 1428.23 Q1064.57 1425.37 1062.23 1423.03 Q1060.07 1420.86 1057.33 1421.18 Q1054.6 1421.45 1051.9 1424.15 L1049.05 1427 L1046.34 1424.29 L1049.31 1421.31 Q1051.75 1418.87 1052.08 1416.61 Q1052.39 1414.33 1050.56 1412.5 Q1048.68 1410.62 1046.34 1410.96 Q1043.99 1411.27 1041.51 1413.76 Q1040.15 1415.12 1038.89 1416.97 Q1037.63 1418.82 1036.38 1421.31 L1033.44 1418.36 Q1034.8 1415.95 1036.17 1414.06 Q1037.56 1412.14 1039.02 1410.68 Q1042.78 1406.92 1046.7 1406.44 Q1050.59 1405.95 1053.5 1408.87 Q1055.53 1410.9 1055.78 1413.47 Q1056.01 1416.02 1054.4 1418.7 Z" fill="#000000" fill-rule="evenodd" fill-opacity="1" /><path clip-path="url(#clip550)" d="M1066.42 1389.93 L1071.12 1411.32 L1079.46 1402.97 L1066.42 1389.93 M1062.67 1387.92 L1066.83 1383.76 L1082.75 1399.68 L1086.24 1396.2 L1088.99 1398.95 L1085.5 1402.43 L1091.27 1408.2 L1087.98 1411.49 L1082.21 1405.72 L1071.18 1416.76 L1067.99 1413.56 L1062.67 1387.92 Z" fill="#000000" fill-rule="evenodd" fill-opacity="1" /><path clip-path="url(#clip550)" d="M1121.17 1472.98 Q1124.05 1471.11 1126.98 1471.39 Q1129.93 1471.66 1132.29 1474.01 Q1135.9 1477.63 1135.4 1482.1 Q1134.89 1486.57 1130.31 1491.15 Q1128.77 1492.69 1126.82 1494.01 Q1124.9 1495.34 1122.56 1496.47 L1119.37 1493.28 Q1121.55 1492.7 1123.6 1491.48 Q1125.64 1490.25 1127.43 1488.47 Q1130.54 1485.36 1130.93 1482.51 Q1131.34 1479.64 1129 1477.3 Q1126.84 1475.14 1124.1 1475.45 Q1121.37 1475.73 1118.67 1478.43 L1115.82 1481.28 L1113.1 1478.56 L1116.08 1475.58 Q1118.52 1473.14 1118.85 1470.89 Q1119.16 1468.61 1117.33 1466.78 Q1115.44 1464.9 1113.1 1465.24 Q1110.76 1465.55 1108.27 1468.04 Q1106.92 1469.4 1105.66 1471.25 Q1104.4 1473.1 1103.15 1475.58 L1100.21 1472.64 Q1101.56 1470.23 1102.94 1468.33 Q1104.33 1466.42 1105.79 1464.96 Q1109.55 1461.2 1113.46 1460.72 Q1117.36 1460.23 1120.27 1463.14 Q1122.3 1465.17 1122.55 1467.74 Q1122.78 1470.3 1121.17 1472.98 Z" fill="#000000" fill-rule="evenodd" fill-opacity="1" /><path clip-path="url(#clip550)" d="M1121.25 1450.38 L1134.23 1437.4 L1137.02 1440.18 L1127.07 1450.13 L1133.06 1456.12 Q1133.53 1455.16 1134.14 1454.32 Q1134.73 1453.47 1135.45 1452.75 Q1139.54 1448.66 1144.17 1448.51 Q1148.8 1448.36 1152.63 1452.19 Q1156.58 1456.14 1156.32 1460.79 Q1156.04 1465.42 1151.57 1469.89 Q1150.03 1471.43 1148.16 1472.77 Q1146.31 1474.09 1144.09 1475.27 L1140.77 1471.95 Q1143.04 1471.28 1145 1470.1 Q1146.97 1468.92 1148.72 1467.17 Q1151.55 1464.34 1151.72 1461.2 Q1151.88 1458.05 1149.33 1455.5 Q1146.77 1452.95 1143.63 1453.11 Q1140.49 1453.27 1137.66 1456.11 Q1136.33 1457.43 1135.3 1459.05 Q1134.28 1460.66 1133.53 1462.65 L1121.25 1450.38 Z" fill="#000000" fill-rule="evenodd" fill-opacity="1" /><path clip-path="url(#clip550)" d="M1154.51 1444.94 L1163.34 1436.12 L1166.02 1438.8 L1157.2 1447.63 L1154.51 1444.94 Z" fill="#000000" fill-rule="evenodd" fill-opacity="1" /><path clip-path="url(#clip550)" d="M1175.92 1418.23 Q1178.8 1416.36 1181.73 1416.64 Q1184.68 1416.9 1187.04 1419.26 Q1190.66 1422.88 1190.15 1427.35 Q1189.64 1431.82 1185.06 1436.4 Q1183.52 1437.94 1181.57 1439.26 Q1179.66 1440.59 1177.32 1441.72 L1174.12 1438.53 Q1176.3 1437.95 1178.35 1436.73 Q1180.39 1435.5 1182.18 1433.71 Q1185.29 1430.6 1185.68 1427.76 Q1186.09 1424.89 1183.75 1422.55 Q1181.59 1420.39 1178.85 1420.7 Q1176.12 1420.98 1173.42 1423.68 L1170.57 1426.53 L1167.85 1423.81 L1170.83 1420.83 Q1173.27 1418.39 1173.6 1416.13 Q1173.91 1413.86 1172.08 1412.03 Q1170.2 1410.14 1167.85 1410.49 Q1165.51 1410.8 1163.03 1413.29 Q1161.67 1414.64 1160.41 1416.49 Q1159.15 1418.34 1157.9 1420.83 L1154.96 1417.89 Q1156.32 1415.48 1157.69 1413.58 Q1159.08 1411.67 1160.54 1410.21 Q1164.3 1406.44 1168.21 1405.97 Q1172.11 1405.48 1175.02 1408.39 Q1177.05 1410.42 1177.3 1412.99 Q1177.53 1415.55 1175.92 1418.23 Z" fill="#000000" fill-rule="evenodd" fill-opacity="1" /><path clip-path="url(#clip550)" d="M1200 1419.49 L1196.99 1416.48 Q1198.82 1415.82 1200.41 1414.86 Q1202 1413.89 1203.23 1412.66 Q1206.5 1409.39 1206.03 1405.48 Q1205.55 1401.53 1201.31 1396.8 Q1201.77 1399.16 1201.07 1401.37 Q1200.36 1403.58 1198.59 1405.35 Q1194.93 1409.01 1190.57 1408.95 Q1186.22 1408.85 1182.37 1405 Q1178.61 1401.24 1178.56 1396.74 Q1178.51 1392.24 1182.21 1388.54 Q1186.45 1384.3 1191.93 1385.33 Q1197.42 1386.33 1203.6 1392.52 Q1209.38 1398.29 1210.08 1404.5 Q1210.79 1410.67 1206.16 1415.3 Q1204.91 1416.54 1203.39 1417.57 Q1201.87 1418.61 1200 1419.49 M1196.22 1402.55 Q1198.45 1400.32 1198.22 1397.51 Q1198 1394.68 1195.35 1392.02 Q1192.72 1389.39 1189.89 1389.18 Q1187.05 1388.93 1184.83 1391.16 Q1182.6 1393.38 1182.83 1396.23 Q1183.06 1399.05 1185.7 1401.68 Q1188.35 1404.33 1191.16 1404.56 Q1193.99 1404.77 1196.22 1402.55 Z" fill="#000000" fill-rule="evenodd" fill-opacity="1" /><path clip-path="url(#clip550)" d="M1232.43 1466.01 L1237.13 1487.4 L1245.47 1479.05 L1232.43 1466.01 M1228.68 1463.99 L1232.84 1459.84 L1248.76 1475.76 L1252.25 1472.28 L1255 1475.03 L1251.51 1478.51 L1257.28 1484.27 L1253.99 1487.56 L1248.22 1481.8 L1237.19 1492.84 L1234 1489.64 L1228.68 1463.99 Z" fill="#000000" fill-rule="evenodd" fill-opacity="1" /><path clip-path="url(#clip550)" d="M1251.04 1445.99 Q1248.49 1448.54 1249.71 1452.36 Q1250.94 1456.14 1255.98 1461.18 Q1261.01 1466.2 1264.81 1467.45 Q1268.6 1468.66 1271.16 1466.11 Q1273.73 1463.54 1272.5 1459.76 Q1271.27 1455.94 1266.25 1450.92 Q1261.2 1445.88 1257.41 1444.66 Q1253.61 1443.42 1251.04 1445.99 M1248.42 1443.37 Q1252.53 1439.26 1257.95 1440.36 Q1263.37 1441.42 1269.55 1447.61 Q1275.72 1453.78 1276.8 1459.22 Q1277.88 1464.62 1273.78 1468.73 Q1269.67 1472.83 1264.25 1471.77 Q1258.83 1470.67 1252.66 1464.5 Q1246.47 1458.32 1245.39 1452.91 Q1244.31 1447.48 1248.42 1443.37 Z" fill="#000000" fill-rule="evenodd" fill-opacity="1" /><path clip-path="url(#clip550)" d="M1275.08 1445.42 L1283.91 1436.59 L1286.59 1439.28 L1277.77 1448.1 L1275.08 1445.42 Z" fill="#000000" fill-rule="evenodd" fill-opacity="1" /><path clip-path="url(#clip550)" d="M1287.18 1411.26 L1291.88 1432.65 L1300.23 1424.3 L1287.18 1411.26 M1283.43 1409.24 L1287.59 1405.09 L1303.52 1421.01 L1307 1417.53 L1309.75 1420.28 L1306.27 1423.76 L1312.03 1429.52 L1308.74 1432.81 L1302.98 1427.05 L1291.94 1438.08 L1288.75 1434.89 L1283.43 1409.24 Z" fill="#000000" fill-rule="evenodd" fill-opacity="1" /><path clip-path="url(#clip550)" d="M1308.51 1389.93 L1313.21 1411.32 L1321.55 1402.97 L1308.51 1389.93 M1304.76 1387.92 L1308.92 1383.76 L1324.84 1399.68 L1328.33 1396.2 L1331.08 1398.95 L1327.59 1402.43 L1333.36 1408.2 L1330.07 1411.49 L1324.3 1405.72 L1313.27 1416.76 L1310.08 1413.56 L1304.76 1387.92 Z" fill="#000000" fill-rule="evenodd" fill-opacity="1" /><path clip-path="url(#clip550)" d="M1353.95 1465.53 L1358.65 1486.93 L1366.99 1478.58 L1353.95 1465.53 M1350.2 1463.52 L1354.36 1459.36 L1370.28 1475.29 L1373.77 1471.8 L1376.52 1474.55 L1373.03 1478.04 L1378.8 1483.8 L1375.51 1487.09 L1369.74 1481.33 L1358.71 1492.36 L1355.52 1489.17 L1350.2 1463.52 Z" fill="#000000" fill-rule="evenodd" fill-opacity="1" /><path clip-path="url(#clip550)" d="M1363.34 1450.38 L1376.32 1437.4 L1379.11 1440.18 L1369.15 1450.13 L1375.15 1456.12 Q1375.62 1455.16 1376.23 1454.32 Q1376.82 1453.47 1377.54 1452.75 Q1381.63 1448.66 1386.26 1448.51 Q1390.89 1448.36 1394.72 1452.19 Q1398.67 1456.14 1398.4 1460.79 Q1398.13 1465.42 1393.66 1469.89 Q1392.12 1471.43 1390.25 1472.77 Q1388.4 1474.09 1386.18 1475.27 L1382.86 1471.95 Q1385.13 1471.28 1387.09 1470.1 Q1389.06 1468.92 1390.81 1467.17 Q1393.64 1464.34 1393.81 1461.2 Q1393.97 1458.05 1391.42 1455.5 Q1388.86 1452.95 1385.72 1453.11 Q1382.58 1453.27 1379.75 1456.11 Q1378.42 1457.43 1377.39 1459.05 Q1376.37 1460.66 1375.62 1462.65 L1363.34 1450.38 Z" fill="#000000" fill-rule="evenodd" fill-opacity="1" /><path clip-path="url(#clip550)" d="M1396.6 1444.94 L1405.43 1436.12 L1408.11 1438.8 L1399.29 1447.63 L1396.6 1444.94 Z" fill="#000000" fill-rule="evenodd" fill-opacity="1" /><path clip-path="url(#clip550)" d="M1408.7 1410.78 L1413.4 1432.18 L1421.75 1423.83 L1408.7 1410.78 M1404.95 1408.77 L1409.11 1404.61 L1425.04 1420.54 L1428.52 1417.05 L1431.27 1419.8 L1427.79 1423.29 L1433.55 1429.05 L1430.26 1432.34 L1424.5 1426.58 L1413.46 1437.61 L1410.27 1434.42 L1404.95 1408.77 Z" fill="#000000" fill-rule="evenodd" fill-opacity="1" /><path clip-path="url(#clip550)" d="M1442.09 1419.49 L1439.08 1416.48 Q1440.91 1415.82 1442.5 1414.86 Q1444.09 1413.89 1445.32 1412.66 Q1448.59 1409.39 1448.11 1405.48 Q1447.64 1401.53 1443.4 1396.8 Q1443.86 1399.16 1443.16 1401.37 Q1442.45 1403.58 1440.68 1405.35 Q1437.02 1409.01 1432.66 1408.95 Q1428.31 1408.85 1424.46 1405 Q1420.7 1401.24 1420.65 1396.74 Q1420.6 1392.24 1424.3 1388.54 Q1428.54 1384.3 1434.02 1385.33 Q1439.51 1386.33 1445.69 1392.52 Q1451.47 1398.29 1452.17 1404.5 Q1452.88 1410.67 1448.25 1415.3 Q1447 1416.54 1445.48 1417.57 Q1443.96 1418.61 1442.09 1419.49 M1438.31 1402.55 Q1440.54 1400.32 1440.31 1397.51 Q1440.09 1394.68 1437.44 1392.02 Q1434.81 1389.39 1431.98 1389.18 Q1429.14 1388.93 1426.92 1391.16 Q1424.69 1393.38 1424.92 1396.23 Q1425.15 1399.05 1427.79 1401.68 Q1430.44 1404.33 1433.25 1404.56 Q1436.08 1404.77 1438.31 1402.55 Z" fill="#000000" fill-rule="evenodd" fill-opacity="1" /><path clip-path="url(#clip550)" d="M1462.59 1472.18 L1475.57 1459.2 L1478.35 1461.98 L1468.4 1471.93 L1474.39 1477.92 Q1474.86 1476.96 1475.47 1476.12 Q1476.06 1475.27 1476.78 1474.55 Q1480.87 1470.46 1485.5 1470.31 Q1490.13 1470.17 1493.96 1474 Q1497.91 1477.94 1497.65 1482.59 Q1497.37 1487.22 1492.9 1491.69 Q1491.36 1493.23 1489.5 1494.57 Q1487.65 1495.9 1485.42 1497.07 L1482.1 1493.75 Q1484.37 1493.08 1486.34 1491.9 Q1488.3 1490.72 1490.05 1488.97 Q1492.88 1486.14 1493.05 1483 Q1493.21 1479.86 1490.66 1477.3 Q1488.1 1474.75 1484.96 1474.91 Q1481.82 1475.08 1478.99 1477.91 Q1477.66 1479.23 1476.63 1480.85 Q1475.62 1482.46 1474.86 1484.46 L1462.59 1472.18 Z" fill="#000000" fill-rule="evenodd" fill-opacity="1" /><path clip-path="url(#clip550)" d="M1493.13 1445.99 Q1490.58 1448.54 1491.8 1452.36 Q1493.03 1456.14 1498.07 1461.18 Q1503.1 1466.2 1506.9 1467.45 Q1510.69 1468.66 1513.25 1466.11 Q1515.82 1463.54 1514.59 1459.76 Q1513.36 1455.94 1508.34 1450.92 Q1503.29 1445.88 1499.5 1444.66 Q1495.7 1443.42 1493.13 1445.99 M1490.51 1443.37 Q1494.62 1439.26 1500.04 1440.36 Q1505.45 1441.42 1511.64 1447.61 Q1517.81 1453.78 1518.89 1459.22 Q1519.97 1464.62 1515.87 1468.73 Q1511.76 1472.83 1506.34 1471.77 Q1500.92 1470.67 1494.75 1464.5 Q1488.56 1458.32 1487.48 1452.91 Q1486.4 1447.48 1490.51 1443.37 Z" fill="#000000" fill-rule="evenodd" fill-opacity="1" /><path clip-path="url(#clip550)" d="M1517.17 1445.42 L1526 1436.59 L1528.68 1439.28 L1519.86 1448.1 L1517.17 1445.42 Z" fill="#000000" fill-rule="evenodd" fill-opacity="1" /><path clip-path="url(#clip550)" d="M1517.34 1417.43 L1530.32 1404.45 L1533.1 1407.23 L1523.15 1417.18 L1529.14 1423.17 Q1529.61 1422.21 1530.22 1421.37 Q1530.81 1420.52 1531.53 1419.8 Q1535.62 1415.71 1540.25 1415.56 Q1544.89 1415.41 1548.72 1419.24 Q1552.66 1423.19 1552.4 1427.84 Q1552.12 1432.47 1547.65 1436.94 Q1546.11 1438.48 1544.25 1439.82 Q1542.4 1441.14 1540.17 1442.32 L1536.85 1439 Q1539.12 1438.33 1541.09 1437.15 Q1543.05 1435.97 1544.8 1434.22 Q1547.64 1431.39 1547.8 1428.25 Q1547.96 1425.1 1545.41 1422.55 Q1542.86 1420 1539.71 1420.16 Q1536.57 1420.32 1533.74 1423.16 Q1532.41 1424.48 1531.38 1426.1 Q1530.37 1427.71 1529.61 1429.7 L1517.34 1417.43 Z" fill="#000000" fill-rule="evenodd" fill-opacity="1" /><path clip-path="url(#clip550)" d="M1550.6 1389.93 L1555.3 1411.32 L1563.64 1402.97 L1550.6 1389.93 M1546.85 1387.92 L1551.01 1383.76 L1566.93 1399.68 L1570.42 1396.2 L1573.17 1398.95 L1569.68 1402.43 L1575.44 1408.2 L1572.15 1411.49 L1566.39 1405.72 L1555.36 1416.76 L1552.17 1413.56 L1546.85 1387.92 Z" fill="#000000" fill-rule="evenodd" fill-opacity="1" /><path clip-path="url(#clip550)" d="M1584.11 1471.7 L1597.09 1458.72 L1599.87 1461.51 L1589.92 1471.46 L1595.91 1477.45 Q1596.38 1476.48 1596.99 1475.65 Q1597.58 1474.8 1598.3 1474.08 Q1602.39 1469.99 1607.02 1469.84 Q1611.65 1469.69 1615.48 1473.52 Q1619.43 1477.47 1619.17 1482.11 Q1618.89 1486.75 1614.42 1491.22 Q1612.88 1492.75 1611.02 1494.1 Q1609.17 1495.42 1606.94 1496.6 L1603.62 1493.28 Q1605.89 1492.61 1607.86 1491.43 Q1609.82 1490.25 1611.57 1488.5 Q1614.4 1485.67 1614.57 1482.52 Q1614.73 1479.38 1612.18 1476.83 Q1609.62 1474.27 1606.48 1474.44 Q1603.34 1474.6 1600.51 1477.43 Q1599.18 1478.76 1598.15 1480.38 Q1597.14 1481.98 1596.38 1483.98 L1584.11 1471.7 Z" fill="#000000" fill-rule="evenodd" fill-opacity="1" /><path clip-path="url(#clip550)" d="M1605.43 1450.38 L1618.41 1437.4 L1621.2 1440.18 L1611.24 1450.13 L1617.24 1456.12 Q1617.71 1455.16 1618.32 1454.32 Q1618.9 1453.47 1619.63 1452.75 Q1623.72 1448.66 1628.35 1448.51 Q1632.98 1448.36 1636.81 1452.19 Q1640.76 1456.14 1640.49 1460.79 Q1640.22 1465.42 1635.75 1469.89 Q1634.21 1471.43 1632.34 1472.77 Q1630.49 1474.09 1628.27 1475.27 L1624.94 1471.95 Q1627.22 1471.28 1629.18 1470.1 Q1631.15 1468.92 1632.9 1467.17 Q1635.73 1464.34 1635.89 1461.2 Q1636.06 1458.05 1633.51 1455.5 Q1630.95 1452.95 1627.81 1453.11 Q1624.67 1453.27 1621.83 1456.11 Q1620.51 1457.43 1619.48 1459.05 Q1618.46 1460.66 1617.71 1462.65 L1605.43 1450.38 Z" fill="#000000" fill-rule="evenodd" fill-opacity="1" /><path clip-path="url(#clip550)" d="M1638.69 1444.94 L1647.52 1436.12 L1650.2 1438.8 L1641.38 1447.63 L1638.69 1444.94 Z" fill="#000000" fill-rule="evenodd" fill-opacity="1" /><path clip-path="url(#clip550)" d="M1638.86 1416.95 L1651.84 1403.97 L1654.62 1406.76 L1644.67 1416.71 L1650.66 1422.7 Q1651.13 1421.73 1651.74 1420.9 Q1652.33 1420.05 1653.05 1419.33 Q1657.14 1415.23 1661.77 1415.09 Q1666.41 1414.94 1670.24 1418.77 Q1674.18 1422.71 1673.92 1427.36 Q1673.64 1432 1669.17 1436.46 Q1667.63 1438 1665.77 1439.34 Q1663.92 1440.67 1661.69 1441.85 L1658.37 1438.53 Q1660.64 1437.85 1662.61 1436.68 Q1664.57 1435.5 1666.32 1433.75 Q1669.16 1430.91 1669.32 1427.77 Q1669.48 1424.63 1666.93 1422.08 Q1664.38 1419.52 1661.23 1419.69 Q1658.09 1419.85 1655.26 1422.68 Q1653.93 1424.01 1652.9 1425.63 Q1651.89 1427.23 1651.13 1429.23 L1638.86 1416.95 Z" fill="#000000" fill-rule="evenodd" fill-opacity="1" /><path clip-path="url(#clip550)" d="M1684.18 1419.49 L1681.17 1416.48 Q1683 1415.82 1684.59 1414.86 Q1686.18 1413.89 1687.41 1412.66 Q1690.68 1409.39 1690.2 1405.48 Q1689.73 1401.53 1685.49 1396.8 Q1685.95 1399.16 1685.24 1401.37 Q1684.54 1403.58 1682.77 1405.35 Q1679.11 1409.01 1674.75 1408.95 Q1670.4 1408.85 1666.55 1405 Q1662.79 1401.24 1662.74 1396.74 Q1662.69 1392.24 1666.39 1388.54 Q1670.63 1384.3 1676.11 1385.33 Q1681.59 1386.33 1687.78 1392.52 Q1693.56 1398.29 1694.26 1404.5 Q1694.97 1410.67 1690.34 1415.3 Q1689.09 1416.54 1687.57 1417.57 Q1686.05 1418.61 1684.18 1419.49 M1680.4 1402.55 Q1682.63 1400.32 1682.4 1397.51 Q1682.18 1394.68 1679.53 1392.02 Q1676.9 1389.39 1674.07 1389.18 Q1671.23 1388.93 1669.01 1391.16 Q1666.78 1393.38 1667.01 1396.23 Q1667.24 1399.05 1669.88 1401.68 Q1672.53 1404.33 1675.34 1404.56 Q1678.17 1404.77 1680.4 1402.55 Z" fill="#000000" fill-rule="evenodd" fill-opacity="1" /><path clip-path="url(#clip550)" d="M1723.03 1475.63 Q1720.8 1477.86 1721.01 1480.69 Q1721.24 1483.51 1723.89 1486.16 Q1726.53 1488.79 1729.36 1489.04 Q1732.19 1489.25 1734.42 1487.02 Q1736.64 1484.8 1736.41 1481.98 Q1736.19 1479.14 1733.55 1476.5 Q1730.9 1473.85 1728.07 1473.64 Q1725.25 1473.41 1723.03 1475.63 M1719.23 1458.71 L1722.24 1461.72 Q1720.41 1462.37 1718.82 1463.34 Q1717.25 1464.29 1716 1465.53 Q1712.73 1468.81 1713.2 1472.75 Q1713.7 1476.68 1717.92 1481.39 Q1717.46 1479 1718.16 1476.79 Q1718.85 1474.57 1720.6 1472.82 Q1724.29 1469.13 1728.66 1469.25 Q1733.03 1469.33 1736.87 1473.18 Q1740.64 1476.94 1740.69 1481.44 Q1740.74 1485.94 1737.04 1489.64 Q1732.8 1493.88 1727.31 1492.88 Q1721.81 1491.87 1715.64 1485.7 Q1709.85 1479.9 1709.16 1473.72 Q1708.46 1467.51 1713.09 1462.88 Q1714.33 1461.64 1715.84 1460.62 Q1717.36 1459.59 1719.23 1458.71 Z" fill="#000000" fill-rule="evenodd" fill-opacity="1" /><path clip-path="url(#clip550)" d="M1735.22 1445.99 Q1732.67 1448.54 1733.89 1452.36 Q1735.12 1456.14 1740.16 1461.18 Q1745.19 1466.2 1748.98 1467.45 Q1752.78 1468.66 1755.34 1466.11 Q1757.91 1463.54 1756.68 1459.76 Q1755.45 1455.94 1750.43 1450.92 Q1745.38 1445.88 1741.59 1444.66 Q1737.79 1443.42 1735.22 1445.99 M1732.6 1443.37 Q1736.71 1439.26 1742.13 1440.36 Q1747.54 1441.42 1753.73 1447.61 Q1759.9 1453.78 1760.98 1459.22 Q1762.06 1464.62 1757.95 1468.73 Q1753.85 1472.83 1748.43 1471.77 Q1743.01 1470.67 1736.84 1464.5 Q1730.65 1458.32 1729.57 1452.91 Q1728.49 1447.48 1732.6 1443.37 Z" fill="#000000" fill-rule="evenodd" fill-opacity="1" /><path clip-path="url(#clip550)" d="M1759.26 1445.42 L1768.09 1436.59 L1770.77 1439.28 L1761.95 1448.1 L1759.26 1445.42 Z" fill="#000000" fill-rule="evenodd" fill-opacity="1" /><path clip-path="url(#clip550)" d="M1777.78 1420.88 Q1775.55 1423.11 1775.76 1425.94 Q1775.99 1428.75 1778.64 1431.41 Q1781.28 1434.04 1784.11 1434.29 Q1786.94 1434.5 1789.17 1432.27 Q1791.39 1430.05 1791.17 1427.23 Q1790.94 1424.38 1788.3 1421.75 Q1785.65 1419.1 1782.82 1418.88 Q1780 1418.66 1777.78 1420.88 M1773.98 1403.96 L1776.99 1406.97 Q1775.16 1407.62 1773.57 1408.59 Q1772 1409.54 1770.75 1410.78 Q1767.48 1414.06 1767.96 1418 Q1768.45 1421.93 1772.67 1426.64 Q1772.21 1424.25 1772.92 1422.04 Q1773.6 1419.82 1775.35 1418.07 Q1779.04 1414.38 1783.41 1414.5 Q1787.78 1414.58 1791.62 1418.43 Q1795.39 1422.19 1795.44 1426.69 Q1795.49 1431.19 1791.79 1434.89 Q1787.55 1439.13 1782.06 1438.13 Q1776.57 1437.12 1770.39 1430.95 Q1764.6 1425.15 1763.91 1418.97 Q1763.21 1412.76 1767.84 1408.13 Q1769.08 1406.89 1770.59 1405.87 Q1772.11 1404.84 1773.98 1403.96 Z" fill="#000000" fill-rule="evenodd" fill-opacity="1" /><path clip-path="url(#clip550)" d="M1792.69 1389.93 L1797.39 1411.32 L1805.73 1402.97 L1792.69 1389.93 M1788.94 1387.92 L1793.1 1383.76 L1809.02 1399.68 L1812.51 1396.2 L1815.26 1398.95 L1811.77 1402.43 L1817.53 1408.2 L1814.24 1411.49 L1808.48 1405.72 L1797.45 1416.76 L1794.26 1413.56 L1788.94 1387.92 Z" fill="#000000" fill-rule="evenodd" fill-opacity="1" /><path clip-path="url(#clip550)" d="M1844.54 1475.16 Q1842.32 1477.38 1842.53 1480.22 Q1842.76 1483.03 1845.41 1485.68 Q1848.05 1488.32 1850.88 1488.56 Q1853.71 1488.78 1855.94 1486.55 Q1858.16 1484.32 1857.93 1481.51 Q1857.7 1478.66 1855.07 1476.03 Q1852.42 1473.37 1849.59 1473.16 Q1846.77 1472.93 1844.54 1475.16 M1840.75 1458.23 L1843.76 1461.25 Q1841.93 1461.9 1840.34 1462.87 Q1838.77 1463.81 1837.52 1465.06 Q1834.25 1468.33 1834.72 1472.28 Q1835.21 1476.21 1839.44 1480.92 Q1838.98 1478.53 1839.68 1476.32 Q1840.37 1474.09 1842.12 1472.34 Q1845.8 1468.66 1850.18 1468.77 Q1854.55 1468.86 1858.39 1472.7 Q1862.16 1476.47 1862.21 1480.97 Q1862.25 1485.47 1858.56 1489.17 Q1854.32 1493.41 1848.83 1492.41 Q1843.33 1491.4 1837.16 1485.22 Q1831.37 1479.43 1830.68 1473.24 Q1829.98 1467.04 1834.61 1462.41 Q1835.85 1461.16 1837.36 1460.15 Q1838.88 1459.12 1840.75 1458.23 Z" fill="#000000" fill-rule="evenodd" fill-opacity="1" /><path clip-path="url(#clip550)" d="M1847.52 1450.38 L1860.5 1437.4 L1863.29 1440.18 L1853.33 1450.13 L1859.32 1456.12 Q1859.8 1455.16 1860.41 1454.32 Q1860.99 1453.47 1861.71 1452.75 Q1865.81 1448.66 1870.44 1448.51 Q1875.07 1448.36 1878.9 1452.19 Q1882.85 1456.14 1882.58 1460.79 Q1882.31 1465.42 1877.84 1469.89 Q1876.3 1471.43 1874.43 1472.77 Q1872.58 1474.09 1870.36 1475.27 L1867.03 1471.95 Q1869.31 1471.28 1871.27 1470.1 Q1873.24 1468.92 1874.99 1467.17 Q1877.82 1464.34 1877.98 1461.2 Q1878.15 1458.05 1875.59 1455.5 Q1873.04 1452.95 1869.9 1453.11 Q1866.76 1453.27 1863.92 1456.11 Q1862.6 1457.43 1861.57 1459.05 Q1860.55 1460.66 1859.8 1462.65 L1847.52 1450.38 Z" fill="#000000" fill-rule="evenodd" fill-opacity="1" /><path clip-path="url(#clip550)" d="M1880.78 1444.94 L1889.61 1436.12 L1892.29 1438.8 L1883.47 1447.63 L1880.78 1444.94 Z" fill="#000000" fill-rule="evenodd" fill-opacity="1" /><path clip-path="url(#clip550)" d="M1899.3 1420.41 Q1897.07 1422.63 1897.28 1425.46 Q1897.51 1428.28 1900.16 1430.93 Q1902.8 1433.57 1905.63 1433.81 Q1908.46 1434.02 1910.69 1431.8 Q1912.91 1429.57 1912.69 1426.76 Q1912.46 1423.91 1909.82 1421.27 Q1907.17 1418.62 1904.34 1418.41 Q1901.52 1418.18 1899.3 1420.41 M1895.5 1403.48 L1898.51 1406.49 Q1896.68 1407.15 1895.09 1408.11 Q1893.52 1409.06 1892.27 1410.31 Q1889 1413.58 1889.48 1417.53 Q1889.97 1421.45 1894.19 1426.17 Q1893.73 1423.78 1894.43 1421.57 Q1895.12 1419.34 1896.87 1417.59 Q1900.56 1413.91 1904.93 1414.02 Q1909.3 1414.1 1913.14 1417.95 Q1916.91 1421.72 1916.96 1426.22 Q1917.01 1430.72 1913.31 1434.42 Q1909.07 1438.66 1903.58 1437.66 Q1898.08 1436.64 1891.91 1430.47 Q1886.12 1424.68 1885.43 1418.49 Q1884.73 1412.29 1889.36 1407.66 Q1890.6 1406.41 1892.11 1405.4 Q1893.63 1404.37 1895.5 1403.48 Z" fill="#000000" fill-rule="evenodd" fill-opacity="1" /><path clip-path="url(#clip550)" d="M1926.27 1419.49 L1923.26 1416.48 Q1925.09 1415.82 1926.68 1414.86 Q1928.27 1413.89 1929.5 1412.66 Q1932.77 1409.39 1932.29 1405.48 Q1931.82 1401.53 1927.58 1396.8 Q1928.04 1399.16 1927.33 1401.37 Q1926.63 1403.58 1924.86 1405.35 Q1921.2 1409.01 1916.84 1408.95 Q1912.49 1408.85 1908.64 1405 Q1904.88 1401.24 1904.83 1396.74 Q1904.78 1392.24 1908.48 1388.54 Q1912.72 1384.3 1918.2 1385.33 Q1923.68 1386.33 1929.87 1392.52 Q1935.65 1398.29 1936.35 1404.5 Q1937.06 1410.67 1932.43 1415.3 Q1931.18 1416.54 1929.66 1417.57 Q1928.14 1418.61 1926.27 1419.49 M1922.49 1402.55 Q1924.72 1400.32 1924.49 1397.51 Q1924.27 1394.68 1921.62 1392.02 Q1918.99 1389.39 1916.16 1389.18 Q1913.32 1388.93 1911.1 1391.16 Q1908.87 1393.38 1909.1 1396.23 Q1909.33 1399.05 1911.96 1401.68 Q1914.62 1404.33 1917.43 1404.56 Q1920.26 1404.77 1922.49 1402.55 Z" fill="#000000" fill-rule="evenodd" fill-opacity="1" /><path clip-path="url(#clip550)" d="M1945.9 1473.05 L1961.61 1457.33 L1963.02 1458.74 L1977.18 1490.64 L1973.72 1494.1 L1960.42 1464.09 L1948.68 1475.83 L1945.9 1473.05 Z" fill="#000000" fill-rule="evenodd" fill-opacity="1" /><path clip-path="url(#clip550)" d="M1977.31 1445.99 Q1974.76 1448.54 1975.98 1452.36 Q1977.21 1456.14 1982.25 1461.18 Q1987.28 1466.2 1991.07 1467.45 Q1994.87 1468.66 1997.43 1466.11 Q2000 1463.54 1998.77 1459.76 Q1997.54 1455.94 1992.51 1450.92 Q1987.47 1445.88 1983.68 1444.66 Q1979.88 1443.42 1977.31 1445.99 M1974.69 1443.37 Q1978.8 1439.26 1984.22 1440.36 Q1989.63 1441.42 1995.82 1447.61 Q2001.99 1453.78 2003.07 1459.22 Q2004.15 1464.62 2000.04 1468.73 Q1995.94 1472.83 1990.52 1471.77 Q1985.1 1470.67 1978.93 1464.5 Q1972.74 1458.32 1971.66 1452.91 Q1970.58 1447.48 1974.69 1443.37 Z" fill="#000000" fill-rule="evenodd" fill-opacity="1" /><path clip-path="url(#clip550)" d="M2001.35 1445.42 L2010.18 1436.59 L2012.86 1439.28 L2004.04 1448.1 L2001.35 1445.42 Z" fill="#000000" fill-rule="evenodd" fill-opacity="1" /><path clip-path="url(#clip550)" d="M2000.65 1418.3 L2016.36 1402.58 L2017.77 1403.99 L2031.93 1435.89 L2028.48 1439.34 L2015.17 1409.34 L2003.43 1421.08 L2000.65 1418.3 Z" fill="#000000" fill-rule="evenodd" fill-opacity="1" /><path clip-path="url(#clip550)" d="M2034.78 1389.93 L2039.48 1411.32 L2047.82 1402.97 L2034.78 1389.93 M2031.03 1387.92 L2035.19 1383.76 L2051.11 1399.68 L2054.6 1396.2 L2057.35 1398.95 L2053.86 1402.43 L2059.62 1408.2 L2056.33 1411.49 L2050.57 1405.72 L2039.54 1416.76 L2036.35 1413.56 L2031.03 1387.92 Z" fill="#000000" fill-rule="evenodd" fill-opacity="1" /><path clip-path="url(#clip550)" d="M2067.42 1472.57 L2083.13 1456.86 L2084.54 1458.27 L2098.7 1490.17 L2095.24 1493.62 L2081.94 1463.62 L2070.2 1475.35 L2067.42 1472.57 Z" fill="#000000" fill-rule="evenodd" fill-opacity="1" /><path clip-path="url(#clip550)" d="M2089.61 1450.38 L2102.59 1437.4 L2105.38 1440.18 L2095.42 1450.13 L2101.41 1456.12 Q2101.89 1455.16 2102.49 1454.32 Q2103.08 1453.47 2103.8 1452.75 Q2107.9 1448.66 2112.53 1448.51 Q2117.16 1448.36 2120.99 1452.19 Q2124.94 1456.14 2124.67 1460.79 Q2124.4 1465.42 2119.93 1469.89 Q2118.39 1471.43 2116.52 1472.77 Q2114.67 1474.09 2112.45 1475.27 L2109.12 1471.95 Q2111.4 1471.28 2113.36 1470.1 Q2115.33 1468.92 2117.08 1467.17 Q2119.91 1464.34 2120.07 1461.2 Q2120.24 1458.05 2117.68 1455.5 Q2115.13 1452.95 2111.99 1453.11 Q2108.85 1453.27 2106.01 1456.11 Q2104.69 1457.43 2103.66 1459.05 Q2102.64 1460.66 2101.89 1462.65 L2089.61 1450.38 Z" fill="#000000" fill-rule="evenodd" fill-opacity="1" /><path clip-path="url(#clip550)" d="M2122.87 1444.94 L2131.7 1436.12 L2134.38 1438.8 L2125.56 1447.63 L2122.87 1444.94 Z" fill="#000000" fill-rule="evenodd" fill-opacity="1" /><path clip-path="url(#clip550)" d="M2122.17 1417.82 L2137.88 1402.11 L2139.29 1403.51 L2153.45 1435.42 L2150 1438.87 L2136.69 1408.87 L2124.95 1420.6 L2122.17 1417.82 Z" fill="#000000" fill-rule="evenodd" fill-opacity="1" /><path clip-path="url(#clip550)" d="M2168.36 1419.49 L2165.35 1416.48 Q2167.18 1415.82 2168.77 1414.86 Q2170.36 1413.89 2171.58 1412.66 Q2174.86 1409.39 2174.38 1405.48 Q2173.91 1401.53 2169.67 1396.8 Q2170.13 1399.16 2169.42 1401.37 Q2168.72 1403.58 2166.95 1405.35 Q2163.29 1409.01 2158.93 1408.95 Q2154.58 1408.85 2150.73 1405 Q2146.97 1401.24 2146.92 1396.74 Q2146.87 1392.24 2150.57 1388.54 Q2154.81 1384.3 2160.29 1385.33 Q2165.77 1386.33 2171.96 1392.52 Q2177.74 1398.29 2178.44 1404.5 Q2179.15 1410.67 2174.51 1415.3 Q2173.27 1416.54 2171.75 1417.57 Q2170.23 1418.61 2168.36 1419.49 M2164.58 1402.55 Q2166.81 1400.32 2166.58 1397.51 Q2166.36 1394.68 2163.71 1392.02 Q2161.08 1389.39 2158.24 1389.18 Q2155.41 1388.93 2153.19 1391.16 Q2150.96 1393.38 2151.19 1396.23 Q2151.42 1399.05 2154.05 1401.68 Q2156.71 1404.33 2159.52 1404.56 Q2162.35 1404.77 2164.58 1402.55 Z" fill="#000000" fill-rule="evenodd" fill-opacity="1" /><path clip-path="url(#clip550)" d="M1137.49 1555.84 L1137.49 1573.25 L1147.8 1573.25 Q1152.99 1573.25 1155.47 1571.11 Q1157.98 1568.95 1157.98 1564.53 Q1157.98 1560.07 1155.47 1557.97 Q1152.99 1555.84 1147.8 1555.84 L1137.49 1555.84 M1137.49 1536.29 L1137.49 1550.62 L1147 1550.62 Q1151.71 1550.62 1154.01 1548.87 Q1156.33 1547.08 1156.33 1543.46 Q1156.33 1539.86 1154.01 1538.08 Q1151.71 1536.29 1147 1536.29 L1137.49 1536.29 M1131.06 1531.01 L1147.48 1531.01 Q1154.83 1531.01 1158.81 1534.07 Q1162.79 1537.12 1162.79 1542.76 Q1162.79 1547.12 1160.75 1549.69 Q1158.72 1552.27 1154.77 1552.91 Q1159.51 1553.93 1162.12 1557.17 Q1164.76 1560.39 1164.76 1565.23 Q1164.76 1571.59 1160.44 1575.06 Q1156.11 1578.53 1148.12 1578.53 L1131.06 1578.53 L1131.06 1531.01 Z" fill="#000000" fill-rule="evenodd" fill-opacity="1" /><path clip-path="url(#clip550)" d="M1189.34 1546.99 Q1184.62 1546.99 1181.89 1550.68 Q1179.15 1554.34 1179.15 1560.74 Q1179.15 1567.14 1181.86 1570.83 Q1184.59 1574.49 1189.34 1574.49 Q1194.01 1574.49 1196.75 1570.8 Q1199.49 1567.1 1199.49 1560.74 Q1199.49 1554.4 1196.75 1550.71 Q1194.01 1546.99 1189.34 1546.99 M1189.34 1542.02 Q1196.97 1542.02 1201.33 1546.99 Q1205.7 1551.95 1205.7 1560.74 Q1205.7 1569.49 1201.33 1574.49 Q1196.97 1579.45 1189.34 1579.45 Q1181.66 1579.45 1177.3 1574.49 Q1172.98 1569.49 1172.98 1560.74 Q1172.98 1551.95 1177.3 1546.99 Q1181.66 1542.02 1189.34 1542.02 Z" fill="#000000" fill-rule="evenodd" fill-opacity="1" /><path clip-path="url(#clip550)" d="M1231.73 1559.31 Q1235.68 1560.07 1237.87 1562.39 Q1240.07 1564.72 1240.07 1568.15 Q1240.07 1573.66 1235.96 1576.56 Q1231.86 1579.45 1224.28 1579.45 Q1221.74 1579.45 1219.03 1579.01 Q1216.36 1578.56 1213.49 1577.67 L1213.49 1572.23 Q1215.75 1573.41 1218.46 1574.01 Q1221.16 1574.58 1224.12 1574.58 Q1228.93 1574.58 1231.6 1572.8 Q1234.31 1571.02 1234.31 1568.15 Q1234.31 1565.35 1231.92 1563.67 Q1229.53 1561.95 1225.17 1561.95 L1220.46 1561.95 L1220.46 1557.11 L1225.4 1557.11 Q1229.09 1557.11 1231.22 1555.71 Q1233.39 1554.28 1233.39 1552.05 Q1233.39 1550.01 1231.16 1548.55 Q1228.96 1547.08 1225.17 1547.08 Q1222.91 1547.08 1220.34 1547.5 Q1217.79 1547.91 1214.7 1548.83 L1214.7 1543.52 Q1217.82 1542.76 1220.53 1542.37 Q1223.23 1541.99 1225.65 1541.99 Q1231.89 1541.99 1235.49 1544.51 Q1239.12 1546.99 1239.12 1551.48 Q1239.12 1554.44 1237.21 1556.51 Q1235.3 1558.54 1231.73 1559.31 Z" fill="#000000" fill-rule="evenodd" fill-opacity="1" /><path clip-path="url(#clip550)" d="M1255.73 1573.18 L1255.73 1592.09 L1249.84 1592.09 L1249.84 1542.88 L1255.73 1542.88 L1255.73 1548.29 Q1257.58 1545.11 1260.38 1543.58 Q1263.21 1542.02 1267.12 1542.02 Q1273.62 1542.02 1277.66 1547.18 Q1281.73 1552.34 1281.73 1560.74 Q1281.73 1569.14 1277.66 1574.3 Q1273.62 1579.45 1267.12 1579.45 Q1263.21 1579.45 1260.38 1577.93 Q1257.58 1576.37 1255.73 1573.18 M1275.65 1560.74 Q1275.65 1554.28 1272.98 1550.62 Q1270.34 1546.92 1265.69 1546.92 Q1261.05 1546.92 1258.37 1550.62 Q1255.73 1554.28 1255.73 1560.74 Q1255.73 1567.2 1258.37 1570.89 Q1261.05 1574.55 1265.69 1574.55 Q1270.34 1574.55 1272.98 1570.89 Q1275.65 1567.2 1275.65 1560.74 Z" fill="#000000" fill-rule="evenodd" fill-opacity="1" /><path clip-path="url(#clip550)" d="M1307.64 1560.61 Q1300.54 1560.61 1297.81 1562.23 Q1295.07 1563.86 1295.07 1567.77 Q1295.07 1570.89 1297.11 1572.74 Q1299.18 1574.55 1302.71 1574.55 Q1307.58 1574.55 1310.51 1571.11 Q1313.47 1567.65 1313.47 1561.92 L1313.47 1560.61 L1307.64 1560.61 M1319.32 1558.19 L1319.32 1578.53 L1313.47 1578.53 L1313.47 1573.12 Q1311.46 1576.37 1308.47 1577.93 Q1305.48 1579.45 1301.15 1579.45 Q1295.67 1579.45 1292.43 1576.4 Q1289.21 1573.31 1289.21 1568.15 Q1289.21 1562.14 1293.22 1559.08 Q1297.27 1556.03 1305.25 1556.03 L1313.47 1556.03 L1313.47 1555.45 Q1313.47 1551.41 1310.79 1549.22 Q1308.15 1546.99 1303.35 1546.99 Q1300.29 1546.99 1297.39 1547.72 Q1294.5 1548.45 1291.82 1549.92 L1291.82 1544.51 Q1295.04 1543.26 1298.06 1542.66 Q1301.09 1542.02 1303.95 1542.02 Q1311.68 1542.02 1315.5 1546.03 Q1319.32 1550.04 1319.32 1558.19 Z" fill="#000000" fill-rule="evenodd" fill-opacity="1" /><path clip-path="url(#clip550)" d="M1357.04 1544.25 L1357.04 1549.73 Q1354.56 1548.36 1352.04 1547.69 Q1349.56 1546.99 1347.01 1546.99 Q1341.32 1546.99 1338.17 1550.62 Q1335.01 1554.21 1335.01 1560.74 Q1335.01 1567.26 1338.17 1570.89 Q1341.32 1574.49 1347.01 1574.49 Q1349.56 1574.49 1352.04 1573.82 Q1354.56 1573.12 1357.04 1571.75 L1357.04 1577.16 Q1354.59 1578.31 1351.95 1578.88 Q1349.34 1579.45 1346.38 1579.45 Q1338.32 1579.45 1333.58 1574.39 Q1328.84 1569.33 1328.84 1560.74 Q1328.84 1552.02 1333.61 1547.02 Q1338.42 1542.02 1346.76 1542.02 Q1349.46 1542.02 1352.04 1542.6 Q1354.62 1543.14 1357.04 1544.25 Z" fill="#000000" fill-rule="evenodd" fill-opacity="1" /><path clip-path="url(#clip550)" d="M1362.99 1542.88 L1397.14 1542.88 L1397.14 1547.56 L1382.95 1547.56 L1382.95 1578.53 L1377.19 1578.53 L1377.19 1547.56 L1362.99 1547.56 L1362.99 1542.88 Z" fill="#000000" fill-rule="evenodd" fill-opacity="1" /><polyline clip-path="url(#clip552)" style="stroke:#000000; stroke-linecap:butt; stroke-linejoin:round; stroke-width:2; stroke-opacity:0.1; fill:none" points="
  191.193,1320.55 2337.01,1320.55 
  "/>
<polyline clip-path="url(#clip552)" style="stroke:#000000; stroke-linecap:butt; stroke-linejoin:round; stroke-width:2; stroke-opacity:0.1; fill:none" points="
  191.193,1056.32 2337.01,1056.32 
  "/>
<polyline clip-path="url(#clip552)" style="stroke:#000000; stroke-linecap:butt; stroke-linejoin:round; stroke-width:2; stroke-opacity:0.1; fill:none" points="
  191.193,792.076 2337.01,792.076 
  "/>
<polyline clip-path="url(#clip552)" style="stroke:#000000; stroke-linecap:butt; stroke-linejoin:round; stroke-width:2; stroke-opacity:0.1; fill:none" points="
  191.193,527.837 2337.01,527.837 
  "/>
<polyline clip-path="url(#clip552)" style="stroke:#000000; stroke-linecap:butt; stroke-linejoin:round; stroke-width:2; stroke-opacity:0.1; fill:none" points="
  191.193,263.598 2337.01,263.598 
  "/>
<polyline clip-path="url(#clip550)" style="stroke:#000000; stroke-linecap:butt; stroke-linejoin:round; stroke-width:4; stroke-opacity:1; fill:none" points="
  191.193,1354.96 191.193,139.22 
  "/>
<polyline clip-path="url(#clip550)" style="stroke:#000000; stroke-linecap:butt; stroke-linejoin:round; stroke-width:4; stroke-opacity:1; fill:none" points="
  191.193,1320.55 210.091,1320.55 
  "/>
<polyline clip-path="url(#clip550)" style="stroke:#000000; stroke-linecap:butt; stroke-linejoin:round; stroke-width:4; stroke-opacity:1; fill:none" points="
  191.193,1056.32 210.091,1056.32 
  "/>
<polyline clip-path="url(#clip550)" style="stroke:#000000; stroke-linecap:butt; stroke-linejoin:round; stroke-width:4; stroke-opacity:1; fill:none" points="
  191.193,792.076 210.091,792.076 
  "/>
<polyline clip-path="url(#clip550)" style="stroke:#000000; stroke-linecap:butt; stroke-linejoin:round; stroke-width:4; stroke-opacity:1; fill:none" points="
  191.193,527.837 210.091,527.837 
  "/>
<polyline clip-path="url(#clip550)" style="stroke:#000000; stroke-linecap:butt; stroke-linejoin:round; stroke-width:4; stroke-opacity:1; fill:none" points="
  191.193,263.598 210.091,263.598 
  "/>
<path clip-path="url(#clip550)" d="M143.249 1306.35 Q139.638 1306.35 137.809 1309.92 Q136.004 1313.46 136.004 1320.59 Q136.004 1327.7 137.809 1331.26 Q139.638 1334.8 143.249 1334.8 Q146.883 1334.8 148.689 1331.26 Q150.517 1327.7 150.517 1320.59 Q150.517 1313.46 148.689 1309.92 Q146.883 1306.35 143.249 1306.35 M143.249 1302.65 Q149.059 1302.65 152.115 1307.26 Q155.193 1311.84 155.193 1320.59 Q155.193 1329.32 152.115 1333.92 Q149.059 1338.51 143.249 1338.51 Q137.439 1338.51 134.36 1333.92 Q131.304 1329.32 131.304 1320.59 Q131.304 1311.84 134.36 1307.26 Q137.439 1302.65 143.249 1302.65 Z" fill="#000000" fill-rule="evenodd" fill-opacity="1" /><path clip-path="url(#clip550)" d="M138.874 1069.66 L155.193 1069.66 L155.193 1073.6 L133.249 1073.6 L133.249 1069.66 Q135.911 1066.91 140.494 1062.28 Q145.101 1057.62 146.281 1056.28 Q148.527 1053.76 149.406 1052.02 Q150.309 1050.26 150.309 1048.57 Q150.309 1045.82 148.365 1044.08 Q146.443 1042.35 143.341 1042.35 Q141.142 1042.35 138.689 1043.11 Q136.258 1043.87 133.48 1045.42 L133.48 1040.7 Q136.304 1039.57 138.758 1038.99 Q141.212 1038.41 143.249 1038.41 Q148.619 1038.41 151.814 1041.1 Q155.008 1043.78 155.008 1048.27 Q155.008 1050.4 154.198 1052.32 Q153.411 1054.22 151.304 1056.81 Q150.726 1057.48 147.624 1060.7 Q144.522 1063.9 138.874 1069.66 Z" fill="#000000" fill-rule="evenodd" fill-opacity="1" /><path clip-path="url(#clip550)" d="M145.61 778.871 L133.804 797.32 L145.61 797.32 L145.61 778.871 M144.383 774.796 L150.263 774.796 L150.263 797.32 L155.193 797.32 L155.193 801.208 L150.263 801.208 L150.263 809.356 L145.61 809.356 L145.61 801.208 L130.008 801.208 L130.008 796.695 L144.383 774.796 Z" fill="#000000" fill-rule="evenodd" fill-opacity="1" /><path clip-path="url(#clip550)" d="M143.666 525.974 Q140.517 525.974 138.666 528.127 Q136.837 530.28 136.837 534.029 Q136.837 537.756 138.666 539.932 Q140.517 542.085 143.666 542.085 Q146.814 542.085 148.642 539.932 Q150.494 537.756 150.494 534.029 Q150.494 530.28 148.642 528.127 Q146.814 525.974 143.666 525.974 M152.948 511.321 L152.948 515.581 Q151.189 514.747 149.383 514.307 Q147.601 513.868 145.841 513.868 Q141.212 513.868 138.758 516.993 Q136.328 520.118 135.98 526.437 Q137.346 524.423 139.406 523.358 Q141.466 522.27 143.943 522.27 Q149.152 522.27 152.161 525.442 Q155.193 528.59 155.193 534.029 Q155.193 539.354 152.045 542.571 Q148.897 545.789 143.666 545.789 Q137.67 545.789 134.499 541.205 Q131.328 536.599 131.328 527.872 Q131.328 519.678 135.216 514.817 Q139.105 509.932 145.656 509.932 Q147.416 509.932 149.198 510.28 Q151.003 510.627 152.948 511.321 Z" fill="#000000" fill-rule="evenodd" fill-opacity="1" /><path clip-path="url(#clip550)" d="M143.341 264.466 Q140.008 264.466 138.087 266.249 Q136.189 268.031 136.189 271.156 Q136.189 274.281 138.087 276.064 Q140.008 277.846 143.341 277.846 Q146.675 277.846 148.596 276.064 Q150.517 274.258 150.517 271.156 Q150.517 268.031 148.596 266.249 Q146.698 264.466 143.341 264.466 M138.666 262.476 Q135.656 261.735 133.967 259.675 Q132.3 257.615 132.3 254.652 Q132.3 250.508 135.24 248.101 Q138.203 245.693 143.341 245.693 Q148.503 245.693 151.443 248.101 Q154.383 250.508 154.383 254.652 Q154.383 257.615 152.693 259.675 Q151.027 261.735 148.04 262.476 Q151.42 263.263 153.295 265.554 Q155.193 267.846 155.193 271.156 Q155.193 276.179 152.115 278.864 Q149.059 281.55 143.341 281.55 Q137.624 281.55 134.545 278.864 Q131.49 276.179 131.49 271.156 Q131.49 267.846 133.388 265.554 Q135.286 263.263 138.666 262.476 M136.953 255.091 Q136.953 257.777 138.619 259.281 Q140.309 260.786 143.341 260.786 Q146.351 260.786 148.04 259.281 Q149.753 257.777 149.753 255.091 Q149.753 252.406 148.04 250.902 Q146.351 249.397 143.341 249.397 Q140.309 249.397 138.619 250.902 Q136.953 252.406 136.953 255.091 Z" fill="#000000" fill-rule="evenodd" fill-opacity="1" /><path clip-path="url(#clip550)" d="M79.7522 1042.32 L60.2731 1042.32 L60.2731 1055.59 Q60.2731 1061.51 56.581 1065.04 Q52.8571 1068.58 45.2819 1068.58 L32.2322 1068.58 L32.2322 1062.18 L44.7726 1062.18 Q49.8334 1062.18 52.3478 1060.2 Q54.8623 1058.23 54.8623 1054.28 L54.8623 1042.32 L32.2322 1042.32 L32.2322 1035.86 L79.7522 1035.86 L79.7522 1042.32 Z" fill="#000000" fill-rule="evenodd" fill-opacity="1" /><path clip-path="url(#clip550)" d="M61.8327 1007.11 Q61.8327 1014.21 63.456 1016.95 Q65.0792 1019.69 68.9941 1019.69 Q72.1133 1019.69 73.9594 1017.65 Q75.7736 1015.58 75.7736 1012.05 Q75.7736 1007.18 72.3361 1004.25 Q68.8668 1001.29 63.1377 1001.29 L61.8327 1001.29 L61.8327 1007.11 M59.4138 995.433 L79.7522 995.433 L79.7522 1001.29 L74.3413 1001.29 Q77.5878 1003.3 79.1474 1006.29 Q80.6752 1009.28 80.6752 1013.61 Q80.6752 1019.08 77.6197 1022.33 Q74.5323 1025.54 69.3761 1025.54 Q63.3605 1025.54 60.305 1021.53 Q57.2494 1017.49 57.2494 1009.5 L57.2494 1001.29 L56.6765 1001.29 Q52.6343 1001.29 50.4381 1003.96 Q48.2101 1006.61 48.2101 1011.41 Q48.2101 1014.47 48.9422 1017.36 Q49.6742 1020.26 51.1383 1022.93 L45.7275 1022.93 Q44.4862 1019.72 43.8814 1016.69 Q43.2449 1013.67 43.2449 1010.81 Q43.2449 1003.07 47.2553 999.253 Q51.2657 995.433 59.4138 995.433 Z" fill="#000000" fill-rule="evenodd" fill-opacity="1" /><path clip-path="url(#clip550)" d="M45.4729 957.717 L50.9474 957.717 Q49.5787 960.199 48.9103 962.714 Q48.2101 965.196 48.2101 967.743 Q48.2101 973.44 51.8386 976.591 Q55.4352 979.742 61.96 979.742 Q68.4849 979.742 72.1133 976.591 Q75.71 973.44 75.71 967.743 Q75.71 965.196 75.0416 962.714 Q74.3413 960.199 72.9727 957.717 L78.3836 957.717 Q79.5294 960.167 80.1023 962.809 Q80.6752 965.419 80.6752 968.379 Q80.6752 976.432 75.6145 981.174 Q70.5537 985.917 61.96 985.917 Q53.239 985.917 48.2419 981.142 Q43.2449 976.336 43.2449 967.997 Q43.2449 965.292 43.8178 962.714 Q44.3589 960.136 45.4729 957.717 Z" fill="#000000" fill-rule="evenodd" fill-opacity="1" /><path clip-path="url(#clip550)" d="M44.1042 951.765 L44.1042 917.613 L48.783 917.613 L48.783 931.808 L79.7522 931.808 L79.7522 937.569 L48.783 937.569 L48.783 951.765 L44.1042 951.765 Z" fill="#000000" fill-rule="evenodd" fill-opacity="1" /><path clip-path="url(#clip550)" d="M48.2101 895.746 Q48.2101 900.457 51.9022 903.194 Q55.5625 905.932 61.96 905.932 Q68.3576 905.932 72.0497 903.226 Q75.71 900.489 75.71 895.746 Q75.71 891.068 72.0179 888.33 Q68.3257 885.593 61.96 885.593 Q55.6262 885.593 51.9341 888.33 Q48.2101 891.068 48.2101 895.746 M43.2449 895.746 Q43.2449 888.108 48.2101 883.747 Q53.1754 879.387 61.96 879.387 Q70.7129 879.387 75.71 883.747 Q80.6752 888.108 80.6752 895.746 Q80.6752 903.417 75.71 907.778 Q70.7129 912.106 61.96 912.106 Q53.1754 912.106 48.2101 907.778 Q43.2449 903.417 43.2449 895.746 Z" fill="#000000" fill-rule="evenodd" fill-opacity="1" /><path clip-path="url(#clip550)" d="M44.1042 873.912 L44.1042 839.76 L48.783 839.76 L48.783 853.956 L79.7522 853.956 L79.7522 859.717 L48.783 859.717 L48.783 873.912 L44.1042 873.912 Z" fill="#000000" fill-rule="evenodd" fill-opacity="1" /><path clip-path="url(#clip550)" d="M61.8327 815.507 Q61.8327 822.605 63.456 825.342 Q65.0792 828.079 68.9941 828.079 Q72.1133 828.079 73.9594 826.042 Q75.7736 823.973 75.7736 820.44 Q75.7736 815.57 72.3361 812.642 Q68.8668 809.682 63.1377 809.682 L61.8327 809.682 L61.8327 815.507 M59.4138 803.826 L79.7522 803.826 L79.7522 809.682 L74.3413 809.682 Q77.5878 811.687 79.1474 814.679 Q80.6752 817.671 80.6752 822 Q80.6752 827.474 77.6197 830.721 Q74.5323 833.935 69.3761 833.935 Q63.3605 833.935 60.305 829.925 Q57.2494 825.883 57.2494 817.894 L57.2494 809.682 L56.6765 809.682 Q52.6343 809.682 50.4381 812.356 Q48.2101 814.997 48.2101 819.804 Q48.2101 822.859 48.9422 825.756 Q49.6742 828.652 51.1383 831.326 L45.7275 831.326 Q44.4862 828.111 43.8814 825.087 Q43.2449 822.063 43.2449 819.199 Q43.2449 811.465 47.2553 807.645 Q51.2657 803.826 59.4138 803.826 Z" fill="#000000" fill-rule="evenodd" fill-opacity="1" /><path clip-path="url(#clip550)" d="M44.1042 771.265 L44.1042 765.44 L60.846 765.44 L44.1042 748.921 L44.1042 741.728 L57.886 755.351 L79.7522 739.978 L79.7522 746.534 L61.7691 759.17 L68.1348 765.44 L79.7522 765.44 L79.7522 771.265 L44.1042 771.265 Z" fill="#000000" fill-rule="evenodd" fill-opacity="1" /><path clip-path="url(#clip550)" d="M48.2101 717.857 Q48.2101 722.567 51.9022 725.305 Q55.5625 728.042 61.96 728.042 Q68.3576 728.042 72.0497 725.337 Q75.71 722.599 75.71 717.857 Q75.71 713.178 72.0179 710.441 Q68.3257 707.704 61.96 707.704 Q55.6262 707.704 51.9341 710.441 Q48.2101 713.178 48.2101 717.857 M43.2449 717.857 Q43.2449 710.218 48.2101 705.857 Q53.1754 701.497 61.96 701.497 Q70.7129 701.497 75.71 705.857 Q80.6752 710.218 80.6752 717.857 Q80.6752 725.527 75.71 729.888 Q70.7129 734.217 61.96 734.217 Q53.1754 734.217 48.2101 729.888 Q43.2449 725.527 43.2449 717.857 Z" fill="#000000" fill-rule="evenodd" fill-opacity="1" /><path clip-path="url(#clip550)" d="M44.1042 692.012 L44.1042 686.124 L58.6499 686.124 L58.6499 667.122 L44.1042 667.122 L44.1042 661.234 L79.7522 661.234 L79.7522 667.122 L63.3287 667.122 L63.3287 686.124 L79.7522 686.124 L79.7522 692.012 L44.1042 692.012 Z" fill="#000000" fill-rule="evenodd" fill-opacity="1" /><path clip-path="url(#clip550)" d="M44.1042 653.404 L44.1042 619.252 L48.783 619.252 L48.783 633.448 L79.7522 633.448 L79.7522 639.209 L48.783 639.209 L48.783 653.404 L44.1042 653.404 Z" fill="#000000" fill-rule="evenodd" fill-opacity="1" /><path clip-path="url(#clip550)" d="M61.8327 594.999 Q61.8327 602.096 63.456 604.834 Q65.0792 607.571 68.9941 607.571 Q72.1133 607.571 73.9594 605.534 Q75.7736 603.465 75.7736 599.932 Q75.7736 595.062 72.3361 592.134 Q68.8668 589.174 63.1377 589.174 L61.8327 589.174 L61.8327 594.999 M59.4138 583.318 L79.7522 583.318 L79.7522 589.174 L74.3413 589.174 Q77.5878 591.179 79.1474 594.171 Q80.6752 597.163 80.6752 601.492 Q80.6752 606.966 77.6197 610.213 Q74.5323 613.427 69.3761 613.427 Q63.3605 613.427 60.305 609.417 Q57.2494 605.375 57.2494 597.386 L57.2494 589.174 L56.6765 589.174 Q52.6343 589.174 50.4381 591.848 Q48.2101 594.489 48.2101 599.296 Q48.2101 602.351 48.9422 605.247 Q49.6742 608.144 51.1383 610.817 L45.7275 610.817 Q44.4862 607.603 43.8814 604.579 Q43.2449 601.555 43.2449 598.691 Q43.2449 590.956 47.2553 587.137 Q51.2657 583.318 59.4138 583.318 Z" fill="#000000" fill-rule="evenodd" fill-opacity="1" /><path clip-path="url(#clip550)" d="M44.1042 571.477 L44.1042 565.653 L60.846 565.653 L44.1042 549.134 L44.1042 541.941 L57.886 555.563 L79.7522 540.19 L79.7522 546.747 L61.7691 559.383 L68.1348 565.653 L79.7522 565.653 L79.7522 571.477 L44.1042 571.477 Z" fill="#000000" fill-rule="evenodd" fill-opacity="1" /><path clip-path="url(#clip550)" d="M44.1042 536.116 L44.1042 501.964 L48.783 501.964 L48.783 516.159 L79.7522 516.159 L79.7522 521.92 L48.783 521.92 L48.783 536.116 L44.1042 536.116 Z" fill="#000000" fill-rule="evenodd" fill-opacity="1" /><path clip-path="url(#clip550)" d="M48.2101 480.098 Q48.2101 484.808 51.9022 487.546 Q55.5625 490.283 61.96 490.283 Q68.3576 490.283 72.0497 487.577 Q75.71 484.84 75.71 480.098 Q75.71 475.419 72.0179 472.682 Q68.3257 469.944 61.96 469.944 Q55.6262 469.944 51.9341 472.682 Q48.2101 475.419 48.2101 480.098 M43.2449 480.098 Q43.2449 472.459 48.2101 468.098 Q53.1754 463.738 61.96 463.738 Q70.7129 463.738 75.71 468.098 Q80.6752 472.459 80.6752 480.098 Q80.6752 487.768 75.71 492.129 Q70.7129 496.458 61.96 496.458 Q53.1754 496.458 48.2101 492.129 Q43.2449 487.768 43.2449 480.098 Z" fill="#000000" fill-rule="evenodd" fill-opacity="1" /><path clip-path="url(#clip550)" d="M63.3287 448.396 L75.0734 448.396 L75.0734 440.057 Q75.0734 436.047 73.5775 433.946 Q72.0497 431.846 69.1851 431.846 Q66.3205 431.846 64.8246 433.946 Q63.3287 436.047 63.3287 440.057 L63.3287 448.396 M48.783 448.396 L58.6499 448.396 L58.6499 440.694 Q58.6499 437.384 57.3449 435.283 Q56.0081 433.182 53.6528 433.182 Q51.2975 433.182 50.0562 435.283 Q48.783 437.384 48.783 440.694 L48.783 448.396 M44.1042 454.253 L44.1042 440.312 Q44.1042 434.042 46.3959 430.668 Q48.6875 427.294 52.9207 427.294 Q56.1991 427.294 58.1406 429.013 Q60.0503 430.732 60.5278 434.105 Q61.2916 430.063 63.7106 427.835 Q66.1296 425.607 69.758 425.607 Q74.5323 425.607 77.1422 429.299 Q79.7522 432.96 79.7522 439.771 L79.7522 454.253 L44.1042 454.253 Z" fill="#000000" fill-rule="evenodd" fill-opacity="1" /><path clip-path="url(#clip550)" d="M1165.52 65.6895 L1189.46 65.6895 L1189.46 12.096 L1197.65 12.096 L1197.65 72.576 L1125.22 72.576 L1125.22 12.096 L1133.4 12.096 L1133.4 65.6895 L1157.34 65.6895 L1157.34 12.096 L1165.52 12.096 L1165.52 65.6895 Z" fill="#000000" fill-rule="evenodd" fill-opacity="1" /><path clip-path="url(#clip550)" d="M1213.32 27.2059 L1220.74 27.2059 L1220.74 48.5136 L1241.76 27.2059 L1250.91 27.2059 L1233.58 44.7463 L1253.14 72.576 L1244.8 72.576 L1228.72 49.6884 L1220.74 57.7902 L1220.74 72.576 L1213.32 72.576 L1213.32 27.2059 Z" fill="#000000" fill-rule="evenodd" fill-opacity="1" /><path clip-path="url(#clip550)" d="M1281.3 32.4315 Q1275.3 32.4315 1271.82 37.1306 Q1268.33 41.7891 1268.33 49.9314 Q1268.33 58.0738 1271.78 62.7728 Q1275.26 67.4314 1281.3 67.4314 Q1287.25 67.4314 1290.74 62.7323 Q1294.22 58.0333 1294.22 49.9314 Q1294.22 41.8701 1290.74 37.1711 Q1287.25 32.4315 1281.3 32.4315 M1281.3 26.1121 Q1291.02 26.1121 1296.57 32.4315 Q1302.12 38.7509 1302.12 49.9314 Q1302.12 61.0714 1296.57 67.4314 Q1291.02 73.7508 1281.3 73.7508 Q1271.53 73.7508 1265.98 67.4314 Q1260.47 61.0714 1260.47 49.9314 Q1260.47 38.7509 1265.98 32.4315 Q1271.53 26.1121 1281.3 26.1121 Z" fill="#000000" fill-rule="evenodd" fill-opacity="1" /><path clip-path="url(#clip550)" d="M1309.73 72.576 L1309.73 66.3781 Q1317.11 65.2439 1319.38 60.1397 Q1322.13 52.9696 1322.13 34.619 L1322.13 27.2059 L1352.8 27.2059 L1352.8 72.576 L1345.34 72.576 L1345.34 33.1607 L1329.58 33.1607 L1329.58 37.6572 Q1329.58 55.1571 1326.02 63.0159 Q1322.21 71.4012 1309.73 72.576 Z" fill="#000000" fill-rule="evenodd" fill-opacity="1" /><path clip-path="url(#clip550)" d="M1388.12 49.7694 Q1379.09 49.7694 1375.6 51.8354 Q1372.12 53.9013 1372.12 58.8839 Q1372.12 62.8538 1374.71 65.2034 Q1377.34 67.5124 1381.84 67.5124 Q1388.04 67.5124 1391.76 63.1374 Q1395.53 58.7219 1395.53 51.4303 L1395.53 49.7694 L1388.12 49.7694 M1402.99 46.6907 L1402.99 72.576 L1395.53 72.576 L1395.53 65.6895 Q1392.98 69.8214 1389.17 71.8063 Q1385.36 73.7508 1379.86 73.7508 Q1372.89 73.7508 1368.76 69.8619 Q1364.66 65.9325 1364.66 59.3701 Q1364.66 51.7138 1369.77 47.825 Q1374.91 43.9361 1385.08 43.9361 L1395.53 43.9361 L1395.53 43.2069 Q1395.53 38.0623 1392.13 35.2672 Q1388.77 32.4315 1382.65 32.4315 Q1378.76 32.4315 1375.08 33.3632 Q1371.39 34.295 1367.99 36.1584 L1367.99 29.2718 Q1372.08 27.692 1375.93 26.9223 Q1379.77 26.1121 1383.42 26.1121 Q1393.26 26.1121 1398.12 31.2163 Q1402.99 36.3204 1402.99 46.6907 Z" fill="#000000" fill-rule="evenodd" fill-opacity="1" /><path clip-path="url(#clip552)" d="
M307.847 903.369 L307.847 1320.55 L356.264 1320.55 L356.264 903.369 L307.847 903.369 L307.847 903.369  Z
  " fill="#4477aa" fill-rule="evenodd" fill-opacity="1"/>
<polyline clip-path="url(#clip552)" style="stroke:#000000; stroke-linecap:butt; stroke-linejoin:round; stroke-width:4; stroke-opacity:1; fill:none" points="
  307.847,903.369 307.847,1320.55 356.264,1320.55 356.264,903.369 307.847,903.369 
  "/>
<path clip-path="url(#clip552)" d="
M428.891 659.312 L428.891 1320.55 L477.309 1320.55 L477.309 659.312 L428.891 659.312 L428.891 659.312  Z
  " fill="#4477aa" fill-rule="evenodd" fill-opacity="1"/>
<polyline clip-path="url(#clip552)" style="stroke:#000000; stroke-linecap:butt; stroke-linejoin:round; stroke-width:4; stroke-opacity:1; fill:none" points="
  428.891,659.312 428.891,1320.55 477.309,1320.55 477.309,659.312 428.891,659.312 
  "/>
<path clip-path="url(#clip552)" d="
M549.936 561.527 L549.936 1320.55 L598.354 1320.55 L598.354 561.527 L549.936 561.527 L549.936 561.527  Z
  " fill="#4477aa" fill-rule="evenodd" fill-opacity="1"/>
<polyline clip-path="url(#clip552)" style="stroke:#000000; stroke-linecap:butt; stroke-linejoin:round; stroke-width:4; stroke-opacity:1; fill:none" points="
  549.936,561.527 549.936,1320.55 598.354,1320.55 598.354,561.527 549.936,561.527 
  "/>
<path clip-path="url(#clip552)" d="
M670.981 302.114 L670.981 1320.55 L719.399 1320.55 L719.399 302.114 L670.981 302.114 L670.981 302.114  Z
  " fill="#4477aa" fill-rule="evenodd" fill-opacity="1"/>
<polyline clip-path="url(#clip552)" style="stroke:#000000; stroke-linecap:butt; stroke-linejoin:round; stroke-width:4; stroke-opacity:1; fill:none" points="
  670.981,302.114 670.981,1320.55 719.399,1320.55 719.399,302.114 670.981,302.114 
  "/>
<path clip-path="url(#clip552)" d="
M792.026 1225.68 L792.026 1320.55 L840.444 1320.55 L840.444 1225.68 L792.026 1225.68 L792.026 1225.68  Z
  " fill="#4477aa" fill-rule="evenodd" fill-opacity="1"/>
<polyline clip-path="url(#clip552)" style="stroke:#000000; stroke-linecap:butt; stroke-linejoin:round; stroke-width:4; stroke-opacity:1; fill:none" points="
  792.026,1225.68 792.026,1320.55 840.444,1320.55 840.444,1225.68 792.026,1225.68 
  "/>
<path clip-path="url(#clip552)" d="
M913.071 1220.67 L913.071 1320.55 L961.489 1320.55 L961.489 1220.67 L913.071 1220.67 L913.071 1220.67  Z
  " fill="#4477aa" fill-rule="evenodd" fill-opacity="1"/>
<polyline clip-path="url(#clip552)" style="stroke:#000000; stroke-linecap:butt; stroke-linejoin:round; stroke-width:4; stroke-opacity:1; fill:none" points="
  913.071,1220.67 913.071,1320.55 961.489,1320.55 961.489,1220.67 913.071,1220.67 
  "/>
<path clip-path="url(#clip552)" d="
M1034.12 1221.59 L1034.12 1320.55 L1082.53 1320.55 L1082.53 1221.59 L1034.12 1221.59 L1034.12 1221.59  Z
  " fill="#4477aa" fill-rule="evenodd" fill-opacity="1"/>
<polyline clip-path="url(#clip552)" style="stroke:#000000; stroke-linecap:butt; stroke-linejoin:round; stroke-width:4; stroke-opacity:1; fill:none" points="
  1034.12,1221.59 1034.12,1320.55 1082.53,1320.55 1082.53,1221.59 1034.12,1221.59 
  "/>
<path clip-path="url(#clip552)" d="
M1155.16 1219.86 L1155.16 1320.55 L1203.58 1320.55 L1203.58 1219.86 L1155.16 1219.86 L1155.16 1219.86  Z
  " fill="#4477aa" fill-rule="evenodd" fill-opacity="1"/>
<polyline clip-path="url(#clip552)" style="stroke:#000000; stroke-linecap:butt; stroke-linejoin:round; stroke-width:4; stroke-opacity:1; fill:none" points="
  1155.16,1219.86 1155.16,1320.55 1203.58,1320.55 1203.58,1219.86 1155.16,1219.86 
  "/>
<path clip-path="url(#clip552)" d="
M1276.21 1229.58 L1276.21 1320.55 L1324.62 1320.55 L1324.62 1229.58 L1276.21 1229.58 L1276.21 1229.58  Z
  " fill="#4477aa" fill-rule="evenodd" fill-opacity="1"/>
<polyline clip-path="url(#clip552)" style="stroke:#000000; stroke-linecap:butt; stroke-linejoin:round; stroke-width:4; stroke-opacity:1; fill:none" points="
  1276.21,1229.58 1276.21,1320.55 1324.62,1320.55 1324.62,1229.58 1276.21,1229.58 
  "/>
<path clip-path="url(#clip552)" d="
M1397.25 1236.09 L1397.25 1320.55 L1445.67 1320.55 L1445.67 1236.09 L1397.25 1236.09 L1397.25 1236.09  Z
  " fill="#4477aa" fill-rule="evenodd" fill-opacity="1"/>
<polyline clip-path="url(#clip552)" style="stroke:#000000; stroke-linecap:butt; stroke-linejoin:round; stroke-width:4; stroke-opacity:1; fill:none" points="
  1397.25,1236.09 1397.25,1320.55 1445.67,1320.55 1445.67,1236.09 1397.25,1236.09 
  "/>
<path clip-path="url(#clip552)" d="
M1518.29 1259.55 L1518.29 1320.55 L1566.71 1320.55 L1566.71 1259.55 L1518.29 1259.55 L1518.29 1259.55  Z
  " fill="#4477aa" fill-rule="evenodd" fill-opacity="1"/>
<polyline clip-path="url(#clip552)" style="stroke:#000000; stroke-linecap:butt; stroke-linejoin:round; stroke-width:4; stroke-opacity:1; fill:none" points="
  1518.29,1259.55 1518.29,1320.55 1566.71,1320.55 1566.71,1259.55 1518.29,1259.55 
  "/>
<path clip-path="url(#clip552)" d="
M1639.34 1287.09 L1639.34 1320.55 L1687.76 1320.55 L1687.76 1287.09 L1639.34 1287.09 L1639.34 1287.09  Z
  " fill="#4477aa" fill-rule="evenodd" fill-opacity="1"/>
<polyline clip-path="url(#clip552)" style="stroke:#000000; stroke-linecap:butt; stroke-linejoin:round; stroke-width:4; stroke-opacity:1; fill:none" points="
  1639.34,1287.09 1639.34,1320.55 1687.76,1320.55 1687.76,1287.09 1639.34,1287.09 
  "/>
<path clip-path="url(#clip552)" d="
M1760.38 1309.04 L1760.38 1320.55 L1808.8 1320.55 L1808.8 1309.04 L1760.38 1309.04 L1760.38 1309.04  Z
  " fill="#4477aa" fill-rule="evenodd" fill-opacity="1"/>
<polyline clip-path="url(#clip552)" style="stroke:#000000; stroke-linecap:butt; stroke-linejoin:round; stroke-width:4; stroke-opacity:1; fill:none" points="
  1760.38,1309.04 1760.38,1320.55 1808.8,1320.55 1808.8,1309.04 1760.38,1309.04 
  "/>
<path clip-path="url(#clip552)" d="
M1881.43 1314.22 L1881.43 1320.55 L1929.85 1320.55 L1929.85 1314.22 L1881.43 1314.22 L1881.43 1314.22  Z
  " fill="#4477aa" fill-rule="evenodd" fill-opacity="1"/>
<polyline clip-path="url(#clip552)" style="stroke:#000000; stroke-linecap:butt; stroke-linejoin:round; stroke-width:4; stroke-opacity:1; fill:none" points="
  1881.43,1314.22 1881.43,1320.55 1929.85,1320.55 1929.85,1314.22 1881.43,1314.22 
  "/>
<path clip-path="url(#clip552)" d="
M2002.47 1317.81 L2002.47 1320.55 L2050.89 1320.55 L2050.89 1317.81 L2002.47 1317.81 L2002.47 1317.81  Z
  " fill="#4477aa" fill-rule="evenodd" fill-opacity="1"/>
<polyline clip-path="url(#clip552)" style="stroke:#000000; stroke-linecap:butt; stroke-linejoin:round; stroke-width:4; stroke-opacity:1; fill:none" points="
  2002.47,1317.81 2002.47,1320.55 2050.89,1320.55 2050.89,1317.81 2002.47,1317.81 
  "/>
<path clip-path="url(#clip552)" d="
M2123.52 1317.43 L2123.52 1320.55 L2171.94 1320.55 L2171.94 1317.43 L2123.52 1317.43 L2123.52 1317.43  Z
  " fill="#4477aa" fill-rule="evenodd" fill-opacity="1"/>
<polyline clip-path="url(#clip552)" style="stroke:#000000; stroke-linecap:butt; stroke-linejoin:round; stroke-width:4; stroke-opacity:1; fill:none" points="
  2123.52,1317.43 2123.52,1320.55 2171.94,1320.55 2171.94,1317.43 2123.52,1317.43 
  "/>
<circle clip-path="url(#clip552)" style="fill:#000000; stroke:none; fill-opacity:0" cx="332.056" cy="903.369" r="2"/>
<circle clip-path="url(#clip552)" style="fill:#000000; stroke:none; fill-opacity:0" cx="453.1" cy="659.312" r="2"/>
<circle clip-path="url(#clip552)" style="fill:#000000; stroke:none; fill-opacity:0" cx="574.145" cy="561.527" r="2"/>
<circle clip-path="url(#clip552)" style="fill:#000000; stroke:none; fill-opacity:0" cx="695.19" cy="302.114" r="2"/>
<circle clip-path="url(#clip552)" style="fill:#000000; stroke:none; fill-opacity:0" cx="816.235" cy="1225.68" r="2"/>
<circle clip-path="url(#clip552)" style="fill:#000000; stroke:none; fill-opacity:0" cx="937.28" cy="1220.67" r="2"/>
<circle clip-path="url(#clip552)" style="fill:#000000; stroke:none; fill-opacity:0" cx="1058.32" cy="1221.59" r="2"/>
<circle clip-path="url(#clip552)" style="fill:#000000; stroke:none; fill-opacity:0" cx="1179.37" cy="1219.86" r="2"/>
<circle clip-path="url(#clip552)" style="fill:#000000; stroke:none; fill-opacity:0" cx="1300.41" cy="1229.58" r="2"/>
<circle clip-path="url(#clip552)" style="fill:#000000; stroke:none; fill-opacity:0" cx="1421.46" cy="1236.09" r="2"/>
<circle clip-path="url(#clip552)" style="fill:#000000; stroke:none; fill-opacity:0" cx="1542.5" cy="1259.55" r="2"/>
<circle clip-path="url(#clip552)" style="fill:#000000; stroke:none; fill-opacity:0" cx="1663.55" cy="1287.09" r="2"/>
<circle clip-path="url(#clip552)" style="fill:#000000; stroke:none; fill-opacity:0" cx="1784.59" cy="1309.04" r="2"/>
<circle clip-path="url(#clip552)" style="fill:#000000; stroke:none; fill-opacity:0" cx="1905.64" cy="1314.22" r="2"/>
<circle clip-path="url(#clip552)" style="fill:#000000; stroke:none; fill-opacity:0" cx="2026.68" cy="1317.81" r="2"/>
<circle clip-path="url(#clip552)" style="fill:#000000; stroke:none; fill-opacity:0" cx="2147.73" cy="1317.43" r="2"/>
<path clip-path="url(#clip552)" d="
M356.264 911.355 L356.264 1320.55 L404.682 1320.55 L404.682 911.355 L356.264 911.355 L356.264 911.355  Z
  " fill="#ed6677" fill-rule="evenodd" fill-opacity="1"/>
<polyline clip-path="url(#clip552)" style="stroke:#000000; stroke-linecap:butt; stroke-linejoin:round; stroke-width:4; stroke-opacity:1; fill:none" points="
  356.264,911.355 356.264,1320.55 404.682,1320.55 404.682,911.355 356.264,911.355 
  "/>
<path clip-path="url(#clip552)" d="
M477.309 239.54 L477.309 1320.55 L525.727 1320.55 L525.727 239.54 L477.309 239.54 L477.309 239.54  Z
  " fill="#ed6677" fill-rule="evenodd" fill-opacity="1"/>
<polyline clip-path="url(#clip552)" style="stroke:#000000; stroke-linecap:butt; stroke-linejoin:round; stroke-width:4; stroke-opacity:1; fill:none" points="
  477.309,239.54 477.309,1320.55 525.727,1320.55 525.727,239.54 477.309,239.54 
  "/>
<path clip-path="url(#clip552)" d="
M598.354 173.628 L598.354 1320.55 L646.772 1320.55 L646.772 173.628 L598.354 173.628 L598.354 173.628  Z
  " fill="#ed6677" fill-rule="evenodd" fill-opacity="1"/>
<polyline clip-path="url(#clip552)" style="stroke:#000000; stroke-linecap:butt; stroke-linejoin:round; stroke-width:4; stroke-opacity:1; fill:none" points="
  598.354,173.628 598.354,1320.55 646.772,1320.55 646.772,173.628 598.354,173.628 
  "/>
<path clip-path="url(#clip552)" d="
M719.399 622.349 L719.399 1320.55 L767.817 1320.55 L767.817 622.349 L719.399 622.349 L719.399 622.349  Z
  " fill="#ed6677" fill-rule="evenodd" fill-opacity="1"/>
<polyline clip-path="url(#clip552)" style="stroke:#000000; stroke-linecap:butt; stroke-linejoin:round; stroke-width:4; stroke-opacity:1; fill:none" points="
  719.399,622.349 719.399,1320.55 767.817,1320.55 767.817,622.349 719.399,622.349 
  "/>
<path clip-path="url(#clip552)" d="
M840.444 1149.48 L840.444 1320.55 L888.862 1320.55 L888.862 1149.48 L840.444 1149.48 L840.444 1149.48  Z
  " fill="#ed6677" fill-rule="evenodd" fill-opacity="1"/>
<polyline clip-path="url(#clip552)" style="stroke:#000000; stroke-linecap:butt; stroke-linejoin:round; stroke-width:4; stroke-opacity:1; fill:none" points="
  840.444,1149.48 840.444,1320.55 888.862,1320.55 888.862,1149.48 840.444,1149.48 
  "/>
<path clip-path="url(#clip552)" d="
M961.489 1299.53 L961.489 1320.55 L1009.91 1320.55 L1009.91 1299.53 L961.489 1299.53 L961.489 1299.53  Z
  " fill="#ed6677" fill-rule="evenodd" fill-opacity="1"/>
<polyline clip-path="url(#clip552)" style="stroke:#000000; stroke-linecap:butt; stroke-linejoin:round; stroke-width:4; stroke-opacity:1; fill:none" points="
  961.489,1299.53 961.489,1320.55 1009.91,1320.55 1009.91,1299.53 961.489,1299.53 
  "/>
<path clip-path="url(#clip552)" d="
M1082.53 1295.22 L1082.53 1320.55 L1130.95 1320.55 L1130.95 1295.22 L1082.53 1295.22 L1082.53 1295.22  Z
  " fill="#ed6677" fill-rule="evenodd" fill-opacity="1"/>
<polyline clip-path="url(#clip552)" style="stroke:#000000; stroke-linecap:butt; stroke-linejoin:round; stroke-width:4; stroke-opacity:1; fill:none" points="
  1082.53,1295.22 1082.53,1320.55 1130.95,1320.55 1130.95,1295.22 1082.53,1295.22 
  "/>
<path clip-path="url(#clip552)" d="
M1203.58 1295.37 L1203.58 1320.55 L1252 1320.55 L1252 1295.37 L1203.58 1295.37 L1203.58 1295.37  Z
  " fill="#ed6677" fill-rule="evenodd" fill-opacity="1"/>
<polyline clip-path="url(#clip552)" style="stroke:#000000; stroke-linecap:butt; stroke-linejoin:round; stroke-width:4; stroke-opacity:1; fill:none" points="
  1203.58,1295.37 1203.58,1320.55 1252,1320.55 1252,1295.37 1203.58,1295.37 
  "/>
<path clip-path="url(#clip552)" d="
M1324.62 1294.09 L1324.62 1320.55 L1373.04 1320.55 L1373.04 1294.09 L1324.62 1294.09 L1324.62 1294.09  Z
  " fill="#ed6677" fill-rule="evenodd" fill-opacity="1"/>
<polyline clip-path="url(#clip552)" style="stroke:#000000; stroke-linecap:butt; stroke-linejoin:round; stroke-width:4; stroke-opacity:1; fill:none" points="
  1324.62,1294.09 1324.62,1320.55 1373.04,1320.55 1373.04,1294.09 1324.62,1294.09 
  "/>
<path clip-path="url(#clip552)" d="
M1445.67 1294.04 L1445.67 1320.55 L1494.09 1320.55 L1494.09 1294.04 L1445.67 1294.04 L1445.67 1294.04  Z
  " fill="#ed6677" fill-rule="evenodd" fill-opacity="1"/>
<polyline clip-path="url(#clip552)" style="stroke:#000000; stroke-linecap:butt; stroke-linejoin:round; stroke-width:4; stroke-opacity:1; fill:none" points="
  1445.67,1294.04 1445.67,1320.55 1494.09,1320.55 1494.09,1294.04 1445.67,1294.04 
  "/>
<path clip-path="url(#clip552)" d="
M1566.71 1297.9 L1566.71 1320.55 L1615.13 1320.55 L1615.13 1297.9 L1566.71 1297.9 L1566.71 1297.9  Z
  " fill="#ed6677" fill-rule="evenodd" fill-opacity="1"/>
<polyline clip-path="url(#clip552)" style="stroke:#000000; stroke-linecap:butt; stroke-linejoin:round; stroke-width:4; stroke-opacity:1; fill:none" points="
  1566.71,1297.9 1566.71,1320.55 1615.13,1320.55 1615.13,1297.9 1566.71,1297.9 
  "/>
<path clip-path="url(#clip552)" d="
M1687.76 1303.82 L1687.76 1320.55 L1736.18 1320.55 L1736.18 1303.82 L1687.76 1303.82 L1687.76 1303.82  Z
  " fill="#ed6677" fill-rule="evenodd" fill-opacity="1"/>
<polyline clip-path="url(#clip552)" style="stroke:#000000; stroke-linecap:butt; stroke-linejoin:round; stroke-width:4; stroke-opacity:1; fill:none" points="
  1687.76,1303.82 1687.76,1320.55 1736.18,1320.55 1736.18,1303.82 1687.76,1303.82 
  "/>
<path clip-path="url(#clip552)" d="
M1808.8 1309.34 L1808.8 1320.55 L1857.22 1320.55 L1857.22 1309.34 L1808.8 1309.34 L1808.8 1309.34  Z
  " fill="#ed6677" fill-rule="evenodd" fill-opacity="1"/>
<polyline clip-path="url(#clip552)" style="stroke:#000000; stroke-linecap:butt; stroke-linejoin:round; stroke-width:4; stroke-opacity:1; fill:none" points="
  1808.8,1309.34 1808.8,1320.55 1857.22,1320.55 1857.22,1309.34 1808.8,1309.34 
  "/>
<path clip-path="url(#clip552)" d="
M1929.85 1312.46 L1929.85 1320.55 L1978.26 1320.55 L1978.26 1312.46 L1929.85 1312.46 L1929.85 1312.46  Z
  " fill="#ed6677" fill-rule="evenodd" fill-opacity="1"/>
<polyline clip-path="url(#clip552)" style="stroke:#000000; stroke-linecap:butt; stroke-linejoin:round; stroke-width:4; stroke-opacity:1; fill:none" points="
  1929.85,1312.46 1929.85,1320.55 1978.26,1320.55 1978.26,1312.46 1929.85,1312.46 
  "/>
<path clip-path="url(#clip552)" d="
M2050.89 1315.09 L2050.89 1320.55 L2099.31 1320.55 L2099.31 1315.09 L2050.89 1315.09 L2050.89 1315.09  Z
  " fill="#ed6677" fill-rule="evenodd" fill-opacity="1"/>
<polyline clip-path="url(#clip552)" style="stroke:#000000; stroke-linecap:butt; stroke-linejoin:round; stroke-width:4; stroke-opacity:1; fill:none" points="
  2050.89,1315.09 2050.89,1320.55 2099.31,1320.55 2099.31,1315.09 2050.89,1315.09 
  "/>
<path clip-path="url(#clip552)" d="
M2171.94 1317.99 L2171.94 1320.55 L2220.35 1320.55 L2220.35 1317.99 L2171.94 1317.99 L2171.94 1317.99  Z
  " fill="#ed6677" fill-rule="evenodd" fill-opacity="1"/>
<polyline clip-path="url(#clip552)" style="stroke:#000000; stroke-linecap:butt; stroke-linejoin:round; stroke-width:4; stroke-opacity:1; fill:none" points="
  2171.94,1317.99 2171.94,1320.55 2220.35,1320.55 2220.35,1317.99 2171.94,1317.99 
  "/>
<circle clip-path="url(#clip552)" style="fill:#000000; stroke:none; fill-opacity:0" cx="380.473" cy="911.355" r="2"/>
<circle clip-path="url(#clip552)" style="fill:#000000; stroke:none; fill-opacity:0" cx="501.518" cy="239.54" r="2"/>
<circle clip-path="url(#clip552)" style="fill:#000000; stroke:none; fill-opacity:0" cx="622.563" cy="173.628" r="2"/>
<circle clip-path="url(#clip552)" style="fill:#000000; stroke:none; fill-opacity:0" cx="743.608" cy="622.349" r="2"/>
<circle clip-path="url(#clip552)" style="fill:#000000; stroke:none; fill-opacity:0" cx="864.653" cy="1149.48" r="2"/>
<circle clip-path="url(#clip552)" style="fill:#000000; stroke:none; fill-opacity:0" cx="985.697" cy="1299.53" r="2"/>
<circle clip-path="url(#clip552)" style="fill:#000000; stroke:none; fill-opacity:0" cx="1106.74" cy="1295.22" r="2"/>
<circle clip-path="url(#clip552)" style="fill:#000000; stroke:none; fill-opacity:0" cx="1227.79" cy="1295.37" r="2"/>
<circle clip-path="url(#clip552)" style="fill:#000000; stroke:none; fill-opacity:0" cx="1348.83" cy="1294.09" r="2"/>
<circle clip-path="url(#clip552)" style="fill:#000000; stroke:none; fill-opacity:0" cx="1469.88" cy="1294.04" r="2"/>
<circle clip-path="url(#clip552)" style="fill:#000000; stroke:none; fill-opacity:0" cx="1590.92" cy="1297.9" r="2"/>
<circle clip-path="url(#clip552)" style="fill:#000000; stroke:none; fill-opacity:0" cx="1711.97" cy="1303.82" r="2"/>
<circle clip-path="url(#clip552)" style="fill:#000000; stroke:none; fill-opacity:0" cx="1833.01" cy="1309.34" r="2"/>
<circle clip-path="url(#clip552)" style="fill:#000000; stroke:none; fill-opacity:0" cx="1954.06" cy="1312.46" r="2"/>
<circle clip-path="url(#clip552)" style="fill:#000000; stroke:none; fill-opacity:0" cx="2075.1" cy="1315.09" r="2"/>
<circle clip-path="url(#clip552)" style="fill:#000000; stroke:none; fill-opacity:0" cx="2196.15" cy="1317.99" r="2"/>
<path clip-path="url(#clip550)" d="
M1841.64 335.265 L2265.48 335.265 L2265.48 179.745 L1841.64 179.745  Z
  " fill="#000000" fill-rule="evenodd" fill-opacity="0"/>
<polyline clip-path="url(#clip550)" style="stroke:#000000; stroke-linecap:butt; stroke-linejoin:round; stroke-width:4; stroke-opacity:0; fill:none" points="
  1841.64,335.265 2265.48,335.265 2265.48,179.745 1841.64,179.745 1841.64,335.265 
  "/>
<path clip-path="url(#clip550)" d="
M1865.48 252.321 L2008.54 252.321 L2008.54 210.849 L1865.48 210.849 L1865.48 252.321  Z
  " fill="#4477aa" fill-rule="evenodd" fill-opacity="1"/>
<polyline clip-path="url(#clip550)" style="stroke:#000000; stroke-linecap:butt; stroke-linejoin:round; stroke-width:4; stroke-opacity:1; fill:none" points="
  1865.48,252.321 2008.54,252.321 2008.54,210.849 1865.48,210.849 1865.48,252.321 
  "/>
<path clip-path="url(#clip550)" d="M2040.16 245.462 L2052.52 245.462 L2052.52 226.342 L2043.56 226.342 L2043.56 229.583 Q2043.56 239.12 2040.83 244.212 L2040.16 245.462 M2033.98 245.462 Q2036.08 244.536 2037.01 242.569 Q2039.28 237.684 2039.28 227.846 L2039.28 222.939 L2056.8 222.939 L2056.8 245.462 L2060.2 245.462 L2060.2 255.416 L2056.8 255.416 L2056.8 248.865 L2035.78 248.865 L2035.78 255.416 L2032.38 255.416 L2032.38 245.462 L2033.98 245.462 Z" fill="#000000" fill-rule="evenodd" fill-opacity="1" /><path clip-path="url(#clip550)" d="M2078.93 235.833 Q2073.77 235.833 2071.78 237.013 Q2069.79 238.194 2069.79 241.041 Q2069.79 243.309 2071.27 244.652 Q2072.77 245.971 2075.34 245.971 Q2078.88 245.971 2081.01 243.471 Q2083.17 240.948 2083.17 236.782 L2083.17 235.833 L2078.93 235.833 M2087.43 234.073 L2087.43 248.865 L2083.17 248.865 L2083.17 244.93 Q2081.71 247.291 2079.53 248.425 Q2077.36 249.536 2074.21 249.536 Q2070.23 249.536 2067.87 247.314 Q2065.53 245.069 2065.53 241.319 Q2065.53 236.944 2068.44 234.721 Q2071.38 232.499 2077.19 232.499 L2083.17 232.499 L2083.17 232.083 Q2083.17 229.143 2081.22 227.546 Q2079.3 225.925 2075.81 225.925 Q2073.58 225.925 2071.48 226.458 Q2069.37 226.99 2067.43 228.055 L2067.43 224.12 Q2069.76 223.217 2071.96 222.777 Q2074.16 222.314 2076.25 222.314 Q2081.87 222.314 2084.65 225.231 Q2087.43 228.147 2087.43 234.073 Z" fill="#000000" fill-rule="evenodd" fill-opacity="1" /><path clip-path="url(#clip550)" d="M2096.04 222.939 L2100.32 222.939 L2100.32 233.518 L2114.14 233.518 L2114.14 222.939 L2118.42 222.939 L2118.42 248.865 L2114.14 248.865 L2114.14 236.921 L2100.32 236.921 L2100.32 248.865 L2096.04 248.865 L2096.04 222.939 Z" fill="#000000" fill-rule="evenodd" fill-opacity="1" /><path clip-path="url(#clip550)" d="M2127.03 222.939 L2131.31 222.939 L2131.31 233.518 L2145.13 233.518 L2145.13 222.939 L2149.42 222.939 L2149.42 248.865 L2145.13 248.865 L2145.13 236.921 L2131.31 236.921 L2131.31 248.865 L2127.03 248.865 L2127.03 222.939 Z" fill="#000000" fill-rule="evenodd" fill-opacity="1" /><path clip-path="url(#clip550)" d="M2182.68 222.939 L2186.94 222.939 L2186.94 248.865 L2182.68 248.865 L2182.68 222.939 M2184.81 222.314 L2184.81 222.314 M2174.32 241.18 Q2174.32 239.096 2172.8 238.008 Q2171.29 236.921 2168.37 236.921 L2162.31 236.921 L2162.31 245.462 L2168.37 245.462 Q2171.29 245.462 2172.8 244.374 Q2174.32 243.263 2174.32 241.18 M2158.03 222.939 L2162.31 222.939 L2162.31 233.518 L2168.56 233.518 Q2173.51 233.518 2176.18 235.416 Q2178.86 237.291 2178.86 241.18 Q2178.86 245.069 2176.18 246.967 Q2173.51 248.865 2168.56 248.865 L2158.03 248.865 L2158.03 222.939 Z" fill="#000000" fill-rule="evenodd" fill-opacity="1" /><path clip-path="url(#clip550)" d="M2217.8 234.837 L2217.8 236.921 L2198.21 236.921 Q2198.49 241.319 2200.85 243.633 Q2203.24 245.925 2207.47 245.925 Q2209.93 245.925 2212.22 245.323 Q2214.53 244.721 2216.8 243.518 L2216.8 247.545 Q2214.51 248.518 2212.1 249.027 Q2209.69 249.536 2207.22 249.536 Q2201.01 249.536 2197.38 245.925 Q2193.77 242.314 2193.77 236.157 Q2193.77 229.791 2197.19 226.064 Q2200.64 222.314 2206.48 222.314 Q2211.71 222.314 2214.74 225.694 Q2217.8 229.05 2217.8 234.837 M2213.54 233.587 Q2213.49 230.092 2211.57 228.009 Q2209.67 225.925 2206.52 225.925 Q2202.96 225.925 2200.81 227.939 Q2198.68 229.953 2198.35 233.61 L2213.54 233.587 Z" fill="#000000" fill-rule="evenodd" fill-opacity="1" /><path clip-path="url(#clip550)" d="
M1865.48 304.161 L2008.54 304.161 L2008.54 262.689 L1865.48 262.689 L1865.48 304.161  Z
  " fill="#ed6677" fill-rule="evenodd" fill-opacity="1"/>
<polyline clip-path="url(#clip550)" style="stroke:#000000; stroke-linecap:butt; stroke-linejoin:round; stroke-width:4; stroke-opacity:1; fill:none" points="
  1865.48,304.161 2008.54,304.161 2008.54,262.689 1865.48,262.689 1865.48,304.161 
  "/>
<path clip-path="url(#clip550)" d="M2032.38 274.779 L2038.61 274.779 L2045.97 292.14 L2053.35 274.779 L2059.53 274.779 L2059.53 300.705 L2055.25 300.705 L2055.25 278.853 L2048.1 295.728 L2043.84 295.728 L2036.66 278.853 L2036.66 300.705 L2032.38 300.705 L2032.38 274.779 Z" fill="#000000" fill-rule="evenodd" fill-opacity="1" /><path clip-path="url(#clip550)" d="M2078.35 277.765 Q2074.93 277.765 2072.94 280.45 Q2070.94 283.112 2070.94 287.765 Q2070.94 292.418 2072.91 295.103 Q2074.9 297.765 2078.35 297.765 Q2081.76 297.765 2083.75 295.08 Q2085.74 292.395 2085.74 287.765 Q2085.74 283.159 2083.75 280.474 Q2081.76 277.765 2078.35 277.765 M2078.35 274.154 Q2083.91 274.154 2087.08 277.765 Q2090.25 281.376 2090.25 287.765 Q2090.25 294.131 2087.08 297.765 Q2083.91 301.376 2078.35 301.376 Q2072.77 301.376 2069.6 297.765 Q2066.45 294.131 2066.45 287.765 Q2066.45 281.376 2069.6 277.765 Q2072.77 274.154 2078.35 274.154 Z" fill="#000000" fill-rule="evenodd" fill-opacity="1" /><path clip-path="url(#clip550)" d="M2103.1 297.302 L2115.46 297.302 L2115.46 278.182 L2106.5 278.182 L2106.5 281.423 Q2106.5 290.96 2103.77 296.052 L2103.1 297.302 M2096.92 297.302 Q2099.02 296.376 2099.95 294.409 Q2102.22 289.524 2102.22 279.686 L2102.22 274.779 L2119.74 274.779 L2119.74 297.302 L2123.14 297.302 L2123.14 307.256 L2119.74 307.256 L2119.74 300.705 L2098.72 300.705 L2098.72 307.256 L2095.32 307.256 L2095.32 297.302 L2096.92 297.302 Z" fill="#000000" fill-rule="evenodd" fill-opacity="1" /><path clip-path="url(#clip550)" d="M2152.26 286.677 L2152.26 288.761 L2132.68 288.761 Q2132.96 293.159 2135.32 295.473 Q2137.7 297.765 2141.94 297.765 Q2144.39 297.765 2146.69 297.163 Q2149 296.561 2151.27 295.358 L2151.27 299.385 Q2148.98 300.358 2146.57 300.867 Q2144.16 301.376 2141.69 301.376 Q2135.48 301.376 2131.85 297.765 Q2128.24 294.154 2128.24 287.997 Q2128.24 281.631 2131.66 277.904 Q2135.11 274.154 2140.94 274.154 Q2146.18 274.154 2149.21 277.534 Q2152.26 280.89 2152.26 286.677 M2148 285.427 Q2147.96 281.932 2146.04 279.849 Q2144.14 277.765 2140.99 277.765 Q2137.43 277.765 2135.27 279.779 Q2133.14 281.793 2132.82 285.45 L2148 285.427 Z" fill="#000000" fill-rule="evenodd" fill-opacity="1" /><path clip-path="url(#clip550)" d="M2156.55 300.705 L2156.55 297.163 Q2160.76 296.515 2162.06 293.598 Q2163.63 289.501 2163.63 279.015 L2163.63 274.779 L2181.15 274.779 L2181.15 300.705 L2176.89 300.705 L2176.89 278.182 L2167.89 278.182 L2167.89 280.751 Q2167.89 290.751 2165.85 295.242 Q2163.68 300.034 2156.55 300.705 Z" fill="#000000" fill-rule="evenodd" fill-opacity="1" /><path clip-path="url(#clip550)" d="M2205.69 293.02 Q2205.69 290.936 2204.16 289.848 Q2202.66 288.761 2199.74 288.761 L2193.68 288.761 L2193.68 297.302 L2199.74 297.302 Q2202.66 297.302 2204.16 296.214 Q2205.69 295.103 2205.69 293.02 M2189.39 274.779 L2193.68 274.779 L2193.68 285.358 L2199.93 285.358 Q2204.88 285.358 2207.54 287.256 Q2210.23 289.131 2210.23 293.02 Q2210.23 296.909 2207.54 298.807 Q2204.88 300.705 2199.93 300.705 L2189.39 300.705 L2189.39 274.779 Z" fill="#000000" fill-rule="evenodd" fill-opacity="1" /></svg>
