<?xml version="1.0" encoding="utf-8"?>
<svg xmlns="http://www.w3.org/2000/svg" xmlns:xlink="http://www.w3.org/1999/xlink" width="600" height="400" viewBox="0 0 2400 1600">
<defs>
  <clipPath id="clip080">
    <rect x="0" y="0" width="2400" height="1600"/>
  </clipPath>
</defs>
<path clip-path="url(#clip080)" d="
M0 1600 L2400 1600 L2400 0 L0 0  Z
  " fill="#ffffff" fill-rule="evenodd" fill-opacity="1"/>
<defs>
  <clipPath id="clip081">
    <rect x="480" y="0" width="1681" height="1600"/>
  </clipPath>
</defs>
<path clip-path="url(#clip080)" d="
M217.976 1354.96 L2337.01 1354.96 L2337.01 139.22 L217.976 139.22  Z
  " fill="#ffffff" fill-rule="evenodd" fill-opacity="1"/>
<defs>
  <clipPath id="clip082">
    <rect x="217" y="139" width="2120" height="1217"/>
  </clipPath>
</defs>
<polyline clip-path="url(#clip082)" style="stroke:#000000; stroke-linecap:butt; stroke-linejoin:round; stroke-width:2; stroke-opacity:0.1; fill:none" points="
  380.986,1354.96 380.986,139.22 
  "/>
<polyline clip-path="url(#clip082)" style="stroke:#000000; stroke-linecap:butt; stroke-linejoin:round; stroke-width:2; stroke-opacity:0.1; fill:none" points="
  500.52,1354.96 500.52,139.22 
  "/>
<polyline clip-path="url(#clip082)" style="stroke:#000000; stroke-linecap:butt; stroke-linejoin:round; stroke-width:2; stroke-opacity:0.1; fill:none" points="
  620.055,1354.96 620.055,139.22 
  "/>
<polyline clip-path="url(#clip082)" style="stroke:#000000; stroke-linecap:butt; stroke-linejoin:round; stroke-width:2; stroke-opacity:0.1; fill:none" points="
  739.589,1354.96 739.589,139.22 
  "/>
<polyline clip-path="url(#clip082)" style="stroke:#000000; stroke-linecap:butt; stroke-linejoin:round; stroke-width:2; stroke-opacity:0.1; fill:none" points="
  859.123,1354.96 859.123,139.22 
  "/>
<polyline clip-path="url(#clip082)" style="stroke:#000000; stroke-linecap:butt; stroke-linejoin:round; stroke-width:2; stroke-opacity:0.1; fill:none" points="
  978.657,1354.96 978.657,139.22 
  "/>
<polyline clip-path="url(#clip082)" style="stroke:#000000; stroke-linecap:butt; stroke-linejoin:round; stroke-width:2; stroke-opacity:0.1; fill:none" points="
  1098.19,1354.96 1098.19,139.22 
  "/>
<polyline clip-path="url(#clip082)" style="stroke:#000000; stroke-linecap:butt; stroke-linejoin:round; stroke-width:2; stroke-opacity:0.1; fill:none" points="
  1217.72,1354.96 1217.72,139.22 
  "/>
<polyline clip-path="url(#clip082)" style="stroke:#000000; stroke-linecap:butt; stroke-linejoin:round; stroke-width:2; stroke-opacity:0.1; fill:none" points="
  1337.26,1354.96 1337.26,139.22 
  "/>
<polyline clip-path="url(#clip082)" style="stroke:#000000; stroke-linecap:butt; stroke-linejoin:round; stroke-width:2; stroke-opacity:0.1; fill:none" points="
  1456.79,1354.96 1456.79,139.22 
  "/>
<polyline clip-path="url(#clip082)" style="stroke:#000000; stroke-linecap:butt; stroke-linejoin:round; stroke-width:2; stroke-opacity:0.1; fill:none" points="
  1576.33,1354.96 1576.33,139.22 
  "/>
<polyline clip-path="url(#clip082)" style="stroke:#000000; stroke-linecap:butt; stroke-linejoin:round; stroke-width:2; stroke-opacity:0.1; fill:none" points="
  1695.86,1354.96 1695.86,139.22 
  "/>
<polyline clip-path="url(#clip082)" style="stroke:#000000; stroke-linecap:butt; stroke-linejoin:round; stroke-width:2; stroke-opacity:0.1; fill:none" points="
  1815.39,1354.96 1815.39,139.22 
  "/>
<polyline clip-path="url(#clip082)" style="stroke:#000000; stroke-linecap:butt; stroke-linejoin:round; stroke-width:2; stroke-opacity:0.1; fill:none" points="
  1934.93,1354.96 1934.93,139.22 
  "/>
<polyline clip-path="url(#clip082)" style="stroke:#000000; stroke-linecap:butt; stroke-linejoin:round; stroke-width:2; stroke-opacity:0.1; fill:none" points="
  2054.46,1354.96 2054.46,139.22 
  "/>
<polyline clip-path="url(#clip082)" style="stroke:#000000; stroke-linecap:butt; stroke-linejoin:round; stroke-width:2; stroke-opacity:0.1; fill:none" points="
  2174,1354.96 2174,139.22 
  "/>
<polyline clip-path="url(#clip080)" style="stroke:#000000; stroke-linecap:butt; stroke-linejoin:round; stroke-width:4; stroke-opacity:1; fill:none" points="
  217.976,1354.96 2337.01,1354.96 
  "/>
<polyline clip-path="url(#clip080)" style="stroke:#000000; stroke-linecap:butt; stroke-linejoin:round; stroke-width:4; stroke-opacity:1; fill:none" points="
  380.986,1354.96 380.986,1336.06 
  "/>
<polyline clip-path="url(#clip080)" style="stroke:#000000; stroke-linecap:butt; stroke-linejoin:round; stroke-width:4; stroke-opacity:1; fill:none" points="
  500.52,1354.96 500.52,1336.06 
  "/>
<polyline clip-path="url(#clip080)" style="stroke:#000000; stroke-linecap:butt; stroke-linejoin:round; stroke-width:4; stroke-opacity:1; fill:none" points="
  620.055,1354.96 620.055,1336.06 
  "/>
<polyline clip-path="url(#clip080)" style="stroke:#000000; stroke-linecap:butt; stroke-linejoin:round; stroke-width:4; stroke-opacity:1; fill:none" points="
  739.589,1354.96 739.589,1336.06 
  "/>
<polyline clip-path="url(#clip080)" style="stroke:#000000; stroke-linecap:butt; stroke-linejoin:round; stroke-width:4; stroke-opacity:1; fill:none" points="
  859.123,1354.96 859.123,1336.06 
  "/>
<polyline clip-path="url(#clip080)" style="stroke:#000000; stroke-linecap:butt; stroke-linejoin:round; stroke-width:4; stroke-opacity:1; fill:none" points="
  978.657,1354.96 978.657,1336.06 
  "/>
<polyline clip-path="url(#clip080)" style="stroke:#000000; stroke-linecap:butt; stroke-linejoin:round; stroke-width:4; stroke-opacity:1; fill:none" points="
  1098.19,1354.96 1098.19,1336.06 
  "/>
<polyline clip-path="url(#clip080)" style="stroke:#000000; stroke-linecap:butt; stroke-linejoin:round; stroke-width:4; stroke-opacity:1; fill:none" points="
  1217.72,1354.96 1217.72,1336.06 
  "/>
<polyline clip-path="url(#clip080)" style="stroke:#000000; stroke-linecap:butt; stroke-linejoin:round; stroke-width:4; stroke-opacity:1; fill:none" points="
  1337.26,1354.96 1337.26,1336.06 
  "/>
<polyline clip-path="url(#clip080)" style="stroke:#000000; stroke-linecap:butt; stroke-linejoin:round; stroke-width:4; stroke-opacity:1; fill:none" points="
  1456.79,1354.96 1456.79,1336.06 
  "/>
<polyline clip-path="url(#clip080)" style="stroke:#000000; stroke-linecap:butt; stroke-linejoin:round; stroke-width:4; stroke-opacity:1; fill:none" points="
  1576.33,1354.96 1576.33,1336.06 
  "/>
<polyline clip-path="url(#clip080)" style="stroke:#000000; stroke-linecap:butt; stroke-linejoin:round; stroke-width:4; stroke-opacity:1; fill:none" points="
  1695.86,1354.96 1695.86,1336.06 
  "/>
<polyline clip-path="url(#clip080)" style="stroke:#000000; stroke-linecap:butt; stroke-linejoin:round; stroke-width:4; stroke-opacity:1; fill:none" points="
  1815.39,1354.96 1815.39,1336.06 
  "/>
<polyline clip-path="url(#clip080)" style="stroke:#000000; stroke-linecap:butt; stroke-linejoin:round; stroke-width:4; stroke-opacity:1; fill:none" points="
  1934.93,1354.96 1934.93,1336.06 
  "/>
<polyline clip-path="url(#clip080)" style="stroke:#000000; stroke-linecap:butt; stroke-linejoin:round; stroke-width:4; stroke-opacity:1; fill:none" points="
  2054.46,1354.96 2054.46,1336.06 
  "/>
<polyline clip-path="url(#clip080)" style="stroke:#000000; stroke-linecap:butt; stroke-linejoin:round; stroke-width:4; stroke-opacity:1; fill:none" points="
  2174,1354.96 2174,1336.06 
  "/>
<path clip-path="url(#clip080)" d="M328.731 1424.66 Q326.178 1427.22 327.405 1431.03 Q328.633 1434.81 333.674 1439.85 Q338.699 1444.88 342.497 1446.12 Q346.294 1447.33 348.848 1444.78 Q351.417 1442.21 350.19 1438.43 Q348.962 1434.61 343.937 1429.59 Q338.896 1424.55 335.098 1423.34 Q331.301 1422.09 328.731 1424.66 M326.112 1422.04 Q330.221 1417.93 335.639 1419.03 Q341.056 1420.1 347.244 1426.28 Q353.414 1432.45 354.495 1437.89 Q355.575 1443.29 351.467 1447.4 Q347.358 1451.51 341.94 1450.44 Q336.522 1449.35 330.352 1443.17 Q324.165 1436.99 323.084 1431.59 Q322.004 1426.15 326.112 1422.04 Z" fill="#000000" fill-rule="evenodd" fill-opacity="1" /><path clip-path="url(#clip080)" d="M352.776 1424.09 L361.598 1415.27 L364.283 1417.95 L355.46 1426.77 L352.776 1424.09 Z" fill="#000000" fill-rule="evenodd" fill-opacity="1" /><path clip-path="url(#clip080)" d="M364.872 1389.93 L369.57 1411.32 L377.917 1402.97 L364.872 1389.93 M361.124 1387.92 L365.281 1383.76 L381.207 1399.68 L384.694 1396.2 L387.444 1398.95 L383.957 1402.43 L389.719 1408.2 L386.429 1411.49 L380.667 1405.72 L369.635 1416.76 L366.443 1413.56 L361.124 1387.92 Z" fill="#000000" fill-rule="evenodd" fill-opacity="1" /><path clip-path="url(#clip080)" d="M439.525 1429.05 L452.505 1416.07 L455.287 1418.85 L445.335 1428.8 L451.326 1434.79 Q451.801 1433.83 452.406 1432.99 Q452.996 1432.14 453.716 1431.42 Q457.808 1427.33 462.44 1427.18 Q467.072 1427.04 470.902 1430.87 Q474.847 1434.81 474.585 1439.46 Q474.307 1444.09 469.838 1448.56 Q468.3 1450.1 466.434 1451.44 Q464.584 1452.77 462.358 1453.94 L459.035 1450.62 Q461.311 1449.95 463.275 1448.77 Q465.239 1447.59 466.99 1445.84 Q469.822 1443.01 469.986 1439.87 Q470.149 1436.73 467.596 1434.17 Q465.043 1431.62 461.9 1431.78 Q458.757 1431.95 455.926 1434.78 Q454.6 1436.1 453.569 1437.72 Q452.554 1439.33 451.801 1441.32 L439.525 1429.05 Z" fill="#000000" fill-rule="evenodd" fill-opacity="1" /><path clip-path="url(#clip080)" d="M472.785 1423.61 L481.607 1414.79 L484.291 1417.48 L475.469 1426.3 L472.785 1423.61 Z" fill="#000000" fill-rule="evenodd" fill-opacity="1" /><path clip-path="url(#clip080)" d="M496.944 1419.49 L493.932 1416.48 Q495.766 1415.82 497.353 1414.86 Q498.941 1413.89 500.169 1412.66 Q503.442 1409.39 502.968 1405.48 Q502.493 1401.53 498.253 1396.8 Q498.712 1399.16 498.008 1401.37 Q497.304 1403.58 495.536 1405.35 Q491.87 1409.01 487.516 1408.95 Q483.162 1408.85 479.316 1405 Q475.551 1401.24 475.502 1396.74 Q475.453 1392.24 479.152 1388.54 Q483.391 1384.3 488.875 1385.33 Q494.358 1386.33 500.545 1392.52 Q506.323 1398.29 507.027 1404.5 Q507.731 1410.67 503.098 1415.3 Q501.854 1416.54 500.332 1417.57 Q498.81 1418.61 496.944 1419.49 M493.163 1402.55 Q495.389 1400.32 495.16 1397.51 Q494.947 1394.68 492.296 1392.02 Q489.66 1389.39 486.829 1389.18 Q483.997 1388.93 481.771 1391.16 Q479.545 1393.38 479.774 1396.23 Q480.003 1399.05 482.638 1401.68 Q485.29 1404.33 488.105 1404.56 Q490.937 1404.77 493.163 1402.55 Z" fill="#000000" fill-rule="evenodd" fill-opacity="1" /><path clip-path="url(#clip080)" d="M538.124 1493.29 L543.525 1487.89 L524.882 1469.25 L520.184 1476.3 L517.173 1473.29 L521.838 1466.27 L525.144 1462.96 L546.799 1484.62 L552.2 1479.22 L554.983 1482 L540.906 1496.08 L538.124 1493.29 Z" fill="#000000" fill-rule="evenodd" fill-opacity="1" /><path clip-path="url(#clip080)" d="M546.472 1445.99 Q543.918 1448.54 545.146 1452.36 Q546.373 1456.14 551.415 1461.18 Q556.44 1466.2 560.237 1467.45 Q564.035 1468.66 566.588 1466.11 Q569.158 1463.54 567.93 1459.76 Q566.703 1455.94 561.678 1450.92 Q556.636 1445.88 552.839 1444.66 Q549.041 1443.42 546.472 1445.99 M543.853 1443.37 Q547.961 1439.26 553.379 1440.36 Q558.797 1441.42 564.984 1447.61 Q571.155 1453.78 572.235 1459.22 Q573.315 1464.62 569.207 1468.73 Q565.099 1472.83 559.681 1471.77 Q554.263 1470.67 548.092 1464.5 Q541.905 1458.32 540.825 1452.91 Q539.744 1447.48 543.853 1443.37 Z" fill="#000000" fill-rule="evenodd" fill-opacity="1" /><path clip-path="url(#clip080)" d="M570.516 1445.42 L579.339 1436.59 L582.023 1439.28 L573.201 1448.1 L570.516 1445.42 Z" fill="#000000" fill-rule="evenodd" fill-opacity="1" /><path clip-path="url(#clip080)" d="M592.875 1438.54 L598.277 1433.14 L579.633 1414.5 L574.936 1421.55 L571.924 1418.54 L576.589 1411.52 L579.895 1408.21 L601.55 1429.87 L606.952 1424.47 L609.734 1427.25 L595.658 1441.32 L592.875 1438.54 Z" fill="#000000" fill-rule="evenodd" fill-opacity="1" /><path clip-path="url(#clip080)" d="M603.94 1389.93 L608.638 1411.32 L616.985 1402.97 L603.94 1389.93 M600.192 1387.92 L604.349 1383.76 L620.275 1399.68 L623.762 1396.2 L626.512 1398.95 L623.025 1402.43 L628.787 1408.2 L625.497 1411.49 L619.735 1405.72 L608.703 1416.76 L605.511 1413.56 L600.192 1387.92 Z" fill="#000000" fill-rule="evenodd" fill-opacity="1" /><path clip-path="url(#clip080)" d="M658.133 1492.82 L663.534 1487.42 L644.891 1468.77 L640.193 1475.83 L637.181 1472.82 L641.846 1465.8 L645.153 1462.49 L666.808 1484.14 L672.209 1478.74 L674.992 1481.53 L660.915 1495.6 L658.133 1492.82 Z" fill="#000000" fill-rule="evenodd" fill-opacity="1" /><path clip-path="url(#clip080)" d="M657.265 1450.38 L670.245 1437.4 L673.028 1440.18 L663.076 1450.13 L669.066 1456.12 Q669.541 1455.16 670.147 1454.32 Q670.736 1453.47 671.456 1452.75 Q675.548 1448.66 680.18 1448.51 Q684.813 1448.36 688.643 1452.19 Q692.587 1456.14 692.326 1460.79 Q692.047 1465.42 687.579 1469.89 Q686.04 1471.43 684.174 1472.77 Q682.325 1474.09 680.099 1475.27 L676.776 1471.95 Q679.051 1471.28 681.015 1470.1 Q682.979 1468.92 684.731 1467.17 Q687.562 1464.34 687.726 1461.2 Q687.89 1458.05 685.336 1455.5 Q682.783 1452.95 679.64 1453.11 Q676.498 1453.27 673.666 1456.11 Q672.34 1457.43 671.309 1459.05 Q670.294 1460.66 669.541 1462.65 L657.265 1450.38 Z" fill="#000000" fill-rule="evenodd" fill-opacity="1" /><path clip-path="url(#clip080)" d="M690.525 1444.94 L699.348 1436.12 L702.032 1438.8 L693.209 1447.63 L690.525 1444.94 Z" fill="#000000" fill-rule="evenodd" fill-opacity="1" /><path clip-path="url(#clip080)" d="M712.884 1438.07 L718.285 1432.67 L699.642 1414.02 L694.944 1421.08 L691.933 1418.07 L696.598 1411.04 L699.904 1407.74 L721.559 1429.39 L726.961 1423.99 L729.743 1426.77 L715.667 1440.85 L712.884 1438.07 Z" fill="#000000" fill-rule="evenodd" fill-opacity="1" /><path clip-path="url(#clip080)" d="M736.012 1419.49 L733 1416.48 Q734.834 1415.82 736.421 1414.86 Q738.009 1413.89 739.237 1412.66 Q742.51 1409.39 742.036 1405.48 Q741.561 1401.53 737.322 1396.8 Q737.78 1399.16 737.076 1401.37 Q736.372 1403.58 734.604 1405.35 Q730.938 1409.01 726.584 1408.95 Q722.23 1408.85 718.384 1405 Q714.619 1401.24 714.57 1396.74 Q714.521 1392.24 718.22 1388.54 Q722.459 1384.3 727.943 1385.33 Q733.426 1386.33 739.613 1392.52 Q745.391 1398.29 746.095 1404.5 Q746.799 1410.67 742.167 1415.3 Q740.923 1416.54 739.4 1417.57 Q737.878 1418.61 736.012 1419.49 M732.231 1402.55 Q734.457 1400.32 734.228 1397.51 Q734.015 1394.68 731.364 1392.02 Q728.728 1389.39 725.897 1389.18 Q723.065 1388.93 720.839 1391.16 Q718.613 1393.38 718.842 1396.23 Q719.071 1399.05 721.706 1401.68 Q724.358 1404.33 727.173 1404.56 Q730.005 1404.77 732.231 1402.55 Z" fill="#000000" fill-rule="evenodd" fill-opacity="1" /><path clip-path="url(#clip080)" d="M779.467 1491.02 L791.007 1479.48 L793.789 1482.26 L778.272 1497.78 L775.49 1495 Q775.424 1491.17 775.391 1484.65 Q775.359 1478.1 775.244 1476.32 Q775.048 1472.95 774.442 1471.1 Q773.836 1469.22 772.642 1468.02 Q770.694 1466.07 768.091 1466.22 Q765.505 1466.35 763.312 1468.55 Q761.757 1470.1 760.562 1472.38 Q759.383 1474.63 758.516 1477.69 L755.177 1474.36 Q756.372 1471.56 757.697 1469.41 Q759.023 1467.27 760.464 1465.83 Q764.261 1462.03 768.419 1461.67 Q772.576 1461.31 775.752 1464.49 Q777.257 1465.99 778.043 1467.92 Q778.829 1469.82 779.172 1473.14 Q779.238 1474.03 779.32 1478.5 Q779.385 1482.95 779.467 1491.02 Z" fill="#000000" fill-rule="evenodd" fill-opacity="1" /><path clip-path="url(#clip080)" d="M785.54 1445.99 Q782.986 1448.54 784.214 1452.36 Q785.441 1456.14 790.483 1461.18 Q795.508 1466.2 799.305 1467.45 Q803.103 1468.66 805.656 1466.11 Q808.226 1463.54 806.998 1459.76 Q805.771 1455.94 800.746 1450.92 Q795.704 1445.88 791.907 1444.66 Q788.109 1443.42 785.54 1445.99 M782.921 1443.37 Q787.029 1439.26 792.447 1440.36 Q797.865 1441.42 804.052 1447.61 Q810.223 1453.78 811.303 1459.22 Q812.383 1464.62 808.275 1468.73 Q804.167 1472.83 798.749 1471.77 Q793.331 1470.67 787.16 1464.5 Q780.973 1458.32 779.893 1452.91 Q778.812 1447.48 782.921 1443.37 Z" fill="#000000" fill-rule="evenodd" fill-opacity="1" /><path clip-path="url(#clip080)" d="M809.584 1445.42 L818.407 1436.59 L821.091 1439.28 L812.269 1448.1 L809.584 1445.42 Z" fill="#000000" fill-rule="evenodd" fill-opacity="1" /><path clip-path="url(#clip080)" d="M834.218 1436.27 L845.758 1424.73 L848.541 1427.51 L833.024 1443.03 L830.241 1440.24 Q830.176 1436.41 830.143 1429.9 Q830.11 1423.35 829.996 1421.57 Q829.799 1418.2 829.193 1416.35 Q828.588 1414.46 827.393 1413.27 Q825.445 1411.32 822.843 1411.47 Q820.256 1411.6 818.063 1413.79 Q816.508 1415.35 815.313 1417.62 Q814.135 1419.88 813.267 1422.94 L809.928 1419.6 Q811.123 1416.81 812.449 1414.66 Q813.775 1412.52 815.215 1411.08 Q819.012 1407.28 823.17 1406.92 Q827.327 1406.56 830.503 1409.73 Q832.009 1411.24 832.794 1413.17 Q833.58 1415.07 833.924 1418.39 Q833.989 1419.28 834.071 1423.75 Q834.137 1428.2 834.218 1436.27 Z" fill="#000000" fill-rule="evenodd" fill-opacity="1" /><path clip-path="url(#clip080)" d="M843.008 1389.93 L847.706 1411.32 L856.054 1402.97 L843.008 1389.93 M839.26 1387.92 L843.417 1383.76 L859.344 1399.68 L862.83 1396.2 L865.58 1398.95 L862.093 1402.43 L867.855 1408.2 L864.565 1411.49 L858.803 1405.72 L847.771 1416.76 L844.579 1413.56 L839.26 1387.92 Z" fill="#000000" fill-rule="evenodd" fill-opacity="1" /><path clip-path="url(#clip080)" d="M899.476 1490.54 L911.015 1479 L913.798 1481.79 L898.281 1497.3 L895.498 1494.52 Q895.433 1490.69 895.4 1484.18 Q895.367 1477.63 895.253 1475.85 Q895.056 1472.47 894.451 1470.62 Q893.845 1468.74 892.65 1467.55 Q890.702 1465.6 888.1 1465.75 Q885.514 1465.88 883.32 1468.07 Q881.765 1469.63 880.571 1471.9 Q879.392 1474.16 878.525 1477.22 L875.186 1473.88 Q876.38 1471.08 877.706 1468.94 Q879.032 1466.79 880.472 1465.35 Q884.27 1461.56 888.427 1461.2 Q892.585 1460.84 895.76 1464.01 Q897.266 1465.52 898.052 1467.45 Q898.837 1469.35 899.181 1472.67 Q899.247 1473.55 899.328 1478.02 Q899.394 1482.47 899.476 1490.54 Z" fill="#000000" fill-rule="evenodd" fill-opacity="1" /><path clip-path="url(#clip080)" d="M896.333 1450.38 L909.313 1437.4 L912.096 1440.18 L902.144 1450.13 L908.135 1456.12 Q908.609 1455.16 909.215 1454.32 Q909.804 1453.47 910.524 1452.75 Q914.616 1448.66 919.249 1448.51 Q923.881 1448.36 927.711 1452.19 Q931.656 1456.14 931.394 1460.79 Q931.115 1465.42 926.647 1469.89 Q925.108 1471.43 923.242 1472.77 Q921.393 1474.09 919.167 1475.27 L915.844 1471.95 Q918.119 1471.28 920.083 1470.1 Q922.047 1468.92 923.799 1467.17 Q926.631 1464.34 926.794 1461.2 Q926.958 1458.05 924.404 1455.5 Q921.851 1452.95 918.708 1453.11 Q915.566 1453.27 912.734 1456.11 Q911.408 1457.43 910.377 1459.05 Q909.362 1460.66 908.609 1462.65 L896.333 1450.38 Z" fill="#000000" fill-rule="evenodd" fill-opacity="1" /><path clip-path="url(#clip080)" d="M929.593 1444.94 L938.416 1436.12 L941.1 1438.8 L932.278 1447.63 L929.593 1444.94 Z" fill="#000000" fill-rule="evenodd" fill-opacity="1" /><path clip-path="url(#clip080)" d="M954.227 1435.79 L965.767 1424.25 L968.549 1427.04 L953.032 1442.55 L950.25 1439.77 Q950.184 1435.94 950.152 1429.43 Q950.119 1422.88 950.004 1421.09 Q949.808 1417.72 949.202 1415.87 Q948.597 1413.99 947.402 1412.8 Q945.454 1410.85 942.851 1410.99 Q940.265 1411.13 938.072 1413.32 Q936.517 1414.87 935.322 1417.15 Q934.143 1419.41 933.276 1422.47 L929.937 1419.13 Q931.132 1416.33 932.458 1414.19 Q933.783 1412.04 935.224 1410.6 Q939.021 1406.8 943.179 1406.44 Q947.336 1406.08 950.512 1409.26 Q952.017 1410.77 952.803 1412.7 Q953.589 1414.6 953.933 1417.92 Q953.998 1418.8 954.08 1423.27 Q954.145 1427.72 954.227 1435.79 Z" fill="#000000" fill-rule="evenodd" fill-opacity="1" /><path clip-path="url(#clip080)" d="M975.08 1419.49 L972.068 1416.48 Q973.902 1415.82 975.489 1414.86 Q977.077 1413.89 978.305 1412.66 Q981.578 1409.39 981.104 1405.48 Q980.629 1401.53 976.39 1396.8 Q976.848 1399.16 976.144 1401.37 Q975.44 1403.58 973.673 1405.35 Q970.006 1409.01 965.652 1408.95 Q961.298 1408.85 957.452 1405 Q953.687 1401.24 953.638 1396.74 Q953.589 1392.24 957.288 1388.54 Q961.527 1384.3 967.011 1385.33 Q972.494 1386.33 978.681 1392.52 Q984.459 1398.29 985.163 1404.5 Q985.867 1410.67 981.235 1415.3 Q979.991 1416.54 978.468 1417.57 Q976.946 1418.61 975.08 1419.49 M971.299 1402.55 Q973.525 1400.32 973.296 1397.51 Q973.083 1394.68 970.432 1392.02 Q967.796 1389.39 964.965 1389.18 Q962.133 1388.93 959.907 1391.16 Q957.681 1393.38 957.91 1396.23 Q958.139 1399.05 960.774 1401.68 Q963.426 1404.33 966.241 1404.56 Q969.073 1404.77 971.299 1402.55 Z" fill="#000000" fill-rule="evenodd" fill-opacity="1" /><path clip-path="url(#clip080)" d="M1015.31 1473.46 Q1018.19 1471.59 1021.12 1471.87 Q1024.07 1472.13 1026.42 1474.49 Q1030.04 1478.1 1029.53 1482.57 Q1029.03 1487.04 1024.44 1491.62 Q1022.91 1493.16 1020.96 1494.49 Q1019.04 1495.81 1016.7 1496.94 L1013.51 1493.75 Q1015.69 1493.18 1017.73 1491.95 Q1019.78 1490.72 1021.56 1488.94 Q1024.67 1485.83 1025.07 1482.98 Q1025.48 1480.12 1023.13 1477.78 Q1020.97 1475.62 1018.24 1475.93 Q1015.51 1476.21 1012.81 1478.91 L1009.96 1481.75 L1007.24 1479.04 L1010.22 1476.06 Q1012.66 1473.62 1012.99 1471.36 Q1013.3 1469.09 1011.46 1467.25 Q1009.58 1465.37 1007.24 1465.71 Q1004.9 1466.02 1002.41 1468.51 Q1001.05 1469.87 999.794 1471.72 Q998.533 1473.57 997.289 1476.06 L994.343 1473.11 Q995.702 1470.71 997.077 1468.81 Q998.468 1466.89 999.925 1465.44 Q1003.69 1461.67 1007.6 1461.2 Q1011.5 1460.7 1014.41 1463.62 Q1016.44 1465.65 1016.69 1468.22 Q1016.91 1470.77 1015.31 1473.46 Z" fill="#000000" fill-rule="evenodd" fill-opacity="1" /><path clip-path="url(#clip080)" d="M1024.61 1445.99 Q1022.05 1448.54 1023.28 1452.36 Q1024.51 1456.14 1029.55 1461.18 Q1034.58 1466.2 1038.37 1467.45 Q1042.17 1468.66 1044.72 1466.11 Q1047.29 1463.54 1046.07 1459.76 Q1044.84 1455.94 1039.81 1450.92 Q1034.77 1445.88 1030.97 1444.66 Q1027.18 1443.42 1024.61 1445.99 M1021.99 1443.37 Q1026.1 1439.26 1031.52 1440.36 Q1036.93 1441.42 1043.12 1447.61 Q1049.29 1453.78 1050.37 1459.22 Q1051.45 1464.62 1047.34 1468.73 Q1043.23 1472.83 1037.82 1471.77 Q1032.4 1470.67 1026.23 1464.5 Q1020.04 1458.32 1018.96 1452.91 Q1017.88 1447.48 1021.99 1443.37 Z" fill="#000000" fill-rule="evenodd" fill-opacity="1" /><path clip-path="url(#clip080)" d="M1048.65 1445.42 L1057.47 1436.59 L1060.16 1439.28 L1051.34 1448.1 L1048.65 1445.42 Z" fill="#000000" fill-rule="evenodd" fill-opacity="1" /><path clip-path="url(#clip080)" d="M1070.06 1418.7 Q1072.94 1416.84 1075.87 1417.12 Q1078.82 1417.38 1081.18 1419.74 Q1084.79 1423.35 1084.29 1427.82 Q1083.78 1432.29 1079.2 1436.87 Q1077.66 1438.41 1075.71 1439.74 Q1073.79 1441.06 1071.45 1442.19 L1068.26 1439 Q1070.44 1438.43 1072.48 1437.2 Q1074.53 1435.97 1076.31 1434.19 Q1079.42 1431.08 1079.82 1428.23 Q1080.23 1425.37 1077.89 1423.03 Q1075.73 1420.86 1072.99 1421.18 Q1070.26 1421.45 1067.56 1424.15 L1064.71 1427 L1061.99 1424.29 L1064.97 1421.31 Q1067.41 1418.87 1067.74 1416.61 Q1068.05 1414.33 1066.22 1412.5 Q1064.33 1410.62 1061.99 1410.96 Q1059.65 1411.27 1057.16 1413.76 Q1055.81 1415.12 1054.55 1416.97 Q1053.28 1418.82 1052.04 1421.31 L1049.09 1418.36 Q1050.45 1415.95 1051.83 1414.06 Q1053.22 1412.14 1054.68 1410.68 Q1058.44 1406.92 1062.35 1406.44 Q1066.25 1405.95 1069.16 1408.87 Q1071.19 1410.9 1071.44 1413.47 Q1071.67 1416.02 1070.06 1418.7 Z" fill="#000000" fill-rule="evenodd" fill-opacity="1" /><path clip-path="url(#clip080)" d="M1082.08 1389.93 L1086.77 1411.32 L1095.12 1402.97 L1082.08 1389.93 M1078.33 1387.92 L1082.49 1383.76 L1098.41 1399.68 L1101.9 1396.2 L1104.65 1398.95 L1101.16 1402.43 L1106.92 1408.2 L1103.63 1411.49 L1097.87 1405.72 L1086.84 1416.76 L1083.65 1413.56 L1078.33 1387.92 Z" fill="#000000" fill-rule="evenodd" fill-opacity="1" /><path clip-path="url(#clip080)" d="M1135.32 1472.98 Q1138.2 1471.11 1141.13 1471.39 Q1144.08 1471.66 1146.43 1474.01 Q1150.05 1477.63 1149.54 1482.1 Q1149.04 1486.57 1144.45 1491.15 Q1142.91 1492.69 1140.97 1494.01 Q1139.05 1495.34 1136.71 1496.47 L1133.52 1493.28 Q1135.7 1492.7 1137.74 1491.48 Q1139.79 1490.25 1141.57 1488.47 Q1144.68 1485.36 1145.07 1482.51 Q1145.48 1479.64 1143.14 1477.3 Q1140.98 1475.14 1138.25 1475.45 Q1135.52 1475.73 1132.82 1478.43 L1129.97 1481.28 L1127.25 1478.56 L1130.23 1475.58 Q1132.67 1473.14 1133 1470.89 Q1133.31 1468.61 1131.47 1466.78 Q1129.59 1464.9 1127.25 1465.24 Q1124.91 1465.55 1122.42 1468.04 Q1121.06 1469.4 1119.8 1471.25 Q1118.54 1473.1 1117.3 1475.58 L1114.35 1472.64 Q1115.71 1470.23 1117.09 1468.33 Q1118.48 1466.42 1119.93 1464.96 Q1123.7 1461.2 1127.61 1460.72 Q1131.51 1460.23 1134.42 1463.14 Q1136.45 1465.17 1136.69 1467.74 Q1136.92 1470.3 1135.32 1472.98 Z" fill="#000000" fill-rule="evenodd" fill-opacity="1" /><path clip-path="url(#clip080)" d="M1135.4 1450.38 L1148.38 1437.4 L1151.16 1440.18 L1141.21 1450.13 L1147.2 1456.12 Q1147.68 1455.16 1148.28 1454.32 Q1148.87 1453.47 1149.59 1452.75 Q1153.68 1448.66 1158.32 1448.51 Q1162.95 1448.36 1166.78 1452.19 Q1170.72 1456.14 1170.46 1460.79 Q1170.18 1465.42 1165.71 1469.89 Q1164.18 1471.43 1162.31 1472.77 Q1160.46 1474.09 1158.23 1475.27 L1154.91 1471.95 Q1157.19 1471.28 1159.15 1470.1 Q1161.12 1468.92 1162.87 1467.17 Q1165.7 1464.34 1165.86 1461.2 Q1166.03 1458.05 1163.47 1455.5 Q1160.92 1452.95 1157.78 1453.11 Q1154.63 1453.27 1151.8 1456.11 Q1150.48 1457.43 1149.45 1459.05 Q1148.43 1460.66 1147.68 1462.65 L1135.4 1450.38 Z" fill="#000000" fill-rule="evenodd" fill-opacity="1" /><path clip-path="url(#clip080)" d="M1168.66 1444.94 L1177.48 1436.12 L1180.17 1438.8 L1171.35 1447.63 L1168.66 1444.94 Z" fill="#000000" fill-rule="evenodd" fill-opacity="1" /><path clip-path="url(#clip080)" d="M1190.07 1418.23 Q1192.95 1416.36 1195.88 1416.64 Q1198.83 1416.9 1201.18 1419.26 Q1204.8 1422.88 1204.29 1427.35 Q1203.79 1431.82 1199.2 1436.4 Q1197.67 1437.94 1195.72 1439.26 Q1193.8 1440.59 1191.46 1441.72 L1188.27 1438.53 Q1190.45 1437.95 1192.49 1436.73 Q1194.54 1435.5 1196.32 1433.71 Q1199.43 1430.6 1199.83 1427.76 Q1200.24 1424.89 1197.89 1422.55 Q1195.73 1420.39 1193 1420.7 Q1190.27 1420.98 1187.57 1423.68 L1184.72 1426.53 L1182 1423.81 L1184.98 1420.83 Q1187.42 1418.39 1187.75 1416.13 Q1188.06 1413.86 1186.22 1412.03 Q1184.34 1410.14 1182 1410.49 Q1179.66 1410.8 1177.17 1413.29 Q1175.81 1414.64 1174.55 1416.49 Q1173.29 1418.34 1172.05 1420.83 L1169.1 1417.89 Q1170.46 1415.48 1171.84 1413.58 Q1173.23 1411.67 1174.68 1410.21 Q1178.45 1406.44 1182.36 1405.97 Q1186.26 1405.48 1189.17 1408.39 Q1191.2 1410.42 1191.45 1412.99 Q1191.67 1415.55 1190.07 1418.23 Z" fill="#000000" fill-rule="evenodd" fill-opacity="1" /><path clip-path="url(#clip080)" d="M1214.15 1419.49 L1211.14 1416.48 Q1212.97 1415.82 1214.56 1414.86 Q1216.15 1413.89 1217.37 1412.66 Q1220.65 1409.39 1220.17 1405.48 Q1219.7 1401.53 1215.46 1396.8 Q1215.92 1399.16 1215.21 1401.37 Q1214.51 1403.58 1212.74 1405.35 Q1209.07 1409.01 1204.72 1408.95 Q1200.37 1408.85 1196.52 1405 Q1192.76 1401.24 1192.71 1396.74 Q1192.66 1392.24 1196.36 1388.54 Q1200.6 1384.3 1206.08 1385.33 Q1211.56 1386.33 1217.75 1392.52 Q1223.53 1398.29 1224.23 1404.5 Q1224.93 1410.67 1220.3 1415.3 Q1219.06 1416.54 1217.54 1417.57 Q1216.01 1418.61 1214.15 1419.49 M1210.37 1402.55 Q1212.59 1400.32 1212.36 1397.51 Q1212.15 1394.68 1209.5 1392.02 Q1206.86 1389.39 1204.03 1389.18 Q1201.2 1388.93 1198.97 1391.16 Q1196.75 1393.38 1196.98 1396.23 Q1197.21 1399.05 1199.84 1401.68 Q1202.49 1404.33 1205.31 1404.56 Q1208.14 1404.77 1210.37 1402.55 Z" fill="#000000" fill-rule="evenodd" fill-opacity="1" /><path clip-path="url(#clip080)" d="M1245.07 1466.01 L1249.76 1487.4 L1258.11 1479.05 L1245.07 1466.01 M1241.32 1463.99 L1245.47 1459.84 L1261.4 1475.76 L1264.89 1472.28 L1267.64 1475.03 L1264.15 1478.51 L1269.91 1484.27 L1266.62 1487.56 L1260.86 1481.8 L1249.83 1492.84 L1246.64 1489.64 L1241.32 1463.99 Z" fill="#000000" fill-rule="evenodd" fill-opacity="1" /><path clip-path="url(#clip080)" d="M1263.68 1445.99 Q1261.12 1448.54 1262.35 1452.36 Q1263.58 1456.14 1268.62 1461.18 Q1273.64 1466.2 1277.44 1467.45 Q1281.24 1468.66 1283.79 1466.11 Q1286.36 1463.54 1285.13 1459.76 Q1283.91 1455.94 1278.88 1450.92 Q1273.84 1445.88 1270.04 1444.66 Q1266.25 1443.42 1263.68 1445.99 M1261.06 1443.37 Q1265.17 1439.26 1270.58 1440.36 Q1276 1441.42 1282.19 1447.61 Q1288.36 1453.78 1289.44 1459.22 Q1290.52 1464.62 1286.41 1468.73 Q1282.3 1472.83 1276.88 1471.77 Q1271.47 1470.67 1265.3 1464.5 Q1259.11 1458.32 1258.03 1452.91 Q1256.95 1447.48 1261.06 1443.37 Z" fill="#000000" fill-rule="evenodd" fill-opacity="1" /><path clip-path="url(#clip080)" d="M1287.72 1445.42 L1296.54 1436.59 L1299.23 1439.28 L1290.4 1448.1 L1287.72 1445.42 Z" fill="#000000" fill-rule="evenodd" fill-opacity="1" /><path clip-path="url(#clip080)" d="M1299.82 1411.26 L1304.51 1432.65 L1312.86 1424.3 L1299.82 1411.26 M1296.07 1409.24 L1300.23 1405.09 L1316.15 1421.01 L1319.64 1417.53 L1322.39 1420.28 L1318.9 1423.76 L1324.66 1429.52 L1321.37 1432.81 L1315.61 1427.05 L1304.58 1438.08 L1301.39 1434.89 L1296.07 1409.24 Z" fill="#000000" fill-rule="evenodd" fill-opacity="1" /><path clip-path="url(#clip080)" d="M1321.14 1389.93 L1325.84 1411.32 L1334.19 1402.97 L1321.14 1389.93 M1317.4 1387.92 L1321.55 1383.76 L1337.48 1399.68 L1340.97 1396.2 L1343.72 1398.95 L1340.23 1402.43 L1345.99 1408.2 L1342.7 1411.49 L1336.94 1405.72 L1325.91 1416.76 L1322.72 1413.56 L1317.4 1387.92 Z" fill="#000000" fill-rule="evenodd" fill-opacity="1" /><path clip-path="url(#clip080)" d="M1365.07 1465.53 L1369.77 1486.93 L1378.12 1478.58 L1365.07 1465.53 M1361.33 1463.52 L1365.48 1459.36 L1381.41 1475.29 L1384.9 1471.8 L1387.65 1474.55 L1384.16 1478.04 L1389.92 1483.8 L1386.63 1487.09 L1380.87 1481.33 L1369.84 1492.36 L1366.65 1489.17 L1361.33 1463.52 Z" fill="#000000" fill-rule="evenodd" fill-opacity="1" /><path clip-path="url(#clip080)" d="M1374.47 1450.38 L1387.45 1437.4 L1390.23 1440.18 L1380.28 1450.13 L1386.27 1456.12 Q1386.75 1455.16 1387.35 1454.32 Q1387.94 1453.47 1388.66 1452.75 Q1392.75 1448.66 1397.38 1448.51 Q1402.02 1448.36 1405.85 1452.19 Q1409.79 1456.14 1409.53 1460.79 Q1409.25 1465.42 1404.78 1469.89 Q1403.24 1471.43 1401.38 1472.77 Q1399.53 1474.09 1397.3 1475.27 L1393.98 1471.95 Q1396.26 1471.28 1398.22 1470.1 Q1400.18 1468.92 1401.93 1467.17 Q1404.77 1464.34 1404.93 1461.2 Q1405.09 1458.05 1402.54 1455.5 Q1399.99 1452.95 1396.84 1453.11 Q1393.7 1453.27 1390.87 1456.11 Q1389.54 1457.43 1388.51 1459.05 Q1387.5 1460.66 1386.75 1462.65 L1374.47 1450.38 Z" fill="#000000" fill-rule="evenodd" fill-opacity="1" /><path clip-path="url(#clip080)" d="M1407.73 1444.94 L1416.55 1436.12 L1419.24 1438.8 L1410.41 1447.63 L1407.73 1444.94 Z" fill="#000000" fill-rule="evenodd" fill-opacity="1" /><path clip-path="url(#clip080)" d="M1419.83 1410.78 L1424.52 1432.18 L1432.87 1423.83 L1419.83 1410.78 M1416.08 1408.77 L1420.23 1404.61 L1436.16 1420.54 L1439.65 1417.05 L1442.4 1419.8 L1438.91 1423.29 L1444.67 1429.05 L1441.38 1432.34 L1435.62 1426.58 L1424.59 1437.61 L1421.4 1434.42 L1416.08 1408.77 Z" fill="#000000" fill-rule="evenodd" fill-opacity="1" /><path clip-path="url(#clip080)" d="M1453.22 1419.49 L1450.2 1416.48 Q1452.04 1415.82 1453.63 1414.86 Q1455.21 1413.89 1456.44 1412.66 Q1459.71 1409.39 1459.24 1405.48 Q1458.77 1401.53 1454.53 1396.8 Q1454.98 1399.16 1454.28 1401.37 Q1453.58 1403.58 1451.81 1405.35 Q1448.14 1409.01 1443.79 1408.95 Q1439.43 1408.85 1435.59 1405 Q1431.82 1401.24 1431.77 1396.74 Q1431.72 1392.24 1435.42 1388.54 Q1439.66 1384.3 1445.15 1385.33 Q1450.63 1386.33 1456.82 1392.52 Q1462.6 1398.29 1463.3 1404.5 Q1464 1410.67 1459.37 1415.3 Q1458.13 1416.54 1456.6 1417.57 Q1455.08 1418.61 1453.22 1419.49 M1449.44 1402.55 Q1451.66 1400.32 1451.43 1397.51 Q1451.22 1394.68 1448.57 1392.02 Q1445.93 1389.39 1443.1 1389.18 Q1440.27 1388.93 1438.04 1391.16 Q1435.82 1393.38 1436.05 1396.23 Q1436.28 1399.05 1438.91 1401.68 Q1441.56 1404.33 1444.38 1404.56 Q1447.21 1404.77 1449.44 1402.55 Z" fill="#000000" fill-rule="evenodd" fill-opacity="1" /><path clip-path="url(#clip080)" d="M1472.2 1472.18 L1485.18 1459.2 L1487.96 1461.98 L1478.01 1471.93 L1484 1477.92 Q1484.48 1476.96 1485.08 1476.12 Q1485.67 1475.27 1486.39 1474.55 Q1490.48 1470.46 1495.12 1470.31 Q1499.75 1470.17 1503.58 1474 Q1507.52 1477.94 1507.26 1482.59 Q1506.98 1487.22 1502.51 1491.69 Q1500.98 1493.23 1499.11 1494.57 Q1497.26 1495.9 1495.03 1497.07 L1491.71 1493.75 Q1493.99 1493.08 1495.95 1491.9 Q1497.92 1490.72 1499.67 1488.97 Q1502.5 1486.14 1502.66 1483 Q1502.83 1479.86 1500.27 1477.3 Q1497.72 1474.75 1494.58 1474.91 Q1491.43 1475.08 1488.6 1477.91 Q1487.28 1479.23 1486.24 1480.85 Q1485.23 1482.46 1484.48 1484.46 L1472.2 1472.18 Z" fill="#000000" fill-rule="evenodd" fill-opacity="1" /><path clip-path="url(#clip080)" d="M1502.74 1445.99 Q1500.19 1448.54 1501.42 1452.36 Q1502.65 1456.14 1507.69 1461.18 Q1512.71 1466.2 1516.51 1467.45 Q1520.31 1468.66 1522.86 1466.11 Q1525.43 1463.54 1524.2 1459.76 Q1522.97 1455.94 1517.95 1450.92 Q1512.91 1445.88 1509.11 1444.66 Q1505.31 1443.42 1502.74 1445.99 M1500.12 1443.37 Q1504.23 1439.26 1509.65 1440.36 Q1515.07 1441.42 1521.26 1447.61 Q1527.43 1453.78 1528.51 1459.22 Q1529.59 1464.62 1525.48 1468.73 Q1521.37 1472.83 1515.95 1471.77 Q1510.54 1470.67 1504.36 1464.5 Q1498.18 1458.32 1497.1 1452.91 Q1496.02 1447.48 1500.12 1443.37 Z" fill="#000000" fill-rule="evenodd" fill-opacity="1" /><path clip-path="url(#clip080)" d="M1526.79 1445.42 L1535.61 1436.59 L1538.3 1439.28 L1529.47 1448.1 L1526.79 1445.42 Z" fill="#000000" fill-rule="evenodd" fill-opacity="1" /><path clip-path="url(#clip080)" d="M1526.95 1417.43 L1539.93 1404.45 L1542.71 1407.23 L1532.76 1417.18 L1538.75 1423.17 Q1539.23 1422.21 1539.83 1421.37 Q1540.42 1420.52 1541.14 1419.8 Q1545.24 1415.71 1549.87 1415.56 Q1554.5 1415.41 1558.33 1419.24 Q1562.27 1423.19 1562.01 1427.84 Q1561.73 1432.47 1557.27 1436.94 Q1555.73 1438.48 1553.86 1439.82 Q1552.01 1441.14 1549.79 1442.32 L1546.46 1439 Q1548.74 1438.33 1550.7 1437.15 Q1552.67 1435.97 1554.42 1434.22 Q1557.25 1431.39 1557.41 1428.25 Q1557.58 1425.1 1555.02 1422.55 Q1552.47 1420 1549.33 1420.16 Q1546.18 1420.32 1543.35 1423.16 Q1542.03 1424.48 1541 1426.1 Q1539.98 1427.71 1539.23 1429.7 L1526.95 1417.43 Z" fill="#000000" fill-rule="evenodd" fill-opacity="1" /><path clip-path="url(#clip080)" d="M1560.21 1389.93 L1564.91 1411.32 L1573.26 1402.97 L1560.21 1389.93 M1556.46 1387.92 L1560.62 1383.76 L1576.55 1399.68 L1580.03 1396.2 L1582.78 1398.95 L1579.3 1402.43 L1585.06 1408.2 L1581.77 1411.49 L1576.01 1405.72 L1564.98 1416.76 L1561.78 1413.56 L1556.46 1387.92 Z" fill="#000000" fill-rule="evenodd" fill-opacity="1" /><path clip-path="url(#clip080)" d="M1592.21 1471.7 L1605.19 1458.72 L1607.97 1461.51 L1598.02 1471.46 L1604.01 1477.45 Q1604.49 1476.48 1605.09 1475.65 Q1605.68 1474.8 1606.4 1474.08 Q1610.49 1469.99 1615.13 1469.84 Q1619.76 1469.69 1623.59 1473.52 Q1627.53 1477.47 1627.27 1482.11 Q1626.99 1486.75 1622.52 1491.22 Q1620.98 1492.75 1619.12 1494.1 Q1617.27 1495.42 1615.04 1496.6 L1611.72 1493.28 Q1614 1492.61 1615.96 1491.43 Q1617.92 1490.25 1619.68 1488.5 Q1622.51 1485.67 1622.67 1482.52 Q1622.83 1479.38 1620.28 1476.83 Q1617.73 1474.27 1614.58 1474.44 Q1611.44 1474.6 1608.61 1477.43 Q1607.28 1478.76 1606.25 1480.38 Q1605.24 1481.98 1604.49 1483.98 L1592.21 1471.7 Z" fill="#000000" fill-rule="evenodd" fill-opacity="1" /><path clip-path="url(#clip080)" d="M1613.54 1450.38 L1626.52 1437.4 L1629.3 1440.18 L1619.35 1450.13 L1625.34 1456.12 Q1625.81 1455.16 1626.42 1454.32 Q1627.01 1453.47 1627.73 1452.75 Q1631.82 1448.66 1636.45 1448.51 Q1641.08 1448.36 1644.92 1452.19 Q1648.86 1456.14 1648.6 1460.79 Q1648.32 1465.42 1643.85 1469.89 Q1642.31 1471.43 1640.45 1472.77 Q1638.6 1474.09 1636.37 1475.27 L1633.05 1471.95 Q1635.32 1471.28 1637.29 1470.1 Q1639.25 1468.92 1641 1467.17 Q1643.83 1464.34 1644 1461.2 Q1644.16 1458.05 1641.61 1455.5 Q1639.06 1452.95 1635.91 1453.11 Q1632.77 1453.27 1629.94 1456.11 Q1628.61 1457.43 1627.58 1459.05 Q1626.57 1460.66 1625.81 1462.65 L1613.54 1450.38 Z" fill="#000000" fill-rule="evenodd" fill-opacity="1" /><path clip-path="url(#clip080)" d="M1646.8 1444.94 L1655.62 1436.12 L1658.3 1438.8 L1649.48 1447.63 L1646.8 1444.94 Z" fill="#000000" fill-rule="evenodd" fill-opacity="1" /><path clip-path="url(#clip080)" d="M1646.96 1416.95 L1659.94 1403.97 L1662.72 1406.76 L1652.77 1416.71 L1658.76 1422.7 Q1659.24 1421.73 1659.84 1420.9 Q1660.43 1420.05 1661.15 1419.33 Q1665.24 1415.23 1669.88 1415.09 Q1674.51 1414.94 1678.34 1418.77 Q1682.28 1422.71 1682.02 1427.36 Q1681.74 1432 1677.27 1436.46 Q1675.74 1438 1673.87 1439.34 Q1672.02 1440.67 1669.79 1441.85 L1666.47 1438.53 Q1668.75 1437.85 1670.71 1436.68 Q1672.68 1435.5 1674.43 1433.75 Q1677.26 1430.91 1677.42 1427.77 Q1677.59 1424.63 1675.03 1422.08 Q1672.48 1419.52 1669.34 1419.69 Q1666.19 1419.85 1663.36 1422.68 Q1662.04 1424.01 1661 1425.63 Q1659.99 1427.23 1659.24 1429.23 L1646.96 1416.95 Z" fill="#000000" fill-rule="evenodd" fill-opacity="1" /><path clip-path="url(#clip080)" d="M1692.28 1419.49 L1689.27 1416.48 Q1691.11 1415.82 1692.69 1414.86 Q1694.28 1413.89 1695.51 1412.66 Q1698.78 1409.39 1698.31 1405.48 Q1697.83 1401.53 1693.59 1396.8 Q1694.05 1399.16 1693.35 1401.37 Q1692.64 1403.58 1690.88 1405.35 Q1687.21 1409.01 1682.86 1408.95 Q1678.5 1408.85 1674.66 1405 Q1670.89 1401.24 1670.84 1396.74 Q1670.79 1392.24 1674.49 1388.54 Q1678.73 1384.3 1684.21 1385.33 Q1689.7 1386.33 1695.89 1392.52 Q1701.66 1398.29 1702.37 1404.5 Q1703.07 1410.67 1698.44 1415.3 Q1697.19 1416.54 1695.67 1417.57 Q1694.15 1418.61 1692.28 1419.49 M1688.5 1402.55 Q1690.73 1400.32 1690.5 1397.51 Q1690.29 1394.68 1687.64 1392.02 Q1685 1389.39 1682.17 1389.18 Q1679.34 1388.93 1677.11 1391.16 Q1674.89 1393.38 1675.11 1396.23 Q1675.34 1399.05 1677.98 1401.68 Q1680.63 1404.33 1683.45 1404.56 Q1686.28 1404.77 1688.5 1402.55 Z" fill="#000000" fill-rule="evenodd" fill-opacity="1" /><path clip-path="url(#clip080)" d="M1729.62 1475.63 Q1727.39 1477.86 1727.6 1480.69 Q1727.83 1483.51 1730.49 1486.16 Q1733.12 1488.79 1735.95 1489.04 Q1738.78 1489.25 1741.01 1487.02 Q1743.24 1484.8 1743.01 1481.98 Q1742.78 1479.14 1740.14 1476.5 Q1737.49 1473.85 1734.66 1473.64 Q1731.84 1473.41 1729.62 1475.63 M1725.82 1458.71 L1728.83 1461.72 Q1727 1462.37 1725.41 1463.34 Q1723.84 1464.29 1722.6 1465.53 Q1719.32 1468.81 1719.8 1472.75 Q1720.29 1476.68 1724.51 1481.39 Q1724.05 1479 1724.76 1476.79 Q1725.44 1474.57 1727.2 1472.82 Q1730.88 1469.13 1735.25 1469.25 Q1739.62 1469.33 1743.47 1473.18 Q1747.23 1476.94 1747.28 1481.44 Q1747.33 1485.94 1743.63 1489.64 Q1739.39 1493.88 1733.91 1492.88 Q1728.41 1491.87 1722.24 1485.7 Q1716.44 1479.9 1715.75 1473.72 Q1715.05 1467.51 1719.68 1462.88 Q1720.93 1461.64 1722.43 1460.62 Q1723.95 1459.59 1725.82 1458.71 Z" fill="#000000" fill-rule="evenodd" fill-opacity="1" /><path clip-path="url(#clip080)" d="M1741.81 1445.99 Q1739.26 1448.54 1740.49 1452.36 Q1741.71 1456.14 1746.76 1461.18 Q1751.78 1466.2 1755.58 1467.45 Q1759.37 1468.66 1761.93 1466.11 Q1764.5 1463.54 1763.27 1459.76 Q1762.04 1455.94 1757.02 1450.92 Q1751.98 1445.88 1748.18 1444.66 Q1744.38 1443.42 1741.81 1445.99 M1739.19 1443.37 Q1743.3 1439.26 1748.72 1440.36 Q1754.14 1441.42 1760.32 1447.61 Q1766.5 1453.78 1767.58 1459.22 Q1768.66 1464.62 1764.55 1468.73 Q1760.44 1472.83 1755.02 1471.77 Q1749.6 1470.67 1743.43 1464.5 Q1737.25 1458.32 1736.16 1452.91 Q1735.08 1447.48 1739.19 1443.37 Z" fill="#000000" fill-rule="evenodd" fill-opacity="1" /><path clip-path="url(#clip080)" d="M1765.86 1445.42 L1774.68 1436.59 L1777.36 1439.28 L1768.54 1448.1 L1765.86 1445.42 Z" fill="#000000" fill-rule="evenodd" fill-opacity="1" /><path clip-path="url(#clip080)" d="M1784.37 1420.88 Q1782.14 1423.11 1782.36 1425.94 Q1782.58 1428.75 1785.24 1431.41 Q1787.87 1434.04 1790.7 1434.29 Q1793.54 1434.5 1795.76 1432.27 Q1797.99 1430.05 1797.76 1427.23 Q1797.53 1424.38 1794.89 1421.75 Q1792.24 1419.1 1789.41 1418.88 Q1786.6 1418.66 1784.37 1420.88 M1780.57 1403.96 L1783.58 1406.97 Q1781.75 1407.62 1780.16 1408.59 Q1778.59 1409.54 1777.35 1410.78 Q1774.07 1414.06 1774.55 1418 Q1775.04 1421.93 1779.26 1426.64 Q1778.8 1424.25 1779.51 1422.04 Q1780.2 1419.82 1781.95 1418.07 Q1785.63 1414.38 1790 1414.5 Q1794.37 1414.58 1798.22 1418.43 Q1801.98 1422.19 1802.03 1426.69 Q1802.08 1431.19 1798.38 1434.89 Q1794.14 1439.13 1788.66 1438.13 Q1783.16 1437.12 1776.99 1430.95 Q1771.19 1425.15 1770.51 1418.97 Q1769.8 1412.76 1774.43 1408.13 Q1775.68 1406.89 1777.18 1405.87 Q1778.71 1404.84 1780.57 1403.96 Z" fill="#000000" fill-rule="evenodd" fill-opacity="1" /><path clip-path="url(#clip080)" d="M1799.28 1389.93 L1803.98 1411.32 L1812.33 1402.97 L1799.28 1389.93 M1795.53 1387.92 L1799.69 1383.76 L1815.62 1399.68 L1819.1 1396.2 L1821.85 1398.95 L1818.37 1402.43 L1824.13 1408.2 L1820.84 1411.49 L1815.08 1405.72 L1804.04 1416.76 L1800.85 1413.56 L1795.53 1387.92 Z" fill="#000000" fill-rule="evenodd" fill-opacity="1" /><path clip-path="url(#clip080)" d="M1849.63 1475.16 Q1847.4 1477.38 1847.61 1480.22 Q1847.84 1483.03 1850.49 1485.68 Q1853.13 1488.32 1855.96 1488.56 Q1858.79 1488.78 1861.02 1486.55 Q1863.24 1484.32 1863.02 1481.51 Q1862.79 1478.66 1860.15 1476.03 Q1857.5 1473.37 1854.67 1473.16 Q1851.85 1472.93 1849.63 1475.16 M1845.83 1458.23 L1848.84 1461.25 Q1847.01 1461.9 1845.42 1462.87 Q1843.85 1463.81 1842.6 1465.06 Q1839.33 1468.33 1839.81 1472.28 Q1840.3 1476.21 1844.52 1480.92 Q1844.06 1478.53 1844.77 1476.32 Q1845.45 1474.09 1847.2 1472.34 Q1850.89 1468.66 1855.26 1468.77 Q1859.63 1468.86 1863.47 1472.7 Q1867.24 1476.47 1867.29 1480.97 Q1867.34 1485.47 1863.64 1489.17 Q1859.4 1493.41 1853.91 1492.41 Q1848.42 1491.4 1842.24 1485.22 Q1836.45 1479.43 1835.76 1473.24 Q1835.06 1467.04 1839.69 1462.41 Q1840.93 1461.16 1842.44 1460.15 Q1843.96 1459.12 1845.83 1458.23 Z" fill="#000000" fill-rule="evenodd" fill-opacity="1" /><path clip-path="url(#clip080)" d="M1852.61 1450.38 L1865.59 1437.4 L1868.37 1440.18 L1858.42 1450.13 L1864.41 1456.12 Q1864.88 1455.16 1865.49 1454.32 Q1866.08 1453.47 1866.8 1452.75 Q1870.89 1448.66 1875.52 1448.51 Q1880.15 1448.36 1883.98 1452.19 Q1887.93 1456.14 1887.67 1460.79 Q1887.39 1465.42 1882.92 1469.89 Q1881.38 1471.43 1879.51 1472.77 Q1877.66 1474.09 1875.44 1475.27 L1872.12 1471.95 Q1874.39 1471.28 1876.36 1470.1 Q1878.32 1468.92 1880.07 1467.17 Q1882.9 1464.34 1883.07 1461.2 Q1883.23 1458.05 1880.68 1455.5 Q1878.12 1452.95 1874.98 1453.11 Q1871.84 1453.27 1869.01 1456.11 Q1867.68 1457.43 1866.65 1459.05 Q1865.63 1460.66 1864.88 1462.65 L1852.61 1450.38 Z" fill="#000000" fill-rule="evenodd" fill-opacity="1" /><path clip-path="url(#clip080)" d="M1885.87 1444.94 L1894.69 1436.12 L1897.37 1438.8 L1888.55 1447.63 L1885.87 1444.94 Z" fill="#000000" fill-rule="evenodd" fill-opacity="1" /><path clip-path="url(#clip080)" d="M1904.38 1420.41 Q1902.15 1422.63 1902.36 1425.46 Q1902.59 1428.28 1905.25 1430.93 Q1907.88 1433.57 1910.71 1433.81 Q1913.54 1434.02 1915.77 1431.8 Q1918 1429.57 1917.77 1426.76 Q1917.54 1423.91 1914.9 1421.27 Q1912.25 1418.62 1909.42 1418.41 Q1906.6 1418.18 1904.38 1420.41 M1900.58 1403.48 L1903.59 1406.49 Q1901.76 1407.15 1900.17 1408.11 Q1898.6 1409.06 1897.36 1410.31 Q1894.08 1413.58 1894.56 1417.53 Q1895.05 1421.45 1899.27 1426.17 Q1898.81 1423.78 1899.52 1421.57 Q1900.2 1419.34 1901.96 1417.59 Q1905.64 1413.91 1910.01 1414.02 Q1914.38 1414.1 1918.23 1417.95 Q1921.99 1421.72 1922.04 1426.22 Q1922.09 1430.72 1918.39 1434.42 Q1914.15 1438.66 1908.67 1437.66 Q1903.17 1436.64 1897 1430.47 Q1891.2 1424.68 1890.51 1418.49 Q1889.81 1412.29 1894.44 1407.66 Q1895.69 1406.41 1897.19 1405.4 Q1898.71 1404.37 1900.58 1403.48 Z" fill="#000000" fill-rule="evenodd" fill-opacity="1" /><path clip-path="url(#clip080)" d="M1931.35 1419.49 L1928.34 1416.48 Q1930.17 1415.82 1931.76 1414.86 Q1933.35 1413.89 1934.58 1412.66 Q1937.85 1409.39 1937.38 1405.48 Q1936.9 1401.53 1932.66 1396.8 Q1933.12 1399.16 1932.42 1401.37 Q1931.71 1403.58 1929.94 1405.35 Q1926.28 1409.01 1921.92 1408.95 Q1917.57 1408.85 1913.72 1405 Q1909.96 1401.24 1909.91 1396.74 Q1909.86 1392.24 1913.56 1388.54 Q1917.8 1384.3 1923.28 1385.33 Q1928.77 1386.33 1934.95 1392.52 Q1940.73 1398.29 1941.44 1404.5 Q1942.14 1410.67 1937.51 1415.3 Q1936.26 1416.54 1934.74 1417.57 Q1933.22 1418.61 1931.35 1419.49 M1927.57 1402.55 Q1929.8 1400.32 1929.57 1397.51 Q1929.36 1394.68 1926.7 1392.02 Q1924.07 1389.39 1921.24 1389.18 Q1918.41 1388.93 1916.18 1391.16 Q1913.95 1393.38 1914.18 1396.23 Q1914.41 1399.05 1917.05 1401.68 Q1919.7 1404.33 1922.51 1404.56 Q1925.35 1404.77 1927.57 1402.55 Z" fill="#000000" fill-rule="evenodd" fill-opacity="1" /><path clip-path="url(#clip080)" d="M1949.47 1473.05 L1965.18 1457.33 L1966.59 1458.74 L1980.75 1490.64 L1977.3 1494.1 L1963.99 1464.09 L1952.25 1475.83 L1949.47 1473.05 Z" fill="#000000" fill-rule="evenodd" fill-opacity="1" /><path clip-path="url(#clip080)" d="M1980.88 1445.99 Q1978.33 1448.54 1979.55 1452.36 Q1980.78 1456.14 1985.82 1461.18 Q1990.85 1466.2 1994.65 1467.45 Q1998.44 1468.66 2001 1466.11 Q2003.57 1463.54 2002.34 1459.76 Q2001.11 1455.94 1996.09 1450.92 Q1991.04 1445.88 1987.25 1444.66 Q1983.45 1443.42 1980.88 1445.99 M1978.26 1443.37 Q1982.37 1439.26 1987.79 1440.36 Q1993.21 1441.42 1999.39 1447.61 Q2005.56 1453.78 2006.64 1459.22 Q2007.72 1464.62 2003.62 1468.73 Q1999.51 1472.83 1994.09 1471.77 Q1988.67 1470.67 1982.5 1464.5 Q1976.31 1458.32 1975.23 1452.91 Q1974.15 1447.48 1978.26 1443.37 Z" fill="#000000" fill-rule="evenodd" fill-opacity="1" /><path clip-path="url(#clip080)" d="M2004.92 1445.42 L2013.75 1436.59 L2016.43 1439.28 L2007.61 1448.1 L2004.92 1445.42 Z" fill="#000000" fill-rule="evenodd" fill-opacity="1" /><path clip-path="url(#clip080)" d="M2004.22 1418.3 L2019.93 1402.58 L2021.34 1403.99 L2035.5 1435.89 L2032.05 1439.34 L2018.74 1409.34 L2007 1421.08 L2004.22 1418.3 Z" fill="#000000" fill-rule="evenodd" fill-opacity="1" /><path clip-path="url(#clip080)" d="M2038.35 1389.93 L2043.05 1411.32 L2051.39 1402.97 L2038.35 1389.93 M2034.6 1387.92 L2038.76 1383.76 L2054.68 1399.68 L2058.17 1396.2 L2060.92 1398.95 L2057.43 1402.43 L2063.2 1408.2 L2059.91 1411.49 L2054.14 1405.72 L2043.11 1416.76 L2039.92 1413.56 L2034.6 1387.92 Z" fill="#000000" fill-rule="evenodd" fill-opacity="1" /><path clip-path="url(#clip080)" d="M2069.48 1472.57 L2085.19 1456.86 L2086.6 1458.27 L2100.76 1490.17 L2097.3 1493.62 L2084 1463.62 L2072.26 1475.35 L2069.48 1472.57 Z" fill="#000000" fill-rule="evenodd" fill-opacity="1" /><path clip-path="url(#clip080)" d="M2091.67 1450.38 L2104.65 1437.4 L2107.44 1440.18 L2097.48 1450.13 L2103.47 1456.12 Q2103.95 1455.16 2104.56 1454.32 Q2105.14 1453.47 2105.86 1452.75 Q2109.96 1448.66 2114.59 1448.51 Q2119.22 1448.36 2123.05 1452.19 Q2127 1456.14 2126.73 1460.79 Q2126.46 1465.42 2121.99 1469.89 Q2120.45 1471.43 2118.58 1472.77 Q2116.73 1474.09 2114.51 1475.27 L2111.18 1471.95 Q2113.46 1471.28 2115.42 1470.1 Q2117.39 1468.92 2119.14 1467.17 Q2121.97 1464.34 2122.13 1461.2 Q2122.3 1458.05 2119.74 1455.5 Q2117.19 1452.95 2114.05 1453.11 Q2110.91 1453.27 2108.07 1456.11 Q2106.75 1457.43 2105.72 1459.05 Q2104.7 1460.66 2103.95 1462.65 L2091.67 1450.38 Z" fill="#000000" fill-rule="evenodd" fill-opacity="1" /><path clip-path="url(#clip080)" d="M2124.93 1444.94 L2133.76 1436.12 L2136.44 1438.8 L2127.62 1447.63 L2124.93 1444.94 Z" fill="#000000" fill-rule="evenodd" fill-opacity="1" /><path clip-path="url(#clip080)" d="M2124.23 1417.82 L2139.94 1402.11 L2141.35 1403.51 L2155.51 1435.42 L2152.06 1438.87 L2138.75 1408.87 L2127.01 1420.6 L2124.23 1417.82 Z" fill="#000000" fill-rule="evenodd" fill-opacity="1" /><path clip-path="url(#clip080)" d="M2170.42 1419.49 L2167.41 1416.48 Q2169.24 1415.82 2170.83 1414.86 Q2172.42 1413.89 2173.65 1412.66 Q2176.92 1409.39 2176.44 1405.48 Q2175.97 1401.53 2171.73 1396.8 Q2172.19 1399.16 2171.48 1401.37 Q2170.78 1403.58 2169.01 1405.35 Q2165.35 1409.01 2160.99 1408.95 Q2156.64 1408.85 2152.79 1405 Q2149.03 1401.24 2148.98 1396.74 Q2148.93 1392.24 2152.63 1388.54 Q2156.87 1384.3 2162.35 1385.33 Q2167.83 1386.33 2174.02 1392.52 Q2179.8 1398.29 2180.5 1404.5 Q2181.21 1410.67 2176.57 1415.3 Q2175.33 1416.54 2173.81 1417.57 Q2172.29 1418.61 2170.42 1419.49 M2166.64 1402.55 Q2168.87 1400.32 2168.64 1397.51 Q2168.42 1394.68 2165.77 1392.02 Q2163.14 1389.39 2160.3 1389.18 Q2157.47 1388.93 2155.25 1391.16 Q2153.02 1393.38 2153.25 1396.23 Q2153.48 1399.05 2156.11 1401.68 Q2158.77 1404.33 2161.58 1404.56 Q2164.41 1404.77 2166.64 1402.55 Z" fill="#000000" fill-rule="evenodd" fill-opacity="1" /><path clip-path="url(#clip080)" d="M1133.24 1537.34 L1124.52 1560.99 L1142 1560.99 L1133.24 1537.34 M1129.62 1531.01 L1136.91 1531.01 L1155.02 1578.53 L1148.33 1578.53 L1144 1566.34 L1122.58 1566.34 L1118.25 1578.53 L1111.47 1578.53 L1129.62 1531.01 Z" fill="#000000" fill-rule="evenodd" fill-opacity="1" /><path clip-path="url(#clip080)" d="M1185.16 1560.29 Q1185.16 1553.93 1182.52 1550.43 Q1179.91 1546.92 1175.16 1546.92 Q1170.45 1546.92 1167.81 1550.43 Q1165.2 1553.93 1165.2 1560.29 Q1165.2 1566.63 1167.81 1570.13 Q1170.45 1573.63 1175.16 1573.63 Q1179.91 1573.63 1182.52 1570.13 Q1185.16 1566.63 1185.16 1560.29 M1191.01 1574.11 Q1191.01 1583.21 1186.97 1587.63 Q1182.93 1592.09 1174.59 1592.09 Q1171.5 1592.09 1168.77 1591.61 Q1166.03 1591.17 1163.45 1590.21 L1163.45 1584.51 Q1166.03 1585.91 1168.54 1586.58 Q1171.06 1587.25 1173.67 1587.25 Q1179.43 1587.25 1182.29 1584.23 Q1185.16 1581.24 1185.16 1575.16 L1185.16 1572.26 Q1183.34 1575.41 1180.51 1576.97 Q1177.68 1578.53 1173.73 1578.53 Q1167.17 1578.53 1163.16 1573.53 Q1159.15 1568.54 1159.15 1560.29 Q1159.15 1552.02 1163.16 1547.02 Q1167.17 1542.02 1173.73 1542.02 Q1177.68 1542.02 1180.51 1543.58 Q1183.34 1545.14 1185.16 1548.29 L1185.16 1542.88 L1191.01 1542.88 L1191.01 1574.11 Z" fill="#000000" fill-rule="evenodd" fill-opacity="1" /><path clip-path="url(#clip080)" d="M1233.57 1559.24 L1233.57 1562.11 L1206.64 1562.11 Q1207.02 1568.15 1210.27 1571.34 Q1213.55 1574.49 1219.37 1574.49 Q1222.75 1574.49 1225.9 1573.66 Q1229.08 1572.83 1232.2 1571.18 L1232.2 1576.72 Q1229.05 1578.05 1225.74 1578.75 Q1222.43 1579.45 1219.02 1579.45 Q1210.49 1579.45 1205.5 1574.49 Q1200.53 1569.52 1200.53 1561.06 Q1200.53 1552.3 1205.24 1547.18 Q1209.98 1542.02 1218 1542.02 Q1225.2 1542.02 1229.37 1546.67 Q1233.57 1551.29 1233.57 1559.24 M1227.71 1557.52 Q1227.65 1552.72 1225.01 1549.85 Q1222.4 1546.99 1218.07 1546.99 Q1213.17 1546.99 1210.21 1549.76 Q1207.28 1552.53 1206.83 1557.56 L1227.71 1557.52 Z" fill="#000000" fill-rule="evenodd" fill-opacity="1" /><path clip-path="url(#clip080)" d="M1287.36 1560.29 Q1287.36 1553.93 1284.72 1550.43 Q1282.11 1546.92 1277.36 1546.92 Q1272.65 1546.92 1270.01 1550.43 Q1267.4 1553.93 1267.4 1560.29 Q1267.4 1566.63 1270.01 1570.13 Q1272.65 1573.63 1277.36 1573.63 Q1282.11 1573.63 1284.72 1570.13 Q1287.36 1566.63 1287.36 1560.29 M1293.21 1574.11 Q1293.21 1583.21 1289.17 1587.63 Q1285.13 1592.09 1276.79 1592.09 Q1273.7 1592.09 1270.97 1591.61 Q1268.23 1591.17 1265.65 1590.21 L1265.65 1584.51 Q1268.23 1585.91 1270.74 1586.58 Q1273.26 1587.25 1275.87 1587.25 Q1281.63 1587.25 1284.49 1584.23 Q1287.36 1581.24 1287.36 1575.16 L1287.36 1572.26 Q1285.54 1575.41 1282.71 1576.97 Q1279.88 1578.53 1275.93 1578.53 Q1269.38 1578.53 1265.37 1573.53 Q1261.35 1568.54 1261.35 1560.29 Q1261.35 1552.02 1265.37 1547.02 Q1269.38 1542.02 1275.93 1542.02 Q1279.88 1542.02 1282.71 1543.58 Q1285.54 1545.14 1287.36 1548.29 L1287.36 1542.88 L1293.21 1542.88 L1293.21 1574.11 Z" fill="#000000" fill-rule="evenodd" fill-opacity="1" /><path clip-path="url(#clip080)" d="M1325.93 1548.36 Q1324.95 1547.78 1323.77 1547.53 Q1322.62 1547.24 1321.22 1547.24 Q1316.26 1547.24 1313.59 1550.49 Q1310.94 1553.7 1310.94 1559.75 L1310.94 1578.53 L1305.06 1578.53 L1305.06 1542.88 L1310.94 1542.88 L1310.94 1548.42 Q1312.79 1545.17 1315.75 1543.61 Q1318.71 1542.02 1322.94 1542.02 Q1323.55 1542.02 1324.28 1542.12 Q1325.01 1542.18 1325.9 1542.34 L1325.93 1548.36 Z" fill="#000000" fill-rule="evenodd" fill-opacity="1" /><path clip-path="url(#clip080)" d="M1344.46 1546.99 Q1339.75 1546.99 1337.01 1550.68 Q1334.27 1554.34 1334.27 1560.74 Q1334.27 1567.14 1336.98 1570.83 Q1339.72 1574.49 1344.46 1574.49 Q1349.14 1574.49 1351.87 1570.8 Q1354.61 1567.1 1354.61 1560.74 Q1354.61 1554.4 1351.87 1550.71 Q1349.14 1546.99 1344.46 1546.99 M1344.46 1542.02 Q1352.1 1542.02 1356.46 1546.99 Q1360.82 1551.95 1360.82 1560.74 Q1360.82 1569.49 1356.46 1574.49 Q1352.1 1579.45 1344.46 1579.45 Q1336.79 1579.45 1332.43 1574.49 Q1328.1 1569.49 1328.1 1560.74 Q1328.1 1551.95 1332.43 1546.99 Q1336.79 1542.02 1344.46 1542.02 Z" fill="#000000" fill-rule="evenodd" fill-opacity="1" /><path clip-path="url(#clip080)" d="M1369.92 1564.46 L1369.92 1542.88 L1375.78 1542.88 L1375.78 1564.24 Q1375.78 1569.3 1377.75 1571.85 Q1379.72 1574.36 1383.67 1574.36 Q1388.41 1574.36 1391.15 1571.34 Q1393.92 1568.31 1393.92 1563.09 L1393.92 1542.88 L1399.78 1542.88 L1399.78 1578.53 L1393.92 1578.53 L1393.92 1573.06 Q1391.79 1576.3 1388.96 1577.89 Q1386.15 1579.45 1382.43 1579.45 Q1376.29 1579.45 1373.1 1575.63 Q1369.92 1571.81 1369.92 1564.46 M1384.66 1542.02 L1384.66 1542.02 Z" fill="#000000" fill-rule="evenodd" fill-opacity="1" /><path clip-path="url(#clip080)" d="M1417.51 1573.18 L1417.51 1592.09 L1411.62 1592.09 L1411.62 1542.88 L1417.51 1542.88 L1417.51 1548.29 Q1419.35 1545.11 1422.15 1543.58 Q1424.99 1542.02 1428.9 1542.02 Q1435.39 1542.02 1439.44 1547.18 Q1443.51 1552.34 1443.51 1560.74 Q1443.51 1569.14 1439.44 1574.3 Q1435.39 1579.45 1428.9 1579.45 Q1424.99 1579.45 1422.15 1577.93 Q1419.35 1576.37 1417.51 1573.18 M1437.43 1560.74 Q1437.43 1554.28 1434.76 1550.62 Q1432.11 1546.92 1427.47 1546.92 Q1422.82 1546.92 1420.15 1550.62 Q1417.51 1554.28 1417.51 1560.74 Q1417.51 1567.2 1420.15 1570.89 Q1422.82 1574.55 1427.47 1574.55 Q1432.11 1574.55 1434.76 1570.89 Q1437.43 1567.2 1437.43 1560.74 Z" fill="#000000" fill-rule="evenodd" fill-opacity="1" /><polyline clip-path="url(#clip082)" style="stroke:#000000; stroke-linecap:butt; stroke-linejoin:round; stroke-width:2; stroke-opacity:0.1; fill:none" points="
  217.976,1320.55 2337.01,1320.55 
  "/>
<polyline clip-path="url(#clip082)" style="stroke:#000000; stroke-linecap:butt; stroke-linejoin:round; stroke-width:2; stroke-opacity:0.1; fill:none" points="
  217.976,955.092 2337.01,955.092 
  "/>
<polyline clip-path="url(#clip082)" style="stroke:#000000; stroke-linecap:butt; stroke-linejoin:round; stroke-width:2; stroke-opacity:0.1; fill:none" points="
  217.976,589.63 2337.01,589.63 
  "/>
<polyline clip-path="url(#clip082)" style="stroke:#000000; stroke-linecap:butt; stroke-linejoin:round; stroke-width:2; stroke-opacity:0.1; fill:none" points="
  217.976,224.168 2337.01,224.168 
  "/>
<polyline clip-path="url(#clip080)" style="stroke:#000000; stroke-linecap:butt; stroke-linejoin:round; stroke-width:4; stroke-opacity:1; fill:none" points="
  217.976,1354.96 217.976,139.22 
  "/>
<polyline clip-path="url(#clip080)" style="stroke:#000000; stroke-linecap:butt; stroke-linejoin:round; stroke-width:4; stroke-opacity:1; fill:none" points="
  217.976,1320.55 236.873,1320.55 
  "/>
<polyline clip-path="url(#clip080)" style="stroke:#000000; stroke-linecap:butt; stroke-linejoin:round; stroke-width:4; stroke-opacity:1; fill:none" points="
  217.976,955.092 236.873,955.092 
  "/>
<polyline clip-path="url(#clip080)" style="stroke:#000000; stroke-linecap:butt; stroke-linejoin:round; stroke-width:4; stroke-opacity:1; fill:none" points="
  217.976,589.63 236.873,589.63 
  "/>
<polyline clip-path="url(#clip080)" style="stroke:#000000; stroke-linecap:butt; stroke-linejoin:round; stroke-width:4; stroke-opacity:1; fill:none" points="
  217.976,224.168 236.873,224.168 
  "/>
<path clip-path="url(#clip080)" d="M170.031 1306.35 Q166.42 1306.35 164.591 1309.92 Q162.786 1313.46 162.786 1320.59 Q162.786 1327.7 164.591 1331.26 Q166.42 1334.8 170.031 1334.8 Q173.665 1334.8 175.471 1331.26 Q177.3 1327.7 177.3 1320.59 Q177.3 1313.46 175.471 1309.92 Q173.665 1306.35 170.031 1306.35 M170.031 1302.65 Q175.841 1302.65 178.897 1307.26 Q181.976 1311.84 181.976 1320.59 Q181.976 1329.32 178.897 1333.92 Q175.841 1338.51 170.031 1338.51 Q164.221 1338.51 161.142 1333.92 Q158.087 1329.32 158.087 1320.59 Q158.087 1311.84 161.142 1307.26 Q164.221 1302.65 170.031 1302.65 Z" fill="#000000" fill-rule="evenodd" fill-opacity="1" /><path clip-path="url(#clip080)" d="M161.073 937.812 L179.429 937.812 L179.429 941.747 L165.355 941.747 L165.355 950.22 Q166.374 949.872 167.392 949.71 Q168.411 949.525 169.429 949.525 Q175.216 949.525 178.596 952.697 Q181.976 955.868 181.976 961.284 Q181.976 966.863 178.503 969.965 Q175.031 973.044 168.712 973.044 Q166.536 973.044 164.267 972.673 Q162.022 972.303 159.615 971.562 L159.615 966.863 Q161.698 967.997 163.92 968.553 Q166.142 969.108 168.619 969.108 Q172.624 969.108 174.962 967.002 Q177.3 964.896 177.3 961.284 Q177.3 957.673 174.962 955.567 Q172.624 953.46 168.619 953.46 Q166.744 953.46 164.869 953.877 Q163.017 954.294 161.073 955.173 L161.073 937.812 Z" fill="#000000" fill-rule="evenodd" fill-opacity="1" /><path clip-path="url(#clip080)" d="M130.679 602.975 L138.318 602.975 L138.318 576.609 L130.008 578.276 L130.008 574.017 L138.272 572.35 L142.948 572.35 L142.948 602.975 L150.587 602.975 L150.587 606.91 L130.679 606.91 L130.679 602.975 Z" fill="#000000" fill-rule="evenodd" fill-opacity="1" /><path clip-path="url(#clip080)" d="M170.031 575.429 Q166.42 575.429 164.591 578.993 Q162.786 582.535 162.786 589.665 Q162.786 596.771 164.591 600.336 Q166.42 603.878 170.031 603.878 Q173.665 603.878 175.471 600.336 Q177.3 596.771 177.3 589.665 Q177.3 582.535 175.471 578.993 Q173.665 575.429 170.031 575.429 M170.031 571.725 Q175.841 571.725 178.897 576.331 Q181.976 580.915 181.976 589.665 Q181.976 598.392 178.897 602.998 Q175.841 607.581 170.031 607.581 Q164.221 607.581 161.142 602.998 Q158.087 598.392 158.087 589.665 Q158.087 580.915 161.142 576.331 Q164.221 571.725 170.031 571.725 Z" fill="#000000" fill-rule="evenodd" fill-opacity="1" /><path clip-path="url(#clip080)" d="M131.675 237.512 L139.314 237.512 L139.314 211.147 L131.004 212.814 L131.004 208.554 L139.267 206.888 L143.943 206.888 L143.943 237.512 L151.582 237.512 L151.582 241.448 L131.675 241.448 L131.675 237.512 Z" fill="#000000" fill-rule="evenodd" fill-opacity="1" /><path clip-path="url(#clip080)" d="M161.073 206.888 L179.429 206.888 L179.429 210.823 L165.355 210.823 L165.355 219.295 Q166.374 218.948 167.392 218.786 Q168.411 218.601 169.429 218.601 Q175.216 218.601 178.596 221.772 Q181.976 224.943 181.976 230.36 Q181.976 235.938 178.503 239.04 Q175.031 242.119 168.712 242.119 Q166.536 242.119 164.267 241.749 Q162.022 241.378 159.615 240.637 L159.615 235.938 Q161.698 237.073 163.92 237.628 Q166.142 238.184 168.619 238.184 Q172.624 238.184 174.962 236.077 Q177.3 233.971 177.3 230.36 Q177.3 226.749 174.962 224.642 Q172.624 222.536 168.619 222.536 Q166.744 222.536 164.869 222.952 Q163.017 223.369 161.073 224.249 L161.073 206.888 Z" fill="#000000" fill-rule="evenodd" fill-opacity="1" /><path clip-path="url(#clip080)" d="M35.8925 1032.78 L42.6719 1032.78 Q39.6482 1036.03 38.1523 1039.72 Q36.6564 1043.38 36.6564 1047.52 Q36.6564 1055.67 41.6534 1060 Q46.6187 1064.33 56.0399 1064.33 Q65.4293 1064.33 70.4264 1060 Q75.3917 1055.67 75.3917 1047.52 Q75.3917 1043.38 73.8957 1039.72 Q72.3998 1036.03 69.3761 1032.78 L76.0919 1032.78 Q78.3836 1036.16 79.5294 1039.95 Q80.6752 1043.7 80.6752 1047.9 Q80.6752 1058.69 74.0867 1064.9 Q67.4664 1071.11 56.0399 1071.11 Q44.5817 1071.11 37.9932 1064.9 Q31.3728 1058.69 31.3728 1047.9 Q31.3728 1043.64 32.5186 1039.88 Q33.6326 1036.09 35.8925 1032.78 Z" fill="#000000" fill-rule="evenodd" fill-opacity="1" /><path clip-path="url(#clip080)" d="M48.2101 1009.29 Q48.2101 1014.01 51.9022 1016.74 Q55.5625 1019.48 61.96 1019.48 Q68.3576 1019.48 72.0497 1016.77 Q75.71 1014.04 75.71 1009.29 Q75.71 1004.62 72.0179 1001.88 Q68.3257 999.141 61.96 999.141 Q55.6262 999.141 51.9341 1001.88 Q48.2101 1004.62 48.2101 1009.29 M43.2449 1009.29 Q43.2449 1001.66 48.2101 997.295 Q53.1754 992.935 61.96 992.935 Q70.7129 992.935 75.71 997.295 Q80.6752 1001.66 80.6752 1009.29 Q80.6752 1016.97 75.71 1021.33 Q70.7129 1025.65 61.96 1025.65 Q53.1754 1025.65 48.2101 1021.33 Q43.2449 1016.97 43.2449 1009.29 Z" fill="#000000" fill-rule="evenodd" fill-opacity="1" /><path clip-path="url(#clip080)" d="M58.2361 953.595 L79.7522 953.595 L79.7522 959.451 L58.4271 959.451 Q53.3663 959.451 50.8519 961.425 Q48.3374 963.398 48.3374 967.345 Q48.3374 972.087 51.3611 974.824 Q54.3848 977.562 59.6047 977.562 L79.7522 977.562 L79.7522 983.45 L44.1042 983.45 L44.1042 977.562 L49.6424 977.562 Q46.4277 975.461 44.8363 972.628 Q43.2449 969.764 43.2449 966.04 Q43.2449 959.897 47.0643 956.746 Q50.8519 953.595 58.2361 953.595 Z" fill="#000000" fill-rule="evenodd" fill-opacity="1" /><path clip-path="url(#clip080)" d="M33.9828 936.121 L44.1042 936.121 L44.1042 924.058 L48.6557 924.058 L48.6557 936.121 L68.0075 936.121 Q72.368 936.121 73.6093 934.943 Q74.8506 933.734 74.8506 930.074 L74.8506 924.058 L79.7522 924.058 L79.7522 930.074 Q79.7522 936.853 77.2377 939.431 Q74.6915 942.009 68.0075 942.009 L48.6557 942.009 L48.6557 946.306 L44.1042 946.306 L44.1042 942.009 L33.9828 942.009 L33.9828 936.121 Z" fill="#000000" fill-rule="evenodd" fill-opacity="1" /><path clip-path="url(#clip080)" d="M61.8327 900.155 Q61.8327 907.253 63.456 909.99 Q65.0792 912.727 68.9941 912.727 Q72.1133 912.727 73.9594 910.69 Q75.7736 908.621 75.7736 905.088 Q75.7736 900.218 72.3361 897.29 Q68.8668 894.33 63.1377 894.33 L61.8327 894.33 L61.8327 900.155 M59.4138 888.474 L79.7522 888.474 L79.7522 894.33 L74.3413 894.33 Q77.5878 896.335 79.1474 899.327 Q80.6752 902.319 80.6752 906.648 Q80.6752 912.122 77.6197 915.369 Q74.5323 918.583 69.3761 918.583 Q63.3605 918.583 60.305 914.573 Q57.2494 910.531 57.2494 902.542 L57.2494 894.33 L56.6765 894.33 Q52.6343 894.33 50.4381 897.004 Q48.2101 899.645 48.2101 904.452 Q48.2101 907.507 48.9422 910.404 Q49.6742 913.3 51.1383 915.974 L45.7275 915.974 Q44.4862 912.759 43.8814 909.735 Q43.2449 906.711 43.2449 903.847 Q43.2449 896.113 47.2553 892.293 Q51.2657 888.474 59.4138 888.474 Z" fill="#000000" fill-rule="evenodd" fill-opacity="1" /><path clip-path="url(#clip080)" d="M45.4729 850.757 L50.9474 850.757 Q49.5787 853.239 48.9103 855.754 Q48.2101 858.237 48.2101 860.783 Q48.2101 866.48 51.8386 869.631 Q55.4352 872.782 61.96 872.782 Q68.4849 872.782 72.1133 869.631 Q75.71 866.48 75.71 860.783 Q75.71 858.237 75.0416 855.754 Q74.3413 853.239 72.9727 850.757 L78.3836 850.757 Q79.5294 853.208 80.1023 855.849 Q80.6752 858.459 80.6752 861.419 Q80.6752 869.472 75.6145 874.214 Q70.5537 878.957 61.96 878.957 Q53.239 878.957 48.2419 874.183 Q43.2449 869.377 43.2449 861.037 Q43.2449 858.332 43.8178 855.754 Q44.3589 853.176 45.4729 850.757 Z" fill="#000000" fill-rule="evenodd" fill-opacity="1" /><path clip-path="url(#clip080)" d="M33.9828 834.779 L44.1042 834.779 L44.1042 822.716 L48.6557 822.716 L48.6557 834.779 L68.0075 834.779 Q72.368 834.779 73.6093 833.601 Q74.8506 832.392 74.8506 828.732 L74.8506 822.716 L79.7522 822.716 L79.7522 828.732 Q79.7522 835.511 77.2377 838.089 Q74.6915 840.667 68.0075 840.667 L48.6557 840.667 L48.6557 844.964 L44.1042 844.964 L44.1042 840.667 L33.9828 840.667 L33.9828 834.779 Z" fill="#000000" fill-rule="evenodd" fill-opacity="1" /><path clip-path="url(#clip080)" d="M30.227 776.246 L35.0968 776.246 L35.0968 781.848 Q35.0968 784.999 36.3699 786.24 Q37.643 787.45 40.9532 787.45 L44.1042 787.45 L44.1042 777.806 L48.6557 777.806 L48.6557 787.45 L79.7522 787.45 L79.7522 793.338 L48.6557 793.338 L48.6557 798.94 L44.1042 798.94 L44.1042 793.338 L41.6216 793.338 Q35.6697 793.338 32.9642 790.569 Q30.227 787.8 30.227 781.784 L30.227 776.246 Z" fill="#000000" fill-rule="evenodd" fill-opacity="1" /><path clip-path="url(#clip080)" d="M49.5787 750.688 Q49.0058 751.675 48.7512 752.852 Q48.4647 753.998 48.4647 755.399 Q48.4647 760.364 51.7113 763.037 Q54.9259 765.679 60.9734 765.679 L79.7522 765.679 L79.7522 771.567 L44.1042 771.567 L44.1042 765.679 L49.6424 765.679 Q46.3959 763.833 44.8363 760.873 Q43.2449 757.913 43.2449 753.68 Q43.2449 753.075 43.3403 752.343 Q43.404 751.611 43.5631 750.72 L49.5787 750.688 Z" fill="#000000" fill-rule="evenodd" fill-opacity="1" /><path clip-path="url(#clip080)" d="M60.4641 715.486 L63.3287 715.486 L63.3287 742.413 Q69.3761 742.031 72.5589 738.784 Q75.71 735.506 75.71 729.681 Q75.71 726.307 74.8824 723.156 Q74.0549 719.973 72.3998 716.854 L77.938 716.854 Q79.2748 720.005 79.975 723.315 Q80.6752 726.626 80.6752 730.031 Q80.6752 738.561 75.71 743.558 Q70.7447 748.524 62.2783 748.524 Q53.5255 748.524 48.4011 743.813 Q43.2449 739.071 43.2449 731.05 Q43.2449 723.856 47.8918 719.687 Q52.507 715.486 60.4641 715.486 M58.7454 721.342 Q53.9392 721.406 51.0747 724.047 Q48.2101 726.657 48.2101 730.986 Q48.2101 735.888 50.9792 738.848 Q53.7483 741.776 58.7772 742.222 L58.7454 721.342 Z" fill="#000000" fill-rule="evenodd" fill-opacity="1" /><path clip-path="url(#clip080)" d="M61.96 702.372 Q68.4212 702.372 72.1133 699.73 Q75.7736 697.057 75.7736 692.41 Q75.7736 687.763 72.1133 685.089 Q68.4212 682.416 61.96 682.416 Q55.4988 682.416 51.8386 685.089 Q48.1465 687.763 48.1465 692.41 Q48.1465 697.057 51.8386 699.73 Q55.4988 702.372 61.96 702.372 M74.405 682.416 Q77.5878 684.262 79.1474 687.095 Q80.6752 689.895 80.6752 693.842 Q80.6752 700.303 75.519 704.377 Q70.3628 708.42 61.96 708.42 Q53.5573 708.42 48.4011 704.377 Q43.2449 700.303 43.2449 693.842 Q43.2449 689.895 44.8045 687.095 Q46.3322 684.262 49.5151 682.416 L44.1042 682.416 L44.1042 676.559 L93.3111 676.559 L93.3111 682.416 L74.405 682.416 Z" fill="#000000" fill-rule="evenodd" fill-opacity="1" /><path clip-path="url(#clip080)" d="M65.684 665.101 L44.1042 665.101 L44.1042 659.245 L65.4612 659.245 Q70.5219 659.245 73.0682 657.271 Q75.5827 655.298 75.5827 651.351 Q75.5827 646.609 72.5589 643.871 Q69.5352 641.102 64.3154 641.102 L44.1042 641.102 L44.1042 635.246 L79.7522 635.246 L79.7522 641.102 L74.2777 641.102 Q77.5242 643.235 79.1156 646.068 Q80.6752 648.868 80.6752 652.592 Q80.6752 658.735 76.8558 661.918 Q73.0364 665.101 65.684 665.101 M43.2449 650.364 L43.2449 650.364 Z" fill="#000000" fill-rule="evenodd" fill-opacity="1" /><path clip-path="url(#clip080)" d="M60.4641 592.691 L63.3287 592.691 L63.3287 619.618 Q69.3761 619.236 72.5589 615.99 Q75.71 612.711 75.71 606.887 Q75.71 603.513 74.8824 600.362 Q74.0549 597.179 72.3998 594.06 L77.938 594.06 Q79.2748 597.211 79.975 600.521 Q80.6752 603.831 80.6752 607.237 Q80.6752 615.767 75.71 620.764 Q70.7447 625.729 62.2783 625.729 Q53.5255 625.729 48.4011 621.019 Q43.2449 616.276 43.2449 608.255 Q43.2449 601.062 47.8918 596.892 Q52.507 592.691 60.4641 592.691 M58.7454 598.548 Q53.9392 598.611 51.0747 601.253 Q48.2101 603.863 48.2101 608.192 Q48.2101 613.093 50.9792 616.053 Q53.7483 618.981 58.7772 619.427 L58.7454 598.548 Z" fill="#000000" fill-rule="evenodd" fill-opacity="1" /><path clip-path="url(#clip080)" d="M58.2361 553.447 L79.7522 553.447 L79.7522 559.303 L58.4271 559.303 Q53.3663 559.303 50.8519 561.276 Q48.3374 563.25 48.3374 567.196 Q48.3374 571.939 51.3611 574.676 Q54.3848 577.413 59.6047 577.413 L79.7522 577.413 L79.7522 583.302 L44.1042 583.302 L44.1042 577.413 L49.6424 577.413 Q46.4277 575.313 44.8363 572.48 Q43.2449 569.615 43.2449 565.891 Q43.2449 559.749 47.0643 556.598 Q50.8519 553.447 58.2361 553.447 Z" fill="#000000" fill-rule="evenodd" fill-opacity="1" /><path clip-path="url(#clip080)" d="M45.4729 516.112 L50.9474 516.112 Q49.5787 518.594 48.9103 521.109 Q48.2101 523.591 48.2101 526.138 Q48.2101 531.835 51.8386 534.986 Q55.4352 538.137 61.96 538.137 Q68.4849 538.137 72.1133 534.986 Q75.71 531.835 75.71 526.138 Q75.71 523.591 75.0416 521.109 Q74.3413 518.594 72.9727 516.112 L78.3836 516.112 Q79.5294 518.562 80.1023 521.204 Q80.6752 523.814 80.6752 526.774 Q80.6752 534.827 75.6145 539.569 Q70.5537 544.312 61.96 544.312 Q53.239 544.312 48.2419 539.537 Q43.2449 534.731 43.2449 526.392 Q43.2449 523.687 43.8178 521.109 Q44.3589 518.531 45.4729 516.112 Z" fill="#000000" fill-rule="evenodd" fill-opacity="1" /><path clip-path="url(#clip080)" d="M44.1042 505.927 L44.1042 500.07 L79.7522 500.07 L79.7522 505.927 L44.1042 505.927 M30.227 505.927 L30.227 500.07 L37.643 500.07 L37.643 505.927 L30.227 505.927 Z" fill="#000000" fill-rule="evenodd" fill-opacity="1" /><path clip-path="url(#clip080)" d="M60.4641 457.324 L63.3287 457.324 L63.3287 484.251 Q69.3761 483.869 72.5589 480.623 Q75.71 477.345 75.71 471.52 Q75.71 468.146 74.8824 464.995 Q74.0549 461.812 72.3998 458.693 L77.938 458.693 Q79.2748 461.844 79.975 465.154 Q80.6752 468.464 80.6752 471.87 Q80.6752 480.4 75.71 485.397 Q70.7447 490.362 62.2783 490.362 Q53.5255 490.362 48.4011 485.652 Q43.2449 480.909 43.2449 472.889 Q43.2449 465.695 47.8918 461.526 Q52.507 457.324 60.4641 457.324 M58.7454 463.181 Q53.9392 463.244 51.0747 465.886 Q48.2101 468.496 48.2101 472.825 Q48.2101 477.726 50.9792 480.687 Q53.7483 483.615 58.7772 484.06 L58.7454 463.181 Z" fill="#000000" fill-rule="evenodd" fill-opacity="1" /><path clip-path="url(#clip080)" d="M45.1546 424.987 L50.6927 424.987 Q49.4196 427.469 48.783 430.143 Q48.1465 432.816 48.1465 435.681 Q48.1465 440.041 49.4833 442.238 Q50.8201 444.402 53.4936 444.402 Q55.5307 444.402 56.7083 442.842 Q57.8542 441.283 58.9045 436.572 L59.3501 434.567 Q60.6869 428.329 63.1377 425.719 Q65.5567 423.077 69.9172 423.077 Q74.8824 423.077 77.7788 427.024 Q80.6752 430.939 80.6752 437.813 Q80.6752 440.678 80.1023 443.797 Q79.5612 446.885 78.4472 450.322 L72.3998 450.322 Q74.0867 447.076 74.9461 443.925 Q75.7736 440.774 75.7736 437.686 Q75.7736 433.548 74.3732 431.32 Q72.9409 429.092 70.3628 429.092 Q67.9756 429.092 66.7025 430.716 Q65.4293 432.307 64.2517 437.75 L63.7743 439.787 Q62.6284 445.23 60.2731 447.648 Q57.886 450.067 53.7483 450.067 Q48.7194 450.067 45.9821 446.503 Q43.2449 442.938 43.2449 436.381 Q43.2449 433.135 43.7223 430.27 Q44.1997 427.406 45.1546 424.987 Z" fill="#000000" fill-rule="evenodd" fill-opacity="1" /><path clip-path="url(#clip080)" d="M1184.38 12.096 L1235.54 12.096 L1235.54 18.9825 L1214.07 18.9825 L1214.07 72.576 L1205.85 72.576 L1205.85 18.9825 L1184.38 18.9825 L1184.38 12.096 Z" fill="#000000" fill-rule="evenodd" fill-opacity="1" /><path clip-path="url(#clip080)" d="M1246.6 32.4315 Q1240.61 32.4315 1237.12 37.1306 Q1233.64 41.7891 1233.64 49.9314 Q1233.64 58.0738 1237.08 62.7728 Q1240.57 67.4314 1246.6 67.4314 Q1252.56 67.4314 1256.04 62.7323 Q1259.53 58.0333 1259.53 49.9314 Q1259.53 41.8701 1256.04 37.1711 Q1252.56 32.4315 1246.6 32.4315 M1246.6 26.1121 Q1256.33 26.1121 1261.88 32.4315 Q1267.43 38.7509 1267.43 49.9314 Q1267.43 61.0714 1261.88 67.4314 Q1256.33 73.7508 1246.6 73.7508 Q1236.84 73.7508 1231.29 67.4314 Q1225.78 61.0714 1225.78 49.9314 Q1225.78 38.7509 1231.29 32.4315 Q1236.84 26.1121 1246.6 26.1121 Z" fill="#000000" fill-rule="evenodd" fill-opacity="1" /><path clip-path="url(#clip080)" d="M1287.15 14.324 L1287.15 27.2059 L1302.51 27.2059 L1302.51 32.9987 L1287.15 32.9987 L1287.15 57.6282 Q1287.15 63.1779 1288.65 64.7578 Q1290.19 66.3376 1294.85 66.3376 L1302.51 66.3376 L1302.51 72.576 L1294.85 72.576 Q1286.22 72.576 1282.94 69.3758 Q1279.66 66.1351 1279.66 57.6282 L1279.66 32.9987 L1274.19 32.9987 L1274.19 27.2059 L1279.66 27.2059 L1279.66 14.324 L1287.15 14.324 Z" fill="#000000" fill-rule="evenodd" fill-opacity="1" /><path clip-path="url(#clip080)" d="M1332.93 49.7694 Q1323.89 49.7694 1320.41 51.8354 Q1316.93 53.9013 1316.93 58.8839 Q1316.93 62.8538 1319.52 65.2034 Q1322.15 67.5124 1326.65 67.5124 Q1332.85 67.5124 1336.57 63.1374 Q1340.34 58.7219 1340.34 51.4303 L1340.34 49.7694 L1332.93 49.7694 M1347.8 46.6907 L1347.8 72.576 L1340.34 72.576 L1340.34 65.6895 Q1337.79 69.8214 1333.98 71.8063 Q1330.17 73.7508 1324.66 73.7508 Q1317.7 73.7508 1313.56 69.8619 Q1309.47 65.9325 1309.47 59.3701 Q1309.47 51.7138 1314.58 47.825 Q1319.72 43.9361 1329.89 43.9361 L1340.34 43.9361 L1340.34 43.2069 Q1340.34 38.0623 1336.94 35.2672 Q1333.58 32.4315 1327.46 32.4315 Q1323.57 32.4315 1319.88 33.3632 Q1316.2 34.295 1312.8 36.1584 L1312.8 29.2718 Q1316.89 27.692 1320.74 26.9223 Q1324.58 26.1121 1328.23 26.1121 Q1338.07 26.1121 1342.93 31.2163 Q1347.8 36.3204 1347.8 46.6907 Z" fill="#000000" fill-rule="evenodd" fill-opacity="1" /><path clip-path="url(#clip080)" d="M1363.15 9.54393 L1370.6 9.54393 L1370.6 72.576 L1363.15 72.576 L1363.15 9.54393 Z" fill="#000000" fill-rule="evenodd" fill-opacity="1" /><path clip-path="url(#clip082)" d="
M333.173 890.526 L333.173 1320.55 L380.986 1320.55 L380.986 890.526 L333.173 890.526 L333.173 890.526  Z
  " fill="#009af9" fill-rule="evenodd" fill-opacity="1"/>
<polyline clip-path="url(#clip082)" style="stroke:#000000; stroke-linecap:butt; stroke-linejoin:round; stroke-width:4; stroke-opacity:1; fill:none" points="
  333.173,890.526 333.173,1320.55 380.986,1320.55 380.986,890.526 333.173,890.526 
  "/>
<path clip-path="url(#clip082)" d="
M452.707 505.91 L452.707 1320.55 L500.52 1320.55 L500.52 505.91 L452.707 505.91 L452.707 505.91  Z
  " fill="#009af9" fill-rule="evenodd" fill-opacity="1"/>
<polyline clip-path="url(#clip082)" style="stroke:#000000; stroke-linecap:butt; stroke-linejoin:round; stroke-width:4; stroke-opacity:1; fill:none" points="
  452.707,505.91 452.707,1320.55 500.52,1320.55 500.52,505.91 452.707,505.91 
  "/>
<path clip-path="url(#clip082)" d="
M572.241 460.553 L572.241 1320.55 L620.055 1320.55 L620.055 460.553 L572.241 460.553 L572.241 460.553  Z
  " fill="#009af9" fill-rule="evenodd" fill-opacity="1"/>
<polyline clip-path="url(#clip082)" style="stroke:#000000; stroke-linecap:butt; stroke-linejoin:round; stroke-width:4; stroke-opacity:1; fill:none" points="
  572.241,460.553 572.241,1320.55 620.055,1320.55 620.055,460.553 572.241,460.553 
  "/>
<path clip-path="url(#clip082)" d="
M691.775 574.224 L691.775 1320.55 L739.589 1320.55 L739.589 574.224 L691.775 574.224 L691.775 574.224  Z
  " fill="#009af9" fill-rule="evenodd" fill-opacity="1"/>
<polyline clip-path="url(#clip082)" style="stroke:#000000; stroke-linecap:butt; stroke-linejoin:round; stroke-width:4; stroke-opacity:1; fill:none" points="
  691.775,574.224 691.775,1320.55 739.589,1320.55 739.589,574.224 691.775,574.224 
  "/>
<path clip-path="url(#clip082)" d="
M811.309 669.992 L811.309 1320.55 L859.123 1320.55 L859.123 669.992 L811.309 669.992 L811.309 669.992  Z
  " fill="#009af9" fill-rule="evenodd" fill-opacity="1"/>
<polyline clip-path="url(#clip082)" style="stroke:#000000; stroke-linecap:butt; stroke-linejoin:round; stroke-width:4; stroke-opacity:1; fill:none" points="
  811.309,669.992 811.309,1320.55 859.123,1320.55 859.123,669.992 811.309,669.992 
  "/>
<path clip-path="url(#clip082)" d="
M930.843 712.677 L930.843 1320.55 L978.657 1320.55 L978.657 712.677 L930.843 712.677 L930.843 712.677  Z
  " fill="#009af9" fill-rule="evenodd" fill-opacity="1"/>
<polyline clip-path="url(#clip082)" style="stroke:#000000; stroke-linecap:butt; stroke-linejoin:round; stroke-width:4; stroke-opacity:1; fill:none" points="
  930.843,712.677 930.843,1320.55 978.657,1320.55 978.657,712.677 930.843,712.677 
  "/>
<path clip-path="url(#clip082)" d="
M1050.38 622.46 L1050.38 1320.55 L1098.19 1320.55 L1098.19 622.46 L1050.38 622.46 L1050.38 622.46  Z
  " fill="#009af9" fill-rule="evenodd" fill-opacity="1"/>
<polyline clip-path="url(#clip082)" style="stroke:#000000; stroke-linecap:butt; stroke-linejoin:round; stroke-width:4; stroke-opacity:1; fill:none" points="
  1050.38,622.46 1050.38,1320.55 1098.19,1320.55 1098.19,622.46 1050.38,622.46 
  "/>
<path clip-path="url(#clip082)" d="
M1169.91 605.572 L1169.91 1320.55 L1217.72 1320.55 L1217.72 605.572 L1169.91 605.572 L1169.91 605.572  Z
  " fill="#009af9" fill-rule="evenodd" fill-opacity="1"/>
<polyline clip-path="url(#clip082)" style="stroke:#000000; stroke-linecap:butt; stroke-linejoin:round; stroke-width:4; stroke-opacity:1; fill:none" points="
  1169.91,605.572 1169.91,1320.55 1217.72,1320.55 1217.72,605.572 1169.91,605.572 
  "/>
<path clip-path="url(#clip082)" d="
M1289.45 584.712 L1289.45 1320.55 L1337.26 1320.55 L1337.26 584.712 L1289.45 584.712 L1289.45 584.712  Z
  " fill="#009af9" fill-rule="evenodd" fill-opacity="1"/>
<polyline clip-path="url(#clip082)" style="stroke:#000000; stroke-linecap:butt; stroke-linejoin:round; stroke-width:4; stroke-opacity:1; fill:none" points="
  1289.45,584.712 1289.45,1320.55 1337.26,1320.55 1337.26,584.712 1289.45,584.712 
  "/>
<path clip-path="url(#clip082)" d="
M1408.98 594.339 L1408.98 1320.55 L1456.79 1320.55 L1456.79 594.339 L1408.98 594.339 L1408.98 594.339  Z
  " fill="#009af9" fill-rule="evenodd" fill-opacity="1"/>
<polyline clip-path="url(#clip082)" style="stroke:#000000; stroke-linecap:butt; stroke-linejoin:round; stroke-width:4; stroke-opacity:1; fill:none" points="
  1408.98,594.339 1408.98,1320.55 1456.79,1320.55 1456.79,594.339 1408.98,594.339 
  "/>
<path clip-path="url(#clip082)" d="
M1528.51 679.681 L1528.51 1320.55 L1576.33 1320.55 L1576.33 679.681 L1528.51 679.681 L1528.51 679.681  Z
  " fill="#009af9" fill-rule="evenodd" fill-opacity="1"/>
<polyline clip-path="url(#clip082)" style="stroke:#000000; stroke-linecap:butt; stroke-linejoin:round; stroke-width:4; stroke-opacity:1; fill:none" points="
  1528.51,679.681 1528.51,1320.55 1576.33,1320.55 1576.33,679.681 1528.51,679.681 
  "/>
<path clip-path="url(#clip082)" d="
M1648.05 822.064 L1648.05 1320.55 L1695.86 1320.55 L1695.86 822.064 L1648.05 822.064 L1648.05 822.064  Z
  " fill="#009af9" fill-rule="evenodd" fill-opacity="1"/>
<polyline clip-path="url(#clip082)" style="stroke:#000000; stroke-linecap:butt; stroke-linejoin:round; stroke-width:4; stroke-opacity:1; fill:none" points="
  1648.05,822.064 1648.05,1320.55 1695.86,1320.55 1695.86,822.064 1648.05,822.064 
  "/>
<path clip-path="url(#clip082)" d="
M1767.58 945.664 L1767.58 1320.55 L1815.39 1320.55 L1815.39 945.664 L1767.58 945.664 L1767.58 945.664  Z
  " fill="#009af9" fill-rule="evenodd" fill-opacity="1"/>
<polyline clip-path="url(#clip082)" style="stroke:#000000; stroke-linecap:butt; stroke-linejoin:round; stroke-width:4; stroke-opacity:1; fill:none" points="
  1767.58,945.664 1767.58,1320.55 1815.39,1320.55 1815.39,945.664 1767.58,945.664 
  "/>
<path clip-path="url(#clip082)" d="
M1887.12 1027.32 L1887.12 1320.55 L1934.93 1320.55 L1934.93 1027.32 L1887.12 1027.32 L1887.12 1027.32  Z
  " fill="#009af9" fill-rule="evenodd" fill-opacity="1"/>
<polyline clip-path="url(#clip082)" style="stroke:#000000; stroke-linecap:butt; stroke-linejoin:round; stroke-width:4; stroke-opacity:1; fill:none" points="
  1887.12,1027.32 1887.12,1320.55 1934.93,1320.55 1934.93,1027.32 1887.12,1027.32 
  "/>
<path clip-path="url(#clip082)" d="
M2006.65 1085.36 L2006.65 1320.55 L2054.46 1320.55 L2054.46 1085.36 L2006.65 1085.36 L2006.65 1085.36  Z
  " fill="#009af9" fill-rule="evenodd" fill-opacity="1"/>
<polyline clip-path="url(#clip082)" style="stroke:#000000; stroke-linecap:butt; stroke-linejoin:round; stroke-width:4; stroke-opacity:1; fill:none" points="
  2006.65,1085.36 2006.65,1320.55 2054.46,1320.55 2054.46,1085.36 2006.65,1085.36 
  "/>
<path clip-path="url(#clip082)" d="
M2126.18 1151.91 L2126.18 1320.55 L2174 1320.55 L2174 1151.91 L2126.18 1151.91 L2126.18 1151.91  Z
  " fill="#009af9" fill-rule="evenodd" fill-opacity="1"/>
<polyline clip-path="url(#clip082)" style="stroke:#000000; stroke-linecap:butt; stroke-linejoin:round; stroke-width:4; stroke-opacity:1; fill:none" points="
  2126.18,1151.91 2126.18,1320.55 2174,1320.55 2174,1151.91 2126.18,1151.91 
  "/>
<circle clip-path="url(#clip082)" style="fill:#000000; stroke:none; fill-opacity:0" cx="357.08" cy="890.526" r="2"/>
<circle clip-path="url(#clip082)" style="fill:#000000; stroke:none; fill-opacity:0" cx="476.614" cy="505.91" r="2"/>
<circle clip-path="url(#clip082)" style="fill:#000000; stroke:none; fill-opacity:0" cx="596.148" cy="460.553" r="2"/>
<circle clip-path="url(#clip082)" style="fill:#000000; stroke:none; fill-opacity:0" cx="715.682" cy="574.224" r="2"/>
<circle clip-path="url(#clip082)" style="fill:#000000; stroke:none; fill-opacity:0" cx="835.216" cy="669.992" r="2"/>
<circle clip-path="url(#clip082)" style="fill:#000000; stroke:none; fill-opacity:0" cx="954.75" cy="712.677" r="2"/>
<circle clip-path="url(#clip082)" style="fill:#000000; stroke:none; fill-opacity:0" cx="1074.28" cy="622.46" r="2"/>
<circle clip-path="url(#clip082)" style="fill:#000000; stroke:none; fill-opacity:0" cx="1193.82" cy="605.572" r="2"/>
<circle clip-path="url(#clip082)" style="fill:#000000; stroke:none; fill-opacity:0" cx="1313.35" cy="584.712" r="2"/>
<circle clip-path="url(#clip082)" style="fill:#000000; stroke:none; fill-opacity:0" cx="1432.89" cy="594.339" r="2"/>
<circle clip-path="url(#clip082)" style="fill:#000000; stroke:none; fill-opacity:0" cx="1552.42" cy="679.681" r="2"/>
<circle clip-path="url(#clip082)" style="fill:#000000; stroke:none; fill-opacity:0" cx="1671.95" cy="822.064" r="2"/>
<circle clip-path="url(#clip082)" style="fill:#000000; stroke:none; fill-opacity:0" cx="1791.49" cy="945.664" r="2"/>
<circle clip-path="url(#clip082)" style="fill:#000000; stroke:none; fill-opacity:0" cx="1911.02" cy="1027.32" r="2"/>
<circle clip-path="url(#clip082)" style="fill:#000000; stroke:none; fill-opacity:0" cx="2030.56" cy="1085.36" r="2"/>
<circle clip-path="url(#clip082)" style="fill:#000000; stroke:none; fill-opacity:0" cx="2150.09" cy="1151.91" r="2"/>
<path clip-path="url(#clip082)" d="
M380.986 749.719 L380.986 1320.55 L428.8 1320.55 L428.8 749.719 L380.986 749.719 L380.986 749.719  Z
  " fill="#e26f46" fill-rule="evenodd" fill-opacity="1"/>
<polyline clip-path="url(#clip082)" style="stroke:#000000; stroke-linecap:butt; stroke-linejoin:round; stroke-width:4; stroke-opacity:1; fill:none" points="
  380.986,749.719 380.986,1320.55 428.8,1320.55 428.8,749.719 380.986,749.719 
  "/>
<path clip-path="url(#clip082)" d="
M500.52 506.684 L500.52 1320.55 L548.334 1320.55 L548.334 506.684 L500.52 506.684 L500.52 506.684  Z
  " fill="#e26f46" fill-rule="evenodd" fill-opacity="1"/>
<polyline clip-path="url(#clip082)" style="stroke:#000000; stroke-linecap:butt; stroke-linejoin:round; stroke-width:4; stroke-opacity:1; fill:none" points="
  500.52,506.684 500.52,1320.55 548.334,1320.55 548.334,506.684 500.52,506.684 
  "/>
<path clip-path="url(#clip082)" d="
M620.055 425.855 L620.055 1320.55 L667.868 1320.55 L667.868 425.855 L620.055 425.855 L620.055 425.855  Z
  " fill="#e26f46" fill-rule="evenodd" fill-opacity="1"/>
<polyline clip-path="url(#clip082)" style="stroke:#000000; stroke-linecap:butt; stroke-linejoin:round; stroke-width:4; stroke-opacity:1; fill:none" points="
  620.055,425.855 620.055,1320.55 667.868,1320.55 667.868,425.855 620.055,425.855 
  "/>
<path clip-path="url(#clip082)" d="
M739.589 173.628 L739.589 1320.55 L787.402 1320.55 L787.402 173.628 L739.589 173.628 L739.589 173.628  Z
  " fill="#e26f46" fill-rule="evenodd" fill-opacity="1"/>
<polyline clip-path="url(#clip082)" style="stroke:#000000; stroke-linecap:butt; stroke-linejoin:round; stroke-width:4; stroke-opacity:1; fill:none" points="
  739.589,173.628 739.589,1320.55 787.402,1320.55 787.402,173.628 739.589,173.628 
  "/>
<path clip-path="url(#clip082)" d="
M859.123 612.87 L859.123 1320.55 L906.936 1320.55 L906.936 612.87 L859.123 612.87 L859.123 612.87  Z
  " fill="#e26f46" fill-rule="evenodd" fill-opacity="1"/>
<polyline clip-path="url(#clip082)" style="stroke:#000000; stroke-linecap:butt; stroke-linejoin:round; stroke-width:4; stroke-opacity:1; fill:none" points="
  859.123,612.87 859.123,1320.55 906.936,1320.55 906.936,612.87 859.123,612.87 
  "/>
<path clip-path="url(#clip082)" d="
M978.657 460.847 L978.657 1320.55 L1026.47 1320.55 L1026.47 460.847 L978.657 460.847 L978.657 460.847  Z
  " fill="#e26f46" fill-rule="evenodd" fill-opacity="1"/>
<polyline clip-path="url(#clip082)" style="stroke:#000000; stroke-linecap:butt; stroke-linejoin:round; stroke-width:4; stroke-opacity:1; fill:none" points="
  978.657,460.847 978.657,1320.55 1026.47,1320.55 1026.47,460.847 978.657,460.847 
  "/>
<path clip-path="url(#clip082)" d="
M1098.19 423.914 L1098.19 1320.55 L1146 1320.55 L1146 423.914 L1098.19 423.914 L1098.19 423.914  Z
  " fill="#e26f46" fill-rule="evenodd" fill-opacity="1"/>
<polyline clip-path="url(#clip082)" style="stroke:#000000; stroke-linecap:butt; stroke-linejoin:round; stroke-width:4; stroke-opacity:1; fill:none" points="
  1098.19,423.914 1098.19,1320.55 1146,1320.55 1146,423.914 1098.19,423.914 
  "/>
<path clip-path="url(#clip082)" d="
M1217.72 352.008 L1217.72 1320.55 L1265.54 1320.55 L1265.54 352.008 L1217.72 352.008 L1217.72 352.008  Z
  " fill="#e26f46" fill-rule="evenodd" fill-opacity="1"/>
<polyline clip-path="url(#clip082)" style="stroke:#000000; stroke-linecap:butt; stroke-linejoin:round; stroke-width:4; stroke-opacity:1; fill:none" points="
  1217.72,352.008 1217.72,1320.55 1265.54,1320.55 1265.54,352.008 1217.72,352.008 
  "/>
<path clip-path="url(#clip082)" d="
M1337.26 377.25 L1337.26 1320.55 L1385.07 1320.55 L1385.07 377.25 L1337.26 377.25 L1337.26 377.25  Z
  " fill="#e26f46" fill-rule="evenodd" fill-opacity="1"/>
<polyline clip-path="url(#clip082)" style="stroke:#000000; stroke-linecap:butt; stroke-linejoin:round; stroke-width:4; stroke-opacity:1; fill:none" points="
  1337.26,377.25 1337.26,1320.55 1385.07,1320.55 1385.07,377.25 1337.26,377.25 
  "/>
<path clip-path="url(#clip082)" d="
M1456.79 548.788 L1456.79 1320.55 L1504.61 1320.55 L1504.61 548.788 L1456.79 548.788 L1456.79 548.788  Z
  " fill="#e26f46" fill-rule="evenodd" fill-opacity="1"/>
<polyline clip-path="url(#clip082)" style="stroke:#000000; stroke-linecap:butt; stroke-linejoin:round; stroke-width:4; stroke-opacity:1; fill:none" points="
  1456.79,548.788 1456.79,1320.55 1504.61,1320.55 1504.61,548.788 1456.79,548.788 
  "/>
<path clip-path="url(#clip082)" d="
M1576.33 788.126 L1576.33 1320.55 L1624.14 1320.55 L1624.14 788.126 L1576.33 788.126 L1576.33 788.126  Z
  " fill="#e26f46" fill-rule="evenodd" fill-opacity="1"/>
<polyline clip-path="url(#clip082)" style="stroke:#000000; stroke-linecap:butt; stroke-linejoin:round; stroke-width:4; stroke-opacity:1; fill:none" points="
  1576.33,788.126 1576.33,1320.55 1624.14,1320.55 1624.14,788.126 1576.33,788.126 
  "/>
<path clip-path="url(#clip082)" d="
M1695.86 1070.27 L1695.86 1320.55 L1743.67 1320.55 L1743.67 1070.27 L1695.86 1070.27 L1695.86 1070.27  Z
  " fill="#e26f46" fill-rule="evenodd" fill-opacity="1"/>
<polyline clip-path="url(#clip082)" style="stroke:#000000; stroke-linecap:butt; stroke-linejoin:round; stroke-width:4; stroke-opacity:1; fill:none" points="
  1695.86,1070.27 1695.86,1320.55 1743.67,1320.55 1743.67,1070.27 1695.86,1070.27 
  "/>
<path clip-path="url(#clip082)" d="
M1815.39 1190.62 L1815.39 1320.55 L1863.21 1320.55 L1863.21 1190.62 L1815.39 1190.62 L1815.39 1190.62  Z
  " fill="#e26f46" fill-rule="evenodd" fill-opacity="1"/>
<polyline clip-path="url(#clip082)" style="stroke:#000000; stroke-linecap:butt; stroke-linejoin:round; stroke-width:4; stroke-opacity:1; fill:none" points="
  1815.39,1190.62 1815.39,1320.55 1863.21,1320.55 1863.21,1190.62 1815.39,1190.62 
  "/>
<path clip-path="url(#clip082)" d="
M1934.93 1238.85 L1934.93 1320.55 L1982.74 1320.55 L1982.74 1238.85 L1934.93 1238.85 L1934.93 1238.85  Z
  " fill="#e26f46" fill-rule="evenodd" fill-opacity="1"/>
<polyline clip-path="url(#clip082)" style="stroke:#000000; stroke-linecap:butt; stroke-linejoin:round; stroke-width:4; stroke-opacity:1; fill:none" points="
  1934.93,1238.85 1934.93,1320.55 1982.74,1320.55 1982.74,1238.85 1934.93,1238.85 
  "/>
<path clip-path="url(#clip082)" d="
M2054.46 1263.1 L2054.46 1320.55 L2102.28 1320.55 L2102.28 1263.1 L2054.46 1263.1 L2054.46 1263.1  Z
  " fill="#e26f46" fill-rule="evenodd" fill-opacity="1"/>
<polyline clip-path="url(#clip082)" style="stroke:#000000; stroke-linecap:butt; stroke-linejoin:round; stroke-width:4; stroke-opacity:1; fill:none" points="
  2054.46,1263.1 2054.46,1320.55 2102.28,1320.55 2102.28,1263.1 2054.46,1263.1 
  "/>
<path clip-path="url(#clip082)" d="
M2174 1279.73 L2174 1320.55 L2221.81 1320.55 L2221.81 1279.73 L2174 1279.73 L2174 1279.73  Z
  " fill="#e26f46" fill-rule="evenodd" fill-opacity="1"/>
<polyline clip-path="url(#clip082)" style="stroke:#000000; stroke-linecap:butt; stroke-linejoin:round; stroke-width:4; stroke-opacity:1; fill:none" points="
  2174,1279.73 2174,1320.55 2221.81,1320.55 2221.81,1279.73 2174,1279.73 
  "/>
<circle clip-path="url(#clip082)" style="fill:#000000; stroke:none; fill-opacity:0" cx="404.893" cy="749.719" r="2"/>
<circle clip-path="url(#clip082)" style="fill:#000000; stroke:none; fill-opacity:0" cx="524.427" cy="506.684" r="2"/>
<circle clip-path="url(#clip082)" style="fill:#000000; stroke:none; fill-opacity:0" cx="643.961" cy="425.855" r="2"/>
<circle clip-path="url(#clip082)" style="fill:#000000; stroke:none; fill-opacity:0" cx="763.495" cy="173.628" r="2"/>
<circle clip-path="url(#clip082)" style="fill:#000000; stroke:none; fill-opacity:0" cx="883.029" cy="612.87" r="2"/>
<circle clip-path="url(#clip082)" style="fill:#000000; stroke:none; fill-opacity:0" cx="1002.56" cy="460.847" r="2"/>
<circle clip-path="url(#clip082)" style="fill:#000000; stroke:none; fill-opacity:0" cx="1122.1" cy="423.914" r="2"/>
<circle clip-path="url(#clip082)" style="fill:#000000; stroke:none; fill-opacity:0" cx="1241.63" cy="352.008" r="2"/>
<circle clip-path="url(#clip082)" style="fill:#000000; stroke:none; fill-opacity:0" cx="1361.17" cy="377.25" r="2"/>
<circle clip-path="url(#clip082)" style="fill:#000000; stroke:none; fill-opacity:0" cx="1480.7" cy="548.788" r="2"/>
<circle clip-path="url(#clip082)" style="fill:#000000; stroke:none; fill-opacity:0" cx="1600.23" cy="788.126" r="2"/>
<circle clip-path="url(#clip082)" style="fill:#000000; stroke:none; fill-opacity:0" cx="1719.77" cy="1070.27" r="2"/>
<circle clip-path="url(#clip082)" style="fill:#000000; stroke:none; fill-opacity:0" cx="1839.3" cy="1190.62" r="2"/>
<circle clip-path="url(#clip082)" style="fill:#000000; stroke:none; fill-opacity:0" cx="1958.84" cy="1238.85" r="2"/>
<circle clip-path="url(#clip082)" style="fill:#000000; stroke:none; fill-opacity:0" cx="2078.37" cy="1263.1" r="2"/>
<circle clip-path="url(#clip082)" style="fill:#000000; stroke:none; fill-opacity:0" cx="2197.9" cy="1279.73" r="2"/>
<path clip-path="url(#clip080)" d="
M1811.39 335.265 L2266.37 335.265 L2266.37 179.745 L1811.39 179.745  Z
  " fill="#ffffff" fill-rule="evenodd" fill-opacity="1"/>
<polyline clip-path="url(#clip080)" style="stroke:#000000; stroke-linecap:butt; stroke-linejoin:round; stroke-width:4; stroke-opacity:1; fill:none" points="
  1811.39,335.265 2266.37,335.265 2266.37,179.745 1811.39,179.745 1811.39,335.265 
  "/>
<path clip-path="url(#clip080)" d="
M1834.93 252.321 L1976.2 252.321 L1976.2 210.849 L1834.93 210.849 L1834.93 252.321  Z
  " fill="#009af9" fill-rule="evenodd" fill-opacity="1"/>
<polyline clip-path="url(#clip080)" style="stroke:#000000; stroke-linecap:butt; stroke-linejoin:round; stroke-width:4; stroke-opacity:1; fill:none" points="
  1834.93,252.321 1976.2,252.321 1976.2,210.849 1834.93,210.849 1834.93,252.321 
  "/>
<path clip-path="url(#clip080)" d="M2020.1 227.916 Q2021.69 225.046 2023.91 223.68 Q2026.14 222.314 2029.15 222.314 Q2033.2 222.314 2035.4 225.161 Q2037.6 227.985 2037.6 233.217 L2037.6 248.865 L2033.31 248.865 L2033.31 233.356 Q2033.31 229.629 2031.99 227.823 Q2030.67 226.018 2027.97 226.018 Q2024.66 226.018 2022.73 228.217 Q2020.81 230.416 2020.81 234.212 L2020.81 248.865 L2016.53 248.865 L2016.53 233.356 Q2016.53 229.606 2015.21 227.823 Q2013.89 226.018 2011.14 226.018 Q2007.87 226.018 2005.95 228.24 Q2004.03 230.439 2004.03 234.212 L2004.03 248.865 L1999.75 248.865 L1999.75 222.939 L2004.03 222.939 L2004.03 226.967 Q2005.49 224.583 2007.53 223.448 Q2009.56 222.314 2012.36 222.314 Q2015.19 222.314 2017.16 223.749 Q2019.15 225.184 2020.1 227.916 Z" fill="#000000" fill-rule="evenodd" fill-opacity="1" /><path clip-path="url(#clip080)" d="M2056.14 225.925 Q2052.71 225.925 2050.72 228.61 Q2048.73 231.272 2048.73 235.925 Q2048.73 240.578 2050.7 243.263 Q2052.69 245.925 2056.14 245.925 Q2059.54 245.925 2061.53 243.24 Q2063.52 240.555 2063.52 235.925 Q2063.52 231.319 2061.53 228.634 Q2059.54 225.925 2056.14 225.925 M2056.14 222.314 Q2061.69 222.314 2064.86 225.925 Q2068.03 229.536 2068.03 235.925 Q2068.03 242.291 2064.86 245.925 Q2061.69 249.536 2056.14 249.536 Q2050.56 249.536 2047.39 245.925 Q2044.24 242.291 2044.24 235.925 Q2044.24 229.536 2047.39 225.925 Q2050.56 222.314 2056.14 222.314 Z" fill="#000000" fill-rule="evenodd" fill-opacity="1" /><path clip-path="url(#clip080)" d="M2092.15 226.874 L2092.15 212.847 L2096.41 212.847 L2096.41 248.865 L2092.15 248.865 L2092.15 244.976 Q2090.81 247.291 2088.75 248.425 Q2086.72 249.536 2083.84 249.536 Q2079.15 249.536 2076.18 245.786 Q2073.24 242.036 2073.24 235.925 Q2073.24 229.814 2076.18 226.064 Q2079.15 222.314 2083.84 222.314 Q2086.72 222.314 2088.75 223.448 Q2090.81 224.559 2092.15 226.874 M2077.64 235.925 Q2077.64 240.624 2079.56 243.309 Q2081.51 245.971 2084.89 245.971 Q2088.27 245.971 2090.21 243.309 Q2092.15 240.624 2092.15 235.925 Q2092.15 231.226 2090.21 228.564 Q2088.27 225.879 2084.89 225.879 Q2081.51 225.879 2079.56 228.564 Q2077.64 231.226 2077.64 235.925 Z" fill="#000000" fill-rule="evenodd" fill-opacity="1" /><path clip-path="url(#clip080)" d="M2127.36 234.837 L2127.36 236.921 L2107.78 236.921 Q2108.06 241.319 2110.42 243.633 Q2112.8 245.925 2117.04 245.925 Q2119.49 245.925 2121.78 245.323 Q2124.1 244.721 2126.37 243.518 L2126.37 247.545 Q2124.08 248.518 2121.67 249.027 Q2119.26 249.536 2116.78 249.536 Q2110.58 249.536 2106.95 245.925 Q2103.34 242.314 2103.34 236.157 Q2103.34 229.791 2106.76 226.064 Q2110.21 222.314 2116.04 222.314 Q2121.28 222.314 2124.31 225.694 Q2127.36 229.05 2127.36 234.837 M2123.1 233.587 Q2123.06 230.092 2121.14 228.009 Q2119.24 225.925 2116.09 225.925 Q2112.53 225.925 2110.37 227.939 Q2108.24 229.953 2107.92 233.61 L2123.1 233.587 Z" fill="#000000" fill-rule="evenodd" fill-opacity="1" /><path clip-path="url(#clip080)" d="M2134.35 212.847 L2138.61 212.847 L2138.61 248.865 L2134.35 248.865 L2134.35 212.847 Z" fill="#000000" fill-rule="evenodd" fill-opacity="1" /><path clip-path="url(#clip080)" d="
M1834.93 304.161 L1976.2 304.161 L1976.2 262.689 L1834.93 262.689 L1834.93 304.161  Z
  " fill="#e26f46" fill-rule="evenodd" fill-opacity="1"/>
<polyline clip-path="url(#clip080)" style="stroke:#000000; stroke-linecap:butt; stroke-linejoin:round; stroke-width:4; stroke-opacity:1; fill:none" points="
  1834.93,304.161 1976.2,304.161 1976.2,262.689 1834.93,262.689 1834.93,304.161 
  "/>
<path clip-path="url(#clip080)" d="M2014.93 278.761 Q2014.22 278.344 2013.36 278.159 Q2012.53 277.95 2011.51 277.95 Q2007.9 277.95 2005.95 280.311 Q2004.03 282.649 2004.03 287.048 L2004.03 300.705 L1999.75 300.705 L1999.75 274.779 L2004.03 274.779 L2004.03 278.807 Q2005.37 276.446 2007.53 275.312 Q2009.68 274.154 2012.76 274.154 Q2013.2 274.154 2013.73 274.224 Q2014.26 274.27 2014.91 274.386 L2014.93 278.761 Z" fill="#000000" fill-rule="evenodd" fill-opacity="1" /><path clip-path="url(#clip080)" d="M2040.53 286.677 L2040.53 288.761 L2020.95 288.761 Q2021.23 293.159 2023.59 295.473 Q2025.97 297.765 2030.21 297.765 Q2032.66 297.765 2034.96 297.163 Q2037.27 296.561 2039.54 295.358 L2039.54 299.385 Q2037.25 300.358 2034.84 300.867 Q2032.43 301.376 2029.96 301.376 Q2023.75 301.376 2020.12 297.765 Q2016.51 294.154 2016.51 287.997 Q2016.51 281.631 2019.93 277.904 Q2023.38 274.154 2029.22 274.154 Q2034.45 274.154 2037.48 277.534 Q2040.53 280.89 2040.53 286.677 M2036.28 285.427 Q2036.23 281.932 2034.31 279.849 Q2032.41 277.765 2029.26 277.765 Q2025.7 277.765 2023.54 279.779 Q2021.41 281.793 2021.09 285.45 L2036.28 285.427 Z" fill="#000000" fill-rule="evenodd" fill-opacity="1" /><path clip-path="url(#clip080)" d="M2060.65 264.687 L2060.65 268.228 L2056.58 268.228 Q2054.28 268.228 2053.38 269.154 Q2052.5 270.08 2052.5 272.487 L2052.5 274.779 L2059.52 274.779 L2059.52 278.089 L2052.5 278.089 L2052.5 300.705 L2048.22 300.705 L2048.22 278.089 L2044.15 278.089 L2044.15 274.779 L2048.22 274.779 L2048.22 272.974 Q2048.22 268.645 2050.23 266.677 Q2052.25 264.687 2056.62 264.687 L2060.65 264.687 Z" fill="#000000" fill-rule="evenodd" fill-opacity="1" /><path clip-path="url(#clip080)" d="M2086.39 286.677 L2086.39 288.761 L2066.81 288.761 Q2067.09 293.159 2069.45 295.473 Q2071.83 297.765 2076.07 297.765 Q2078.52 297.765 2080.81 297.163 Q2083.13 296.561 2085.4 295.358 L2085.4 299.385 Q2083.1 300.358 2080.7 300.867 Q2078.29 301.376 2075.81 301.376 Q2069.61 301.376 2065.97 297.765 Q2062.36 294.154 2062.36 287.997 Q2062.36 281.631 2065.79 277.904 Q2069.24 274.154 2075.07 274.154 Q2080.3 274.154 2083.34 277.534 Q2086.39 280.89 2086.39 286.677 M2082.13 285.427 Q2082.09 281.932 2080.16 279.849 Q2078.27 277.765 2075.12 277.765 Q2071.55 277.765 2069.4 279.779 Q2067.27 281.793 2066.95 285.45 L2082.13 285.427 Z" fill="#000000" fill-rule="evenodd" fill-opacity="1" /><path clip-path="url(#clip080)" d="M2108.4 278.761 Q2107.69 278.344 2106.83 278.159 Q2106 277.95 2104.98 277.95 Q2101.37 277.95 2099.42 280.311 Q2097.5 282.649 2097.5 287.048 L2097.5 300.705 L2093.22 300.705 L2093.22 274.779 L2097.5 274.779 L2097.5 278.807 Q2098.84 276.446 2101 275.312 Q2103.15 274.154 2106.23 274.154 Q2106.67 274.154 2107.2 274.224 Q2107.73 274.27 2108.38 274.386 L2108.4 278.761 Z" fill="#000000" fill-rule="evenodd" fill-opacity="1" /><path clip-path="url(#clip080)" d="M2134.01 286.677 L2134.01 288.761 L2114.42 288.761 Q2114.7 293.159 2117.06 295.473 Q2119.45 297.765 2123.68 297.765 Q2126.14 297.765 2128.43 297.163 Q2130.74 296.561 2133.01 295.358 L2133.01 299.385 Q2130.72 300.358 2128.31 300.867 Q2125.9 301.376 2123.43 301.376 Q2117.22 301.376 2113.59 297.765 Q2109.98 294.154 2109.98 287.997 Q2109.98 281.631 2113.4 277.904 Q2116.85 274.154 2122.69 274.154 Q2127.92 274.154 2130.95 277.534 Q2134.01 280.89 2134.01 286.677 M2129.75 285.427 Q2129.7 281.932 2127.78 279.849 Q2125.88 277.765 2122.73 277.765 Q2119.17 277.765 2117.02 279.779 Q2114.89 281.793 2114.56 285.45 L2129.75 285.427 Z" fill="#000000" fill-rule="evenodd" fill-opacity="1" /><path clip-path="url(#clip080)" d="M2162.55 285.057 L2162.55 300.705 L2158.29 300.705 L2158.29 285.196 Q2158.29 281.515 2156.85 279.686 Q2155.42 277.858 2152.55 277.858 Q2149.1 277.858 2147.11 280.057 Q2145.12 282.256 2145.12 286.052 L2145.12 300.705 L2140.84 300.705 L2140.84 274.779 L2145.12 274.779 L2145.12 278.807 Q2146.65 276.469 2148.71 275.312 Q2150.79 274.154 2153.5 274.154 Q2157.96 274.154 2160.26 276.932 Q2162.55 279.686 2162.55 285.057 Z" fill="#000000" fill-rule="evenodd" fill-opacity="1" /><path clip-path="url(#clip080)" d="M2189.7 275.774 L2189.7 279.756 Q2187.9 278.761 2186.07 278.274 Q2184.26 277.765 2182.41 277.765 Q2178.27 277.765 2175.97 280.404 Q2173.68 283.02 2173.68 287.765 Q2173.68 292.511 2175.97 295.149 Q2178.27 297.765 2182.41 297.765 Q2184.26 297.765 2186.07 297.279 Q2187.9 296.77 2189.7 295.774 L2189.7 299.71 Q2187.92 300.543 2186 300.96 Q2184.1 301.376 2181.95 301.376 Q2176.09 301.376 2172.64 297.696 Q2169.19 294.015 2169.19 287.765 Q2169.19 281.423 2172.66 277.788 Q2176.16 274.154 2182.22 274.154 Q2184.19 274.154 2186.07 274.571 Q2187.94 274.964 2189.7 275.774 Z" fill="#000000" fill-rule="evenodd" fill-opacity="1" /><path clip-path="url(#clip080)" d="M2219.28 286.677 L2219.28 288.761 L2199.7 288.761 Q2199.98 293.159 2202.34 295.473 Q2204.72 297.765 2208.96 297.765 Q2211.41 297.765 2213.71 297.163 Q2216.02 296.561 2218.29 295.358 L2218.29 299.385 Q2216 300.358 2213.59 300.867 Q2211.18 301.376 2208.71 301.376 Q2202.5 301.376 2198.87 297.765 Q2195.26 294.154 2195.26 287.997 Q2195.26 281.631 2198.68 277.904 Q2202.13 274.154 2207.96 274.154 Q2213.2 274.154 2216.23 277.534 Q2219.28 280.89 2219.28 286.677 M2215.02 285.427 Q2214.98 281.932 2213.06 279.849 Q2211.16 277.765 2208.01 277.765 Q2204.45 277.765 2202.29 279.779 Q2200.16 281.793 2199.84 285.45 L2215.02 285.427 Z" fill="#000000" fill-rule="evenodd" fill-opacity="1" /></svg>
