<?xml version="1.0" encoding="utf-8"?>
<svg xmlns="http://www.w3.org/2000/svg" xmlns:xlink="http://www.w3.org/1999/xlink" width="600" height="400" viewBox="0 0 2400 1600">
<defs>
  <clipPath id="clip670">
    <rect x="0" y="0" width="2400" height="1600"/>
  </clipPath>
</defs>
<path clip-path="url(#clip670)" d="
M0 1600 L2400 1600 L2400 0 L0 0  Z
  " fill="#ffffff" fill-rule="evenodd" fill-opacity="1"/>
<defs>
  <clipPath id="clip671">
    <rect x="480" y="0" width="1681" height="1600"/>
  </clipPath>
</defs>
<path clip-path="url(#clip670)" d="
M175.445 1423.18 L2352.76 1423.18 L2352.76 123.472 L175.445 123.472  Z
  " fill="#ffffff" fill-rule="evenodd" fill-opacity="1"/>
<defs>
  <clipPath id="clip672">
    <rect x="175" y="123" width="2178" height="1301"/>
  </clipPath>
</defs>
<polyline clip-path="url(#clip670)" style="stroke:#000000; stroke-linecap:butt; stroke-linejoin:round; stroke-width:4; stroke-opacity:1; fill:none" points="
  175.445,1423.18 2352.76,1423.18 
  "/>
<polyline clip-path="url(#clip670)" style="stroke:#000000; stroke-linecap:butt; stroke-linejoin:round; stroke-width:4; stroke-opacity:1; fill:none" points="
  342.939,1423.18 342.939,1404.28 
  "/>
<polyline clip-path="url(#clip670)" style="stroke:#000000; stroke-linecap:butt; stroke-linejoin:round; stroke-width:4; stroke-opacity:1; fill:none" points="
  465.761,1423.18 465.761,1404.28 
  "/>
<polyline clip-path="url(#clip670)" style="stroke:#000000; stroke-linecap:butt; stroke-linejoin:round; stroke-width:4; stroke-opacity:1; fill:none" points="
  588.582,1423.18 588.582,1404.28 
  "/>
<polyline clip-path="url(#clip670)" style="stroke:#000000; stroke-linecap:butt; stroke-linejoin:round; stroke-width:4; stroke-opacity:1; fill:none" points="
  711.404,1423.18 711.404,1404.28 
  "/>
<polyline clip-path="url(#clip670)" style="stroke:#000000; stroke-linecap:butt; stroke-linejoin:round; stroke-width:4; stroke-opacity:1; fill:none" points="
  834.225,1423.18 834.225,1404.28 
  "/>
<polyline clip-path="url(#clip670)" style="stroke:#000000; stroke-linecap:butt; stroke-linejoin:round; stroke-width:4; stroke-opacity:1; fill:none" points="
  957.047,1423.18 957.047,1404.28 
  "/>
<polyline clip-path="url(#clip670)" style="stroke:#000000; stroke-linecap:butt; stroke-linejoin:round; stroke-width:4; stroke-opacity:1; fill:none" points="
  1079.87,1423.18 1079.87,1404.28 
  "/>
<polyline clip-path="url(#clip670)" style="stroke:#000000; stroke-linecap:butt; stroke-linejoin:round; stroke-width:4; stroke-opacity:1; fill:none" points="
  1202.69,1423.18 1202.69,1404.28 
  "/>
<polyline clip-path="url(#clip670)" style="stroke:#000000; stroke-linecap:butt; stroke-linejoin:round; stroke-width:4; stroke-opacity:1; fill:none" points="
  1325.51,1423.18 1325.51,1404.28 
  "/>
<polyline clip-path="url(#clip670)" style="stroke:#000000; stroke-linecap:butt; stroke-linejoin:round; stroke-width:4; stroke-opacity:1; fill:none" points="
  1448.33,1423.18 1448.33,1404.28 
  "/>
<polyline clip-path="url(#clip670)" style="stroke:#000000; stroke-linecap:butt; stroke-linejoin:round; stroke-width:4; stroke-opacity:1; fill:none" points="
  1571.15,1423.18 1571.15,1404.28 
  "/>
<polyline clip-path="url(#clip670)" style="stroke:#000000; stroke-linecap:butt; stroke-linejoin:round; stroke-width:4; stroke-opacity:1; fill:none" points="
  1693.98,1423.18 1693.98,1404.28 
  "/>
<polyline clip-path="url(#clip670)" style="stroke:#000000; stroke-linecap:butt; stroke-linejoin:round; stroke-width:4; stroke-opacity:1; fill:none" points="
  1816.8,1423.18 1816.8,1404.28 
  "/>
<polyline clip-path="url(#clip670)" style="stroke:#000000; stroke-linecap:butt; stroke-linejoin:round; stroke-width:4; stroke-opacity:1; fill:none" points="
  1939.62,1423.18 1939.62,1404.28 
  "/>
<polyline clip-path="url(#clip670)" style="stroke:#000000; stroke-linecap:butt; stroke-linejoin:round; stroke-width:4; stroke-opacity:1; fill:none" points="
  2062.44,1423.18 2062.44,1404.28 
  "/>
<polyline clip-path="url(#clip670)" style="stroke:#000000; stroke-linecap:butt; stroke-linejoin:round; stroke-width:4; stroke-opacity:1; fill:none" points="
  2185.26,1423.18 2185.26,1404.28 
  "/>
<path clip-path="url(#clip670)" d="M319.062 1454.1 Q315.451 1454.1 313.622 1457.66 Q311.817 1461.2 311.817 1468.33 Q311.817 1475.44 313.622 1479.01 Q315.451 1482.55 319.062 1482.55 Q322.696 1482.55 324.502 1479.01 Q326.331 1475.44 326.331 1468.33 Q326.331 1461.2 324.502 1457.66 Q322.696 1454.1 319.062 1454.1 M319.062 1450.39 Q324.872 1450.39 327.928 1455 Q331.007 1459.58 331.007 1468.33 Q331.007 1477.06 327.928 1481.67 Q324.872 1486.25 319.062 1486.25 Q313.252 1486.25 310.173 1481.67 Q307.118 1477.06 307.118 1468.33 Q307.118 1459.58 310.173 1455 Q313.252 1450.39 319.062 1450.39 Z" fill="#000000" fill-rule="evenodd" fill-opacity="1" /><path clip-path="url(#clip670)" d="M336.469 1470.7 L348.946 1470.7 L348.946 1474.49 L336.469 1474.49 L336.469 1470.7 Z" fill="#000000" fill-rule="evenodd" fill-opacity="1" /><path clip-path="url(#clip670)" d="M369.178 1455.09 L357.372 1473.54 L369.178 1473.54 L369.178 1455.09 M367.951 1451.02 L373.83 1451.02 L373.83 1473.54 L378.761 1473.54 L378.761 1477.43 L373.83 1477.43 L373.83 1485.58 L369.178 1485.58 L369.178 1477.43 L353.576 1477.43 L353.576 1472.92 L367.951 1451.02 Z" fill="#000000" fill-rule="evenodd" fill-opacity="1" /><path clip-path="url(#clip670)" d="M431.999 1451.02 L450.356 1451.02 L450.356 1454.96 L436.282 1454.96 L436.282 1463.43 Q437.3 1463.08 438.319 1462.92 Q439.337 1462.73 440.356 1462.73 Q446.143 1462.73 449.522 1465.9 Q452.902 1469.08 452.902 1474.49 Q452.902 1480.07 449.43 1483.17 Q445.958 1486.25 439.638 1486.25 Q437.462 1486.25 435.194 1485.88 Q432.949 1485.51 430.541 1484.77 L430.541 1480.07 Q432.624 1481.2 434.847 1481.76 Q437.069 1482.32 439.546 1482.32 Q443.55 1482.32 445.888 1480.21 Q448.226 1478.1 448.226 1474.49 Q448.226 1470.88 445.888 1468.77 Q443.55 1466.67 439.546 1466.67 Q437.671 1466.67 435.796 1467.08 Q433.944 1467.5 431.999 1468.38 L431.999 1451.02 Z" fill="#000000" fill-rule="evenodd" fill-opacity="1" /><path clip-path="url(#clip670)" d="M459.36 1470.7 L471.837 1470.7 L471.837 1474.49 L459.36 1474.49 L459.36 1470.7 Z" fill="#000000" fill-rule="evenodd" fill-opacity="1" /><path clip-path="url(#clip670)" d="M479.36 1484.86 L479.36 1480.6 Q481.12 1481.44 482.925 1481.88 Q484.731 1482.32 486.467 1482.32 Q491.096 1482.32 493.527 1479.21 Q495.981 1476.09 496.328 1469.75 Q494.985 1471.74 492.925 1472.8 Q490.865 1473.87 488.365 1473.87 Q483.18 1473.87 480.147 1470.74 Q477.138 1467.59 477.138 1462.15 Q477.138 1456.83 480.286 1453.61 Q483.434 1450.39 488.666 1450.39 Q494.661 1450.39 497.809 1455 Q500.981 1459.58 500.981 1468.33 Q500.981 1476.51 497.092 1481.39 Q493.226 1486.25 486.675 1486.25 Q484.916 1486.25 483.11 1485.9 Q481.305 1485.56 479.36 1484.86 M488.666 1470.21 Q491.814 1470.21 493.643 1468.06 Q495.494 1465.9 495.494 1462.15 Q495.494 1458.43 493.643 1456.27 Q491.814 1454.1 488.666 1454.1 Q485.518 1454.1 483.666 1456.27 Q481.837 1458.43 481.837 1462.15 Q481.837 1465.9 483.666 1468.06 Q485.518 1470.21 488.666 1470.21 Z" fill="#000000" fill-rule="evenodd" fill-opacity="1" /><path clip-path="url(#clip670)" d="M524.312 1481.64 L531.951 1481.64 L531.951 1455.28 L523.641 1456.95 L523.641 1452.69 L531.904 1451.02 L536.58 1451.02 L536.58 1481.64 L544.219 1481.64 L544.219 1485.58 L524.312 1485.58 L524.312 1481.64 Z" fill="#000000" fill-rule="evenodd" fill-opacity="1" /><path clip-path="url(#clip670)" d="M563.663 1454.1 Q560.052 1454.1 558.224 1457.66 Q556.418 1461.2 556.418 1468.33 Q556.418 1475.44 558.224 1479.01 Q560.052 1482.55 563.663 1482.55 Q567.298 1482.55 569.103 1479.01 Q570.932 1475.44 570.932 1468.33 Q570.932 1461.2 569.103 1457.66 Q567.298 1454.1 563.663 1454.1 M563.663 1450.39 Q569.474 1450.39 572.529 1455 Q575.608 1459.58 575.608 1468.33 Q575.608 1477.06 572.529 1481.67 Q569.474 1486.25 563.663 1486.25 Q557.853 1486.25 554.775 1481.67 Q551.719 1477.06 551.719 1468.33 Q551.719 1459.58 554.775 1455 Q557.853 1450.39 563.663 1450.39 Z" fill="#000000" fill-rule="evenodd" fill-opacity="1" /><path clip-path="url(#clip670)" d="M581.071 1470.7 L593.548 1470.7 L593.548 1474.49 L581.071 1474.49 L581.071 1470.7 Z" fill="#000000" fill-rule="evenodd" fill-opacity="1" /><path clip-path="url(#clip670)" d="M601.742 1481.64 L609.381 1481.64 L609.381 1455.28 L601.071 1456.95 L601.071 1452.69 L609.335 1451.02 L614.01 1451.02 L614.01 1481.64 L621.649 1481.64 L621.649 1485.58 L601.742 1485.58 L601.742 1481.64 Z" fill="#000000" fill-rule="evenodd" fill-opacity="1" /><path clip-path="url(#clip670)" d="M643.941 1455.09 L632.135 1473.54 L643.941 1473.54 L643.941 1455.09 M642.714 1451.02 L648.594 1451.02 L648.594 1473.54 L653.524 1473.54 L653.524 1477.43 L648.594 1477.43 L648.594 1485.58 L643.941 1485.58 L643.941 1477.43 L628.339 1477.43 L628.339 1472.92 L642.714 1451.02 Z" fill="#000000" fill-rule="evenodd" fill-opacity="1" /><path clip-path="url(#clip670)" d="M647.469 1481.64 L655.108 1481.64 L655.108 1455.28 L646.798 1456.95 L646.798 1452.69 L655.062 1451.02 L659.737 1451.02 L659.737 1481.64 L667.376 1481.64 L667.376 1485.58 L647.469 1485.58 L647.469 1481.64 Z" fill="#000000" fill-rule="evenodd" fill-opacity="1" /><path clip-path="url(#clip670)" d="M676.867 1451.02 L695.223 1451.02 L695.223 1454.96 L681.149 1454.96 L681.149 1463.43 Q682.168 1463.08 683.186 1462.92 Q684.205 1462.73 685.223 1462.73 Q691.01 1462.73 694.39 1465.9 Q697.77 1469.08 697.77 1474.49 Q697.77 1480.07 694.297 1483.17 Q690.825 1486.25 684.506 1486.25 Q682.33 1486.25 680.061 1485.88 Q677.816 1485.51 675.409 1484.77 L675.409 1480.07 Q677.492 1481.2 679.714 1481.76 Q681.936 1482.32 684.413 1482.32 Q688.418 1482.32 690.756 1480.21 Q693.094 1478.1 693.094 1474.49 Q693.094 1470.88 690.756 1468.77 Q688.418 1466.67 684.413 1466.67 Q682.538 1466.67 680.663 1467.08 Q678.811 1467.5 676.867 1468.38 L676.867 1451.02 Z" fill="#000000" fill-rule="evenodd" fill-opacity="1" /><path clip-path="url(#clip670)" d="M704.228 1470.7 L716.705 1470.7 L716.705 1474.49 L704.228 1474.49 L704.228 1470.7 Z" fill="#000000" fill-rule="evenodd" fill-opacity="1" /><path clip-path="url(#clip670)" d="M724.899 1481.64 L732.538 1481.64 L732.538 1455.28 L724.228 1456.95 L724.228 1452.69 L732.492 1451.02 L737.168 1451.02 L737.168 1481.64 L744.806 1481.64 L744.806 1485.58 L724.899 1485.58 L724.899 1481.64 Z" fill="#000000" fill-rule="evenodd" fill-opacity="1" /><path clip-path="url(#clip670)" d="M754.39 1484.86 L754.39 1480.6 Q756.149 1481.44 757.955 1481.88 Q759.76 1482.32 761.496 1482.32 Q766.126 1482.32 768.556 1479.21 Q771.01 1476.09 771.357 1469.75 Q770.015 1471.74 767.954 1472.8 Q765.894 1473.87 763.394 1473.87 Q758.209 1473.87 755.177 1470.74 Q752.167 1467.59 752.167 1462.15 Q752.167 1456.83 755.316 1453.61 Q758.464 1450.39 763.695 1450.39 Q769.691 1450.39 772.839 1455 Q776.01 1459.58 776.01 1468.33 Q776.01 1476.51 772.121 1481.39 Q768.255 1486.25 761.704 1486.25 Q759.945 1486.25 758.14 1485.9 Q756.334 1485.56 754.39 1484.86 M763.695 1470.21 Q766.843 1470.21 768.672 1468.06 Q770.524 1465.9 770.524 1462.15 Q770.524 1458.43 768.672 1456.27 Q766.843 1454.1 763.695 1454.1 Q760.547 1454.1 758.695 1456.27 Q756.867 1458.43 756.867 1462.15 Q756.867 1465.9 758.695 1468.06 Q760.547 1470.21 763.695 1470.21 Z" fill="#000000" fill-rule="evenodd" fill-opacity="1" /><path clip-path="url(#clip670)" d="M774.04 1481.64 L790.36 1481.64 L790.36 1485.58 L768.415 1485.58 L768.415 1481.64 Q771.078 1478.89 775.661 1474.26 Q780.267 1469.61 781.448 1468.27 Q783.693 1465.74 784.573 1464.01 Q785.476 1462.25 785.476 1460.56 Q785.476 1457.8 783.531 1456.07 Q781.61 1454.33 778.508 1454.33 Q776.309 1454.33 773.855 1455.09 Q771.425 1455.86 768.647 1457.41 L768.647 1452.69 Q771.471 1451.55 773.925 1450.97 Q776.378 1450.39 778.415 1450.39 Q783.786 1450.39 786.98 1453.08 Q790.175 1455.77 790.175 1460.26 Q790.175 1462.39 789.364 1464.31 Q788.577 1466.2 786.471 1468.8 Q785.892 1469.47 782.79 1472.69 Q779.689 1475.88 774.04 1481.64 Z" fill="#000000" fill-rule="evenodd" fill-opacity="1" /><path clip-path="url(#clip670)" d="M810.175 1454.1 Q806.563 1454.1 804.735 1457.66 Q802.929 1461.2 802.929 1468.33 Q802.929 1475.44 804.735 1479.01 Q806.563 1482.55 810.175 1482.55 Q813.809 1482.55 815.614 1479.01 Q817.443 1475.44 817.443 1468.33 Q817.443 1461.2 815.614 1457.66 Q813.809 1454.1 810.175 1454.1 M810.175 1450.39 Q815.985 1450.39 819.04 1455 Q822.119 1459.58 822.119 1468.33 Q822.119 1477.06 819.04 1481.67 Q815.985 1486.25 810.175 1486.25 Q804.364 1486.25 801.286 1481.67 Q798.23 1477.06 798.23 1468.33 Q798.23 1459.58 801.286 1455 Q804.364 1450.39 810.175 1450.39 Z" fill="#000000" fill-rule="evenodd" fill-opacity="1" /><path clip-path="url(#clip670)" d="M827.582 1470.7 L840.059 1470.7 L840.059 1474.49 L827.582 1474.49 L827.582 1470.7 Z" fill="#000000" fill-rule="evenodd" fill-opacity="1" /><path clip-path="url(#clip670)" d="M851.471 1481.64 L867.79 1481.64 L867.79 1485.58 L845.846 1485.58 L845.846 1481.64 Q848.508 1478.89 853.091 1474.26 Q857.697 1469.61 858.878 1468.27 Q861.123 1465.74 862.003 1464.01 Q862.906 1462.25 862.906 1460.56 Q862.906 1457.8 860.961 1456.07 Q859.04 1454.33 855.938 1454.33 Q853.739 1454.33 851.285 1455.09 Q848.855 1455.86 846.077 1457.41 L846.077 1452.69 Q848.901 1451.55 851.355 1450.97 Q853.809 1450.39 855.846 1450.39 Q861.216 1450.39 864.41 1453.08 Q867.605 1455.77 867.605 1460.26 Q867.605 1462.39 866.795 1464.31 Q866.008 1466.2 863.901 1468.8 Q863.322 1469.47 860.221 1472.69 Q857.119 1475.88 851.471 1481.64 Z" fill="#000000" fill-rule="evenodd" fill-opacity="1" /><path clip-path="url(#clip670)" d="M890.452 1455.09 L878.646 1473.54 L890.452 1473.54 L890.452 1455.09 M889.225 1451.02 L895.105 1451.02 L895.105 1473.54 L900.035 1473.54 L900.035 1477.43 L895.105 1477.43 L895.105 1485.58 L890.452 1485.58 L890.452 1477.43 L874.85 1477.43 L874.85 1472.92 L889.225 1451.02 Z" fill="#000000" fill-rule="evenodd" fill-opacity="1" /><path clip-path="url(#clip670)" d="M897.198 1481.64 L913.517 1481.64 L913.517 1485.58 L891.573 1485.58 L891.573 1481.64 Q894.235 1478.89 898.818 1474.26 Q903.424 1469.61 904.605 1468.27 Q906.85 1465.74 907.73 1464.01 Q908.633 1462.25 908.633 1460.56 Q908.633 1457.8 906.688 1456.07 Q904.767 1454.33 901.665 1454.33 Q899.466 1454.33 897.012 1455.09 Q894.582 1455.86 891.804 1457.41 L891.804 1452.69 Q894.628 1451.55 897.082 1450.97 Q899.536 1450.39 901.573 1450.39 Q906.943 1450.39 910.137 1453.08 Q913.332 1455.77 913.332 1460.26 Q913.332 1462.39 912.522 1464.31 Q911.735 1466.2 909.628 1468.8 Q909.049 1469.47 905.948 1472.69 Q902.846 1475.88 897.198 1481.64 Z" fill="#000000" fill-rule="evenodd" fill-opacity="1" /><path clip-path="url(#clip670)" d="M923.378 1451.02 L941.734 1451.02 L941.734 1454.96 L927.66 1454.96 L927.66 1463.43 Q928.679 1463.08 929.697 1462.92 Q930.716 1462.73 931.734 1462.73 Q937.521 1462.73 940.901 1465.9 Q944.281 1469.08 944.281 1474.49 Q944.281 1480.07 940.808 1483.17 Q937.336 1486.25 931.017 1486.25 Q928.841 1486.25 926.572 1485.88 Q924.327 1485.51 921.92 1484.77 L921.92 1480.07 Q924.003 1481.2 926.225 1481.76 Q928.447 1482.32 930.924 1482.32 Q934.929 1482.32 937.267 1480.21 Q939.605 1478.1 939.605 1474.49 Q939.605 1470.88 937.267 1468.77 Q934.929 1466.67 930.924 1466.67 Q929.049 1466.67 927.174 1467.08 Q925.322 1467.5 923.378 1468.38 L923.378 1451.02 Z" fill="#000000" fill-rule="evenodd" fill-opacity="1" /><path clip-path="url(#clip670)" d="M950.739 1470.7 L963.216 1470.7 L963.216 1474.49 L950.739 1474.49 L950.739 1470.7 Z" fill="#000000" fill-rule="evenodd" fill-opacity="1" /><path clip-path="url(#clip670)" d="M974.628 1481.64 L990.947 1481.64 L990.947 1485.58 L969.003 1485.58 L969.003 1481.64 Q971.665 1478.89 976.248 1474.26 Q980.855 1469.61 982.035 1468.27 Q984.28 1465.74 985.16 1464.01 Q986.063 1462.25 986.063 1460.56 Q986.063 1457.8 984.118 1456.07 Q982.197 1454.33 979.095 1454.33 Q976.896 1454.33 974.443 1455.09 Q972.012 1455.86 969.234 1457.41 L969.234 1452.69 Q972.058 1451.55 974.512 1450.97 Q976.966 1450.39 979.003 1450.39 Q984.373 1450.39 987.567 1453.08 Q990.762 1455.77 990.762 1460.26 Q990.762 1462.39 989.952 1464.31 Q989.165 1466.2 987.058 1468.8 Q986.48 1469.47 983.378 1472.69 Q980.276 1475.88 974.628 1481.64 Z" fill="#000000" fill-rule="evenodd" fill-opacity="1" /><path clip-path="url(#clip670)" d="M1000.9 1484.86 L1000.9 1480.6 Q1002.66 1481.44 1004.47 1481.88 Q1006.27 1482.32 1008.01 1482.32 Q1012.64 1482.32 1015.07 1479.21 Q1017.52 1476.09 1017.87 1469.75 Q1016.53 1471.74 1014.47 1472.8 Q1012.41 1473.87 1009.91 1473.87 Q1004.72 1473.87 1001.69 1470.74 Q998.679 1467.59 998.679 1462.15 Q998.679 1456.83 1001.83 1453.61 Q1004.97 1450.39 1010.21 1450.39 Q1016.2 1450.39 1019.35 1455 Q1022.52 1459.58 1022.52 1468.33 Q1022.52 1476.51 1018.63 1481.39 Q1014.77 1486.25 1008.22 1486.25 Q1006.46 1486.25 1004.65 1485.9 Q1002.85 1485.56 1000.9 1484.86 M1010.21 1470.21 Q1013.35 1470.21 1015.18 1468.06 Q1017.03 1465.9 1017.03 1462.15 Q1017.03 1458.43 1015.18 1456.27 Q1013.35 1454.1 1010.21 1454.1 Q1007.06 1454.1 1005.21 1456.27 Q1003.38 1458.43 1003.38 1462.15 Q1003.38 1465.9 1005.21 1468.06 Q1007.06 1470.21 1010.21 1470.21 Z" fill="#000000" fill-rule="evenodd" fill-opacity="1" /><path clip-path="url(#clip670)" d="M1029.75 1466.95 Q1033.11 1467.66 1034.98 1469.93 Q1036.88 1472.2 1036.88 1475.53 Q1036.88 1480.65 1033.36 1483.45 Q1029.85 1486.25 1023.36 1486.25 Q1021.19 1486.25 1018.87 1485.81 Q1016.58 1485.39 1014.13 1484.54 L1014.13 1480.02 Q1016.07 1481.16 1018.39 1481.74 Q1020.7 1482.32 1023.23 1482.32 Q1027.62 1482.32 1029.91 1480.58 Q1032.23 1478.84 1032.23 1475.53 Q1032.23 1472.48 1030.08 1470.77 Q1027.95 1469.03 1024.13 1469.03 L1020.1 1469.03 L1020.1 1465.19 L1024.31 1465.19 Q1027.76 1465.19 1029.59 1463.82 Q1031.42 1462.43 1031.42 1459.84 Q1031.42 1457.18 1029.52 1455.77 Q1027.65 1454.33 1024.13 1454.33 Q1022.21 1454.33 1020.01 1454.75 Q1017.81 1455.16 1015.17 1456.04 L1015.17 1451.88 Q1017.83 1451.14 1020.15 1450.77 Q1022.48 1450.39 1024.54 1450.39 Q1029.87 1450.39 1032.97 1452.83 Q1036.07 1455.23 1036.07 1459.35 Q1036.07 1462.22 1034.43 1464.21 Q1032.79 1466.18 1029.75 1466.95 Z" fill="#000000" fill-rule="evenodd" fill-opacity="1" /><path clip-path="url(#clip670)" d="M1055.75 1454.1 Q1052.14 1454.1 1050.31 1457.66 Q1048.5 1461.2 1048.5 1468.33 Q1048.5 1475.44 1050.31 1479.01 Q1052.14 1482.55 1055.75 1482.55 Q1059.38 1482.55 1061.19 1479.01 Q1063.02 1475.44 1063.02 1468.33 Q1063.02 1461.2 1061.19 1457.66 Q1059.38 1454.1 1055.75 1454.1 M1055.75 1450.39 Q1061.56 1450.39 1064.61 1455 Q1067.69 1459.58 1067.69 1468.33 Q1067.69 1477.06 1064.61 1481.67 Q1061.56 1486.25 1055.75 1486.25 Q1049.94 1486.25 1046.86 1481.67 Q1043.8 1477.06 1043.8 1468.33 Q1043.8 1459.58 1046.86 1455 Q1049.94 1450.39 1055.75 1450.39 Z" fill="#000000" fill-rule="evenodd" fill-opacity="1" /><path clip-path="url(#clip670)" d="M1073.16 1470.7 L1085.63 1470.7 L1085.63 1474.49 L1073.16 1474.49 L1073.16 1470.7 Z" fill="#000000" fill-rule="evenodd" fill-opacity="1" /><path clip-path="url(#clip670)" d="M1107.18 1466.95 Q1110.54 1467.66 1112.41 1469.93 Q1114.31 1472.2 1114.31 1475.53 Q1114.31 1480.65 1110.79 1483.45 Q1107.28 1486.25 1100.79 1486.25 Q1098.62 1486.25 1096.3 1485.81 Q1094.01 1485.39 1091.56 1484.54 L1091.56 1480.02 Q1093.5 1481.16 1095.82 1481.74 Q1098.13 1482.32 1100.66 1482.32 Q1105.05 1482.32 1107.35 1480.58 Q1109.66 1478.84 1109.66 1475.53 Q1109.66 1472.48 1107.51 1470.77 Q1105.38 1469.03 1101.56 1469.03 L1097.53 1469.03 L1097.53 1465.19 L1101.74 1465.19 Q1105.19 1465.19 1107.02 1463.82 Q1108.85 1462.43 1108.85 1459.84 Q1108.85 1457.18 1106.95 1455.77 Q1105.08 1454.33 1101.56 1454.33 Q1099.64 1454.33 1097.44 1454.75 Q1095.24 1455.16 1092.6 1456.04 L1092.6 1451.88 Q1095.26 1451.14 1097.58 1450.77 Q1099.91 1450.39 1101.97 1450.39 Q1107.3 1450.39 1110.4 1452.83 Q1113.5 1455.23 1113.5 1459.35 Q1113.5 1462.22 1111.86 1464.21 Q1110.22 1466.18 1107.18 1466.95 Z" fill="#000000" fill-rule="evenodd" fill-opacity="1" /><path clip-path="url(#clip670)" d="M1136.03 1455.09 L1124.22 1473.54 L1136.03 1473.54 L1136.03 1455.09 M1134.8 1451.02 L1140.68 1451.02 L1140.68 1473.54 L1145.61 1473.54 L1145.61 1477.43 L1140.68 1477.43 L1140.68 1485.58 L1136.03 1485.58 L1136.03 1477.43 L1120.42 1477.43 L1120.42 1472.92 L1134.8 1451.02 Z" fill="#000000" fill-rule="evenodd" fill-opacity="1" /><path clip-path="url(#clip670)" d="M1152.91 1466.95 Q1156.27 1467.66 1158.14 1469.93 Q1160.04 1472.2 1160.04 1475.53 Q1160.04 1480.65 1156.52 1483.45 Q1153 1486.25 1146.52 1486.25 Q1144.35 1486.25 1142.03 1485.81 Q1139.74 1485.39 1137.29 1484.54 L1137.29 1480.02 Q1139.23 1481.16 1141.54 1481.74 Q1143.86 1482.32 1146.38 1482.32 Q1150.78 1482.32 1153.07 1480.58 Q1155.39 1478.84 1155.39 1475.53 Q1155.39 1472.48 1153.23 1470.77 Q1151.1 1469.03 1147.29 1469.03 L1143.26 1469.03 L1143.26 1465.19 L1147.47 1465.19 Q1150.92 1465.19 1152.75 1463.82 Q1154.58 1462.43 1154.58 1459.84 Q1154.58 1457.18 1152.68 1455.77 Q1150.8 1454.33 1147.29 1454.33 Q1145.36 1454.33 1143.16 1454.75 Q1140.97 1455.16 1138.33 1456.04 L1138.33 1451.88 Q1140.99 1451.14 1143.3 1450.77 Q1145.64 1450.39 1147.7 1450.39 Q1153.03 1450.39 1156.13 1452.83 Q1159.23 1455.23 1159.23 1459.35 Q1159.23 1462.22 1157.59 1464.21 Q1155.94 1466.18 1152.91 1466.95 Z" fill="#000000" fill-rule="evenodd" fill-opacity="1" /><path clip-path="url(#clip670)" d="M1168.95 1451.02 L1187.31 1451.02 L1187.31 1454.96 L1173.23 1454.96 L1173.23 1463.43 Q1174.25 1463.08 1175.27 1462.92 Q1176.29 1462.73 1177.31 1462.73 Q1183.1 1462.73 1186.47 1465.9 Q1189.85 1469.08 1189.85 1474.49 Q1189.85 1480.07 1186.38 1483.17 Q1182.91 1486.25 1176.59 1486.25 Q1174.41 1486.25 1172.15 1485.88 Q1169.9 1485.51 1167.49 1484.77 L1167.49 1480.07 Q1169.58 1481.2 1171.8 1481.76 Q1174.02 1482.32 1176.5 1482.32 Q1180.5 1482.32 1182.84 1480.21 Q1185.18 1478.1 1185.18 1474.49 Q1185.18 1470.88 1182.84 1468.77 Q1180.5 1466.67 1176.5 1466.67 Q1174.62 1466.67 1172.75 1467.08 Q1170.9 1467.5 1168.95 1468.38 L1168.95 1451.02 Z" fill="#000000" fill-rule="evenodd" fill-opacity="1" /><path clip-path="url(#clip670)" d="M1196.31 1470.7 L1208.79 1470.7 L1208.79 1474.49 L1196.31 1474.49 L1196.31 1470.7 Z" fill="#000000" fill-rule="evenodd" fill-opacity="1" /><path clip-path="url(#clip670)" d="M1230.34 1466.95 Q1233.7 1467.66 1235.57 1469.93 Q1237.47 1472.2 1237.47 1475.53 Q1237.47 1480.65 1233.95 1483.45 Q1230.43 1486.25 1223.95 1486.25 Q1221.78 1486.25 1219.46 1485.81 Q1217.17 1485.39 1214.72 1484.54 L1214.72 1480.02 Q1216.66 1481.16 1218.97 1481.74 Q1221.29 1482.32 1223.81 1482.32 Q1228.21 1482.32 1230.5 1480.58 Q1232.82 1478.84 1232.82 1475.53 Q1232.82 1472.48 1230.66 1470.77 Q1228.53 1469.03 1224.72 1469.03 L1220.69 1469.03 L1220.69 1465.19 L1224.9 1465.19 Q1228.35 1465.19 1230.18 1463.82 Q1232.01 1462.43 1232.01 1459.84 Q1232.01 1457.18 1230.11 1455.77 Q1228.23 1454.33 1224.72 1454.33 Q1222.79 1454.33 1220.59 1454.75 Q1218.4 1455.16 1215.76 1456.04 L1215.76 1451.88 Q1218.42 1451.14 1220.73 1450.77 Q1223.07 1450.39 1225.13 1450.39 Q1230.46 1450.39 1233.56 1452.83 Q1236.66 1455.23 1236.66 1459.35 Q1236.66 1462.22 1235.02 1464.21 Q1233.37 1466.18 1230.34 1466.95 Z" fill="#000000" fill-rule="evenodd" fill-opacity="1" /><path clip-path="url(#clip670)" d="M1246.47 1484.86 L1246.47 1480.6 Q1248.23 1481.44 1250.04 1481.88 Q1251.84 1482.32 1253.58 1482.32 Q1258.21 1482.32 1260.64 1479.21 Q1263.09 1476.09 1263.44 1469.75 Q1262.1 1471.74 1260.04 1472.8 Q1257.98 1473.87 1255.48 1473.87 Q1250.29 1473.87 1247.26 1470.74 Q1244.25 1467.59 1244.25 1462.15 Q1244.25 1456.83 1247.4 1453.61 Q1250.55 1450.39 1255.78 1450.39 Q1261.78 1450.39 1264.92 1455 Q1268.09 1459.58 1268.09 1468.33 Q1268.09 1476.51 1264.21 1481.39 Q1260.34 1486.25 1253.79 1486.25 Q1252.03 1486.25 1250.22 1485.9 Q1248.42 1485.56 1246.47 1484.86 M1255.78 1470.21 Q1258.93 1470.21 1260.76 1468.06 Q1262.61 1465.9 1262.61 1462.15 Q1262.61 1458.43 1260.76 1456.27 Q1258.93 1454.1 1255.78 1454.1 Q1252.63 1454.1 1250.78 1456.27 Q1248.95 1458.43 1248.95 1462.15 Q1248.95 1465.9 1250.78 1468.06 Q1252.63 1470.21 1255.78 1470.21 Z" fill="#000000" fill-rule="evenodd" fill-opacity="1" /><path clip-path="url(#clip670)" d="M1274.72 1455.09 L1262.92 1473.54 L1274.72 1473.54 L1274.72 1455.09 M1273.5 1451.02 L1279.38 1451.02 L1279.38 1473.54 L1284.31 1473.54 L1284.31 1477.43 L1279.38 1477.43 L1279.38 1485.58 L1274.72 1485.58 L1274.72 1477.43 L1259.12 1477.43 L1259.12 1472.92 L1273.5 1451.02 Z" fill="#000000" fill-rule="evenodd" fill-opacity="1" /><path clip-path="url(#clip670)" d="M1302.04 1454.1 Q1298.43 1454.1 1296.6 1457.66 Q1294.79 1461.2 1294.79 1468.33 Q1294.79 1475.44 1296.6 1479.01 Q1298.43 1482.55 1302.04 1482.55 Q1305.67 1482.55 1307.48 1479.01 Q1309.31 1475.44 1309.31 1468.33 Q1309.31 1461.2 1307.48 1457.66 Q1305.67 1454.1 1302.04 1454.1 M1302.04 1450.39 Q1307.85 1450.39 1310.9 1455 Q1313.98 1459.58 1313.98 1468.33 Q1313.98 1477.06 1310.9 1481.67 Q1307.85 1486.25 1302.04 1486.25 Q1296.23 1486.25 1293.15 1481.67 Q1290.09 1477.06 1290.09 1468.33 Q1290.09 1459.58 1293.15 1455 Q1296.23 1450.39 1302.04 1450.39 Z" fill="#000000" fill-rule="evenodd" fill-opacity="1" /><path clip-path="url(#clip670)" d="M1319.45 1470.7 L1331.92 1470.7 L1331.92 1474.49 L1319.45 1474.49 L1319.45 1470.7 Z" fill="#000000" fill-rule="evenodd" fill-opacity="1" /><path clip-path="url(#clip670)" d="M1352.15 1455.09 L1340.35 1473.54 L1352.15 1473.54 L1352.15 1455.09 M1350.93 1451.02 L1356.81 1451.02 L1356.81 1473.54 L1361.74 1473.54 L1361.74 1477.43 L1356.81 1477.43 L1356.81 1485.58 L1352.15 1485.58 L1352.15 1477.43 L1336.55 1477.43 L1336.55 1472.92 L1350.93 1451.02 Z" fill="#000000" fill-rule="evenodd" fill-opacity="1" /><path clip-path="url(#clip670)" d="M1382.32 1455.09 L1370.51 1473.54 L1382.32 1473.54 L1382.32 1455.09 M1381.09 1451.02 L1386.97 1451.02 L1386.97 1473.54 L1391.9 1473.54 L1391.9 1477.43 L1386.97 1477.43 L1386.97 1485.58 L1382.32 1485.58 L1382.32 1477.43 L1366.71 1477.43 L1366.71 1472.92 L1381.09 1451.02 Z" fill="#000000" fill-rule="evenodd" fill-opacity="1" /><path clip-path="url(#clip670)" d="M1397.88 1455.09 L1386.08 1473.54 L1397.88 1473.54 L1397.88 1455.09 M1396.65 1451.02 L1402.53 1451.02 L1402.53 1473.54 L1407.46 1473.54 L1407.46 1477.43 L1402.53 1477.43 L1402.53 1485.58 L1397.88 1485.58 L1397.88 1477.43 L1382.28 1477.43 L1382.28 1472.92 L1396.65 1451.02 Z" fill="#000000" fill-rule="evenodd" fill-opacity="1" /><path clip-path="url(#clip670)" d="M1415.24 1451.02 L1433.6 1451.02 L1433.6 1454.96 L1419.53 1454.96 L1419.53 1463.43 Q1420.54 1463.08 1421.56 1462.92 Q1422.58 1462.73 1423.6 1462.73 Q1429.39 1462.73 1432.77 1465.9 Q1436.15 1469.08 1436.15 1474.49 Q1436.15 1480.07 1432.67 1483.17 Q1429.2 1486.25 1422.88 1486.25 Q1420.71 1486.25 1418.44 1485.88 Q1416.19 1485.51 1413.78 1484.77 L1413.78 1480.07 Q1415.87 1481.2 1418.09 1481.76 Q1420.31 1482.32 1422.79 1482.32 Q1426.79 1482.32 1429.13 1480.21 Q1431.47 1478.1 1431.47 1474.49 Q1431.47 1470.88 1429.13 1468.77 Q1426.79 1466.67 1422.79 1466.67 Q1420.91 1466.67 1419.04 1467.08 Q1417.19 1467.5 1415.24 1468.38 L1415.24 1451.02 Z" fill="#000000" fill-rule="evenodd" fill-opacity="1" /><path clip-path="url(#clip670)" d="M1442.6 1470.7 L1455.08 1470.7 L1455.08 1474.49 L1442.6 1474.49 L1442.6 1470.7 Z" fill="#000000" fill-rule="evenodd" fill-opacity="1" /><path clip-path="url(#clip670)" d="M1475.31 1455.09 L1463.51 1473.54 L1475.31 1473.54 L1475.31 1455.09 M1474.08 1451.02 L1479.96 1451.02 L1479.96 1473.54 L1484.9 1473.54 L1484.9 1477.43 L1479.96 1477.43 L1479.96 1485.58 L1475.31 1485.58 L1475.31 1477.43 L1459.71 1477.43 L1459.71 1472.92 L1474.08 1451.02 Z" fill="#000000" fill-rule="evenodd" fill-opacity="1" /><path clip-path="url(#clip670)" d="M1492.77 1484.86 L1492.77 1480.6 Q1494.52 1481.44 1496.33 1481.88 Q1498.14 1482.32 1499.87 1482.32 Q1504.5 1482.32 1506.93 1479.21 Q1509.39 1476.09 1509.73 1469.75 Q1508.39 1471.74 1506.33 1472.8 Q1504.27 1473.87 1501.77 1473.87 Q1496.58 1473.87 1493.55 1470.74 Q1490.54 1467.59 1490.54 1462.15 Q1490.54 1456.83 1493.69 1453.61 Q1496.84 1450.39 1502.07 1450.39 Q1508.07 1450.39 1511.21 1455 Q1514.39 1459.58 1514.39 1468.33 Q1514.39 1476.51 1510.5 1481.39 Q1506.63 1486.25 1500.08 1486.25 Q1498.32 1486.25 1496.52 1485.9 Q1494.71 1485.56 1492.77 1484.86 M1502.07 1470.21 Q1505.22 1470.21 1507.05 1468.06 Q1508.9 1465.9 1508.9 1462.15 Q1508.9 1458.43 1507.05 1456.27 Q1505.22 1454.1 1502.07 1454.1 Q1498.92 1454.1 1497.07 1456.27 Q1495.24 1458.43 1495.24 1462.15 Q1495.24 1465.9 1497.07 1468.06 Q1498.92 1470.21 1502.07 1470.21 Z" fill="#000000" fill-rule="evenodd" fill-opacity="1" /><path clip-path="url(#clip670)" d="M1506.9 1451.02 L1525.25 1451.02 L1525.25 1454.96 L1511.18 1454.96 L1511.18 1463.43 Q1512.2 1463.08 1513.21 1462.92 Q1514.23 1462.73 1515.25 1462.73 Q1521.04 1462.73 1524.42 1465.9 Q1527.8 1469.08 1527.8 1474.49 Q1527.8 1480.07 1524.33 1483.17 Q1520.85 1486.25 1514.53 1486.25 Q1512.36 1486.25 1510.09 1485.88 Q1507.84 1485.51 1505.44 1484.77 L1505.44 1480.07 Q1507.52 1481.2 1509.74 1481.76 Q1511.96 1482.32 1514.44 1482.32 Q1518.45 1482.32 1520.78 1480.21 Q1523.12 1478.1 1523.12 1474.49 Q1523.12 1470.88 1520.78 1468.77 Q1518.45 1466.67 1514.44 1466.67 Q1512.57 1466.67 1510.69 1467.08 Q1508.84 1467.5 1506.9 1468.38 L1506.9 1451.02 Z" fill="#000000" fill-rule="evenodd" fill-opacity="1" /><path clip-path="url(#clip670)" d="M1547.01 1454.1 Q1543.4 1454.1 1541.57 1457.66 Q1539.77 1461.2 1539.77 1468.33 Q1539.77 1475.44 1541.57 1479.01 Q1543.4 1482.55 1547.01 1482.55 Q1550.65 1482.55 1552.45 1479.01 Q1554.28 1475.44 1554.28 1468.33 Q1554.28 1461.2 1552.45 1457.66 Q1550.65 1454.1 1547.01 1454.1 M1547.01 1450.39 Q1552.82 1450.39 1555.88 1455 Q1558.96 1459.58 1558.96 1468.33 Q1558.96 1477.06 1555.88 1481.67 Q1552.82 1486.25 1547.01 1486.25 Q1541.2 1486.25 1538.12 1481.67 Q1535.07 1477.06 1535.07 1468.33 Q1535.07 1459.58 1538.12 1455 Q1541.2 1450.39 1547.01 1450.39 Z" fill="#000000" fill-rule="evenodd" fill-opacity="1" /><path clip-path="url(#clip670)" d="M1564.42 1470.7 L1576.9 1470.7 L1576.9 1474.49 L1564.42 1474.49 L1564.42 1470.7 Z" fill="#000000" fill-rule="evenodd" fill-opacity="1" /><path clip-path="url(#clip670)" d="M1584.33 1451.02 L1602.68 1451.02 L1602.68 1454.96 L1588.61 1454.96 L1588.61 1463.43 Q1589.63 1463.08 1590.64 1462.92 Q1591.66 1462.73 1592.68 1462.73 Q1598.47 1462.73 1601.85 1465.9 Q1605.23 1469.08 1605.23 1474.49 Q1605.23 1480.07 1601.76 1483.17 Q1598.28 1486.25 1591.96 1486.25 Q1589.79 1486.25 1587.52 1485.88 Q1585.27 1485.51 1582.87 1484.77 L1582.87 1480.07 Q1584.95 1481.2 1587.17 1481.76 Q1589.39 1482.32 1591.87 1482.32 Q1595.88 1482.32 1598.21 1480.21 Q1600.55 1478.1 1600.55 1474.49 Q1600.55 1470.88 1598.21 1468.77 Q1595.88 1466.67 1591.87 1466.67 Q1590 1466.67 1588.12 1467.08 Q1586.27 1467.5 1584.33 1468.38 L1584.33 1451.02 Z" fill="#000000" fill-rule="evenodd" fill-opacity="1" /><path clip-path="url(#clip670)" d="M1627.29 1455.09 L1615.48 1473.54 L1627.29 1473.54 L1627.29 1455.09 M1626.06 1451.02 L1631.94 1451.02 L1631.94 1473.54 L1636.87 1473.54 L1636.87 1477.43 L1631.94 1477.43 L1631.94 1485.58 L1627.29 1485.58 L1627.29 1477.43 L1611.69 1477.43 L1611.69 1472.92 L1626.06 1451.02 Z" fill="#000000" fill-rule="evenodd" fill-opacity="1" /><path clip-path="url(#clip670)" d="M1630.05 1451.02 L1648.41 1451.02 L1648.41 1454.96 L1634.33 1454.96 L1634.33 1463.43 Q1635.35 1463.08 1636.37 1462.92 Q1637.39 1462.73 1638.41 1462.73 Q1644.2 1462.73 1647.58 1465.9 Q1650.96 1469.08 1650.96 1474.49 Q1650.96 1480.07 1647.48 1483.17 Q1644.01 1486.25 1637.69 1486.25 Q1635.52 1486.25 1633.25 1485.88 Q1631 1485.51 1628.59 1484.77 L1628.59 1480.07 Q1630.68 1481.2 1632.9 1481.76 Q1635.12 1482.32 1637.6 1482.32 Q1641.6 1482.32 1643.94 1480.21 Q1646.28 1478.1 1646.28 1474.49 Q1646.28 1470.88 1643.94 1468.77 Q1641.6 1466.67 1637.6 1466.67 Q1635.72 1466.67 1633.85 1467.08 Q1632 1467.5 1630.05 1468.38 L1630.05 1451.02 Z" fill="#000000" fill-rule="evenodd" fill-opacity="1" /><path clip-path="url(#clip670)" d="M1660.21 1451.02 L1678.57 1451.02 L1678.57 1454.96 L1664.5 1454.96 L1664.5 1463.43 Q1665.52 1463.08 1666.53 1462.92 Q1667.55 1462.73 1668.57 1462.73 Q1674.36 1462.73 1677.74 1465.9 Q1681.12 1469.08 1681.12 1474.49 Q1681.12 1480.07 1677.64 1483.17 Q1674.17 1486.25 1667.85 1486.25 Q1665.68 1486.25 1663.41 1485.88 Q1661.16 1485.51 1658.76 1484.77 L1658.76 1480.07 Q1660.84 1481.2 1663.06 1481.76 Q1665.28 1482.32 1667.76 1482.32 Q1671.77 1482.32 1674.1 1480.21 Q1676.44 1478.1 1676.44 1474.49 Q1676.44 1470.88 1674.1 1468.77 Q1671.77 1466.67 1667.76 1466.67 Q1665.89 1466.67 1664.01 1467.08 Q1662.16 1467.5 1660.21 1468.38 L1660.21 1451.02 Z" fill="#000000" fill-rule="evenodd" fill-opacity="1" /><path clip-path="url(#clip670)" d="M1687.58 1470.7 L1700.05 1470.7 L1700.05 1474.49 L1687.58 1474.49 L1687.58 1470.7 Z" fill="#000000" fill-rule="evenodd" fill-opacity="1" /><path clip-path="url(#clip670)" d="M1707.48 1451.02 L1725.84 1451.02 L1725.84 1454.96 L1711.77 1454.96 L1711.77 1463.43 Q1712.78 1463.08 1713.8 1462.92 Q1714.82 1462.73 1715.84 1462.73 Q1721.63 1462.73 1725.01 1465.9 Q1728.39 1469.08 1728.39 1474.49 Q1728.39 1480.07 1724.91 1483.17 Q1721.44 1486.25 1715.12 1486.25 Q1712.95 1486.25 1710.68 1485.88 Q1708.43 1485.51 1706.02 1484.77 L1706.02 1480.07 Q1708.11 1481.2 1710.33 1481.76 Q1712.55 1482.32 1715.03 1482.32 Q1719.03 1482.32 1721.37 1480.21 Q1723.71 1478.1 1723.71 1474.49 Q1723.71 1470.88 1721.37 1468.77 Q1719.03 1466.67 1715.03 1466.67 Q1713.15 1466.67 1711.28 1467.08 Q1709.43 1467.5 1707.48 1468.38 L1707.48 1451.02 Z" fill="#000000" fill-rule="evenodd" fill-opacity="1" /><path clip-path="url(#clip670)" d="M1737.74 1484.86 L1737.74 1480.6 Q1739.5 1481.44 1741.3 1481.88 Q1743.11 1482.32 1744.84 1482.32 Q1749.47 1482.32 1751.9 1479.21 Q1754.36 1476.09 1754.7 1469.75 Q1753.36 1471.74 1751.3 1472.8 Q1749.24 1473.87 1746.74 1473.87 Q1741.56 1473.87 1738.52 1470.74 Q1735.51 1467.59 1735.51 1462.15 Q1735.51 1456.83 1738.66 1453.61 Q1741.81 1450.39 1747.04 1450.39 Q1753.04 1450.39 1756.19 1455 Q1759.36 1459.58 1759.36 1468.33 Q1759.36 1476.51 1755.47 1481.39 Q1751.6 1486.25 1745.05 1486.25 Q1743.29 1486.25 1741.49 1485.9 Q1739.68 1485.56 1737.74 1484.86 M1747.04 1470.21 Q1750.19 1470.21 1752.02 1468.06 Q1753.87 1465.9 1753.87 1462.15 Q1753.87 1458.43 1752.02 1456.27 Q1750.19 1454.1 1747.04 1454.1 Q1743.89 1454.1 1742.04 1456.27 Q1740.21 1458.43 1740.21 1462.15 Q1740.21 1465.9 1742.04 1468.06 Q1743.89 1470.21 1747.04 1470.21 Z" fill="#000000" fill-rule="evenodd" fill-opacity="1" /><path clip-path="url(#clip670)" d="M1763.24 1466.44 Q1760.1 1466.44 1758.24 1468.59 Q1756.42 1470.74 1756.42 1474.49 Q1756.42 1478.22 1758.24 1480.39 Q1760.1 1482.55 1763.24 1482.55 Q1766.39 1482.55 1768.22 1480.39 Q1770.07 1478.22 1770.07 1474.49 Q1770.07 1470.74 1768.22 1468.59 Q1766.39 1466.44 1763.24 1466.44 M1772.53 1451.78 L1772.53 1456.04 Q1770.77 1455.21 1768.96 1454.77 Q1767.18 1454.33 1765.42 1454.33 Q1760.79 1454.33 1758.34 1457.45 Q1755.91 1460.58 1755.56 1466.9 Q1756.92 1464.89 1758.99 1463.82 Q1761.05 1462.73 1763.52 1462.73 Q1768.73 1462.73 1771.74 1465.9 Q1774.77 1469.05 1774.77 1474.49 Q1774.77 1479.82 1771.62 1483.03 Q1768.48 1486.25 1763.24 1486.25 Q1757.25 1486.25 1754.08 1481.67 Q1750.91 1477.06 1750.91 1468.33 Q1750.91 1460.14 1754.8 1455.28 Q1758.68 1450.39 1765.24 1450.39 Q1766.99 1450.39 1768.78 1450.74 Q1770.58 1451.09 1772.53 1451.78 Z" fill="#000000" fill-rule="evenodd" fill-opacity="1" /><path clip-path="url(#clip670)" d="M1792.83 1454.1 Q1789.22 1454.1 1787.39 1457.66 Q1785.58 1461.2 1785.58 1468.33 Q1785.58 1475.44 1787.39 1479.01 Q1789.22 1482.55 1792.83 1482.55 Q1796.46 1482.55 1798.27 1479.01 Q1800.1 1475.44 1800.1 1468.33 Q1800.1 1461.2 1798.27 1457.66 Q1796.46 1454.1 1792.83 1454.1 M1792.83 1450.39 Q1798.64 1450.39 1801.69 1455 Q1804.77 1459.58 1804.77 1468.33 Q1804.77 1477.06 1801.69 1481.67 Q1798.64 1486.25 1792.83 1486.25 Q1787.02 1486.25 1783.94 1481.67 Q1780.88 1477.06 1780.88 1468.33 Q1780.88 1459.58 1783.94 1455 Q1787.02 1450.39 1792.83 1450.39 Z" fill="#000000" fill-rule="evenodd" fill-opacity="1" /><path clip-path="url(#clip670)" d="M1810.23 1470.7 L1822.71 1470.7 L1822.71 1474.49 L1810.23 1474.49 L1810.23 1470.7 Z" fill="#000000" fill-rule="evenodd" fill-opacity="1" /><path clip-path="url(#clip670)" d="M1840.67 1466.44 Q1837.53 1466.44 1835.67 1468.59 Q1833.85 1470.74 1833.85 1474.49 Q1833.85 1478.22 1835.67 1480.39 Q1837.53 1482.55 1840.67 1482.55 Q1843.82 1482.55 1845.65 1480.39 Q1847.5 1478.22 1847.5 1474.49 Q1847.5 1470.74 1845.65 1468.59 Q1843.82 1466.44 1840.67 1466.44 M1849.96 1451.78 L1849.96 1456.04 Q1848.2 1455.21 1846.39 1454.77 Q1844.61 1454.33 1842.85 1454.33 Q1838.22 1454.33 1835.77 1457.45 Q1833.34 1460.58 1832.99 1466.9 Q1834.36 1464.89 1836.42 1463.82 Q1838.48 1462.73 1840.95 1462.73 Q1846.16 1462.73 1849.17 1465.9 Q1852.2 1469.05 1852.2 1474.49 Q1852.2 1479.82 1849.05 1483.03 Q1845.91 1486.25 1840.67 1486.25 Q1834.68 1486.25 1831.51 1481.67 Q1828.34 1477.06 1828.34 1468.33 Q1828.34 1460.14 1832.23 1455.28 Q1836.11 1450.39 1842.67 1450.39 Q1844.42 1450.39 1846.21 1450.74 Q1848.01 1451.09 1849.96 1451.78 Z" fill="#000000" fill-rule="evenodd" fill-opacity="1" /><path clip-path="url(#clip670)" d="M1873.1 1455.09 L1861.3 1473.54 L1873.1 1473.54 L1873.1 1455.09 M1871.88 1451.02 L1877.76 1451.02 L1877.76 1473.54 L1882.69 1473.54 L1882.69 1477.43 L1877.76 1477.43 L1877.76 1485.58 L1873.1 1485.58 L1873.1 1477.43 L1857.5 1477.43 L1857.5 1472.92 L1871.88 1451.02 Z" fill="#000000" fill-rule="evenodd" fill-opacity="1" /><path clip-path="url(#clip670)" d="M1886.4 1466.44 Q1883.25 1466.44 1881.4 1468.59 Q1879.57 1470.74 1879.57 1474.49 Q1879.57 1478.22 1881.4 1480.39 Q1883.25 1482.55 1886.4 1482.55 Q1889.55 1482.55 1891.38 1480.39 Q1893.23 1478.22 1893.23 1474.49 Q1893.23 1470.74 1891.38 1468.59 Q1889.55 1466.44 1886.4 1466.44 M1895.68 1451.78 L1895.68 1456.04 Q1893.92 1455.21 1892.12 1454.77 Q1890.34 1454.33 1888.58 1454.33 Q1883.95 1454.33 1881.49 1457.45 Q1879.06 1460.58 1878.72 1466.9 Q1880.08 1464.89 1882.14 1463.82 Q1884.2 1462.73 1886.68 1462.73 Q1891.89 1462.73 1894.9 1465.9 Q1897.93 1469.05 1897.93 1474.49 Q1897.93 1479.82 1894.78 1483.03 Q1891.63 1486.25 1886.4 1486.25 Q1880.41 1486.25 1877.23 1481.67 Q1874.06 1477.06 1874.06 1468.33 Q1874.06 1460.14 1877.95 1455.28 Q1881.84 1450.39 1888.39 1450.39 Q1890.15 1450.39 1891.93 1450.74 Q1893.74 1451.09 1895.68 1451.78 Z" fill="#000000" fill-rule="evenodd" fill-opacity="1" /><path clip-path="url(#clip670)" d="M1906.03 1451.02 L1924.39 1451.02 L1924.39 1454.96 L1910.31 1454.96 L1910.31 1463.43 Q1911.33 1463.08 1912.35 1462.92 Q1913.37 1462.73 1914.39 1462.73 Q1920.17 1462.73 1923.55 1465.9 Q1926.93 1469.08 1926.93 1474.49 Q1926.93 1480.07 1923.46 1483.17 Q1919.99 1486.25 1913.67 1486.25 Q1911.49 1486.25 1909.23 1485.88 Q1906.98 1485.51 1904.57 1484.77 L1904.57 1480.07 Q1906.66 1481.2 1908.88 1481.76 Q1911.1 1482.32 1913.58 1482.32 Q1917.58 1482.32 1919.92 1480.21 Q1922.26 1478.1 1922.26 1474.49 Q1922.26 1470.88 1919.92 1468.77 Q1917.58 1466.67 1913.58 1466.67 Q1911.7 1466.67 1909.83 1467.08 Q1907.98 1467.5 1906.03 1468.38 L1906.03 1451.02 Z" fill="#000000" fill-rule="evenodd" fill-opacity="1" /><path clip-path="url(#clip670)" d="M1933.39 1470.7 L1945.87 1470.7 L1945.87 1474.49 L1933.39 1474.49 L1933.39 1470.7 Z" fill="#000000" fill-rule="evenodd" fill-opacity="1" /><path clip-path="url(#clip670)" d="M1963.83 1466.44 Q1960.68 1466.44 1958.83 1468.59 Q1957 1470.74 1957 1474.49 Q1957 1478.22 1958.83 1480.39 Q1960.68 1482.55 1963.83 1482.55 Q1966.98 1482.55 1968.81 1480.39 Q1970.66 1478.22 1970.66 1474.49 Q1970.66 1470.74 1968.81 1468.59 Q1966.98 1466.44 1963.83 1466.44 M1973.11 1451.78 L1973.11 1456.04 Q1971.35 1455.21 1969.55 1454.77 Q1967.77 1454.33 1966.01 1454.33 Q1961.38 1454.33 1958.92 1457.45 Q1956.49 1460.58 1956.15 1466.9 Q1957.51 1464.89 1959.57 1463.82 Q1961.63 1462.73 1964.11 1462.73 Q1969.32 1462.73 1972.33 1465.9 Q1975.36 1469.05 1975.36 1474.49 Q1975.36 1479.82 1972.21 1483.03 Q1969.06 1486.25 1963.83 1486.25 Q1957.84 1486.25 1954.66 1481.67 Q1951.49 1477.06 1951.49 1468.33 Q1951.49 1460.14 1955.38 1455.28 Q1959.27 1450.39 1965.82 1450.39 Q1967.58 1450.39 1969.36 1450.74 Q1971.17 1451.09 1973.11 1451.78 Z" fill="#000000" fill-rule="evenodd" fill-opacity="1" /><path clip-path="url(#clip670)" d="M1983.55 1484.86 L1983.55 1480.6 Q1985.31 1481.44 1987.12 1481.88 Q1988.92 1482.32 1990.66 1482.32 Q1995.29 1482.32 1997.72 1479.21 Q2000.17 1476.09 2000.52 1469.75 Q1999.18 1471.74 1997.12 1472.8 Q1995.06 1473.87 1992.56 1473.87 Q1987.37 1473.87 1984.34 1470.74 Q1981.33 1467.59 1981.33 1462.15 Q1981.33 1456.83 1984.48 1453.61 Q1987.63 1450.39 1992.86 1450.39 Q1998.85 1450.39 2002 1455 Q2005.17 1459.58 2005.17 1468.33 Q2005.17 1476.51 2001.29 1481.39 Q1997.42 1486.25 1990.87 1486.25 Q1989.11 1486.25 1987.3 1485.9 Q1985.5 1485.56 1983.55 1484.86 M1992.86 1470.21 Q1996.01 1470.21 1997.84 1468.06 Q1999.69 1465.9 1999.69 1462.15 Q1999.69 1458.43 1997.84 1456.27 Q1996.01 1454.1 1992.86 1454.1 Q1989.71 1454.1 1987.86 1456.27 Q1986.03 1458.43 1986.03 1462.15 Q1986.03 1465.9 1987.86 1468.06 Q1989.71 1470.21 1992.86 1470.21 Z" fill="#000000" fill-rule="evenodd" fill-opacity="1" /><path clip-path="url(#clip670)" d="M1996.84 1451.02 L2019.06 1451.02 L2019.06 1453.01 L2006.51 1485.58 L2001.63 1485.58 L2013.44 1454.96 L1996.84 1454.96 L1996.84 1451.02 Z" fill="#000000" fill-rule="evenodd" fill-opacity="1" /><path clip-path="url(#clip670)" d="M2038.18 1454.1 Q2034.57 1454.1 2032.74 1457.66 Q2030.94 1461.2 2030.94 1468.33 Q2030.94 1475.44 2032.74 1479.01 Q2034.57 1482.55 2038.18 1482.55 Q2041.82 1482.55 2043.62 1479.01 Q2045.45 1475.44 2045.45 1468.33 Q2045.45 1461.2 2043.62 1457.66 Q2041.82 1454.1 2038.18 1454.1 M2038.18 1450.39 Q2043.99 1450.39 2047.05 1455 Q2050.13 1459.58 2050.13 1468.33 Q2050.13 1477.06 2047.05 1481.67 Q2043.99 1486.25 2038.18 1486.25 Q2032.37 1486.25 2029.29 1481.67 Q2026.24 1477.06 2026.24 1468.33 Q2026.24 1459.58 2029.29 1455 Q2032.37 1450.39 2038.18 1450.39 Z" fill="#000000" fill-rule="evenodd" fill-opacity="1" /><path clip-path="url(#clip670)" d="M2055.59 1470.7 L2068.07 1470.7 L2068.07 1474.49 L2055.59 1474.49 L2055.59 1470.7 Z" fill="#000000" fill-rule="evenodd" fill-opacity="1" /><path clip-path="url(#clip670)" d="M2074.27 1451.02 L2096.49 1451.02 L2096.49 1453.01 L2083.94 1485.58 L2079.06 1485.58 L2090.87 1454.96 L2074.27 1454.96 L2074.27 1451.02 Z" fill="#000000" fill-rule="evenodd" fill-opacity="1" /><path clip-path="url(#clip670)" d="M2118.46 1455.09 L2106.65 1473.54 L2118.46 1473.54 L2118.46 1455.09 M2117.23 1451.02 L2123.11 1451.02 L2123.11 1473.54 L2128.04 1473.54 L2128.04 1477.43 L2123.11 1477.43 L2123.11 1485.58 L2118.46 1485.58 L2118.46 1477.43 L2102.86 1477.43 L2102.86 1472.92 L2117.23 1451.02 Z" fill="#000000" fill-rule="evenodd" fill-opacity="1" /><path clip-path="url(#clip670)" d="M2120 1451.02 L2142.22 1451.02 L2142.22 1453.01 L2129.67 1485.58 L2124.79 1485.58 L2136.59 1454.96 L2120 1454.96 L2120 1451.02 Z" fill="#000000" fill-rule="evenodd" fill-opacity="1" /><path clip-path="url(#clip670)" d="M2151.38 1451.02 L2169.74 1451.02 L2169.74 1454.96 L2155.67 1454.96 L2155.67 1463.43 Q2156.69 1463.08 2157.7 1462.92 Q2158.72 1462.73 2159.74 1462.73 Q2165.53 1462.73 2168.91 1465.9 Q2172.29 1469.08 2172.29 1474.49 Q2172.29 1480.07 2168.82 1483.17 Q2165.34 1486.25 2159.02 1486.25 Q2156.85 1486.25 2154.58 1485.88 Q2152.33 1485.51 2149.93 1484.77 L2149.93 1480.07 Q2152.01 1481.2 2154.23 1481.76 Q2156.45 1482.32 2158.93 1482.32 Q2162.94 1482.32 2165.27 1480.21 Q2167.61 1478.1 2167.61 1474.49 Q2167.61 1470.88 2165.27 1468.77 Q2162.94 1466.67 2158.93 1466.67 Q2157.06 1466.67 2155.18 1467.08 Q2153.33 1467.5 2151.38 1468.38 L2151.38 1451.02 Z" fill="#000000" fill-rule="evenodd" fill-opacity="1" /><path clip-path="url(#clip670)" d="M2178.75 1470.7 L2191.22 1470.7 L2191.22 1474.49 L2178.75 1474.49 L2178.75 1470.7 Z" fill="#000000" fill-rule="evenodd" fill-opacity="1" /><path clip-path="url(#clip670)" d="M2197.43 1451.02 L2219.65 1451.02 L2219.65 1453.01 L2207.1 1485.58 L2202.22 1485.58 L2214.02 1454.96 L2197.43 1454.96 L2197.43 1451.02 Z" fill="#000000" fill-rule="evenodd" fill-opacity="1" /><path clip-path="url(#clip670)" d="M2228.91 1484.86 L2228.91 1480.6 Q2230.67 1481.44 2232.47 1481.88 Q2234.28 1482.32 2236.01 1482.32 Q2240.64 1482.32 2243.07 1479.21 Q2245.53 1476.09 2245.87 1469.75 Q2244.53 1471.74 2242.47 1472.8 Q2240.41 1473.87 2237.91 1473.87 Q2232.73 1473.87 2229.69 1470.74 Q2226.69 1467.59 2226.69 1462.15 Q2226.69 1456.83 2229.83 1453.61 Q2232.98 1450.39 2238.21 1450.39 Q2244.21 1450.39 2247.36 1455 Q2250.53 1459.58 2250.53 1468.33 Q2250.53 1476.51 2246.64 1481.39 Q2242.77 1486.25 2236.22 1486.25 Q2234.46 1486.25 2232.66 1485.9 Q2230.85 1485.56 2228.91 1484.86 M2238.21 1470.21 Q2241.36 1470.21 2243.19 1468.06 Q2245.04 1465.9 2245.04 1462.15 Q2245.04 1458.43 2243.19 1456.27 Q2241.36 1454.1 2238.21 1454.1 Q2235.06 1454.1 2233.21 1456.27 Q2231.38 1458.43 2231.38 1462.15 Q2231.38 1465.9 2233.21 1468.06 Q2235.06 1470.21 2238.21 1470.21 Z" fill="#000000" fill-rule="evenodd" fill-opacity="1" /><path clip-path="url(#clip670)" d="M1119.85 1526.86 L1111.13 1550.51 L1128.61 1550.51 L1119.85 1526.86 M1116.23 1520.52 L1123.51 1520.52 L1141.62 1568.04 L1134.94 1568.04 L1130.61 1555.85 L1109.19 1555.85 L1104.86 1568.04 L1098.08 1568.04 L1116.23 1520.52 Z" fill="#000000" fill-rule="evenodd" fill-opacity="1" /><path clip-path="url(#clip670)" d="M1171.77 1549.81 Q1171.77 1543.44 1169.12 1539.94 Q1166.51 1536.44 1161.77 1536.44 Q1157.06 1536.44 1154.42 1539.94 Q1151.81 1543.44 1151.81 1549.81 Q1151.81 1556.14 1154.42 1559.64 Q1157.06 1563.14 1161.77 1563.14 Q1166.51 1563.14 1169.12 1559.64 Q1171.77 1556.14 1171.77 1549.81 M1177.62 1563.62 Q1177.62 1572.72 1173.58 1577.15 Q1169.54 1581.6 1161.2 1581.6 Q1158.11 1581.6 1155.37 1581.13 Q1152.64 1580.68 1150.06 1579.72 L1150.06 1574.03 Q1152.64 1575.43 1155.15 1576.1 Q1157.67 1576.76 1160.28 1576.76 Q1166.04 1576.76 1168.9 1573.74 Q1171.77 1570.75 1171.77 1564.67 L1171.77 1561.77 Q1169.95 1564.92 1167.12 1566.48 Q1164.29 1568.04 1160.34 1568.04 Q1153.78 1568.04 1149.77 1563.05 Q1145.76 1558.05 1145.76 1549.81 Q1145.76 1541.53 1149.77 1536.53 Q1153.78 1531.54 1160.34 1531.54 Q1164.29 1531.54 1167.12 1533.1 Q1169.95 1534.66 1171.77 1537.81 L1171.77 1532.4 L1177.62 1532.4 L1177.62 1563.62 Z" fill="#000000" fill-rule="evenodd" fill-opacity="1" /><path clip-path="url(#clip670)" d="M1220.18 1548.76 L1220.18 1551.62 L1193.25 1551.62 Q1193.63 1557.67 1196.88 1560.85 Q1200.16 1564 1205.98 1564 Q1209.36 1564 1212.51 1563.17 Q1215.69 1562.35 1218.81 1560.69 L1218.81 1566.23 Q1215.66 1567.57 1212.35 1568.27 Q1209.04 1568.97 1205.63 1568.97 Q1197.1 1568.97 1192.1 1564 Q1187.14 1559.04 1187.14 1550.57 Q1187.14 1541.82 1191.85 1536.69 Q1196.59 1531.54 1204.61 1531.54 Q1211.81 1531.54 1215.98 1536.18 Q1220.18 1540.8 1220.18 1548.76 M1214.32 1547.04 Q1214.26 1542.23 1211.62 1539.37 Q1209.01 1536.5 1204.68 1536.5 Q1199.78 1536.5 1196.82 1539.27 Q1193.89 1542.04 1193.44 1547.07 L1214.32 1547.04 Z" fill="#000000" fill-rule="evenodd" fill-opacity="1" /><path clip-path="url(#clip670)" d="M1273.97 1549.81 Q1273.97 1543.44 1271.33 1539.94 Q1268.72 1536.44 1263.97 1536.44 Q1259.26 1536.44 1256.62 1539.94 Q1254.01 1543.44 1254.01 1549.81 Q1254.01 1556.14 1256.62 1559.64 Q1259.26 1563.14 1263.97 1563.14 Q1268.72 1563.14 1271.33 1559.64 Q1273.97 1556.14 1273.97 1549.81 M1279.82 1563.62 Q1279.82 1572.72 1275.78 1577.15 Q1271.74 1581.6 1263.4 1581.6 Q1260.31 1581.6 1257.58 1581.13 Q1254.84 1580.68 1252.26 1579.72 L1252.26 1574.03 Q1254.84 1575.43 1257.35 1576.1 Q1259.87 1576.76 1262.48 1576.76 Q1268.24 1576.76 1271.1 1573.74 Q1273.97 1570.75 1273.97 1564.67 L1273.97 1561.77 Q1272.15 1564.92 1269.32 1566.48 Q1266.49 1568.04 1262.54 1568.04 Q1255.98 1568.04 1251.97 1563.05 Q1247.96 1558.05 1247.96 1549.81 Q1247.96 1541.53 1251.97 1536.53 Q1255.98 1531.54 1262.54 1531.54 Q1266.49 1531.54 1269.32 1533.1 Q1272.15 1534.66 1273.97 1537.81 L1273.97 1532.4 L1279.82 1532.4 L1279.82 1563.62 Z" fill="#000000" fill-rule="evenodd" fill-opacity="1" /><path clip-path="url(#clip670)" d="M1312.54 1537.87 Q1311.56 1537.3 1310.38 1537.04 Q1309.23 1536.76 1307.83 1536.76 Q1302.87 1536.76 1300.19 1540 Q1297.55 1543.22 1297.55 1549.27 L1297.55 1568.04 L1291.66 1568.04 L1291.66 1532.4 L1297.55 1532.4 L1297.55 1537.93 Q1299.4 1534.69 1302.36 1533.13 Q1305.32 1531.54 1309.55 1531.54 Q1310.16 1531.54 1310.89 1531.63 Q1311.62 1531.7 1312.51 1531.85 L1312.54 1537.87 Z" fill="#000000" fill-rule="evenodd" fill-opacity="1" /><path clip-path="url(#clip670)" d="M1331.07 1536.5 Q1326.36 1536.5 1323.62 1540.19 Q1320.88 1543.85 1320.88 1550.25 Q1320.88 1556.65 1323.59 1560.34 Q1326.33 1564 1331.07 1564 Q1335.75 1564 1338.48 1560.31 Q1341.22 1556.62 1341.22 1550.25 Q1341.22 1543.92 1338.48 1540.23 Q1335.75 1536.5 1331.07 1536.5 M1331.07 1531.54 Q1338.71 1531.54 1343.07 1536.5 Q1347.43 1541.47 1347.43 1550.25 Q1347.43 1559 1343.07 1564 Q1338.71 1568.97 1331.07 1568.97 Q1323.4 1568.97 1319.04 1564 Q1314.71 1559 1314.71 1550.25 Q1314.71 1541.47 1319.04 1536.5 Q1323.4 1531.54 1331.07 1531.54 Z" fill="#000000" fill-rule="evenodd" fill-opacity="1" /><path clip-path="url(#clip670)" d="M1356.53 1553.98 L1356.53 1532.4 L1362.39 1532.4 L1362.39 1553.75 Q1362.39 1558.81 1364.36 1561.36 Q1366.33 1563.87 1370.28 1563.87 Q1375.02 1563.87 1377.76 1560.85 Q1380.53 1557.83 1380.53 1552.61 L1380.53 1532.4 L1386.39 1532.4 L1386.39 1568.04 L1380.53 1568.04 L1380.53 1562.57 Q1378.4 1565.82 1375.56 1567.41 Q1372.76 1568.97 1369.04 1568.97 Q1362.9 1568.97 1359.71 1565.15 Q1356.53 1561.33 1356.53 1553.98 M1371.27 1531.54 L1371.27 1531.54 Z" fill="#000000" fill-rule="evenodd" fill-opacity="1" /><path clip-path="url(#clip670)" d="M1404.11 1562.7 L1404.11 1581.6 L1398.23 1581.6 L1398.23 1532.4 L1404.11 1532.4 L1404.11 1537.81 Q1405.96 1534.62 1408.76 1533.1 Q1411.59 1531.54 1415.51 1531.54 Q1422 1531.54 1426.04 1536.69 Q1430.12 1541.85 1430.12 1550.25 Q1430.12 1558.65 1426.04 1563.81 Q1422 1568.97 1415.51 1568.97 Q1411.59 1568.97 1408.76 1567.44 Q1405.96 1565.88 1404.11 1562.7 M1424.04 1550.25 Q1424.04 1543.79 1421.37 1540.13 Q1418.72 1536.44 1414.08 1536.44 Q1409.43 1536.44 1406.76 1540.13 Q1404.11 1543.79 1404.11 1550.25 Q1404.11 1556.71 1406.76 1560.4 Q1409.43 1564.07 1414.08 1564.07 Q1418.72 1564.07 1421.37 1560.4 Q1424.04 1556.71 1424.04 1550.25 Z" fill="#000000" fill-rule="evenodd" fill-opacity="1" /><polyline clip-path="url(#clip670)" style="stroke:#000000; stroke-linecap:butt; stroke-linejoin:round; stroke-width:4; stroke-opacity:1; fill:none" points="
  175.445,1423.18 175.445,123.472 
  "/>
<polyline clip-path="url(#clip670)" style="stroke:#000000; stroke-linecap:butt; stroke-linejoin:round; stroke-width:4; stroke-opacity:1; fill:none" points="
  175.445,1386.4 194.343,1386.4 
  "/>
<polyline clip-path="url(#clip670)" style="stroke:#000000; stroke-linecap:butt; stroke-linejoin:round; stroke-width:4; stroke-opacity:1; fill:none" points="
  175.445,1193.28 194.343,1193.28 
  "/>
<polyline clip-path="url(#clip670)" style="stroke:#000000; stroke-linecap:butt; stroke-linejoin:round; stroke-width:4; stroke-opacity:1; fill:none" points="
  175.445,1000.16 194.343,1000.16 
  "/>
<polyline clip-path="url(#clip670)" style="stroke:#000000; stroke-linecap:butt; stroke-linejoin:round; stroke-width:4; stroke-opacity:1; fill:none" points="
  175.445,807.046 194.343,807.046 
  "/>
<polyline clip-path="url(#clip670)" style="stroke:#000000; stroke-linecap:butt; stroke-linejoin:round; stroke-width:4; stroke-opacity:1; fill:none" points="
  175.445,613.93 194.343,613.93 
  "/>
<polyline clip-path="url(#clip670)" style="stroke:#000000; stroke-linecap:butt; stroke-linejoin:round; stroke-width:4; stroke-opacity:1; fill:none" points="
  175.445,420.814 194.343,420.814 
  "/>
<polyline clip-path="url(#clip670)" style="stroke:#000000; stroke-linecap:butt; stroke-linejoin:round; stroke-width:4; stroke-opacity:1; fill:none" points="
  175.445,227.697 194.343,227.697 
  "/>
<path clip-path="url(#clip670)" d="M127.501 1372.19 Q123.89 1372.19 122.061 1375.76 Q120.255 1379.3 120.255 1386.43 Q120.255 1393.54 122.061 1397.1 Q123.89 1400.64 127.501 1400.64 Q131.135 1400.64 132.941 1397.1 Q134.769 1393.54 134.769 1386.43 Q134.769 1379.3 132.941 1375.76 Q131.135 1372.19 127.501 1372.19 M127.501 1368.49 Q133.311 1368.49 136.367 1373.1 Q139.445 1377.68 139.445 1386.43 Q139.445 1395.16 136.367 1399.76 Q133.311 1404.35 127.501 1404.35 Q121.691 1404.35 118.612 1399.76 Q115.556 1395.16 115.556 1386.43 Q115.556 1377.68 118.612 1373.1 Q121.691 1368.49 127.501 1368.49 Z" fill="#000000" fill-rule="evenodd" fill-opacity="1" /><path clip-path="url(#clip670)" d="M119.538 1206.62 L127.177 1206.62 L127.177 1180.26 L118.867 1181.93 L118.867 1177.67 L127.13 1176 L131.806 1176 L131.806 1206.62 L139.445 1206.62 L139.445 1210.56 L119.538 1210.56 L119.538 1206.62 Z" fill="#000000" fill-rule="evenodd" fill-opacity="1" /><path clip-path="url(#clip670)" d="M123.126 1013.51 L139.445 1013.51 L139.445 1017.44 L117.501 1017.44 L117.501 1013.51 Q120.163 1010.75 124.746 1006.12 Q129.353 1001.47 130.533 1000.13 Q132.779 997.605 133.658 995.869 Q134.561 994.11 134.561 992.42 Q134.561 989.665 132.617 987.929 Q130.695 986.193 127.593 986.193 Q125.394 986.193 122.941 986.957 Q120.51 987.721 117.732 989.272 L117.732 984.55 Q120.556 983.415 123.01 982.837 Q125.464 982.258 127.501 982.258 Q132.871 982.258 136.066 984.943 Q139.26 987.628 139.26 992.119 Q139.26 994.249 138.45 996.17 Q137.663 998.068 135.556 1000.66 Q134.978 1001.33 131.876 1004.55 Q128.774 1007.74 123.126 1013.51 Z" fill="#000000" fill-rule="evenodd" fill-opacity="1" /><path clip-path="url(#clip670)" d="M132.316 805.692 Q135.672 806.41 137.547 808.678 Q139.445 810.947 139.445 814.28 Q139.445 819.396 135.927 822.197 Q132.408 824.998 125.927 824.998 Q123.751 824.998 121.436 824.558 Q119.144 824.141 116.691 823.285 L116.691 818.771 Q118.635 819.905 120.95 820.484 Q123.265 821.063 125.788 821.063 Q130.186 821.063 132.478 819.327 Q134.792 817.59 134.792 814.28 Q134.792 811.225 132.64 809.512 Q130.51 807.776 126.691 807.776 L122.663 807.776 L122.663 803.933 L126.876 803.933 Q130.325 803.933 132.154 802.567 Q133.982 801.178 133.982 798.586 Q133.982 795.924 132.084 794.512 Q130.209 793.077 126.691 793.077 Q124.769 793.077 122.57 793.493 Q120.371 793.91 117.732 794.79 L117.732 790.623 Q120.394 789.882 122.709 789.512 Q125.047 789.142 127.107 789.142 Q132.431 789.142 135.533 791.572 Q138.635 793.979 138.635 798.1 Q138.635 800.97 136.992 802.961 Q135.348 804.928 132.316 805.692 Z" fill="#000000" fill-rule="evenodd" fill-opacity="1" /><path clip-path="url(#clip670)" d="M129.862 600.724 L118.056 619.173 L129.862 619.173 L129.862 600.724 M128.635 596.65 L134.515 596.65 L134.515 619.173 L139.445 619.173 L139.445 623.062 L134.515 623.062 L134.515 631.21 L129.862 631.21 L129.862 623.062 L114.26 623.062 L114.26 618.548 L128.635 596.65 Z" fill="#000000" fill-rule="evenodd" fill-opacity="1" /><path clip-path="url(#clip670)" d="M118.543 403.534 L136.899 403.534 L136.899 407.469 L122.825 407.469 L122.825 415.941 Q123.843 415.594 124.862 415.432 Q125.88 415.247 126.899 415.247 Q132.686 415.247 136.066 418.418 Q139.445 421.589 139.445 427.006 Q139.445 432.584 135.973 435.686 Q132.501 438.765 126.181 438.765 Q124.005 438.765 121.737 438.395 Q119.492 438.024 117.084 437.284 L117.084 432.584 Q119.168 433.719 121.39 434.274 Q123.612 434.83 126.089 434.83 Q130.093 434.83 132.431 432.723 Q134.769 430.617 134.769 427.006 Q134.769 423.395 132.431 421.288 Q130.093 419.182 126.089 419.182 Q124.214 419.182 122.339 419.598 Q120.487 420.015 118.543 420.895 L118.543 403.534 Z" fill="#000000" fill-rule="evenodd" fill-opacity="1" /><path clip-path="url(#clip670)" d="M127.917 225.834 Q124.769 225.834 122.918 227.987 Q121.089 230.139 121.089 233.889 Q121.089 237.616 122.918 239.792 Q124.769 241.945 127.917 241.945 Q131.066 241.945 132.894 239.792 Q134.746 237.616 134.746 233.889 Q134.746 230.139 132.894 227.987 Q131.066 225.834 127.917 225.834 M137.2 211.181 L137.2 215.44 Q135.441 214.607 133.635 214.167 Q131.853 213.728 130.093 213.728 Q125.464 213.728 123.01 216.852 Q120.58 219.977 120.232 226.297 Q121.598 224.283 123.658 223.218 Q125.718 222.13 128.195 222.13 Q133.404 222.13 136.413 225.302 Q139.445 228.45 139.445 233.889 Q139.445 239.213 136.297 242.431 Q133.149 245.649 127.917 245.649 Q121.922 245.649 118.751 241.065 Q115.58 236.459 115.58 227.732 Q115.58 219.538 119.468 214.677 Q123.357 209.792 129.908 209.792 Q131.667 209.792 133.45 210.14 Q135.255 210.487 137.2 211.181 Z" fill="#000000" fill-rule="evenodd" fill-opacity="1" /><path clip-path="url(#clip670)" d="M20.1444 1059.02 L26.9239 1059.02 Q23.9002 1062.27 22.4043 1065.96 Q20.9083 1069.62 20.9083 1073.76 Q20.9083 1081.9 25.9054 1086.23 Q30.8707 1090.56 40.2919 1090.56 Q49.6813 1090.56 54.6784 1086.23 Q59.6436 1081.9 59.6436 1073.76 Q59.6436 1069.62 58.1477 1065.96 Q56.6518 1062.27 53.6281 1059.02 L60.3439 1059.02 Q62.6355 1062.39 63.7814 1066.18 Q64.9272 1069.94 64.9272 1074.14 Q64.9272 1084.93 58.3387 1091.13 Q51.7183 1097.34 40.2919 1097.34 Q28.8336 1097.34 22.2451 1091.13 Q15.6248 1084.93 15.6248 1074.14 Q15.6248 1069.87 16.7706 1066.12 Q17.8846 1062.33 20.1444 1059.02 Z" fill="#000000" fill-rule="evenodd" fill-opacity="1" /><path clip-path="url(#clip670)" d="M32.4621 1035.53 Q32.4621 1040.24 36.1542 1042.98 Q39.8145 1045.71 46.212 1045.71 Q52.6095 1045.71 56.3017 1043.01 Q59.9619 1040.27 59.9619 1035.53 Q59.9619 1030.85 56.2698 1028.11 Q52.5777 1025.38 46.212 1025.38 Q39.8781 1025.38 36.186 1028.11 Q32.4621 1030.85 32.4621 1035.53 M27.4968 1035.53 Q27.4968 1027.89 32.4621 1023.53 Q37.4273 1019.17 46.212 1019.17 Q54.9649 1019.17 59.9619 1023.53 Q64.9272 1027.89 64.9272 1035.53 Q64.9272 1043.2 59.9619 1047.56 Q54.9649 1051.89 46.212 1051.89 Q37.4273 1051.89 32.4621 1047.56 Q27.4968 1043.2 27.4968 1035.53 Z" fill="#000000" fill-rule="evenodd" fill-opacity="1" /><path clip-path="url(#clip670)" d="M42.4881 979.83 L64.0042 979.83 L64.0042 985.686 L42.679 985.686 Q37.6183 985.686 35.1038 987.659 Q32.5894 989.633 32.5894 993.579 Q32.5894 998.322 35.6131 1001.06 Q38.6368 1003.8 43.8567 1003.8 L64.0042 1003.8 L64.0042 1009.68 L28.3562 1009.68 L28.3562 1003.8 L33.8944 1003.8 Q30.6797 1001.7 29.0883 998.863 Q27.4968 995.998 27.4968 992.274 Q27.4968 986.132 31.3163 982.981 Q35.1038 979.83 42.4881 979.83 Z" fill="#000000" fill-rule="evenodd" fill-opacity="1" /><path clip-path="url(#clip670)" d="M18.2347 962.356 L28.3562 962.356 L28.3562 950.293 L32.9077 950.293 L32.9077 962.356 L52.2594 962.356 Q56.6199 962.356 57.8613 961.178 Q59.1026 959.969 59.1026 956.308 L59.1026 950.293 L64.0042 950.293 L64.0042 956.308 Q64.0042 963.088 61.4897 965.666 Q58.9434 968.244 52.2594 968.244 L32.9077 968.244 L32.9077 972.541 L28.3562 972.541 L28.3562 968.244 L18.2347 968.244 L18.2347 962.356 Z" fill="#000000" fill-rule="evenodd" fill-opacity="1" /><path clip-path="url(#clip670)" d="M46.0847 926.389 Q46.0847 933.487 47.7079 936.224 Q49.3312 938.962 53.2461 938.962 Q56.3653 938.962 58.2114 936.925 Q60.0256 934.856 60.0256 931.323 Q60.0256 926.453 56.5881 923.525 Q53.1188 920.565 47.3897 920.565 L46.0847 920.565 L46.0847 926.389 M43.6657 914.708 L64.0042 914.708 L64.0042 920.565 L58.5933 920.565 Q61.8398 922.57 63.3994 925.562 Q64.9272 928.554 64.9272 932.882 Q64.9272 938.357 61.8716 941.603 Q58.7843 944.818 53.6281 944.818 Q47.6125 944.818 44.5569 940.808 Q41.5014 936.766 41.5014 928.777 L41.5014 920.565 L40.9285 920.565 Q36.8862 920.565 34.6901 923.238 Q32.4621 925.88 32.4621 930.686 Q32.4621 933.742 33.1941 936.638 Q33.9262 939.535 35.3903 942.208 L29.9795 942.208 Q28.7381 938.993 28.1334 935.97 Q27.4968 932.946 27.4968 930.082 Q27.4968 922.347 31.5072 918.528 Q35.5176 914.708 43.6657 914.708 Z" fill="#000000" fill-rule="evenodd" fill-opacity="1" /><path clip-path="url(#clip670)" d="M29.7248 876.992 L35.1993 876.992 Q33.8307 879.474 33.1623 881.989 Q32.4621 884.471 32.4621 887.018 Q32.4621 892.715 36.0905 895.866 Q39.6872 899.017 46.212 899.017 Q52.7369 899.017 56.3653 895.866 Q59.9619 892.715 59.9619 887.018 Q59.9619 884.471 59.2935 881.989 Q58.5933 879.474 57.2247 876.992 L62.6355 876.992 Q63.7814 879.442 64.3543 882.084 Q64.9272 884.694 64.9272 887.654 Q64.9272 895.707 59.8664 900.449 Q54.8057 905.192 46.212 905.192 Q37.491 905.192 32.4939 900.417 Q27.4968 895.611 27.4968 887.272 Q27.4968 884.567 28.0697 881.989 Q28.6108 879.41 29.7248 876.992 Z" fill="#000000" fill-rule="evenodd" fill-opacity="1" /><path clip-path="url(#clip670)" d="M18.2347 861.014 L28.3562 861.014 L28.3562 848.951 L32.9077 848.951 L32.9077 861.014 L52.2594 861.014 Q56.6199 861.014 57.8613 859.836 Q59.1026 858.626 59.1026 854.966 L59.1026 848.951 L64.0042 848.951 L64.0042 854.966 Q64.0042 861.746 61.4897 864.324 Q58.9434 866.902 52.2594 866.902 L32.9077 866.902 L32.9077 871.199 L28.3562 871.199 L28.3562 866.902 L18.2347 866.902 L18.2347 861.014 Z" fill="#000000" fill-rule="evenodd" fill-opacity="1" /><path clip-path="url(#clip670)" d="M14.479 802.481 L19.3487 802.481 L19.3487 808.083 Q19.3487 811.234 20.6219 812.475 Q21.895 813.685 25.2052 813.685 L28.3562 813.685 L28.3562 804.041 L32.9077 804.041 L32.9077 813.685 L64.0042 813.685 L64.0042 819.573 L32.9077 819.573 L32.9077 825.175 L28.3562 825.175 L28.3562 819.573 L25.8736 819.573 Q19.9216 819.573 17.2162 816.804 Q14.479 814.035 14.479 808.019 L14.479 802.481 Z" fill="#000000" fill-rule="evenodd" fill-opacity="1" /><path clip-path="url(#clip670)" d="M33.8307 776.923 Q33.2578 777.909 33.0032 779.087 Q32.7167 780.233 32.7167 781.633 Q32.7167 786.598 35.9632 789.272 Q39.1779 791.914 45.2253 791.914 L64.0042 791.914 L64.0042 797.802 L28.3562 797.802 L28.3562 791.914 L33.8944 791.914 Q30.6479 790.068 29.0883 787.108 Q27.4968 784.148 27.4968 779.914 Q27.4968 779.31 27.5923 778.578 Q27.656 777.846 27.8151 776.954 L33.8307 776.923 Z" fill="#000000" fill-rule="evenodd" fill-opacity="1" /><path clip-path="url(#clip670)" d="M44.7161 741.72 L47.5806 741.72 L47.5806 768.647 Q53.6281 768.265 56.8109 765.019 Q59.9619 761.74 59.9619 755.916 Q59.9619 752.542 59.1344 749.391 Q58.3069 746.208 56.6518 743.089 L62.1899 743.089 Q63.5267 746.24 64.227 749.55 Q64.9272 752.86 64.9272 756.266 Q64.9272 764.796 59.9619 769.793 Q54.9967 774.758 46.5303 774.758 Q37.7774 774.758 32.6531 770.048 Q27.4968 765.305 27.4968 757.284 Q27.4968 750.091 32.1438 745.922 Q36.7589 741.72 44.7161 741.72 M42.9973 747.577 Q38.1912 747.64 35.3266 750.282 Q32.4621 752.892 32.4621 757.221 Q32.4621 762.122 35.2312 765.082 Q38.0002 768.011 43.0292 768.456 L42.9973 747.577 Z" fill="#000000" fill-rule="evenodd" fill-opacity="1" /><path clip-path="url(#clip670)" d="M46.212 728.607 Q52.6732 728.607 56.3653 725.965 Q60.0256 723.292 60.0256 718.645 Q60.0256 713.998 56.3653 711.324 Q52.6732 708.65 46.212 708.65 Q39.7508 708.65 36.0905 711.324 Q32.3984 713.998 32.3984 718.645 Q32.3984 723.292 36.0905 725.965 Q39.7508 728.607 46.212 728.607 M58.657 708.65 Q61.8398 710.496 63.3994 713.329 Q64.9272 716.13 64.9272 720.077 Q64.9272 726.538 59.771 730.612 Q54.6147 734.654 46.212 734.654 Q37.8093 734.654 32.6531 730.612 Q27.4968 726.538 27.4968 720.077 Q27.4968 716.13 29.0564 713.329 Q30.5842 710.496 33.7671 708.65 L28.3562 708.65 L28.3562 702.794 L77.5631 702.794 L77.5631 708.65 L58.657 708.65 Z" fill="#000000" fill-rule="evenodd" fill-opacity="1" /><path clip-path="url(#clip670)" d="M49.9359 691.336 L28.3562 691.336 L28.3562 685.479 L49.7131 685.479 Q54.7739 685.479 57.3202 683.506 Q59.8346 681.532 59.8346 677.586 Q59.8346 672.843 56.8109 670.106 Q53.7872 667.337 48.5673 667.337 L28.3562 667.337 L28.3562 661.481 L64.0042 661.481 L64.0042 667.337 L58.5296 667.337 Q61.7762 669.469 63.3676 672.302 Q64.9272 675.103 64.9272 678.827 Q64.9272 684.97 61.1078 688.153 Q57.2883 691.336 49.9359 691.336 M27.4968 676.599 L27.4968 676.599 Z" fill="#000000" fill-rule="evenodd" fill-opacity="1" /><path clip-path="url(#clip670)" d="M44.7161 618.926 L47.5806 618.926 L47.5806 645.853 Q53.6281 645.471 56.8109 642.224 Q59.9619 638.946 59.9619 633.121 Q59.9619 629.747 59.1344 626.596 Q58.3069 623.414 56.6518 620.294 L62.1899 620.294 Q63.5267 623.445 64.227 626.756 Q64.9272 630.066 64.9272 633.471 Q64.9272 642.001 59.9619 646.999 Q54.9967 651.964 46.5303 651.964 Q37.7774 651.964 32.6531 647.253 Q27.4968 642.511 27.4968 634.49 Q27.4968 627.297 32.1438 623.127 Q36.7589 618.926 44.7161 618.926 M42.9973 624.782 Q38.1912 624.846 35.3266 627.488 Q32.4621 630.098 32.4621 634.426 Q32.4621 639.328 35.2312 642.288 Q38.0002 645.216 43.0292 645.662 L42.9973 624.782 Z" fill="#000000" fill-rule="evenodd" fill-opacity="1" /><path clip-path="url(#clip670)" d="M42.4881 579.681 L64.0042 579.681 L64.0042 585.538 L42.679 585.538 Q37.6183 585.538 35.1038 587.511 Q32.5894 589.484 32.5894 593.431 Q32.5894 598.174 35.6131 600.911 Q38.6368 603.648 43.8567 603.648 L64.0042 603.648 L64.0042 609.536 L28.3562 609.536 L28.3562 603.648 L33.8944 603.648 Q30.6797 601.547 29.0883 598.715 Q27.4968 595.85 27.4968 592.126 Q27.4968 585.983 31.3163 582.832 Q35.1038 579.681 42.4881 579.681 Z" fill="#000000" fill-rule="evenodd" fill-opacity="1" /><path clip-path="url(#clip670)" d="M29.7248 542.346 L35.1993 542.346 Q33.8307 544.829 33.1623 547.343 Q32.4621 549.826 32.4621 552.372 Q32.4621 558.07 36.0905 561.221 Q39.6872 564.372 46.212 564.372 Q52.7369 564.372 56.3653 561.221 Q59.9619 558.07 59.9619 552.372 Q59.9619 549.826 59.2935 547.343 Q58.5933 544.829 57.2247 542.346 L62.6355 542.346 Q63.7814 544.797 64.3543 547.439 Q64.9272 550.049 64.9272 553.009 Q64.9272 561.061 59.8664 565.804 Q54.8057 570.546 46.212 570.546 Q37.491 570.546 32.4939 565.772 Q27.4968 560.966 27.4968 552.627 Q27.4968 549.922 28.0697 547.343 Q28.6108 544.765 29.7248 542.346 Z" fill="#000000" fill-rule="evenodd" fill-opacity="1" /><path clip-path="url(#clip670)" d="M28.3562 532.161 L28.3562 526.305 L64.0042 526.305 L64.0042 532.161 L28.3562 532.161 M14.479 532.161 L14.479 526.305 L21.895 526.305 L21.895 532.161 L14.479 532.161 Z" fill="#000000" fill-rule="evenodd" fill-opacity="1" /><path clip-path="url(#clip670)" d="M44.7161 483.559 L47.5806 483.559 L47.5806 510.486 Q53.6281 510.104 56.8109 506.858 Q59.9619 503.579 59.9619 497.755 Q59.9619 494.381 59.1344 491.23 Q58.3069 488.047 56.6518 484.928 L62.1899 484.928 Q63.5267 488.079 64.227 491.389 Q64.9272 494.699 64.9272 498.105 Q64.9272 506.635 59.9619 511.632 Q54.9967 516.597 46.5303 516.597 Q37.7774 516.597 32.6531 511.886 Q27.4968 507.144 27.4968 499.123 Q27.4968 491.93 32.1438 487.76 Q36.7589 483.559 44.7161 483.559 M42.9973 489.415 Q38.1912 489.479 35.3266 492.121 Q32.4621 494.731 32.4621 499.06 Q32.4621 503.961 35.2312 506.921 Q38.0002 509.849 43.0292 510.295 L42.9973 489.415 Z" fill="#000000" fill-rule="evenodd" fill-opacity="1" /><path clip-path="url(#clip670)" d="M29.4065 451.221 L34.9447 451.221 Q33.6716 453.704 33.035 456.377 Q32.3984 459.051 32.3984 461.916 Q32.3984 466.276 33.7352 468.472 Q35.072 470.637 37.7456 470.637 Q39.7826 470.637 40.9603 469.077 Q42.1061 467.517 43.1565 462.807 L43.6021 460.802 Q44.9389 454.563 47.3897 451.953 Q49.8086 449.312 54.1691 449.312 Q59.1344 449.312 62.0308 453.258 Q64.9272 457.173 64.9272 464.048 Q64.9272 466.913 64.3543 470.032 Q63.8132 473.119 62.6992 476.557 L56.6518 476.557 Q58.3387 473.31 59.198 470.159 Q60.0256 467.008 60.0256 463.921 Q60.0256 459.783 58.6251 457.555 Q57.1929 455.327 54.6147 455.327 Q52.2276 455.327 50.9545 456.95 Q49.6813 458.542 48.5037 463.984 L48.0262 466.021 Q46.8804 471.464 44.5251 473.883 Q42.138 476.302 38.0002 476.302 Q32.9713 476.302 30.2341 472.737 Q27.4968 469.173 27.4968 462.616 Q27.4968 459.369 27.9743 456.505 Q28.4517 453.64 29.4065 451.221 Z" fill="#000000" fill-rule="evenodd" fill-opacity="1" /><path clip-path="url(#clip670)" d="M1147.88 12.096 L1156.06 12.096 L1156.06 36.8875 L1185.8 36.8875 L1185.8 12.096 L1193.98 12.096 L1193.98 72.576 L1185.8 72.576 L1185.8 43.7741 L1156.06 43.7741 L1156.06 72.576 L1147.88 72.576 L1147.88 12.096 Z" fill="#000000" fill-rule="evenodd" fill-opacity="1" /><path clip-path="url(#clip670)" d="M1227.52 32.4315 Q1221.53 32.4315 1218.04 37.1306 Q1214.56 41.7891 1214.56 49.9314 Q1214.56 58.0738 1218 62.7728 Q1221.49 67.4314 1227.52 67.4314 Q1233.48 67.4314 1236.96 62.7323 Q1240.44 58.0333 1240.44 49.9314 Q1240.44 41.8701 1236.96 37.1711 Q1233.48 32.4315 1227.52 32.4315 M1227.52 26.1121 Q1237.24 26.1121 1242.79 32.4315 Q1248.34 38.7509 1248.34 49.9314 Q1248.34 61.0714 1242.79 67.4314 Q1237.24 73.7508 1227.52 73.7508 Q1217.76 73.7508 1212.21 67.4314 Q1206.7 61.0714 1206.7 49.9314 Q1206.7 38.7509 1212.21 32.4315 Q1217.76 26.1121 1227.52 26.1121 Z" fill="#000000" fill-rule="evenodd" fill-opacity="1" /><path clip-path="url(#clip670)" d="M1296.02 35.9153 Q1298.82 30.8922 1302.71 28.5022 Q1306.59 26.1121 1311.86 26.1121 Q1318.95 26.1121 1322.8 31.0947 Q1326.65 36.0368 1326.65 45.1919 L1326.65 72.576 L1319.15 72.576 L1319.15 45.4349 Q1319.15 38.913 1316.84 35.7533 Q1314.53 32.5936 1309.79 32.5936 Q1304 32.5936 1300.64 36.4419 Q1297.28 40.2903 1297.28 46.9338 L1297.28 72.576 L1289.78 72.576 L1289.78 45.4349 Q1289.78 38.8725 1287.47 35.7533 Q1285.17 32.5936 1280.34 32.5936 Q1274.63 32.5936 1271.27 36.4824 Q1267.91 40.3308 1267.91 46.9338 L1267.91 72.576 L1260.41 72.576 L1260.41 27.2059 L1267.91 27.2059 L1267.91 34.2544 Q1270.46 30.082 1274.03 28.0971 Q1277.59 26.1121 1282.49 26.1121 Q1287.43 26.1121 1290.88 28.6237 Q1294.36 31.1352 1296.02 35.9153 Z" fill="#000000" fill-rule="evenodd" fill-opacity="1" /><path clip-path="url(#clip670)" d="M1380.32 48.0275 L1380.32 51.6733 L1346.05 51.6733 Q1346.54 59.3701 1350.67 63.421 Q1354.84 67.4314 1362.25 67.4314 Q1366.55 67.4314 1370.56 66.3781 Q1374.61 65.3249 1378.58 63.2184 L1378.58 70.267 Q1374.57 71.9684 1370.36 72.8596 Q1366.14 73.7508 1361.81 73.7508 Q1350.95 73.7508 1344.59 67.4314 Q1338.27 61.1119 1338.27 50.3365 Q1338.27 39.1965 1344.27 32.6746 Q1350.3 26.1121 1360.51 26.1121 Q1369.67 26.1121 1374.97 32.0264 Q1380.32 37.9003 1380.32 48.0275 M1372.87 45.84 Q1372.79 39.7232 1369.42 36.0774 Q1366.1 32.4315 1360.59 32.4315 Q1354.35 32.4315 1350.59 35.9558 Q1346.86 39.4801 1346.29 45.8805 L1372.87 45.84 Z" fill="#000000" fill-rule="evenodd" fill-opacity="1" /><path clip-path="url(#clip672)" d="
M293.811 849.765 L293.811 1386.4 L342.939 1386.4 L342.939 849.765 L293.811 849.765 L293.811 849.765  Z
  " fill="#009af9" fill-rule="evenodd" fill-opacity="1"/>
<polyline clip-path="url(#clip672)" style="stroke:#000000; stroke-linecap:butt; stroke-linejoin:round; stroke-width:4; stroke-opacity:1; fill:none" points="
  293.811,849.765 293.811,1386.4 342.939,1386.4 342.939,849.765 293.811,849.765 
  "/>
<path clip-path="url(#clip672)" d="
M416.632 811.79 L416.632 1386.4 L465.761 1386.4 L465.761 811.79 L416.632 811.79 L416.632 811.79  Z
  " fill="#009af9" fill-rule="evenodd" fill-opacity="1"/>
<polyline clip-path="url(#clip672)" style="stroke:#000000; stroke-linecap:butt; stroke-linejoin:round; stroke-width:4; stroke-opacity:1; fill:none" points="
  416.632,811.79 416.632,1386.4 465.761,1386.4 465.761,811.79 416.632,811.79 
  "/>
<path clip-path="url(#clip672)" d="
M539.454 791.224 L539.454 1386.4 L588.582 1386.4 L588.582 791.224 L539.454 791.224 L539.454 791.224  Z
  " fill="#009af9" fill-rule="evenodd" fill-opacity="1"/>
<polyline clip-path="url(#clip672)" style="stroke:#000000; stroke-linecap:butt; stroke-linejoin:round; stroke-width:4; stroke-opacity:1; fill:none" points="
  539.454,791.224 539.454,1386.4 588.582,1386.4 588.582,791.224 539.454,791.224 
  "/>
<path clip-path="url(#clip672)" d="
M662.275 826.629 L662.275 1386.4 L711.404 1386.4 L711.404 826.629 L662.275 826.629 L662.275 826.629  Z
  " fill="#009af9" fill-rule="evenodd" fill-opacity="1"/>
<polyline clip-path="url(#clip672)" style="stroke:#000000; stroke-linecap:butt; stroke-linejoin:round; stroke-width:4; stroke-opacity:1; fill:none" points="
  662.275,826.629 662.275,1386.4 711.404,1386.4 711.404,826.629 662.275,826.629 
  "/>
<path clip-path="url(#clip672)" d="
M785.097 932.204 L785.097 1386.4 L834.225 1386.4 L834.225 932.204 L785.097 932.204 L785.097 932.204  Z
  " fill="#009af9" fill-rule="evenodd" fill-opacity="1"/>
<polyline clip-path="url(#clip672)" style="stroke:#000000; stroke-linecap:butt; stroke-linejoin:round; stroke-width:4; stroke-opacity:1; fill:none" points="
  785.097,932.204 785.097,1386.4 834.225,1386.4 834.225,932.204 785.097,932.204 
  "/>
<path clip-path="url(#clip672)" d="
M907.918 952.764 L907.918 1386.4 L957.047 1386.4 L957.047 952.764 L907.918 952.764 L907.918 952.764  Z
  " fill="#009af9" fill-rule="evenodd" fill-opacity="1"/>
<polyline clip-path="url(#clip672)" style="stroke:#000000; stroke-linecap:butt; stroke-linejoin:round; stroke-width:4; stroke-opacity:1; fill:none" points="
  907.918,952.764 907.918,1386.4 957.047,1386.4 957.047,952.764 907.918,952.764 
  "/>
<path clip-path="url(#clip672)" d="
M1030.74 957.605 L1030.74 1386.4 L1079.87 1386.4 L1079.87 957.605 L1030.74 957.605 L1030.74 957.605  Z
  " fill="#009af9" fill-rule="evenodd" fill-opacity="1"/>
<polyline clip-path="url(#clip672)" style="stroke:#000000; stroke-linecap:butt; stroke-linejoin:round; stroke-width:4; stroke-opacity:1; fill:none" points="
  1030.74,957.605 1030.74,1386.4 1079.87,1386.4 1079.87,957.605 1030.74,957.605 
  "/>
<path clip-path="url(#clip672)" d="
M1153.56 929.086 L1153.56 1386.4 L1202.69 1386.4 L1202.69 929.086 L1153.56 929.086 L1153.56 929.086  Z
  " fill="#009af9" fill-rule="evenodd" fill-opacity="1"/>
<polyline clip-path="url(#clip672)" style="stroke:#000000; stroke-linecap:butt; stroke-linejoin:round; stroke-width:4; stroke-opacity:1; fill:none" points="
  1153.56,929.086 1153.56,1386.4 1202.69,1386.4 1202.69,929.086 1153.56,929.086 
  "/>
<path clip-path="url(#clip672)" d="
M1276.38 939.609 L1276.38 1386.4 L1325.51 1386.4 L1325.51 939.609 L1276.38 939.609 L1276.38 939.609  Z
  " fill="#009af9" fill-rule="evenodd" fill-opacity="1"/>
<polyline clip-path="url(#clip672)" style="stroke:#000000; stroke-linecap:butt; stroke-linejoin:round; stroke-width:4; stroke-opacity:1; fill:none" points="
  1276.38,939.609 1276.38,1386.4 1325.51,1386.4 1325.51,939.609 1276.38,939.609 
  "/>
<path clip-path="url(#clip672)" d="
M1399.2 961.936 L1399.2 1386.4 L1448.33 1386.4 L1448.33 961.936 L1399.2 961.936 L1399.2 961.936  Z
  " fill="#009af9" fill-rule="evenodd" fill-opacity="1"/>
<polyline clip-path="url(#clip672)" style="stroke:#000000; stroke-linecap:butt; stroke-linejoin:round; stroke-width:4; stroke-opacity:1; fill:none" points="
  1399.2,961.936 1399.2,1386.4 1448.33,1386.4 1448.33,961.936 1399.2,961.936 
  "/>
<path clip-path="url(#clip672)" d="
M1522.03 963.44 L1522.03 1386.4 L1571.15 1386.4 L1571.15 963.44 L1522.03 963.44 L1522.03 963.44  Z
  " fill="#009af9" fill-rule="evenodd" fill-opacity="1"/>
<polyline clip-path="url(#clip672)" style="stroke:#000000; stroke-linecap:butt; stroke-linejoin:round; stroke-width:4; stroke-opacity:1; fill:none" points="
  1522.03,963.44 1522.03,1386.4 1571.15,1386.4 1571.15,963.44 1522.03,963.44 
  "/>
<path clip-path="url(#clip672)" d="
M1644.85 996.557 L1644.85 1386.4 L1693.98 1386.4 L1693.98 996.557 L1644.85 996.557 L1644.85 996.557  Z
  " fill="#009af9" fill-rule="evenodd" fill-opacity="1"/>
<polyline clip-path="url(#clip672)" style="stroke:#000000; stroke-linecap:butt; stroke-linejoin:round; stroke-width:4; stroke-opacity:1; fill:none" points="
  1644.85,996.557 1644.85,1386.4 1693.98,1386.4 1693.98,996.557 1644.85,996.557 
  "/>
<path clip-path="url(#clip672)" d="
M1767.67 999.297 L1767.67 1386.4 L1816.8 1386.4 L1816.8 999.297 L1767.67 999.297 L1767.67 999.297  Z
  " fill="#009af9" fill-rule="evenodd" fill-opacity="1"/>
<polyline clip-path="url(#clip672)" style="stroke:#000000; stroke-linecap:butt; stroke-linejoin:round; stroke-width:4; stroke-opacity:1; fill:none" points="
  1767.67,999.297 1767.67,1386.4 1816.8,1386.4 1816.8,999.297 1767.67,999.297 
  "/>
<path clip-path="url(#clip672)" d="
M1890.49 1050.57 L1890.49 1386.4 L1939.62 1386.4 L1939.62 1050.57 L1890.49 1050.57 L1890.49 1050.57  Z
  " fill="#009af9" fill-rule="evenodd" fill-opacity="1"/>
<polyline clip-path="url(#clip672)" style="stroke:#000000; stroke-linecap:butt; stroke-linejoin:round; stroke-width:4; stroke-opacity:1; fill:none" points="
  1890.49,1050.57 1890.49,1386.4 1939.62,1386.4 1939.62,1050.57 1890.49,1050.57 
  "/>
<path clip-path="url(#clip672)" d="
M2013.31 1066.96 L2013.31 1386.4 L2062.44 1386.4 L2062.44 1066.96 L2013.31 1066.96 L2013.31 1066.96  Z
  " fill="#009af9" fill-rule="evenodd" fill-opacity="1"/>
<polyline clip-path="url(#clip672)" style="stroke:#000000; stroke-linecap:butt; stroke-linejoin:round; stroke-width:4; stroke-opacity:1; fill:none" points="
  2013.31,1066.96 2013.31,1386.4 2062.44,1386.4 2062.44,1066.96 2013.31,1066.96 
  "/>
<path clip-path="url(#clip672)" d="
M2136.13 1081.57 L2136.13 1386.4 L2185.26 1386.4 L2185.26 1081.57 L2136.13 1081.57 L2136.13 1081.57  Z
  " fill="#009af9" fill-rule="evenodd" fill-opacity="1"/>
<polyline clip-path="url(#clip672)" style="stroke:#000000; stroke-linecap:butt; stroke-linejoin:round; stroke-width:4; stroke-opacity:1; fill:none" points="
  2136.13,1081.57 2136.13,1386.4 2185.26,1386.4 2185.26,1081.57 2136.13,1081.57 
  "/>
<circle clip-path="url(#clip672)" style="fill:#000000; stroke:none; fill-opacity:0" cx="318.375" cy="849.765" r="2"/>
<circle clip-path="url(#clip672)" style="fill:#000000; stroke:none; fill-opacity:0" cx="441.197" cy="811.79" r="2"/>
<circle clip-path="url(#clip672)" style="fill:#000000; stroke:none; fill-opacity:0" cx="564.018" cy="791.224" r="2"/>
<circle clip-path="url(#clip672)" style="fill:#000000; stroke:none; fill-opacity:0" cx="686.84" cy="826.629" r="2"/>
<circle clip-path="url(#clip672)" style="fill:#000000; stroke:none; fill-opacity:0" cx="809.661" cy="932.204" r="2"/>
<circle clip-path="url(#clip672)" style="fill:#000000; stroke:none; fill-opacity:0" cx="932.483" cy="952.764" r="2"/>
<circle clip-path="url(#clip672)" style="fill:#000000; stroke:none; fill-opacity:0" cx="1055.3" cy="957.605" r="2"/>
<circle clip-path="url(#clip672)" style="fill:#000000; stroke:none; fill-opacity:0" cx="1178.13" cy="929.086" r="2"/>
<circle clip-path="url(#clip672)" style="fill:#000000; stroke:none; fill-opacity:0" cx="1300.95" cy="939.609" r="2"/>
<circle clip-path="url(#clip672)" style="fill:#000000; stroke:none; fill-opacity:0" cx="1423.77" cy="961.936" r="2"/>
<circle clip-path="url(#clip672)" style="fill:#000000; stroke:none; fill-opacity:0" cx="1546.59" cy="963.44" r="2"/>
<circle clip-path="url(#clip672)" style="fill:#000000; stroke:none; fill-opacity:0" cx="1669.41" cy="996.557" r="2"/>
<circle clip-path="url(#clip672)" style="fill:#000000; stroke:none; fill-opacity:0" cx="1792.23" cy="999.297" r="2"/>
<circle clip-path="url(#clip672)" style="fill:#000000; stroke:none; fill-opacity:0" cx="1915.05" cy="1050.57" r="2"/>
<circle clip-path="url(#clip672)" style="fill:#000000; stroke:none; fill-opacity:0" cx="2037.88" cy="1066.96" r="2"/>
<circle clip-path="url(#clip672)" style="fill:#000000; stroke:none; fill-opacity:0" cx="2160.7" cy="1081.57" r="2"/>
<path clip-path="url(#clip672)" d="
M342.939 487.992 L342.939 1386.4 L392.068 1386.4 L392.068 487.992 L342.939 487.992 L342.939 487.992  Z
  " fill="#e26f46" fill-rule="evenodd" fill-opacity="1"/>
<polyline clip-path="url(#clip672)" style="stroke:#000000; stroke-linecap:butt; stroke-linejoin:round; stroke-width:4; stroke-opacity:1; fill:none" points="
  342.939,487.992 342.939,1386.4 392.068,1386.4 392.068,487.992 342.939,487.992 
  "/>
<path clip-path="url(#clip672)" d="
M465.761 202.605 L465.761 1386.4 L514.889 1386.4 L514.889 202.605 L465.761 202.605 L465.761 202.605  Z
  " fill="#e26f46" fill-rule="evenodd" fill-opacity="1"/>
<polyline clip-path="url(#clip672)" style="stroke:#000000; stroke-linecap:butt; stroke-linejoin:round; stroke-width:4; stroke-opacity:1; fill:none" points="
  465.761,202.605 465.761,1386.4 514.889,1386.4 514.889,202.605 465.761,202.605 
  "/>
<path clip-path="url(#clip672)" d="
M588.582 160.256 L588.582 1386.4 L637.711 1386.4 L637.711 160.256 L588.582 160.256 L588.582 160.256  Z
  " fill="#e26f46" fill-rule="evenodd" fill-opacity="1"/>
<polyline clip-path="url(#clip672)" style="stroke:#000000; stroke-linecap:butt; stroke-linejoin:round; stroke-width:4; stroke-opacity:1; fill:none" points="
  588.582,160.256 588.582,1386.4 637.711,1386.4 637.711,160.256 588.582,160.256 
  "/>
<path clip-path="url(#clip672)" d="
M711.404 290.52 L711.404 1386.4 L760.532 1386.4 L760.532 290.52 L711.404 290.52 L711.404 290.52  Z
  " fill="#e26f46" fill-rule="evenodd" fill-opacity="1"/>
<polyline clip-path="url(#clip672)" style="stroke:#000000; stroke-linecap:butt; stroke-linejoin:round; stroke-width:4; stroke-opacity:1; fill:none" points="
  711.404,290.52 711.404,1386.4 760.532,1386.4 760.532,290.52 711.404,290.52 
  "/>
<path clip-path="url(#clip672)" d="
M834.225 590.777 L834.225 1386.4 L883.354 1386.4 L883.354 590.777 L834.225 590.777 L834.225 590.777  Z
  " fill="#e26f46" fill-rule="evenodd" fill-opacity="1"/>
<polyline clip-path="url(#clip672)" style="stroke:#000000; stroke-linecap:butt; stroke-linejoin:round; stroke-width:4; stroke-opacity:1; fill:none" points="
  834.225,590.777 834.225,1386.4 883.354,1386.4 883.354,590.777 834.225,590.777 
  "/>
<path clip-path="url(#clip672)" d="
M957.047 626.961 L957.047 1386.4 L1006.18 1386.4 L1006.18 626.961 L957.047 626.961 L957.047 626.961  Z
  " fill="#e26f46" fill-rule="evenodd" fill-opacity="1"/>
<polyline clip-path="url(#clip672)" style="stroke:#000000; stroke-linecap:butt; stroke-linejoin:round; stroke-width:4; stroke-opacity:1; fill:none" points="
  957.047,626.961 957.047,1386.4 1006.18,1386.4 1006.18,626.961 957.047,626.961 
  "/>
<path clip-path="url(#clip672)" d="
M1079.87 628.184 L1079.87 1386.4 L1129 1386.4 L1129 628.184 L1079.87 628.184 L1079.87 628.184  Z
  " fill="#e26f46" fill-rule="evenodd" fill-opacity="1"/>
<polyline clip-path="url(#clip672)" style="stroke:#000000; stroke-linecap:butt; stroke-linejoin:round; stroke-width:4; stroke-opacity:1; fill:none" points="
  1079.87,628.184 1079.87,1386.4 1129,1386.4 1129,628.184 1079.87,628.184 
  "/>
<path clip-path="url(#clip672)" d="
M1202.69 541.307 L1202.69 1386.4 L1251.82 1386.4 L1251.82 541.307 L1202.69 541.307 L1202.69 541.307  Z
  " fill="#e26f46" fill-rule="evenodd" fill-opacity="1"/>
<polyline clip-path="url(#clip672)" style="stroke:#000000; stroke-linecap:butt; stroke-linejoin:round; stroke-width:4; stroke-opacity:1; fill:none" points="
  1202.69,541.307 1202.69,1386.4 1251.82,1386.4 1251.82,541.307 1202.69,541.307 
  "/>
<path clip-path="url(#clip672)" d="
M1325.51 638.672 L1325.51 1386.4 L1374.64 1386.4 L1374.64 638.672 L1325.51 638.672 L1325.51 638.672  Z
  " fill="#e26f46" fill-rule="evenodd" fill-opacity="1"/>
<polyline clip-path="url(#clip672)" style="stroke:#000000; stroke-linecap:butt; stroke-linejoin:round; stroke-width:4; stroke-opacity:1; fill:none" points="
  1325.51,638.672 1325.51,1386.4 1374.64,1386.4 1374.64,638.672 1325.51,638.672 
  "/>
<path clip-path="url(#clip672)" d="
M1448.33 753.627 L1448.33 1386.4 L1497.46 1386.4 L1497.46 753.627 L1448.33 753.627 L1448.33 753.627  Z
  " fill="#e26f46" fill-rule="evenodd" fill-opacity="1"/>
<polyline clip-path="url(#clip672)" style="stroke:#000000; stroke-linecap:butt; stroke-linejoin:round; stroke-width:4; stroke-opacity:1; fill:none" points="
  1448.33,753.627 1448.33,1386.4 1497.46,1386.4 1497.46,753.627 1448.33,753.627 
  "/>
<path clip-path="url(#clip672)" d="
M1571.15 846.067 L1571.15 1386.4 L1620.28 1386.4 L1620.28 846.067 L1571.15 846.067 L1571.15 846.067  Z
  " fill="#e26f46" fill-rule="evenodd" fill-opacity="1"/>
<polyline clip-path="url(#clip672)" style="stroke:#000000; stroke-linecap:butt; stroke-linejoin:round; stroke-width:4; stroke-opacity:1; fill:none" points="
  1571.15,846.067 1571.15,1386.4 1620.28,1386.4 1620.28,846.067 1571.15,846.067 
  "/>
<path clip-path="url(#clip672)" d="
M1693.98 1000.15 L1693.98 1386.4 L1743.1 1386.4 L1743.1 1000.15 L1693.98 1000.15 L1693.98 1000.15  Z
  " fill="#e26f46" fill-rule="evenodd" fill-opacity="1"/>
<polyline clip-path="url(#clip672)" style="stroke:#000000; stroke-linecap:butt; stroke-linejoin:round; stroke-width:4; stroke-opacity:1; fill:none" points="
  1693.98,1000.15 1693.98,1386.4 1743.1,1386.4 1743.1,1000.15 1693.98,1000.15 
  "/>
<path clip-path="url(#clip672)" d="
M1816.8 1104.91 L1816.8 1386.4 L1865.93 1386.4 L1865.93 1104.91 L1816.8 1104.91 L1816.8 1104.91  Z
  " fill="#e26f46" fill-rule="evenodd" fill-opacity="1"/>
<polyline clip-path="url(#clip672)" style="stroke:#000000; stroke-linecap:butt; stroke-linejoin:round; stroke-width:4; stroke-opacity:1; fill:none" points="
  1816.8,1104.91 1816.8,1386.4 1865.93,1386.4 1865.93,1104.91 1816.8,1104.91 
  "/>
<path clip-path="url(#clip672)" d="
M1939.62 1179.84 L1939.62 1386.4 L1988.75 1386.4 L1988.75 1179.84 L1939.62 1179.84 L1939.62 1179.84  Z
  " fill="#e26f46" fill-rule="evenodd" fill-opacity="1"/>
<polyline clip-path="url(#clip672)" style="stroke:#000000; stroke-linecap:butt; stroke-linejoin:round; stroke-width:4; stroke-opacity:1; fill:none" points="
  1939.62,1179.84 1939.62,1386.4 1988.75,1386.4 1988.75,1179.84 1939.62,1179.84 
  "/>
<path clip-path="url(#clip672)" d="
M2062.44 1238.65 L2062.44 1386.4 L2111.57 1386.4 L2111.57 1238.65 L2062.44 1238.65 L2062.44 1238.65  Z
  " fill="#e26f46" fill-rule="evenodd" fill-opacity="1"/>
<polyline clip-path="url(#clip672)" style="stroke:#000000; stroke-linecap:butt; stroke-linejoin:round; stroke-width:4; stroke-opacity:1; fill:none" points="
  2062.44,1238.65 2062.44,1386.4 2111.57,1386.4 2111.57,1238.65 2062.44,1238.65 
  "/>
<path clip-path="url(#clip672)" d="
M2185.26 1283.13 L2185.26 1386.4 L2234.39 1386.4 L2234.39 1283.13 L2185.26 1283.13 L2185.26 1283.13  Z
  " fill="#e26f46" fill-rule="evenodd" fill-opacity="1"/>
<polyline clip-path="url(#clip672)" style="stroke:#000000; stroke-linecap:butt; stroke-linejoin:round; stroke-width:4; stroke-opacity:1; fill:none" points="
  2185.26,1283.13 2185.26,1386.4 2234.39,1386.4 2234.39,1283.13 2185.26,1283.13 
  "/>
<circle clip-path="url(#clip672)" style="fill:#000000; stroke:none; fill-opacity:0" cx="367.504" cy="487.992" r="2"/>
<circle clip-path="url(#clip672)" style="fill:#000000; stroke:none; fill-opacity:0" cx="490.325" cy="202.605" r="2"/>
<circle clip-path="url(#clip672)" style="fill:#000000; stroke:none; fill-opacity:0" cx="613.147" cy="160.256" r="2"/>
<circle clip-path="url(#clip672)" style="fill:#000000; stroke:none; fill-opacity:0" cx="735.968" cy="290.52" r="2"/>
<circle clip-path="url(#clip672)" style="fill:#000000; stroke:none; fill-opacity:0" cx="858.79" cy="590.777" r="2"/>
<circle clip-path="url(#clip672)" style="fill:#000000; stroke:none; fill-opacity:0" cx="981.611" cy="626.961" r="2"/>
<circle clip-path="url(#clip672)" style="fill:#000000; stroke:none; fill-opacity:0" cx="1104.43" cy="628.184" r="2"/>
<circle clip-path="url(#clip672)" style="fill:#000000; stroke:none; fill-opacity:0" cx="1227.25" cy="541.307" r="2"/>
<circle clip-path="url(#clip672)" style="fill:#000000; stroke:none; fill-opacity:0" cx="1350.08" cy="638.672" r="2"/>
<circle clip-path="url(#clip672)" style="fill:#000000; stroke:none; fill-opacity:0" cx="1472.9" cy="753.627" r="2"/>
<circle clip-path="url(#clip672)" style="fill:#000000; stroke:none; fill-opacity:0" cx="1595.72" cy="846.067" r="2"/>
<circle clip-path="url(#clip672)" style="fill:#000000; stroke:none; fill-opacity:0" cx="1718.54" cy="1000.15" r="2"/>
<circle clip-path="url(#clip672)" style="fill:#000000; stroke:none; fill-opacity:0" cx="1841.36" cy="1104.91" r="2"/>
<circle clip-path="url(#clip672)" style="fill:#000000; stroke:none; fill-opacity:0" cx="1964.18" cy="1179.84" r="2"/>
<circle clip-path="url(#clip672)" style="fill:#000000; stroke:none; fill-opacity:0" cx="2087" cy="1238.65" r="2"/>
<circle clip-path="url(#clip672)" style="fill:#000000; stroke:none; fill-opacity:0" cx="2209.83" cy="1283.13" r="2"/>
<path clip-path="url(#clip670)" d="
M1818.72 322.316 L2280.18 322.316 L2280.18 166.796 L1818.72 166.796  Z
  " fill="#ffffff" fill-rule="evenodd" fill-opacity="1"/>
<polyline clip-path="url(#clip670)" style="stroke:#000000; stroke-linecap:butt; stroke-linejoin:round; stroke-width:4; stroke-opacity:1; fill:none" points="
  1818.72,322.316 2280.18,322.316 2280.18,166.796 1818.72,166.796 1818.72,322.316 
  "/>
<path clip-path="url(#clip670)" d="
M1842.91 239.372 L1988.07 239.372 L1988.07 197.9 L1842.91 197.9 L1842.91 239.372  Z
  " fill="#009af9" fill-rule="evenodd" fill-opacity="1"/>
<polyline clip-path="url(#clip670)" style="stroke:#000000; stroke-linecap:butt; stroke-linejoin:round; stroke-width:4; stroke-opacity:1; fill:none" points="
  1842.91,239.372 1988.07,239.372 1988.07,197.9 1842.91,197.9 1842.91,239.372 
  "/>
<path clip-path="url(#clip670)" d="M2032.61 214.967 Q2034.2 212.096 2036.42 210.731 Q2038.65 209.365 2041.66 209.365 Q2045.71 209.365 2047.91 212.212 Q2050.11 215.036 2050.11 220.268 L2050.11 235.916 L2045.82 235.916 L2045.82 220.407 Q2045.82 216.68 2044.5 214.874 Q2043.18 213.069 2040.48 213.069 Q2037.17 213.069 2035.24 215.268 Q2033.32 217.467 2033.32 221.263 L2033.32 235.916 L2029.04 235.916 L2029.04 220.407 Q2029.04 216.657 2027.72 214.874 Q2026.4 213.069 2023.65 213.069 Q2020.38 213.069 2018.46 215.291 Q2016.54 217.49 2016.54 221.263 L2016.54 235.916 L2012.26 235.916 L2012.26 209.99 L2016.54 209.99 L2016.54 214.018 Q2018 211.633 2020.04 210.499 Q2022.07 209.365 2024.87 209.365 Q2027.7 209.365 2029.67 210.8 Q2031.66 212.235 2032.61 214.967 Z" fill="#000000" fill-rule="evenodd" fill-opacity="1" /><path clip-path="url(#clip670)" d="M2068.65 212.976 Q2065.22 212.976 2063.23 215.661 Q2061.24 218.323 2061.24 222.976 Q2061.24 227.629 2063.21 230.314 Q2065.2 232.976 2068.65 232.976 Q2072.05 232.976 2074.04 230.291 Q2076.03 227.606 2076.03 222.976 Q2076.03 218.37 2074.04 215.684 Q2072.05 212.976 2068.65 212.976 M2068.65 209.365 Q2074.2 209.365 2077.37 212.976 Q2080.55 216.587 2080.55 222.976 Q2080.55 229.342 2077.37 232.976 Q2074.2 236.587 2068.65 236.587 Q2063.07 236.587 2059.9 232.976 Q2056.75 229.342 2056.75 222.976 Q2056.75 216.587 2059.9 212.976 Q2063.07 209.365 2068.65 209.365 Z" fill="#000000" fill-rule="evenodd" fill-opacity="1" /><path clip-path="url(#clip670)" d="M2104.67 213.925 L2104.67 199.897 L2108.92 199.897 L2108.92 235.916 L2104.67 235.916 L2104.67 232.027 Q2103.32 234.342 2101.26 235.476 Q2099.23 236.587 2096.36 236.587 Q2091.66 236.587 2088.69 232.837 Q2085.75 229.087 2085.75 222.976 Q2085.75 216.865 2088.69 213.115 Q2091.66 209.365 2096.36 209.365 Q2099.23 209.365 2101.26 210.499 Q2103.32 211.61 2104.67 213.925 M2090.15 222.976 Q2090.15 227.675 2092.07 230.36 Q2094.02 233.022 2097.4 233.022 Q2100.78 233.022 2102.72 230.36 Q2104.67 227.675 2104.67 222.976 Q2104.67 218.277 2102.72 215.615 Q2100.78 212.93 2097.4 212.93 Q2094.02 212.93 2092.07 215.615 Q2090.15 218.277 2090.15 222.976 Z" fill="#000000" fill-rule="evenodd" fill-opacity="1" /><path clip-path="url(#clip670)" d="M2139.87 221.888 L2139.87 223.971 L2120.29 223.971 Q2120.57 228.369 2122.93 230.684 Q2125.31 232.976 2129.55 232.976 Q2132 232.976 2134.29 232.374 Q2136.61 231.772 2138.88 230.569 L2138.88 234.596 Q2136.59 235.568 2134.18 236.078 Q2131.77 236.587 2129.29 236.587 Q2123.09 236.587 2119.46 232.976 Q2115.85 229.365 2115.85 223.207 Q2115.85 216.842 2119.27 213.115 Q2122.72 209.365 2128.55 209.365 Q2133.79 209.365 2136.82 212.745 Q2139.87 216.101 2139.87 221.888 M2135.61 220.638 Q2135.57 217.143 2133.65 215.059 Q2131.75 212.976 2128.6 212.976 Q2125.04 212.976 2122.88 214.99 Q2120.75 217.004 2120.43 220.661 L2135.61 220.638 Z" fill="#000000" fill-rule="evenodd" fill-opacity="1" /><path clip-path="url(#clip670)" d="M2146.86 199.897 L2151.12 199.897 L2151.12 235.916 L2146.86 235.916 L2146.86 199.897 Z" fill="#000000" fill-rule="evenodd" fill-opacity="1" /><path clip-path="url(#clip670)" d="
M1842.91 291.212 L1988.07 291.212 L1988.07 249.74 L1842.91 249.74 L1842.91 291.212  Z
  " fill="#e26f46" fill-rule="evenodd" fill-opacity="1"/>
<polyline clip-path="url(#clip670)" style="stroke:#000000; stroke-linecap:butt; stroke-linejoin:round; stroke-width:4; stroke-opacity:1; fill:none" points="
  1842.91,291.212 1988.07,291.212 1988.07,249.74 1842.91,249.74 1842.91,291.212 
  "/>
<path clip-path="url(#clip670)" d="M2027.44 265.811 Q2026.73 265.395 2025.87 265.21 Q2025.04 265.001 2024.02 265.001 Q2020.41 265.001 2018.46 267.362 Q2016.54 269.7 2016.54 274.098 L2016.54 287.756 L2012.26 287.756 L2012.26 261.83 L2016.54 261.83 L2016.54 265.858 Q2017.88 263.497 2020.04 262.362 Q2022.19 261.205 2025.27 261.205 Q2025.71 261.205 2026.24 261.274 Q2026.77 261.321 2027.42 261.436 L2027.44 265.811 Z" fill="#000000" fill-rule="evenodd" fill-opacity="1" /><path clip-path="url(#clip670)" d="M2053.05 273.728 L2053.05 275.811 L2033.46 275.811 Q2033.74 280.209 2036.1 282.524 Q2038.49 284.816 2042.72 284.816 Q2045.17 284.816 2047.47 284.214 Q2049.78 283.612 2052.05 282.409 L2052.05 286.436 Q2049.76 287.408 2047.35 287.918 Q2044.94 288.427 2042.47 288.427 Q2036.26 288.427 2032.63 284.816 Q2029.02 281.205 2029.02 275.047 Q2029.02 268.682 2032.44 264.955 Q2035.89 261.205 2041.73 261.205 Q2046.96 261.205 2049.99 264.585 Q2053.05 267.941 2053.05 273.728 M2048.79 272.478 Q2048.74 268.983 2046.82 266.899 Q2044.92 264.816 2041.77 264.816 Q2038.21 264.816 2036.05 266.83 Q2033.92 268.844 2033.6 272.501 L2048.79 272.478 Z" fill="#000000" fill-rule="evenodd" fill-opacity="1" /><path clip-path="url(#clip670)" d="M2073.16 251.737 L2073.16 255.279 L2069.09 255.279 Q2066.8 255.279 2065.89 256.205 Q2065.01 257.131 2065.01 259.538 L2065.01 261.83 L2072.03 261.83 L2072.03 265.14 L2065.01 265.14 L2065.01 287.756 L2060.73 287.756 L2060.73 265.14 L2056.66 265.14 L2056.66 261.83 L2060.73 261.83 L2060.73 260.024 Q2060.73 255.696 2062.74 253.728 Q2064.76 251.737 2069.13 251.737 L2073.16 251.737 Z" fill="#000000" fill-rule="evenodd" fill-opacity="1" /><path clip-path="url(#clip670)" d="M2098.9 273.728 L2098.9 275.811 L2079.32 275.811 Q2079.6 280.209 2081.96 282.524 Q2084.34 284.816 2088.58 284.816 Q2091.03 284.816 2093.32 284.214 Q2095.64 283.612 2097.91 282.409 L2097.91 286.436 Q2095.61 287.408 2093.21 287.918 Q2090.8 288.427 2088.32 288.427 Q2082.12 288.427 2078.48 284.816 Q2074.87 281.205 2074.87 275.047 Q2074.87 268.682 2078.3 264.955 Q2081.75 261.205 2087.58 261.205 Q2092.81 261.205 2095.85 264.585 Q2098.9 267.941 2098.9 273.728 M2094.64 272.478 Q2094.6 268.983 2092.67 266.899 Q2090.78 264.816 2087.63 264.816 Q2084.06 264.816 2081.91 266.83 Q2079.78 268.844 2079.46 272.501 L2094.64 272.478 Z" fill="#000000" fill-rule="evenodd" fill-opacity="1" /><path clip-path="url(#clip670)" d="M2120.92 265.811 Q2120.2 265.395 2119.34 265.21 Q2118.51 265.001 2117.49 265.001 Q2113.88 265.001 2111.93 267.362 Q2110.01 269.7 2110.01 274.098 L2110.01 287.756 L2105.73 287.756 L2105.73 261.83 L2110.01 261.83 L2110.01 265.858 Q2111.36 263.497 2113.51 262.362 Q2115.66 261.205 2118.74 261.205 Q2119.18 261.205 2119.71 261.274 Q2120.24 261.321 2120.89 261.436 L2120.92 265.811 Z" fill="#000000" fill-rule="evenodd" fill-opacity="1" /><path clip-path="url(#clip670)" d="M2146.52 273.728 L2146.52 275.811 L2126.93 275.811 Q2127.21 280.209 2129.57 282.524 Q2131.96 284.816 2136.19 284.816 Q2138.65 284.816 2140.94 284.214 Q2143.25 283.612 2145.52 282.409 L2145.52 286.436 Q2143.23 287.408 2140.82 287.918 Q2138.42 288.427 2135.94 288.427 Q2129.73 288.427 2126.1 284.816 Q2122.49 281.205 2122.49 275.047 Q2122.49 268.682 2125.92 264.955 Q2129.36 261.205 2135.2 261.205 Q2140.43 261.205 2143.46 264.585 Q2146.52 267.941 2146.52 273.728 M2142.26 272.478 Q2142.21 268.983 2140.29 266.899 Q2138.39 264.816 2135.24 264.816 Q2131.68 264.816 2129.53 266.83 Q2127.4 268.844 2127.07 272.501 L2142.26 272.478 Z" fill="#000000" fill-rule="evenodd" fill-opacity="1" /><path clip-path="url(#clip670)" d="M2175.06 272.108 L2175.06 287.756 L2170.8 287.756 L2170.8 272.247 Q2170.8 268.566 2169.36 266.737 Q2167.93 264.909 2165.06 264.909 Q2161.61 264.909 2159.62 267.108 Q2157.63 269.307 2157.63 273.103 L2157.63 287.756 L2153.35 287.756 L2153.35 261.83 L2157.63 261.83 L2157.63 265.858 Q2159.16 263.52 2161.22 262.362 Q2163.3 261.205 2166.01 261.205 Q2170.48 261.205 2172.77 263.983 Q2175.06 266.737 2175.06 272.108 Z" fill="#000000" fill-rule="evenodd" fill-opacity="1" /><path clip-path="url(#clip670)" d="M2202.21 262.825 L2202.21 266.807 Q2200.41 265.811 2198.58 265.325 Q2196.77 264.816 2194.92 264.816 Q2190.78 264.816 2188.48 267.455 Q2186.19 270.071 2186.19 274.816 Q2186.19 279.561 2188.48 282.2 Q2190.78 284.816 2194.92 284.816 Q2196.77 284.816 2198.58 284.33 Q2200.41 283.821 2202.21 282.825 L2202.21 286.76 Q2200.43 287.594 2198.51 288.01 Q2196.61 288.427 2194.46 288.427 Q2188.6 288.427 2185.15 284.746 Q2181.7 281.066 2181.7 274.816 Q2181.7 268.473 2185.17 264.839 Q2188.67 261.205 2194.73 261.205 Q2196.7 261.205 2198.58 261.622 Q2200.45 262.015 2202.21 262.825 Z" fill="#000000" fill-rule="evenodd" fill-opacity="1" /><path clip-path="url(#clip670)" d="M2231.79 273.728 L2231.79 275.811 L2212.21 275.811 Q2212.49 280.209 2214.85 282.524 Q2217.23 284.816 2221.47 284.816 Q2223.92 284.816 2226.22 284.214 Q2228.53 283.612 2230.8 282.409 L2230.8 286.436 Q2228.51 287.408 2226.1 287.918 Q2223.69 288.427 2221.22 288.427 Q2215.01 288.427 2211.38 284.816 Q2207.77 281.205 2207.77 275.047 Q2207.77 268.682 2211.19 264.955 Q2214.64 261.205 2220.47 261.205 Q2225.71 261.205 2228.74 264.585 Q2231.79 267.941 2231.79 273.728 M2227.53 272.478 Q2227.49 268.983 2225.57 266.899 Q2223.67 264.816 2220.52 264.816 Q2216.96 264.816 2214.8 266.83 Q2212.67 268.844 2212.35 272.501 L2227.53 272.478 Z" fill="#000000" fill-rule="evenodd" fill-opacity="1" /></svg>
